<svg id="icons" height="512" viewBox="0 0 340 340" width="512" xmlns="http://www.w3.org/2000/svg" xmlns:xlink="http://www.w3.org/1999/xlink"><linearGradient id="linear-gradient" gradientUnits="userSpaceOnUse" x1="208.668" x2="181.583" y1="34.149" y2="75.392"><stop offset="0" stop-color="#776754"/><stop offset="1" stop-color="#4c4130"/></linearGradient><linearGradient id="linear-gradient-2" x1="205.165" x2="178.08" xlink:href="#linear-gradient" y1="31.848" y2="73.091"/><linearGradient id="linear-gradient-3" gradientUnits="userSpaceOnUse" x1="163.217" x2="215.007" y1="48.338" y2="100.495"><stop offset=".004" stop-color="#c1b291"/><stop offset="1" stop-color="#756749"/></linearGradient><linearGradient id="linear-gradient-4" x1="170" x2="170" xlink:href="#linear-gradient-3" y1="157.612" y2="321.416"/><linearGradient id="linear-gradient-5" x1="269.594" x2="269.594" xlink:href="#linear-gradient" y1="167.977" y2="319.25"/><linearGradient id="linear-gradient-6" x1="106.219" x2="106.219" xlink:href="#linear-gradient" y1="167.977" y2="319.25"/><linearGradient id="linear-gradient-7" x1="175.518" x2="175.518" xlink:href="#linear-gradient" y1="167.977" y2="319.25"/><linearGradient id="linear-gradient-8" x1="170" x2="170" xlink:href="#linear-gradient" y1="167.977" y2="319.25"/><linearGradient id="linear-gradient-9" x1="170" x2="170" xlink:href="#linear-gradient-3" y1="215.945" y2="307.563"/><linearGradient id="linear-gradient-11" x1="158.418" x2="158.418" xlink:href="#linear-gradient" y1="167.977" y2="319.25"/><linearGradient id="linear-gradient-12" x1="181.582" x2="181.582" xlink:href="#linear-gradient" y1="167.977" y2="319.25"/><linearGradient id="linear-gradient-15" x1="280.455" x2="280.455" xlink:href="#linear-gradient" y1="167.977" y2="319.25"/><linearGradient id="linear-gradient-16" x1="165.297" x2="165.297" xlink:href="#linear-gradient-3" y1="138.933" y2="274.934"/><linearGradient id="linear-gradient-17" x1="309.213" x2="309.213" xlink:href="#linear-gradient" y1="167.977" y2="319.25"/><linearGradient id="linear-gradient-18" x1="29.135" x2="29.135" xlink:href="#linear-gradient" y1="167.977" y2="319.25"/><linearGradient id="linear-gradient-19" gradientUnits="userSpaceOnUse" x1="94.684" x2="28.889" y1="287.818" y2="310.363"><stop offset="0" stop-color="#ffbf9f"/><stop offset="1" stop-color="#ea9e6a"/></linearGradient><linearGradient id="linear-gradient-20" x1="319.61" x2="229.429" xlink:href="#linear-gradient-19" y1="283.082" y2="313.909"/><path d="m199.509 48.892a3.5 3.5 0 0 1 -2.5-5.952l10.714-10.907a3.5 3.5 0 0 1 4.994 4.906l-10.711 10.906a3.489 3.489 0 0 1 -2.497 1.047z" fill="url(#linear-gradient)"/><path d="m165.457 68.316-4.806 42.809h19.827l-3.155-36.951z" fill="#34363a"/><circle cx="189.755" cy="55.313" fill="url(#linear-gradient-2)" r="16.873"/><path d="m196.15 136.653h-52.3l1.429-19.639a9.936 9.936 0 0 1 9.909-9.214h29.624a9.936 9.936 0 0 1 9.909 9.214z" fill="#34363a"/><path d="m157.433 28.488a46.11 46.11 0 0 0 62.209 58.09 2.751 2.751 0 0 0 .743-4.514l-58.491-54.645a2.755 2.755 0 0 0 -4.461 1.069z" fill="url(#linear-gradient-3)"/><path d="m307.771 275.711a137.771 137.771 0 0 0 -275.542 0l7.971 37.609h259.6z" fill="url(#linear-gradient-4)"/><path d="m231.418 313.32h68.382l7.973-37.609a137.725 137.725 0 0 0 -6.166-40.875c-24.041 30.037-55.007 34.029-55.007 34.029z" fill="url(#linear-gradient-5)"/><path d="m180.21 138.317q-5.058-.371-10.21-.377a137.771 137.771 0 0 0 -137.771 137.771l4.171 19.664h18.269c-2.741-42.983 1.431-134.151 125.541-157.058z" fill="url(#linear-gradient-6)"/><path d="m283.472 313.32-21.108-44.455h-15.764a7.811 7.811 0 0 0 -7.811 7.812v3.3h-136.589v-3.3a7.812 7.812 0 0 0 -7.812-7.812h-16.752l-10.072 44.455z" fill="url(#linear-gradient-7)"/><path d="m135.034 199.791h69.933a3.579 3.579 0 0 1 3.579 3.579v109.95a0 0 0 0 1 0 0h-77.09a0 0 0 0 1 0 0v-109.95a3.579 3.579 0 0 1 3.578-3.579z" fill="url(#linear-gradient-8)"/><path d="m193.118 299.07h-46.236v-34.87c1.8-5.341 1.992-10.464 0-15.287v-34.873h46.236v34.872c-1.208 5.457-1.411 10.614 0 15.287z" fill="url(#linear-gradient-9)"/><path d="m146.882 248.912h46.237v15.288h-46.237z" fill="url(#linear-gradient-8)"/><path d="m79.577 208.379h31.037v43.355h-31.037z" fill="#34363a"/><path d="m229.386 208.379h31.037v43.355h-31.037z" fill="#34363a" transform="matrix(-1 0 0 -1 489.809 460.112)"/><circle cx="158.418" cy="225.059" fill="url(#linear-gradient-11)" r="3.658"/><circle cx="181.582" cy="225.059" fill="url(#linear-gradient-12)" r="3.658"/><circle cx="158.418" cy="287.435" fill="url(#linear-gradient-11)" r="3.658"/><circle cx="181.582" cy="287.435" fill="url(#linear-gradient-12)" r="3.658"/><path d="m306.574 257.522a137.167 137.167 0 0 0 -30.441-69.656c-6.571-6.842-13.866-12.284-21.8-15.033 0 0 34.085 37.514 29.136 88.207z" fill="url(#linear-gradient-15)"/><path d="m310.908 221.131a150.826 150.826 0 0 0 -291.223 41.7c5.83 3.25 14.834-.1 19.378-7.865a132.468 132.468 0 0 1 258.576-15.466c7.63-3.021 12.901-8.325 13.269-18.369z" fill="url(#linear-gradient-16)"/><path d="m302.435 274.947v38.373h18.359v-38.373a150.414 150.414 0 0 0 -9.9-53.812 105.042 105.042 0 0 1 -13.267 18.37 132.542 132.542 0 0 1 4.808 35.442z" fill="url(#linear-gradient-17)"/><path d="m19.206 274.947v38.373h18.359v-38.373a133.5 133.5 0 0 1 1.5-19.982c-4.61 3.363-11.558 7.289-19.374 7.865q-.477 5.996-.485 12.117z" fill="url(#linear-gradient-18)"/><path d="m110.82 291.092h-30.513a.374.374 0 0 1 -.144-.719c3.243-1.277 5.517-3.753 5.517-7.324v-6.141a8.043 8.043 0 0 0 -8.044-8.043h-13.636c-14.709.762-24.873 5.729-22.574 22.227-8.142 19.4 1.117 21.7 12.183 22.228h57.211a8.043 8.043 0 0 0 8.043-8.044v-6.14a8.044 8.044 0 0 0 -8.043-8.044z" fill="url(#linear-gradient-19)"/><path d="m66.648 286.207h-12.8v-7.189a10.148 10.148 0 0 1 10.152-10.148h-24.7a8.043 8.043 0 0 0 -8.044 8.043v6.141a7.782 7.782 0 0 0 4.9 7.206.436.436 0 0 1 -.176.837h-17.937a8.044 8.044 0 0 0 -8.043 8.039v6.14a8.043 8.043 0 0 0 8.043 8.044h35.562c-7.052-.731-11.48-5.811-11.48-10.906a11.185 11.185 0 0 1 11.111-11.322h13.551a2.443 2.443 0 0 0 2.43-2.694 2.539 2.539 0 0 0 -2.569-2.191z" fill="#b2633b"/><path d="m321.957 291.092h-18.493a.325.325 0 0 1 -.109-.632 7.809 7.809 0 0 0 5.4-7.411v-6.141a8.043 8.043 0 0 0 -8.044-8.043h-15.83l-18.13.788-.857 21.439-14.225 21.308 22.818.915h47.47a8.043 8.043 0 0 0 8.043-8.039v-6.14a8.044 8.044 0 0 0 -8.043-8.044z" fill="url(#linear-gradient-20)"/><path d="m274.118 291.092h13.411a2.539 2.539 0 0 0 2.57-2.19 2.444 2.444 0 0 0 -2.43-2.695h-12.939v-7.189c0-5.6 4.588-9.228 10.148-10.148h-22.514a8.043 8.043 0 0 0 -8.044 8.043v6.141c0 3.691 2.428 6.313 5.845 7.5a.278.278 0 0 1 -.085.543h-30.9a8.044 8.044 0 0 0 -8.043 8.044v6.14a8.043 8.043 0 0 0 8.043 8.044h45.307c-6.2-.828-11.369-4.787-11.48-10.906a11.113 11.113 0 0 1 11.111-11.327z" fill="#b2633b"/></svg>