<svg height="511pt" viewBox="-4 0 511 511.99977" width="511pt" xmlns="http://www.w3.org/2000/svg" xmlns:xlink="http://www.w3.org/1999/xlink"><linearGradient id="a" gradientTransform="matrix(.897606 .449556 -.449556 .897606 -44.256153 -383.352367)" gradientUnits="userSpaceOnUse" x1="694.1549" x2="761.6598" y1="455.9083" y2="455.9083"><stop offset="0" stop-color="#ecf7ff"/><stop offset="1" stop-color="#c2e0ff"/></linearGradient><linearGradient id="b"><stop offset=".0029" stop-color="#c2e0ff" stop-opacity="0"/><stop offset=".0763" stop-color="#bfdcfd" stop-opacity=".07451"/><stop offset="1" stop-color="#9eb2e7"/></linearGradient><linearGradient id="c" gradientUnits="userSpaceOnUse" x1="173.8311264082" x2="96.449220217" xlink:href="#b" y1="360.7554585808" y2="283.3734519974"/><linearGradient id="d" gradientTransform="matrix(.897606 .449556 -.449556 .897606 -44.256153 -383.352367)" gradientUnits="userSpaceOnUse" x1="474.492" x2="531.2042" xlink:href="#b" y1="499.4101" y2="499.4101"/><linearGradient id="e"><stop offset="0" stop-color="#ff706a"/><stop offset=".8111" stop-color="#f64640"/><stop offset="1" stop-color="#f43b36"/></linearGradient><linearGradient id="f" gradientTransform="matrix(.897606 .449556 -.449556 .897606 -44.256153 -383.352367)" gradientUnits="userSpaceOnUse" x1="644.1207" x2="739.0366" xlink:href="#e" y1="274.377" y2="274.377"/><linearGradient id="g" gradientTransform="matrix(.897606 .449556 -.449556 .897606 -44.256153 -383.352367)" gradientUnits="userSpaceOnUse" x1="644.1381" x2="739.0573" xlink:href="#e" y1="486.922" y2="486.922"/><linearGradient id="h" gradientTransform="matrix(.897606 .449556 -.449556 .897606 -44.256153 -383.352367)" gradientUnits="userSpaceOnUse" x1="644.1257" x2="739.044" xlink:href="#e" y1="268.5007" y2="268.5007"/><linearGradient id="i" gradientTransform="matrix(.897606 .449556 -.449556 .897606 -44.256153 -383.352367)" gradientUnits="userSpaceOnUse" x1="644.1465" x2="739.0653" xlink:href="#e" y1="660.9993" y2="660.9993"/><linearGradient id="j"><stop offset="0" stop-color="#f43b36" stop-opacity="0"/><stop offset=".436" stop-color="#d02021" stop-opacity=".435294"/><stop offset="1" stop-color="#a60108"/></linearGradient><linearGradient id="k" gradientUnits="userSpaceOnUse" x1="149.2000005304" x2="95.9746662876" xlink:href="#j" y1="406.4689464586" y2="353.243712608"/><linearGradient id="l" gradientTransform="matrix(.897606 .449556 -.449556 .897606 -44.256153 -383.352367)" gradientUnits="userSpaceOnUse" x1="644.1342" x2="739.0492" xlink:href="#e" y1="366.3959" y2="366.3959"/><linearGradient id="m" gradientUnits="userSpaceOnUse" x1="230.0815788136" x2="151.8643091262" xlink:href="#j" y1="190.5598591754" y2="112.342589488"/><radialGradient id="n" cx="530.7009" cy="317.8717" gradientTransform="matrix(.897606 .449556 -.449556 .897606 -44.256153 -383.352367)" gradientUnits="userSpaceOnUse" r="67.9135"><stop offset="0" stop-color="#a60108"/><stop offset=".564" stop-color="#d02021" stop-opacity=".435294"/><stop offset="1" stop-color="#f43b36" stop-opacity="0"/></radialGradient><linearGradient id="o" gradientUnits="userSpaceOnUse" x1="178.8362799314" x2="218.9932603236" xlink:href="#j" y1="253.3694359678" y2="262.4047339678"/><linearGradient id="p" gradientUnits="userSpaceOnUse" x1="97.8156584512" x2="127.9331176668" xlink:href="#j" y1="413.6112491354" y2="426.6622351354"/><linearGradient id="q"><stop offset="0" stop-color="#d3e843"/><stop offset=".6244" stop-color="#a9c93c"/><stop offset="1" stop-color="#8db437"/></linearGradient><linearGradient id="r" gradientTransform="matrix(.709873 .709873 .709873 -.709873 2127.106131 -3583.662278)" gradientUnits="userSpaceOnUse" x1="1203.437" x2="1375.3362" xlink:href="#q" y1="-4172.6602" y2="-4172.6602"/><linearGradient id="s"><stop offset="0" stop-color="#bdd937"/><stop offset=".3297" stop-color="#d6e783"/><stop offset=".6506" stop-color="#ecf4c6"/><stop offset=".8816" stop-color="#fafcef"/><stop offset="1" stop-color="#fff"/></linearGradient><linearGradient id="t" gradientTransform="matrix(.709873 .709873 .709873 -.709873 1669.575 -3427.403191)" gradientUnits="userSpaceOnUse" x1="1482.7769" x2="1384.3119" xlink:href="#s" y1="-3740.3357" y2="-3740.3357"/><linearGradient id="u"><stop offset=".0029" stop-color="#8db437" stop-opacity="0"/><stop offset=".4813" stop-color="#698927" stop-opacity=".478431"/><stop offset="1" stop-color="#455f18"/></linearGradient><linearGradient id="v" gradientTransform="matrix(.709873 .709873 .709873 -.709873 2127.106131 -3583.662278)" gradientUnits="userSpaceOnUse" x1="1325.2188" x2="1243.3019" xlink:href="#u" y1="-4172.6602" y2="-4172.6602"/><linearGradient id="w"><stop offset="0" stop-color="#8db437"/><stop offset=".4798" stop-color="#698927"/><stop offset="1" stop-color="#455f18"/></linearGradient><linearGradient id="x" gradientTransform="matrix(.709873 .709873 .709873 -.709873 2127.106131 -3583.662278)" gradientUnits="userSpaceOnUse" x1="1274.3785" x2="1333.8363" xlink:href="#w" y1="-4165.1079" y2="-4143.0576"/><linearGradient id="y" gradientTransform="matrix(-.709873 .709873 -.709873 -.709873 767.746532 -3583.662278)" gradientUnits="userSpaceOnUse" x1="2996.53" x2="3168.429" xlink:href="#q" y1="-2379.5674" y2="-2379.5674"/><linearGradient id="z" gradientTransform="matrix(-.709873 .709873 -.709873 -.709873 1225.277864 -3427.403191)" gradientUnits="userSpaceOnUse" x1="3275.8699" x2="3177.4048" xlink:href="#s" y1="-1947.2429" y2="-1947.2429"/><linearGradient id="A" gradientTransform="matrix(-.709873 .709873 -.709873 -.709873 767.746532 -3583.662278)" gradientUnits="userSpaceOnUse" x1="3118.3115" x2="3036.3948" xlink:href="#u" y1="-2379.5674" y2="-2379.5674"/><linearGradient id="B" gradientTransform="matrix(-.709873 .709873 -.709873 -.709873 767.746532 -3583.662278)" gradientUnits="userSpaceOnUse" x1="3067.4714" x2="3126.9292" xlink:href="#w" y1="-2372.0151" y2="-2349.9646"/><linearGradient id="C" gradientUnits="userSpaceOnUse" x1="88.2723838334" x2="260.843865044" xlink:href="#q" y1="123.949648573" y2="123.949648573"/><linearGradient id="D" gradientUnits="userSpaceOnUse" x1="155.673590763" x2="56.8231137784" xlink:href="#s" y1="123.9497348676" y2="123.9497348676"/><linearGradient id="E" gradientUnits="userSpaceOnUse" x1="210.5304065622" x2="128.2932324024" xlink:href="#u" y1="123.9497489652" y2="123.9497489652"/><linearGradient id="F" gradientUnits="userSpaceOnUse" x1="159.491413651" x2="219.1813028284" xlink:href="#w" y1="131.531769478" y2="153.6683499702"/><linearGradient id="G" gradientUnits="userSpaceOnUse" x1="291.8043096488" x2="116.3483597478" xlink:href="#u" y1="361.1801175868" y2="185.724268078"/><linearGradient id="H" gradientUnits="userSpaceOnUse" x1="235.730848692" x2="162.262330849" xlink:href="#u" y1="245.2989070098" y2="171.8303891668"/><radialGradient id="I" cx="182.20072373" cy="220.823389042" gradientUnits="userSpaceOnUse" r="61.7489331994"><stop offset="0" stop-color="#ff706a"/><stop offset=".3179" stop-color="#fe6d67"/><stop offset=".5652" stop-color="#fc635d"/><stop offset=".7877" stop-color="#f9534d"/><stop offset=".9958" stop-color="#f43c37"/><stop offset="1" stop-color="#f43b36"/></radialGradient><linearGradient id="J" gradientUnits="userSpaceOnUse" x1="212.2433907566" x2="184.2641850088" xlink:href="#j" y1="256.0049320022" y2="228.0258266466"/><radialGradient id="K" cx="123.4330373018" cy="214.6302946162" gradientUnits="userSpaceOnUse" r="61.7489331994"><stop offset="0" stop-color="#ff706a"/><stop offset=".323" stop-color="#fe6d67"/><stop offset=".568" stop-color="#fc635e"/><stop offset=".7864" stop-color="#f9534e"/><stop offset=".9896" stop-color="#f43c37"/><stop offset="1" stop-color="#f43b36"/></radialGradient><linearGradient id="L"><stop offset="0" stop-color="#f43b36"/><stop offset=".3909" stop-color="#f43d38"/><stop offset=".5317" stop-color="#f4433f"/><stop offset=".6321" stop-color="#f54f4a"/><stop offset=".7133" stop-color="#f65f5b"/><stop offset=".7829" stop-color="#f77571"/><stop offset=".8444" stop-color="#f98f8d"/><stop offset=".9002" stop-color="#fbafad"/><stop offset=".9501" stop-color="#fdd3d2"/><stop offset=".9958" stop-color="#fffbfb"/><stop offset="1" stop-color="#fff"/></linearGradient><radialGradient id="M" cx="151.3309253676" cy="259.380519335" gradientUnits="userSpaceOnUse" r="58.6469146116" xlink:href="#L"/><linearGradient id="N" gradientUnits="userSpaceOnUse" x1="216.9246790426" x2="131.6173106224" xlink:href="#j" y1="245.262364249" y2="159.9549958288"/><radialGradient id="O" cx="163.2263971456" cy="170.6204623724" gradientUnits="userSpaceOnUse" r="55.980698564"><stop offset="0" stop-color="#ff706a"/><stop offset=".3105" stop-color="#fe6d67"/><stop offset=".5612" stop-color="#fc635d"/><stop offset=".7903" stop-color="#f9524c"/><stop offset="1" stop-color="#f43b36"/></radialGradient><radialGradient id="P" cx="185.8042013568" cy="206.3506487056" gradientUnits="userSpaceOnUse" r="61.9481113242" xlink:href="#L"/><path d="m32.605469 507.367188c21.5625 10.796874 47.800781 2.070312 58.601562-19.492188l179.144531-357.738281c19.140626-38.226563 65.808594-53.75 104.03125-34.609375 38.226563 19.140625 53.75 65.8125 34.609376 104.035156l-16.136719 32.21875c-10.796875 21.5625-2.070313 47.800781 19.496093 58.601562 21.5625 10.796876 47.800782 2.070313 58.597657-19.496093l16.136719-32.214844c40.703124-81.285156 7.691406-180.53125-73.59375-221.238281-81.285157-40.703125-180.53125-7.691406-221.234376 73.59375l-179.148437 357.738281c-10.796875 21.566406-2.070313 47.800781 19.496094 58.601563zm0 0" fill="url(#a)"/><path d="m57.265625 360.589844 65.085937 65.085937 77.679688-155.121093h-97.675781zm0 0" fill="url(#c)"/><path d="m351.769531 88.269531c-32.460937-5.109375-65.9375 10.957031-81.414062 41.863281l-179.148438 357.742188c-10.800781 21.5625-37.039062 30.292969-58.601562 19.492188-7.730469-3.871094-13.800781-9.71875-17.925781-16.621094 14.328124-1.503906 27.621093-10.046875 34.550781-23.890625l179.148437-357.742188c19.140625-38.214843 65.804688-53.75 104.03125-34.605469 7.3125 3.660157 13.796875 8.335938 19.359375 13.761719zm0 0" fill="url(#d)"/><path d="m466.085938 59.019531-99.542969 33.105469c-33.914063-12.5625-72.320313.21875-91.945313 30.585938l-117.839844 39.207031 35.5-70.890625c1.722657-3.4375 3.546876-6.785156 5.46875-10.046875l205.367188-68.3125c3.496094 1.457031 6.960938 3.046875 10.398438 4.765625 20.851562 10.441406 38.519531 24.734375 52.59375 41.585937zm0 0" fill="url(#f)"/><path d="m233.75 203.230469-40.441406 80.757812-117.203125 38.988281 40.441406-80.757812zm0 0" fill="url(#g)"/><path d="m401.371094 214.777344 7.621094-15.21875c9.085937-18.144532 10.363281-38.203125 5.085937-56.3125l82.863281-27.566406c6.527344 20.828124 8.949219 42.945312 6.832032 65.035156zm0 0" fill="url(#h)"/><path d="m153.089844 364.300781-40.4375 80.75-102.769532 34.183594c-2.550781-9.859375-1.6875-20.648437 3.230469-30.46875l22.777344-45.480469zm0 0" fill="url(#i)"/><path d="m57.265625 360.589844 65.085937 65.085937 77.679688-155.121093h-97.675781zm0 0" fill="url(#c)"/><path d="m122.351562 425.675781 30.738282-61.375-69.121094 22.992188zm0 0" fill="url(#k)"/><path d="m478.359375 256.09375-7.410156 14.796875c-10.796875 21.5625-37.039063 30.292969-58.601563 19.496094-4.441406-2.226563-8.34375-5.109375-11.632812-8.464844zm0 0" fill="url(#l)"/><path d="m192.257812 91.027344-61.96875 123.746094 65.085938 65.085937 74.976562-149.722656c2.519532-5.03125 5.523438-9.65625 8.914063-13.871094l-49.136719-49.136719c-.433594-1.324218-1.660156-2.351562-3.257812-2.347656-.046875 0-.089844 0-.132813 0-5.628906 0-11.046875-.898438-16.136719-2.523438-6.964843 8.765626-13.136718 18.367188-18.34375 28.769532zm0 0" fill="url(#m)"/><path d="m351.761719 88.261719c-1.023438-.15625-2.027344-.292969-3.042969-.410157-1.015625-.117187-2.027344-.21875-3.042969-.289062-.5-.046875-1.007812-.078125-1.523437-.105469-1.515625-.085937-3.046875-.132812-4.5625-.125-.515625 0-1.015625.003907-1.523438.019531-.503906.003907-1.011718.019532-1.515625.046876-.507812.015624-1.011719.042968-1.519531.082031-.5.03125-1.003906.058593-1.507812.113281-.503907.027344-1.003907.082031-1.507813.132812-.5.046876-1 .097657-1.5.167969-2.007813.226563-4 .546875-5.964844.941407-.984375.207031-1.953125.414062-2.929687.660156-.496094.105468-.972656.230468-1.464844.363281-.359375.078125-.714844.179687-1.070312.28125-1.105469.304687-2.183594.628906-3.261719.980469-.464844.148437-.917969.296875-1.367188.464844-1.929687.65625-3.820312 1.382812-5.667969 2.191406-.460937.195312-.929687.398437-1.378906.613281-5.03125 2.292969-9.824218 5.132813-14.277344 8.46875-.40625.296875-.808593.609375-1.207031.921875-.394531.304688-.785156.621094-1.175781.9375-.015625.003906-.019531.015625-.035156.019531-.390625.316407-.773438.640625-1.152344.960938-.421875.351562-.824219.695312-1.226562 1.058593-.699219.613282-1.390626 1.242188-2.070313 1.894532-.539063.511718-1.074219 1.023437-1.597656 1.554687-.542969.546875-1.074219 1.097657-1.601563 1.664063-1.128906 1.207031-2.226562 2.449218-3.289062 3.738281-.3125.378906-.613282.765625-.917969 1.152344-.191406.234375-.367187.464843-.546875.703125-.277344.359375-.558594.71875-.832031 1.097656-.332031.441406-.667969.898438-.980469 1.351562-.328125.457032-.65625.917969-.964844 1.386719-.25.351563-.484375.71875-.722656 1.078125-.066406.109375-.148438.21875-.214844.332032l-63.632812 21.171874 17.414062-34.769531c19.140625-38.21875 65.804688-53.75 104.03125-34.605469 7.3125 3.660157 13.789063 8.332032 19.351563 13.753907zm0 0" fill="url(#n)"/><path d="m233.75 203.230469-40.441406 80.757812-62.996094 20.957031 40.441406-80.761718zm0 0" fill="url(#o)"/><path d="m153.089844 364.300781-40.4375 80.75-62.996094 20.953125 40.4375-80.75zm0 0" fill="url(#p)"/><path d="m155.042969 337.796875c-19.695313-9.445313-44.027344-6.007813-60.351563 10.316406-6.609375 6.609375-11.105468 14.535157-13.488281 22.933594-.71875 2.53125-3.847656 3.347656-5.703125 1.480469-.03125-.03125-.0625-.0625-.09375-.09375-16.273438-16.273438-40.503906-19.746094-60.167969-10.410156-2.0625.976562-4.195312-1.152344-3.214843-3.21875 9.332031-19.660157 5.863281-43.894532-10.410157-60.164063-.03125-.03125-.0625-.066406-.09375-.097656-1.867187-1.855469-1.050781-4.984375 1.480469-5.703125 8.398438-2.382813 16.320312-6.878906 22.929688-13.488282 16.324218-16.324218 19.765624-40.65625 10.320312-60.351562-1.257812-2.628906 1.109375-5.507812 3.929688-4.753906 17.664062 4.710937 37.300781.140625 51.15625-13.71875.542968-.539063 1.066406-1.085938 1.578124-1.644532 1.535157-1.671874 4.203126-1.410156 5.402344.519532 2.101563 3.378906 4.621094 6.574218 7.554688 9.511718 10.679687 10.675782 24.789062 15.84375 38.78125 15.496094 2.769531-.070312 5.050781 2.210938 4.980468 4.984375-.347656 13.988281 4.820313 28.097657 15.496094 38.777344 2.9375 2.9375 6.132813 5.457031 9.515625 7.558594 1.925781 1.195312 2.1875 3.867187.515625 5.398437-.554687.511719-1.105468 1.035156-1.644531 1.574219-13.859375 13.859375-18.429687 33.496094-13.71875 51.160156.753906 2.824219-2.125 5.191407-4.753906 3.933594zm0 0" fill="url(#r)"/><path d="m17.824219 356.21875c-.558594-.554688-.765625-1.464844-.289063-2.390625 9.042969-17.671875 7.039063-38.804687-6.550781-52.390625-.023437-.027344-.050781-.054688-.078125-.078125-1.558594-1.550781-.707031-4.332031 1.546875-5.074219 7.480469-2.457031 14.632813-6.746094 20.722656-12.835937 15.039063-15.042969 19.109375-36.558594 11.667969-53.449219-.996094-2.253906 1.210938-4.882812 3.652344-4.34375 15.3125 3.375 32.753906-1.488281 45.523437-14.257812.496094-.496094.980469-1 1.453125-1.511719 1.421875-1.53125 3.753906-1.417969 4.722656.222656 1.699219 2.878906 3.773438 5.574219 6.226563 8.027344 8.917969 8.917969 21.085937 12.847656 33.386719 11.9375 1.21875-.089844 2.304687.339843 3.0625 1.097656zm0 0" fill="url(#t)"/><path d="m164.273438 295.148438c-.171876.320312-.339844.640624-.503907.964843-.300781.585938-.585937 1.175781-.859375 1.769531-.273437.585938-.535156 1.175782-.78125 1.769532-.21875.519531-.429687 1.042968-.628906 1.570312-.285156.742188-.558594 1.492188-.804688 2.246094-.015624.03125-.023437.066406-.035156.097656-.988281 2.996094-1.691406 6.066406-2.128906 9.167969-.210938 1.511719-.363281 3.023437-.445312 4.542969-.050782 1.003906-.082032 2.003906-.078126 3.007812 0 .027344-.003906.058594 0 .085938v.136718c.03125 4.496094.625 8.988282 1.792969 13.359376.671875 2.523437-1.566406 4.679687-3.933593 4.195312-.273438-.054688-.546876-.140625-.820313-.269531-9.234375-4.425781-19.484375-6.023438-29.453125-4.785157h-.003906c-1.328125.164063-2.648438.378907-3.964844.644532-.058594.011718-.113281.023437-.171875.039062-9.148437 1.875-17.894531 6.183594-25.203125 12.929688-.527344.484375-1.042969.984375-1.554688 1.492187-.828124.828125-1.621093 1.671875-2.378906 2.539063-.761718.867187-1.488281 1.75-2.183594 2.652344-.34375.449218-.683593.90625-1.015624 1.367187-2.3125 3.214844-4.222657 6.628906-5.726563 10.175781-.214844.507813-.421875 1.015625-.621094 1.527344-.398437 1.027344-.761719 2.058594-1.089843 3.101562-.167969.519532-.324219 1.042969-.472657 1.570313-.089843.316406-.21875.605469-.375.867187-.082031.128907-.164062.253907-.261719.367188-.09375.117188-.191406.226562-.296874.328125-.730469.691406-1.734376 1.023437-2.722657.914063-.230469-.027344-.457031-.078126-.683593-.152344-.117188-.039063-.234376-.085938-.351563-.136719-.359375-.167969-.703125-.398437-1.011719-.707031-.03125-.03125-.0625-.0625-.09375-.09375-.546875-.546875-1.105468-1.074219-1.667968-1.59375-.183594-.167969-.371094-.332032-.5625-.5-.382813-.339844-.765626-.679688-1.15625-1.007813-.222657-.1875-.449219-.371093-.675782-.554687-.363281-.292969-.726562-.585938-1.09375-.867188-.242187-.1875-.484375-.371094-.730468-.554687-.359376-.269531-.726563-.53125-1.089844-.789063-.25-.175781-.5-.351562-.753906-.523437-.375-.253907-.753907-.503907-1.128907-.746094-.25-.160156-.496093-.320313-.746093-.472656-.40625-.253907-.816407-.492188-1.226563-.730469-.226563-.132812-.453125-.269531-.679687-.398438-.511719-.285156-1.023438-.558593-1.539063-.828124-.132813-.070313-.265625-.144532-.402344-.214844-.652343-.332032-1.3125-.648438-1.972656-.949219-.183594-.082031-.367187-.160156-.550781-.242187-.484375-.210938-.96875-.421876-1.457032-.621094-.25-.101563-.503906-.199219-.753906-.296875-.425781-.164063-.851562-.328125-1.28125-.484375-.273437-.097656-.546875-.191406-.824218-.285156-.414063-.140626-.828126-.277344-1.242188-.410157-.285156-.085937-.566406-.175781-.847656-.257812-.417969-.121094-.839844-.242188-1.257813-.355469-.28125-.074219-.558593-.148438-.839843-.21875-.4375-.113281-.878907-.210938-1.316407-.3125-.265625-.058594-.527343-.121094-.792969-.175781-.496093-.101563-.996093-.195313-1.496093-.285157-.207031-.035156-.414063-.078124-.621094-.113281-.707031-.117187-1.414063-.222656-2.125-.3125-.121094-.015625-.238281-.023437-.359375-.039062-.589844-.070313-1.1875-.132813-1.777344-.179688-.25-.023437-.5-.035156-.746094-.054687-.46875-.03125-.933593-.0625-1.398437-.082032-.28125-.011718-.566406-.019531-.847656-.027343-.4375-.011719-.871094-.019531-1.308594-.019531-.292969-.003907-.585937 0-.878906.003906-.429688.003906-.859375.015625-1.289063.03125-.292968.011718-.582031.023437-.875.039062-.4375.023438-.875.054688-1.3125.089844-.28125.019531-.558594.039062-.835937.066406-.472657.042969-.945313.101563-1.417969.15625-.238281.03125-.480469.054688-.71875.085938-.65625.089844-1.304688.191406-1.957031.300781-.054688.011719-.113281.019531-.167969.027344-.707031.128906-1.410156.269531-2.113281.421875-.222657.046875-.441407.105468-.664063.15625-.480468.113281-.957031.226562-1.433594.351562-.269531.070313-.53125.144532-.800781.21875-.429687.121094-.859375.242188-1.285156.375-.28125.085938-.558594.175782-.835937.265625-.414063.136719-.824219.273438-1.238282.417969-.277344.097656-.558594.199219-.835937.304688-.410157.152343-.820313.3125-1.230469.476562-.269531.105469-.535156.210938-.804688.324219-.425781.179687-.851562.371093-1.277343.5625-.242188.109375-.484375.214843-.726563.324219-.0625.035156-.132812.0625-.199218.09375-1.03125.488281-2.078126.203124-2.75-.464844l135.71875-135.71875c.910156.90625 1.460937 2.171875 1.425781 3.554687v.160157c-.015625.761718-.015625 1.519531 0 2.277343.003906.136719.007812.273438.011719.410157.019531.765624.054687 1.535156.113281 2.300781.003906.097656.015625.199219.023437.296875.058594.789062.132813 1.574218.230469 2.355468.003906.023438.003906.050782.007813.078126.101562.789062.21875 1.578124.355468 2.363281.015625.113281.035156.226562.054688.34375.132812.75.285156 1.5.449218 2.25.03125.136719.0625.269531.09375.40625.171876.746093.359376 1.488281.5625 2.226562.03125.117188.066407.234375.097657.351563.21875.765625.449219 1.527344.703125 2.289062.011718.035156.023437.066406.035156.101563.253906.753906.523438 1.5.808594 2.238281.035156.089844.066406.175781.101562.265625.285156.726563.589844 1.449219.910156 2.164063.054688.125.113282.25.167969.378906.320313.703125.65625 1.398437 1.007813 2.089844.0625.121093.125.242187.1875.363281.367187.707031.746094 1.402343 1.144531 2.097656.042969.070313.082031.140625.125.210937.402344.691407.824219 1.375 1.261719 2.050782.035156.050781.0625.101562.097656.148437.441406.683594.90625 1.351563 1.386719 2.015625.074219.109375.152343.214844.230469.324219.46875.640625.953124 1.273437 1.457031 1.894531.089843.117188.183593.230469.273437.339844.511719.628906 1.039063 1.246094 1.582032 1.851562.078124.085938.15625.171876.234374.253907.578126.636719 1.167969 1.265625 1.78125 1.878906.886719.890625 1.808594 1.726563 2.738282 2.539063.863281.75 1.746094 1.460937 2.644531 2.148437 1.34375 1.023437 2.71875 1.992187 4.132813 2.871094.121093.078125.234374.15625.339843.242187 1.609375 1.285156 1.742188 3.722656.175781 5.160156-.554687.511719-1.105468 1.035157-1.644531 1.578126-2.164062 2.164062-4.101562 4.46875-5.816406 6.886718-.417969.59375-.816406 1.195313-1.210937 1.796875-.796876 1.226563-1.535157 2.476563-2.21875 3.753907zm0 0" fill="url(#v)"/><path d="m34.316406 339.730469s.476563-.390625 1.371094-1.117188c.878906-.738281 2.199219-1.800781 3.824219-3.199219 1.636719-1.394531 3.632812-3.070312 5.871093-5.046874 2.25-1.964844 4.789063-4.183594 7.503907-6.65625 2.734375-2.457032 5.691406-5.117188 8.777343-7.976563 3.085938-2.859375 6.328126-5.886719 9.652344-9.050781 3.324219-3.160156 6.742188-6.441406 10.1875-9.808594 3.453125-3.355469 6.917969-6.808594 10.390625-10.253906 3.445313-3.472656 6.902344-6.933594 10.257813-10.390625 3.371094-3.4375 6.648437-6.863281 9.8125-10.183594 3.160156-3.324219 6.191406-6.566406 9.050781-9.652344 2.859375-3.082031 5.523437-6.039062 7.976563-8.777343 2.472656-2.714844 4.691406-5.253907 6.652343-7.507813 1.976563-2.238281 3.65625-4.234375 5.046875-5.867187 1.398438-1.628907 2.457032-2.949219 3.199219-3.832032.726563-.894531 1.113281-1.371094 1.113281-1.371094s-.476562.390626-1.371094 1.117188c-.882812.738281-2.203124 1.796875-3.832031 3.195312-1.632812 1.390626-3.628906 3.070313-5.867187 5.046876-2.253906 1.964843-4.792969 4.183593-7.507813 6.652343-2.738281 2.453125-5.691406 5.117188-8.777343 7.976563-3.089844 2.859375-6.328126 5.890625-9.652344 9.050781-3.320313 3.164063-6.746094 6.441406-10.183594 9.816406-3.453125 3.351563-6.917969 6.808594-10.390625 10.253907-3.445313 3.472656-6.898437 6.9375-10.253906 10.394531-3.367188 3.441406-6.648438 6.859375-9.808594 10.183593-3.164063 3.324219-6.191406 6.566407-9.050781 9.652344-2.859375 3.082032-5.519532 6.042969-7.976563 8.777344-2.472656 2.714844-4.6875 5.253906-6.652343 7.507812-1.980469 2.234376-3.660157 4.230469-5.050782 5.867188-1.402344 1.625-2.457031 2.945312-3.199218 3.824219-.726563.898437-1.113282 1.375-1.113282 1.375zm0 0" fill="url(#x)"/><path d="m194.074219 337.796875c19.695312-9.445313 44.027343-6.007813 60.351562 10.316406 6.609375 6.609375 11.105469 14.535157 13.488281 22.933594.71875 2.53125 3.847657 3.347656 5.703126 1.480469l.09375-.09375c16.273437-16.273438 40.503906-19.746094 60.167968-10.410156 2.0625.976562 4.195313-1.152344 3.214844-3.21875-9.332031-19.660157-5.863281-43.894532 10.410156-60.164063.03125-.03125.0625-.066406.09375-.097656 1.867188-1.855469 1.050782-4.984375-1.480468-5.703125-8.398438-2.382813-16.320313-6.878906-22.929688-13.488282-16.324219-16.324218-19.761719-40.65625-10.320312-60.351562 1.261718-2.628906-1.109376-5.507812-3.925782-4.753906-17.667968 4.710937-37.304687.140625-51.160156-13.71875-.542969-.539063-1.066406-1.085938-1.578125-1.644532-1.535156-1.671874-4.203125-1.410156-5.402344.519532-2.097656 3.378906-4.621093 6.574218-7.554687 9.511718-10.679688 10.675782-24.789063 15.84375-38.78125 15.496094-2.769532-.070312-5.050782 2.210938-4.980469 4.984375.347656 13.988281-4.820313 28.097657-15.496094 38.777344-2.9375 2.9375-6.132812 5.457031-9.515625 7.558594-1.925781 1.195312-2.1875 3.867187-.515625 5.398437.554688.511719 1.105469 1.035156 1.644531 1.574219 13.859376 13.859375 18.429688 33.496094 13.71875 51.160156-.753906 2.824219 2.125 5.191407 4.753907 3.933594zm0 0" fill="url(#y)"/><path d="m331.292969 356.21875c.554687-.554688.765625-1.464844.289062-2.390625-9.042969-17.671875-7.042969-38.804687 6.546875-52.390625.027344-.027344.054688-.054688.078125-.078125 1.558594-1.550781.707031-4.332031-1.546875-5.074219-7.476562-2.457031-14.628906-6.746094-20.71875-12.835937-15.042968-15.042969-19.113281-36.558594-11.667968-53.449219.992187-2.253906-1.210938-4.882812-3.65625-4.34375-15.308594 3.375-32.753907-1.488281-45.519532-14.257812-.5-.496094-.984375-1-1.457031-1.511719-1.417969-1.53125-3.75-1.417969-4.71875.222656-1.703125 2.878906-3.777344 5.574219-6.230469 8.027344-8.914062 8.917969-21.082031 12.847656-33.386718 11.9375-1.21875-.089844-2.300782.339843-3.058594 1.097656zm0 0" fill="url(#z)"/><path d="m184.84375 295.148438c.171875.320312.339844.640624.503906.964843.296875.585938.585938 1.175781.859375 1.769531.273438.585938.535157 1.175782.78125 1.769532.21875.519531.429688 1.042968.628907 1.570312.285156.742188.558593 1.492188.804687 2.246094.011719.03125.023437.066406.035156.097656.984375 2.996094 1.691407 6.066406 2.128907 9.167969.210937 1.511719.359374 3.023437.441406 4.542969.054687 1.003906.085937 2.003906.082031 3.007812 0 .027344.003906.058594.003906.085938 0 .042968-.003906.089844-.003906.136718-.027344 4.496094-.625 8.988282-1.789063 13.359376-.675781 2.523437 1.5625 4.679687 3.929688 4.195312.273438-.054688.550781-.140625.820312-.269531 9.234376-4.425781 19.484376-6.023438 29.453126-4.785157h.003906c1.328125.164063 2.648437.378907 3.964844.644532.058593.011718.117187.023437.171874.039062 9.148438 1.875 17.898438 6.183594 25.207032 12.929688.523437.484375 1.042968.984375 1.554687 1.492187.824219.828125 1.617188 1.671875 2.378907 2.539063.757812.867187 1.484374 1.75 2.179687 2.652344.347656.449218.6875.90625 1.015625 1.367187 2.316406 3.214844 4.226562 6.628906 5.730469 10.175781.214843.507813.421875 1.015625.621093 1.527344.394532 1.027344.757813 2.058594 1.089844 3.101562.167969.519532.324219 1.042969.472656 1.570313.089844.316406.21875.605469.375.867187.078126.128907.164063.253907.257813.367188.09375.117188.195313.226562.300781.328125.726563.691406 1.734375 1.023437 2.71875.914063.230469-.027344.460938-.078126.6875-.152344.117188-.039063.234375-.085938.347656-.136719.363282-.167969.707032-.398437 1.015626-.707031l.09375-.09375c.546874-.546875 1.101562-1.074219 1.664062-1.59375.183594-.167969.375-.332032.5625-.5.382812-.339844.765625-.679688 1.15625-1.007813.226562-.1875.453125-.371093.679688-.554687.359374-.292969.722656-.585938 1.089843-.867188.242188-.1875.488281-.371094.734375-.554687.359375-.269531.722656-.53125 1.089844-.789063.25-.175781.5-.351562.753906-.523437.375-.253907.75-.503907 1.128906-.746094.25-.160156.496094-.320313.746094-.472656.40625-.253907.816406-.492188 1.226563-.730469.226562-.132812.453125-.269531.683593-.398438.507813-.285156 1.019532-.558593 1.535157-.828124.136719-.070313.265625-.144532.402343-.214844.652344-.332032 1.3125-.648438 1.972657-.949219.183593-.082031.367187-.160156.550781-.242187.484375-.210938.96875-.421876 1.457031-.621094.25-.101563.503907-.199219.753907-.296875.425781-.164063.851562-.328125 1.28125-.484375.273437-.097656.546874-.191406.824218-.285156.414063-.140626.828125-.277344 1.246094-.410157.28125-.085937.5625-.175781.84375-.257812.417969-.121094.839844-.242188 1.257812-.355469.28125-.074219.558594-.148438.839844-.21875.4375-.113281.878906-.210938 1.316406-.3125.265626-.058594.527344-.121094.792969-.175781.496094-.101563.996094-.195313 1.496094-.285157.207031-.035156.414063-.078124.621094-.113281.707031-.117187 1.414062-.222656 2.125-.3125.121093-.015625.238281-.023437.359375-.039062.589844-.070313 1.183594-.132813 1.777344-.179688.25-.023437.5-.035156.746093-.054687.46875-.03125.933594-.0625 1.402344-.082032.277344-.011718.5625-.019531.84375-.027343.4375-.011719.871094-.019531 1.308594-.019531.292969-.003907.585937 0 .878906.003906.429687.003906.859375.015625 1.289063.03125.289062.011718.582031.023437.875.039062.4375.023438.875.054688 1.3125.089844.277343.019531.558593.039062.839843.066406.46875.042969.941407.101563 1.414063.15625.242187.03125.480468.054688.71875.085938.65625.089844 1.308594.191406 1.957031.300781.054687.011719.113281.019531.167969.027344.707031.128906 1.410156.269531 2.113281.421875.222656.046875.441406.105468.664063.15625.480468.113281.957031.226562 1.433593.351562.269531.070313.53125.144532.796875.21875.433594.121094.863282.242188 1.289063.375.28125.085938.558593.175782.835937.265625.414063.136719.828125.273438 1.238282.417969.28125.097656.558593.199219.835937.304688.410156.152343.820313.3125 1.230469.476562.269531.105469.539062.210938.804687.324219.425781.179687.851563.371093 1.277344.5625.242187.109375.484375.214843.726563.324219.066406.035156.132812.0625.199218.09375 1.03125.488281 2.082032.203124 2.75-.464844l-135.71875-135.722656c-.910156.910156-1.460937 2.171874-1.425781 3.558593 0 .054688-.003906.105469 0 .160157.015625.757812.015625 1.519531 0 2.277343-.003906.136719-.007813.269531-.011719.410157-.023437.765624-.058594 1.53125-.113281 2.296874-.007813.101563-.015625.203126-.023437.300782-.0625.785156-.136719 1.570312-.230469 2.355468-.003907.023438-.007813.050782-.011719.074219-.097656.792969-.21875 1.578125-.351562 2.367188-.019532.113281-.035157.226562-.058594.339843-.132813.753907-.285156 1.503907-.449219 2.25-.027344.136719-.058594.273438-.089844.410157-.171875.746093-.359375 1.488281-.5625 2.226562-.03125.117188-.066406.230469-.101562.347657-.214844.769531-.445313 1.53125-.699219 2.289062-.011719.035156-.023438.070312-.035156.105469-.253906.753906-.523438 1.496093-.8125 2.238281-.035156.089844-.066406.175781-.101563.265625-.285156.726563-.589843 1.445313-.90625 2.164063-.058593.125-.113281.25-.171875.378906-.316406.699218-.652344 1.398437-1.003906 2.089844-.0625.121093-.125.242187-.1875.363281-.367188.703125-.746094 1.402343-1.144531 2.09375-.042969.074219-.085938.140625-.125.210937-.40625.695313-.824219 1.378906-1.261719 2.054688-.035156.050781-.0625.101562-.097656.148437-.441406.679688-.90625 1.351563-1.386719 2.015625-.074219.105469-.152344.214844-.230469.320313-.46875.640625-.953125 1.273437-1.457031 1.898437-.09375.113282-.183594.226563-.277344.339844-.507812.625-1.035156 1.242188-1.582031 1.851562-.074219.085938-.152344.167969-.230469.253907-.578125.636719-1.167969 1.265625-1.78125 1.878906-.890625.886719-1.808593 1.726563-2.742187 2.535156-.863282.75-1.742188 1.464844-2.640625 2.152344-1.34375 1.023437-2.71875 1.992187-4.132813 2.871094-.121094.074219-.234375.15625-.339844.242187-1.609374 1.285156-1.742187 3.71875-.175781 5.160156.554688.511719 1.105469 1.035157 1.644531 1.574219 2.164063 2.167969 4.101563 4.472657 5.8125 6.890625.421876.589844.820313 1.191406 1.214844 1.796875.792969 1.226563 1.53125 2.476563 2.214844 3.753907zm0 0" fill="url(#A)"/><path d="m314.800781 339.730469s-.476562-.390625-1.371093-1.117188c-.882813-.738281-2.199219-1.800781-3.828126-3.199219-1.632812-1.394531-3.632812-3.070312-5.867187-5.046874-2.25-1.964844-4.789063-4.183594-7.507813-6.65625-2.734374-2.457032-5.691406-5.117188-8.777343-7.976563-3.085938-2.859375-6.324219-5.886719-9.648438-9.050781-3.328125-3.160156-6.746093-6.441406-10.1875-9.808594-3.453125-3.355469-6.921875-6.808594-10.394531-10.253906-3.445312-3.472656-6.898438-6.933594-10.253906-10.390625-3.375-3.4375-6.648438-6.863281-9.8125-10.183594-3.164063-3.324219-6.191406-6.566406-9.050782-9.652344-2.859374-3.082031-5.523437-6.039062-7.980468-8.777343-2.46875-2.714844-4.6875-5.253907-6.648438-7.507813-1.980468-2.238281-3.65625-4.234375-5.050781-5.867187-1.398437-1.628907-2.457031-2.949219-3.195313-3.832032-.726562-.894531-1.117187-1.371094-1.117187-1.371094s.480469.390626 1.375 1.117188c.878906.738281 2.199219 1.796875 3.828125 3.195312 1.636719 1.390626 3.632812 3.070313 5.867188 5.046876 2.253906 1.964843 4.792968 4.183593 7.511718 6.652343 2.734375 2.453125 5.691406 5.117188 8.777344 7.976563s6.324219 5.890625 9.648438 9.050781c3.324218 3.164063 6.746093 6.441406 10.183593 9.816406 3.457031 3.351563 6.917969 6.808594 10.390625 10.253907 3.445313 3.472656 6.898438 6.9375 10.253906 10.394531 3.367188 3.441406 6.648438 6.859375 9.808594 10.183593 3.164063 3.324219 6.191406 6.566407 9.050782 9.652344 2.859374 3.082032 5.519531 6.042969 7.976562 8.777344 2.472656 2.714844 4.6875 5.253906 6.652344 7.507812 1.980468 2.234376 3.660156 4.230469 5.050781 5.867188 1.402344 1.625 2.457031 2.945312 3.199219 3.824219.726562.898437 1.117187 1.375 1.117187 1.375zm0 0" fill="url(#B)"/><path d="m258.558594 145.585938c-20.605469-7.25-35.378906-26.886719-35.378906-49.972657 0-9.347656 2.425781-18.128906 6.675781-25.753906 1.28125-2.296875-.351563-5.085937-2.984375-5.078125-.046875 0-.089844 0-.132813 0-23.015625 0-42.601562-14.679688-49.90625-35.183594-.765625-2.152344-3.78125-2.152344-4.546875 0-7.304687 20.503906-26.890625 35.183594-49.90625 35.183594-.042968 0-.089844 0-.132812 0-2.632813-.007812-4.265625 2.78125-2.984375 5.078125 4.25 7.625 6.675781 16.40625 6.675781 25.753906 0 23.085938-14.773438 42.722657-35.378906 49.972657-2.75.96875-3.109375 4.675781-.585938 6.136718 15.824219 9.160156 26.476563 26.28125 26.476563 45.875 0 .765625-.015625 1.523438-.046875 2.28125-.097656 2.265625 1.976562 3.96875 4.183594 3.449219 3.875-.902344 7.917968-1.378906 12.070312-1.378906 15.101562 0 28.730469 6.320312 38.378906 16.460937 1.910156 2.007813 5.136719 2.007813 7.046875 0 9.648438-10.140625 23.277344-16.460937 38.378907-16.460937 4.152343 0 8.195312.476562 12.070312 1.378906 2.210938.519531 4.28125-1.1875 4.183594-3.449219-.03125-.757812-.046875-1.515625-.046875-2.28125 0-19.59375 10.652343-36.714844 26.476562-45.875 2.523438-1.460937 2.164063-5.167968-.585937-6.136718zm0 0" fill="url(#C)"/><path d="m174.558594 35.527344c-.789063 0-1.578125.496094-1.898438 1.488281-6.101562 18.890625-22.457031 32.417969-41.675781 32.417969-.035156 0-.074219 0-.109375 0-2.199219-.007813-3.566406 2.5625-2.492188 4.679687 3.550782 7.023438 5.574219 15.113281 5.574219 23.726563 0 21.269531-12.335937 39.363281-29.542969 46.042968-2.296874.894532-2.597656 4.3125-.488281 5.65625 13.210938 8.441407 22.109375 24.214844 22.109375 42.269532 0 .703125-.015625 1.402344-.042968 2.097656-.082032 2.089844 1.648437 3.65625 3.496093 3.183594 3.234375-.835938 6.609375-1.273438 10.078125-1.273438 12.609375 0 23.992188 5.824219 32.050782 15.167969.796874.925781 1.867187 1.386719 2.941406 1.386719zm0 0" fill="url(#D)"/><path d="m234.925781 182.269531c.105469-.347656.214844-.695312.328125-1.042969.203125-.625.417969-1.242187.644532-1.859374.222656-.605469.453124-1.207032.699218-1.804688.210938-.519531.433594-1.039062.664063-1.550781.324219-.726563.660156-1.449219 1.019531-2.160157.015625-.027343.027344-.0625.042969-.089843 1.421875-2.820313 3.097656-5.488281 4.980469-7.992188.917968-1.214843 1.882812-2.394531 2.898437-3.527343.667969-.746094 1.359375-1.472657 2.070313-2.183594.015624-.019532.035156-.039063.054687-.058594.035156-.03125.066406-.0625.101563-.09375 3.199218-3.160156 6.796874-5.917969 10.714843-8.183594 2.261719-1.308594 2.203125-4.417968.1875-5.746094-.234375-.15625-.488281-.292968-.773437-.390624-9.660156-3.402344-18.035156-9.519532-24.210938-17.441407v-.003906c-.824218-1.054687-1.609375-2.140625-2.347656-3.257813-.035156-.050781-.0625-.101562-.097656-.152343-5.140625-7.792969-8.28125-17.023438-8.679688-26.964844-.027344-.714844-.042968-1.433594-.042968-2.15625 0-1.167969.039062-2.328125.113281-3.476563.074219-1.148437.1875-2.289062.332031-3.417968.074219-.5625.15625-1.125.25-1.683594.636719-3.910156 1.699219-7.675781 3.144531-11.246094.207031-.511718.421875-1.019531.644531-1.519531.441407-1.003906.914063-1.992187 1.417969-2.964844.25-.484375.511719-.964843.777344-1.441406.160156-.289063.273437-.585937.347656-.878906.035157-.148438.0625-.296875.078125-.445313.015625-.148437.019532-.296875.019532-.441406-.023438-1.007812-.503907-1.949219-1.277344-2.570312-.179688-.148438-.378906-.269532-.59375-.378907-.109375-.054687-.222656-.105469-.34375-.148437-.375-.136719-.777344-.21875-1.214844-.21875-.046875 0-.089844 0-.132812 0-.773438 0-1.539063-.019532-2.300782-.050782-.253906-.011718-.503906-.03125-.753906-.046874-.511719-.027344-1.023438-.0625-1.53125-.105469-.292969-.023438-.582031-.054688-.871094-.085938-.464844-.046875-.925781-.097656-1.386718-.15625-.304688-.039062-.605469-.082031-.90625-.128906-.445313-.0625-.890626-.132813-1.332032-.210937-.300781-.050782-.601562-.105469-.902344-.164063-.445312-.082031-.886718-.175781-1.324218-.269531-.289063-.066406-.578125-.125-.863282-.195313-.464843-.105469-.921874-.226562-1.382812-.347656-.253906-.066406-.511719-.128906-.765625-.203125-.558594-.15625-1.117187-.324219-1.667969-.5-.144531-.046875-.292968-.085938-.4375-.132812-.695312-.226563-1.386718-.46875-2.070312-.722657-.1875-.070312-.371094-.148437-.558594-.21875-.492188-.191406-.984375-.386719-1.46875-.589843-.25-.105469-.496094-.214844-.746094-.324219-.417968-.1875-.832031-.371094-1.246094-.566407-.261718-.121093-.523437-.25-.785156-.378906-.390625-.191406-.78125-.390625-1.167968-.589844-.261719-.136718-.523438-.277343-.785157-.417968-.378906-.207032-.761719-.421875-1.136719-.636719-.253906-.144531-.503906-.289063-.753906-.4375-.386718-.230469-.769531-.472656-1.148437-.714844-.230469-.144531-.457031-.285156-.6875-.433593-.421875-.277344-.839844-.566407-1.257813-.855469-.171875-.121094-.347656-.234375-.519531-.359375-.582031-.414063-1.15625-.84375-1.722656-1.28125-.09375-.074219-.1875-.152344-.28125-.226563-.46875-.367187-.929688-.746093-1.386719-1.128906-.191406-.160156-.375-.328125-.5625-.492187-.355469-.304688-.707031-.613282-1.050781-.929688-.207031-.1875-.410157-.382812-.617188-.578125-.316406-.300781-.632812-.601563-.941406-.910156-.207031-.207031-.410156-.414063-.617187-.625-.296876-.308594-.59375-.617188-.886719-.933594-.199219-.214844-.398438-.429687-.589844-.644531-.292969-.328125-.582031-.660156-.867187-.992188-.179688-.214844-.363282-.425781-.542969-.640625-.304688-.367187-.597657-.738281-.890625-1.113281-.148438-.1875-.300782-.375-.449219-.570312-.398437-.523438-.789063-1.054688-1.167969-1.59375-.03125-.046876-.066406-.09375-.101562-.140626-.410156-.585937-.808594-1.183593-1.195313-1.789062-.121093-.191406-.238281-.386719-.355469-.582031-.261718-.417969-.519531-.835938-.769531-1.261719-.140625-.238281-.269531-.480469-.40625-.722656-.21875-.386719-.4375-.777344-.648437-1.171875-.136719-.257813-.269532-.519531-.402344-.78125-.199219-.386719-.390625-.777344-.578125-1.171875-.128906-.265625-.253906-.535156-.378906-.804688-.183594-.398437-.359375-.800781-.53125-1.207031-.113281-.265625-.230469-.53125-.339844-.796875-.175781-.429688-.339844-.867188-.507813-1.300781-.089843-.246094-.1875-.492188-.28125-.742188-.023437-.070312-.050781-.136719-.078124-.207031-.382813-1.078125-1.328126-1.613281-2.273438-1.613281v191.933593c1.285156 0 2.570312-.503906 3.523438-1.507812.039062-.039062.078124-.074219.113281-.113281.527343-.550781 1.0625-1.085938 1.609375-1.609375.097656-.097656.199218-.191406.296875-.285156.558593-.527344 1.128906-1.042969 1.707031-1.546876.074219-.0625.152344-.128906.230469-.191406.597656-.511718 1.207031-1.015625 1.828125-1.5.019531-.019531.039062-.035156.058594-.050781.628906-.488281 1.273437-.960937 1.921874-1.421875.097657-.066406.1875-.136719.285157-.203125.625-.4375 1.261719-.859375 1.90625-1.273437.117187-.074219.238281-.148438.355469-.222657.648437-.40625 1.304687-.800781 1.972656-1.179687.105468-.058594.210937-.117188.316406-.175782.695312-.386718 1.398438-.765624 2.113281-1.121093.035157-.015625.066407-.03125.101563-.046875.707031-.355469 1.425781-.691406 2.152344-1.011719.085937-.035156.171874-.078125.257812-.113281.714844-.3125 1.441406-.609375 2.175781-.886719.128907-.050781.257813-.101563.386719-.148437.722656-.273438 1.453125-.527344 2.1875-.769532.132812-.039062.261719-.082031.390625-.121094.757813-.242187 1.519531-.46875 2.292969-.671874.078125-.023438.160156-.042969.238281-.0625.773437-.203126 1.554687-.390626 2.34375-.558594.058594-.011719.117187-.027344.171875-.039063.796875-.167969 1.597656-.3125 2.40625-.445312.128906-.019531.261719-.042969.390625-.0625.785156-.121094 1.574219-.226563 2.371094-.3125.144531-.015625.289062-.03125.4375-.046875.800781-.078125 1.613281-.144532 2.425781-.1875.113281-.007813.230469-.011719.347656-.015625.855469-.042969 1.71875-.070313 2.585938-.070313 1.257812 0 2.496094.058594 3.730468.144532 1.140626.082031 2.269532.199218 3.390626.347656 1.671874.226562 3.328124.511718 4.949218.890625.140625.03125.277344.058593.414063.070312 2.046875.230469 3.863281-1.398437 3.773437-3.523437-.035156-.753906-.050781-1.511719-.050781-2.277344 0-3.0625.261719-6.0625.761719-8.984375.121094-.714844.261718-1.421875.410156-2.125.300781-1.425781.664062-2.832031 1.082031-4.214844zm0 0" fill="url(#E)"/><path d="m174.558594 58.851562s.0625.609376.179687 1.757813c.101563 1.144531.285157 2.824219.445313 4.96875.167968 2.140625.394531 4.738281.578125 7.71875.203125 2.980469.429687 6.34375.605469 10.011719.195312 3.667968.40625 7.644531.5625 11.847656.160156 4.207031.3125 8.640625.425781 13.222656.117187 4.585938.214843 9.328125.265625 14.140625.070312 4.816407.082031 9.707031.101562 14.601563-.019531 4.890625-.023437 9.78125-.097656 14.597656-.042969 4.8125-.148438 9.554688-.261719 14.140625s-.261719 9.019531-.421875 13.222656-.367187 8.175781-.566406 11.847657c-.171875 3.667968-.402344 7.03125-.605469 10.011718-.183593 2.980469-.410156 5.578125-.582031 7.71875-.160156 2.140625-.347656 3.824219-.445312 4.96875-.121094 1.148438-.183594 1.757813-.183594 1.757813s-.0625-.609375-.179688-1.757813c-.101562-1.144531-.285156-2.828125-.449218-4.96875-.171876-2.140625-.398438-4.738281-.582032-7.71875-.203125-2.980468-.429687-6.34375-.605468-10.011718-.199219-3.671876-.40625-7.644532-.566407-11.847657-.160156-4.203125-.308593-8.636719-.421875-13.222656-.113281-4.585937-.21875-9.324219-.261718-14.140625-.074219-4.816406-.078126-9.707031-.097657-14.597656.019531-4.894532.03125-9.785156.101563-14.601563.050781-4.816406.148437-9.554687.265625-14.140625.113281-4.585937.265625-9.019531.425781-13.222656.15625-4.203125.367188-8.175781.5625-11.847656.171875-3.667969.402344-7.03125.605469-10.011719.183593-2.980469.410156-5.578125.578125-7.71875.160156-2.140625.347656-3.824219.445312-4.96875.117188-1.148437.179688-1.757813.179688-1.757813zm0 0" fill="url(#F)"/><path d="m334.457031 320.109375-102.183593-102.183594.253906-.734375c-8.621094 5.054688-18.367188 7.464844-28.0625 7.222656-2.773438-.070312-5.050782 2.207032-4.980469 4.980469.347656 13.988281-4.820313 28.097657-15.503906 38.78125-2.910157 2.90625-6.070313 5.40625-9.421875 7.5-3.351563-2.09375-6.515625-4.59375-9.425782-7.5-10.679687-10.683593-15.851562-24.792969-15.503906-38.78125.074219-2.773437-2.203125-5.050781-4.980468-4.980469-10.167969.253907-20.398438-2.410156-29.328126-7.984374-6.035156 7.117187-9.679687 16.335937-9.679687 26.398437 0 12.253906 5.398437 23.234375 13.949219 30.722656l38.964844 38.96875c1.582031-10.910156 6.570312-21.425781 14.957031-29.8125.347656-.339843.695312-.679687 1.046875-1.007812.347656.324219.695312.667969 1.042968 1.007812 13.859376 13.859375 18.425782 33.496094 13.714844 51.15625-.75 2.824219 2.128906 5.1875 4.753906 3.929688 19.699219-9.4375 44.027344-6 60.351563 10.320312 6.609375 6.605469 11.109375 14.535157 13.488281 22.933594.71875 2.527344 3.851563 3.34375 5.710938 1.476563l.09375-.09375c16.269531-16.269532 40.5-19.742188 60.164062-10.414063 2.0625.980469 4.191406-1.144531 3.210938-3.207031-5.757813-12.144532-6.632813-26.023438-2.632813-38.699219zm0 0" fill="url(#G)"/><path d="m138.285156 202.246094c-1.175781-3.785156-1.808594-7.816406-1.808594-11.992188 0-22.554687 18.292969-40.847656 40.847657-40.847656 12.253906 0 23.238281 5.398438 30.722656 13.945312l25.363281 25.359376c-.492187 2.886718-.742187 5.859374-.742187 8.886718 0 .769532.015625 1.527344.046875 2.277344.09375 2.269531-1.976563 3.96875-4.183594 3.457031-3.882812-.902343-7.921875-1.382812-12.070312-1.382812-15.101563 0-28.730469 6.324219-38.375 16.464843-1.914063 2-5.140626 2-7.054688 0-8.425781-8.863281-19.90625-14.816406-32.746094-16.167968zm0 0" fill="url(#H)"/><path d="m243.472656 246.386719c0 22.558593-18.289062 40.847656-40.847656 40.847656s-40.847656-18.289063-40.847656-40.847656c0-22.558594 18.289062-40.847657 40.847656-40.847657s40.847656 18.289063 40.847656 40.847657zm0 0" fill="url(#I)"/><path d="m243.472656 246.386719c0 22.558593-18.289062 40.847656-40.847656 40.847656s-40.847656-18.289063-40.847656-40.847656c0-22.558594 18.289062-40.847657 40.847656-40.847657s40.847656 18.289063 40.847656 40.847657zm0 0" fill="url(#J)"/><path d="m187.339844 242.828125c0 22.558594-18.289063 40.847656-40.847656 40.847656-22.558594 0-40.847657-18.289062-40.847657-40.847656s18.289063-40.847656 40.847657-40.847656c22.558593 0 40.847656 18.289062 40.847656 40.847656zm0 0" fill="url(#K)"/><path d="m182.449219 242.828125c0 19.859375-16.097657 35.957031-35.957031 35.957031-19.859376 0-35.957032-16.097656-35.957032-35.957031s16.097656-35.957031 35.957032-35.957031c19.859374 0 35.957031 16.097656 35.957031 35.957031zm0 0" fill="url(#M)"/><path d="m243.472656 246.386719c0-22.558594-18.289062-40.847657-40.847656-40.847657-9.972656 0-19.105469 3.578126-26.195312 9.511719-7.460938-8.035156-18.109376-13.070312-29.9375-13.070312-2.757813 0-5.449219.277343-8.054688.796875 2.148438 6.664062 5.960938 12.578125 10.945312 17.257812l65.367188 65.367188c16.640625-5.164063 28.722656-20.679688 28.722656-39.015625zm0 0" fill="url(#N)"/><path d="m218.171875 190.253906c0 22.558594-18.285156 40.847656-40.847656 40.847656-22.558594 0-40.847657-18.289062-40.847657-40.847656s18.289063-40.847656 40.847657-40.847656c22.5625 0 40.847656 18.289062 40.847656 40.847656zm0 0" fill="url(#O)"/><path d="m213.28125 190.253906c0 19.859375-16.097656 35.957032-35.957031 35.957032-19.855469 0-35.957031-16.097657-35.957031-35.957032s16.101562-35.957031 35.957031-35.957031c19.859375 0 35.957031 16.097656 35.957031 35.957031zm0 0" fill="url(#P)"/></svg>