<svg id="Capa_1" enable-background="new 0 0 510 510" height="512" viewBox="0 0 510 510" width="512" xmlns="http://www.w3.org/2000/svg" xmlns:xlink="http://www.w3.org/1999/xlink"><linearGradient id="lg1"><stop offset="0" stop-color="#ffd945"/><stop offset=".3043" stop-color="#ffcd3e"/><stop offset=".8558" stop-color="#ffad2b"/><stop offset="1" stop-color="#ffa325"/></linearGradient><linearGradient id="SVGID_1_" gradientUnits="userSpaceOnUse" x1="255" x2="255" xlink:href="#lg1" y1="246.408" y2="430.703"/><linearGradient id="lg2"><stop offset="0" stop-color="#fbb27e" stop-opacity="0"/><stop offset="1" stop-color="#ff7044"/></linearGradient><linearGradient id="SVGID_2_" gradientUnits="userSpaceOnUse" x1="296.103" x2="296.103" xlink:href="#lg2" y1="246.408" y2="430.703"/><linearGradient id="SVGID_3_" gradientUnits="userSpaceOnUse" x1="321.095" x2="236.332" xlink:href="#lg2" y1="322.829" y2="201.896"/><linearGradient id="SVGID_4_" gradientUnits="userSpaceOnUse" x1="255" x2="255" xlink:href="#lg1" y1="374.541" y2="411.621"/><linearGradient id="SVGID_5_" gradientUnits="userSpaceOnUse" x1="255" x2="255" xlink:href="#lg1" y1="400.591" y2="437.671"/><linearGradient id="SVGID_6_" gradientUnits="userSpaceOnUse" x1="255" x2="255" y1="440.842" y2="520.299"><stop offset="0" stop-color="#8a7889"/><stop offset="1" stop-color="#6e566e"/></linearGradient><linearGradient id="SVGID_7_" gradientUnits="userSpaceOnUse" x1="324.727" x2="246.825" y1="553.709" y2="444.548"><stop offset="0" stop-color="#6e566e" stop-opacity="0"/><stop offset=".2944" stop-color="#674d66" stop-opacity=".294"/><stop offset="1" stop-color="#593b56"/></linearGradient><linearGradient id="SVGID_8_" gradientUnits="userSpaceOnUse" x1="255" x2="255" xlink:href="#lg1" y1="450.844" y2="497.866"/><linearGradient id="SVGID_9_" gradientUnits="userSpaceOnUse" x1="255" x2="255" xlink:href="#lg1" y1="33.763" y2="224.175"/><linearGradient id="SVGID_10_" gradientUnits="userSpaceOnUse" x1="241.958" x2="289.521" xlink:href="#lg2" y1="150.798" y2="30.81"/><linearGradient id="SVGID_11_" gradientUnits="userSpaceOnUse" x1="350.177" x2="175.061" xlink:href="#lg2" y1="152.403" y2="118.352"/><linearGradient id="SVGID_12_" gradientUnits="userSpaceOnUse" x1="278.118" x2="268.389" xlink:href="#lg2" y1="225.875" y2="54.812"/><linearGradient id="SVGID_13_" gradientUnits="userSpaceOnUse" x1="222.302" x2="299.321" xlink:href="#lg2" y1="199.302" y2="97.962"/><linearGradient id="SVGID_14_" gradientUnits="userSpaceOnUse" x1="284.684" x2="179.29" xlink:href="#lg2" y1="183.435" y2="135.602"/><linearGradient id="lg3"><stop offset="0" stop-color="#9b62cd"/><stop offset=".3003" stop-color="#985dcb"/><stop offset=".6716" stop-color="#8f4ec7"/><stop offset="1" stop-color="#833ac1"/></linearGradient><linearGradient id="SVGID_15_" gradientTransform="matrix(1 -.003 .003 1 -2.483 -.888)" gradientUnits="userSpaceOnUse" x1="394.43" x2="484.751" xlink:href="#lg3" y1="73.041" y2="73.041"/><linearGradient id="SVGID_16_" gradientTransform="matrix(1 -.003 .003 1 -2.483 -.888)" gradientUnits="userSpaceOnUse" x1="28.753" x2="119.074" xlink:href="#lg3" y1="382.265" y2="382.265"/><linearGradient id="SVGID_17_" gradientTransform="matrix(1 -.003 .003 1 -2.483 -.888)" gradientUnits="userSpaceOnUse" x1="386.073" x2="449.944" xlink:href="#lg3" y1="181.457" y2="181.457"/><linearGradient id="SVGID_18_" gradientTransform="matrix(1 -.003 .003 1 -2.483 -.888)" gradientUnits="userSpaceOnUse" x1="81.759" x2="145.63" xlink:href="#lg3" y1="201.863" y2="201.863"/><linearGradient id="SVGID_19_" gradientTransform="matrix(1 -.003 .003 1 -2.483 -.888)" gradientUnits="userSpaceOnUse" x1="375.465" x2="439.336" xlink:href="#lg3" y1="351.132" y2="351.132"/><linearGradient id="SVGID_20_" gradientTransform="matrix(1 -.003 .003 1 -2.483 -.888)" gradientUnits="userSpaceOnUse" x1="43.508" x2="107.38" xlink:href="#lg3" y1="66.833" y2="66.833"/><g><g><path d="m295.007 406.814h-80.014l-42.198-207.158h164.41z" fill="url(#SVGID_1_)"/><path d="m255 406.814h40.007l42.198-207.158h-82.205z" fill="url(#SVGID_2_)"/><path d="m298.412 390.097 38.793-190.441h-164.41l16.582 81.406z" fill="url(#SVGID_3_)"/><g><path d="m344.074 406.814h-178.148v-16.706c0-13.793 11.181-24.974 24.974-24.974h128.2c13.793 0 24.974 11.181 24.974 24.974z" fill="url(#SVGID_4_)"/><path d="m364.473 432.864h-218.946v-13.993c0-15.291 12.396-27.687 27.687-27.687h163.573c15.291 0 27.687 12.396 27.687 27.687v13.993z" fill="url(#SVGID_5_)"/><path d="m367.874 510h-225.748c-5.897 0-10.677-4.78-10.677-10.677v-67.96c0-5.897 4.78-10.677 10.677-10.677h225.748c5.897 0 10.677 4.78 10.677 10.677v67.96c0 5.897-4.78 10.677-10.677 10.677z" fill="url(#SVGID_6_)"/><path d="m331.955 441.896c-1.164-1.791-3.173-2.98-5.468-2.98h-142.974c-3.604 0-6.527 2.922-6.527 6.527v39.802c0 2.295 1.19 4.304 2.98 5.468l19.288 19.287h168.62c5.897 0 10.677-4.78 10.677-10.677v-10.832z" fill="url(#SVGID_7_)"/><path d="m326.487 491.771h-142.974c-3.605 0-6.527-2.922-6.527-6.527v-39.802c0-3.605 2.922-6.527 6.527-6.527h142.975c3.605 0 6.527 2.922 6.527 6.527v39.802c-.001 3.605-2.923 6.527-6.528 6.527z" fill="url(#SVGID_8_)"/></g><g><path d="m289.347 21.351 15.324 31.05c5.579 11.305 16.364 19.14 28.839 20.953l34.265 4.979c31.416 4.565 43.96 43.172 21.227 65.331l-24.795 24.169c-9.027 8.799-13.146 21.477-11.015 33.902l5.853 34.127c5.366 31.289-27.475 55.149-55.574 40.377l-30.648-16.113c-11.158-5.866-24.489-5.866-35.647 0l-30.648 16.113c-28.099 14.773-60.94-9.088-55.574-40.377l5.853-34.127c2.131-12.425-1.988-25.103-11.015-33.902l-24.795-24.169c-22.733-22.159-10.189-60.766 21.227-65.331l34.265-4.979c12.475-1.813 23.26-9.648 28.839-20.953l15.324-31.05c14.051-28.468 54.645-28.468 68.695 0z" fill="url(#SVGID_9_)"/><path d="m190.225 68.55c-4.175 2.427-8.819 4.089-13.734 4.803l-34.265 4.979c-31.416 4.565-43.96 43.172-21.227 65.331l24.795 24.169c9.027 8.799 13.146 21.477 11.015 33.902l-5.853 34.127c-5.367 31.289 27.475 55.149 55.574 40.377l30.648-16.113c11.158-5.866 24.488-5.866 35.647 0l30.648 16.113c13.32 7.003 27.698 5.315 38.574-1.721z" fill="url(#SVGID_10_)"/><path d="m388.997 143.664-24.792 24.176c-5.643 5.497-9.356 12.485-10.831 19.992-.908 4.524-.989 9.226-.178 13.896l5.854 34.131c2.821 16.458-4.929 30.856-16.993 38.655-10.88 7.037-25.262 8.723-38.59 1.719l-30.645-16.101c-5.578-2.935-11.691-4.394-17.82-4.394v-99.103l.227.065-.097-.097-.13-.195v-156.404c13.653 0 27.321 7.118 34.342 21.354l15.323 31.035c3.373 6.859 8.675 12.436 15.112 16.166 4.167 2.432 8.821 4.086 13.734 4.8l34.261 4.978c18.16 2.627 30.013 16.636 32.38 32.267 1.749 11.414-1.558 23.704-11.157 33.06z" fill="url(#SVGID_11_)"/><g><path d="m156.633 187.838c.893 4.522.976 9.227.175 13.896l-5.853 34.127c-5.367 31.289 27.475 55.149 55.574 40.377l30.648-16.113c11.158-5.866 24.488-5.866 35.647 0l30.648 16.113c28.099 14.773 60.94-9.088 55.574-40.377l-5.853-34.127c-2.131-12.425 1.988-25.103 11.015-33.902l24.795-24.169c9.596-9.354 12.885-21.636 11.143-33.054z" fill="url(#SVGID_12_)"/></g><path d="m353.192 201.734c-.801-4.669-.718-9.375.175-13.896l-243.512-77.228c-1.742 11.418 1.547 23.7 11.143 33.054l24.795 24.169c9.027 8.799 13.146 21.477 11.015 33.902l-5.853 34.127c-5.367 31.289 27.475 55.149 55.574 40.377l30.648-16.113c11.158-5.866 24.489-5.866 35.647 0l30.648 16.113c28.099 14.773 60.94-9.088 55.574-40.377z" fill="url(#SVGID_13_)"/><path d="m367.775 78.332-34.265-4.979c-4.908-.713-9.546-2.37-13.716-4.792l-151.686 206.06c10.857 6.951 25.165 8.587 38.422 1.617l30.648-16.113c11.158-5.866 24.488-5.866 35.647 0l30.648 16.113c28.099 14.773 60.94-9.088 55.574-40.377l-5.853-34.127c-2.131-12.425 1.988-25.103 11.015-33.902l24.795-24.169c22.731-22.159 10.187-60.766-21.229-65.331z" fill="url(#SVGID_14_)"/></g></g><g><path d="m479.982 75.394c-15.155 9.946-28.071 23.023-37.835 38.305-2.196 3.436-7.289 3.443-9.494.013-9.806-15.254-22.758-28.296-37.941-38.199-3.37-2.198-3.377-7.221-.013-9.429 15.155-9.946 28.071-23.023 37.835-38.305 2.196-3.436 7.288-3.444 9.494-.013 9.807 15.254 22.759 28.296 37.942 38.199 3.369 2.199 3.376 7.222.012 9.429z" fill="url(#SVGID_15_)"/><path d="m115.302 385.792c-15.155 9.946-28.071 23.023-37.835 38.305-2.196 3.436-7.289 3.443-9.494.013-9.806-15.254-22.758-28.296-37.941-38.199-3.37-2.198-3.377-7.221-.013-9.429 15.155-9.946 28.071-23.023 37.835-38.305 2.196-3.436 7.288-3.444 9.494-.013 9.807 15.254 22.759 28.296 37.942 38.199 3.368 2.199 3.375 7.222.012 9.429z" fill="url(#SVGID_16_)"/><path d="m446.262 182.516c-10.717 7.033-19.851 16.281-26.756 27.088-1.553 2.43-5.154 2.435-6.714.009-6.935-10.787-16.094-20.01-26.831-27.013-2.383-1.554-2.388-5.107-.009-6.668 10.717-7.033 19.851-16.281 26.755-27.088 1.553-2.43 5.154-2.435 6.714-.009 6.935 10.787 16.094 20.01 26.831 27.013 2.384 1.555 2.389 5.107.01 6.668z" fill="url(#SVGID_17_)"/><path d="m142.015 203.9c-10.717 7.033-19.851 16.281-26.756 27.088-1.553 2.43-5.154 2.435-6.714.009-6.935-10.787-16.094-20.01-26.831-27.013-2.383-1.554-2.388-5.107-.009-6.668 10.717-7.033 19.851-16.281 26.755-27.088 1.553-2.43 5.154-2.435 6.714-.009 6.935 10.787 16.095 20.01 26.831 27.013 2.384 1.555 2.389 5.107.01 6.668z" fill="url(#SVGID_18_)"/><path d="m436.199 352.224c-10.717 7.033-19.851 16.281-26.756 27.088-1.553 2.43-5.154 2.435-6.714.009-6.935-10.787-16.094-20.01-26.831-27.013-2.383-1.554-2.388-5.107-.009-6.668 10.717-7.033 19.851-16.281 26.755-27.088 1.553-2.43 5.154-2.435 6.714-.009 6.935 10.787 16.095 20.01 26.831 27.013 2.384 1.555 2.389 5.107.01 6.668z" fill="url(#SVGID_19_)"/><path d="m103.33 68.994c-10.717 7.033-19.851 16.281-26.756 27.088-1.553 2.43-5.154 2.435-6.714.009-6.935-10.787-16.094-20.01-26.831-27.013-2.383-1.554-2.388-5.107-.009-6.668 10.717-7.033 19.851-16.281 26.755-27.088 1.553-2.43 5.154-2.435 6.714-.009 6.935 10.787 16.095 20.01 26.831 27.013 2.384 1.555 2.389 5.107.01 6.668z" fill="url(#SVGID_20_)"/></g></g></svg>