<svg height="512" viewBox="0 0 64 64" width="512" xmlns="http://www.w3.org/2000/svg" xmlns:xlink="http://www.w3.org/1999/xlink"><linearGradient id="linear-gradient" gradientUnits="userSpaceOnUse" x1="32" x2="32" y1="1.304" y2="63.304"><stop offset="0" stop-color="#ffe100"/><stop offset="1" stop-color="#f98900"/></linearGradient><linearGradient id="linear-gradient-2" gradientUnits="userSpaceOnUse" x1="32" x2="32" y1="64.035" y2="52.404"><stop offset="0" stop-color="#fa9200" stop-opacity=".1"/><stop offset=".889" stop-color="#f96c00"/></linearGradient><linearGradient id="linear-gradient-3" gradientUnits="userSpaceOnUse" x1="32" x2="32" y1="52.975" y2="36.452"><stop offset="0" stop-color="#69101b"/><stop offset=".742" stop-color="#400a10"/><stop offset=".995" stop-color="#1a0406"/></linearGradient><linearGradient id="linear-gradient-4" gradientUnits="userSpaceOnUse" x1="32" x2="32" y1="59.969" y2="39.319"><stop offset="0" stop-color="#69101b"/><stop offset=".434" stop-color="#5a0e17"/><stop offset="1" stop-color="#400a10"/></linearGradient><linearGradient id="linear-gradient-5" gradientUnits="userSpaceOnUse" x1="32" x2="32" y1="53.913" y2="40.347"><stop offset="0" stop-color="#aae5aa"/><stop offset=".419" stop-color="#98e598"/><stop offset=".727" stop-color="#90e590"/><stop offset="1" stop-color="#56b356"/></linearGradient><linearGradient id="linear-gradient-6" gradientUnits="userSpaceOnUse" x1="32" x2="32" y1="57.775" y2="40.221"><stop offset=".005" stop-color="#16c60c"/><stop offset=".286" stop-color="#12a90a"/><stop offset=".552" stop-color="#109409"/><stop offset=".727" stop-color="#0f8c09"/><stop offset="1" stop-color="#0a6306"/></linearGradient><linearGradient id="linear-gradient-7" gradientUnits="userSpaceOnUse" x1="32" x2="32" y1="58.775" y2="40.962"><stop offset=".005" stop-color="#16c60c"/><stop offset=".39" stop-color="#12a90a"/><stop offset=".755" stop-color="#109409"/><stop offset=".995" stop-color="#0f8c09"/></linearGradient><linearGradient id="linear-gradient-8" x1="49" x2="49" xlink:href="#linear-gradient-7" y1="6.183" y2="30.563"/><linearGradient id="linear-gradient-9" gradientUnits="userSpaceOnUse" x1="62.125" x2="31.672" y1="18" y2="18"><stop offset=".005" stop-color="#18d90d"/><stop offset=".136" stop-color="#16cb0c"/><stop offset=".499" stop-color="#12a90a"/><stop offset=".798" stop-color="#109409"/><stop offset=".995" stop-color="#0f8c09"/></linearGradient><linearGradient id="linear-gradient-10" gradientUnits="userSpaceOnUse" x1="44" x2="54" y1="14.062" y2="14.062"><stop offset=".005" stop-color="#0f8208"/><stop offset=".044" stop-color="#0f8108"/><stop offset=".995" stop-color="#0a6106"/></linearGradient><linearGradient id="linear-gradient-11" x2="54" xlink:href="#linear-gradient-10" y1="27.5" y2="27.5"/><linearGradient id="linear-gradient-12" x2="54" xlink:href="#linear-gradient-10" y1="18.527" y2="18.527"/><linearGradient id="linear-gradient-13" x2="54" xlink:href="#linear-gradient-10" y1="23.911" y2="23.911"/><linearGradient id="linear-gradient-14" x2="54" xlink:href="#linear-gradient-10" y1="25.5" y2="25.5"/><linearGradient id="linear-gradient-15" x1="15" x2="15" xlink:href="#linear-gradient-7" y1="6.183" y2="30.563"/><linearGradient id="linear-gradient-16" x1="28.125" x2="-2.328" xlink:href="#linear-gradient-9" y1="18" y2="18"/><linearGradient id="linear-gradient-17" x1="10" x2="20" xlink:href="#linear-gradient-10" y1="14.062" y2="14.062"/><linearGradient id="linear-gradient-18" x1="10" x2="20" xlink:href="#linear-gradient-10" y1="27.5" y2="27.5"/><linearGradient id="linear-gradient-19" x1="10" x2="20" xlink:href="#linear-gradient-10" y1="18.527" y2="18.527"/><linearGradient id="linear-gradient-20" x1="10" x2="20" xlink:href="#linear-gradient-10" y1="23.911" y2="23.911"/><linearGradient id="linear-gradient-21" x1="10" x2="20" xlink:href="#linear-gradient-10" y1="25.5" y2="25.5"/><linearGradient id="linear-gradient-22" gradientUnits="userSpaceOnUse" x1="48.873" x2="48.873" y1="35.406" y2="29.392"><stop offset="0" stop-color="#ffe100" stop-opacity="0"/><stop offset="1" stop-color="#f98900"/></linearGradient><linearGradient id="linear-gradient-23" x1="15.126" x2="15.126" xlink:href="#linear-gradient-22" y1="35.406" y2="29.392"/><g id="_29-Money-Mouth_Face" data-name="29-Money-Mouth Face"><path d="m32 63c-27.7 0-31.038-24-31-30v-2c-.038-6 3.3-30 31-30 27.7 0 31.038 24 31 30v2c.038 6-3.3 30-31 30z" fill="url(#linear-gradient)"/><path d="m50 38a.97.97 0 0 0 -1.186-.97c-2.654.76-9.204-.03-16.814-.03s-14.16.79-16.81.03a.97.97 0 0 0 -1.19.97v1a1.115 1.115 0 0 0 0 .13 14.7 14.7 0 0 0 .92 4.02 15.6 15.6 0 0 0 5.09 6.71 18.8 18.8 0 0 0 11.99 4.14 18.8 18.8 0 0 0 11.99-4.14 15.6 15.6 0 0 0 5.09-6.71 14.7 14.7 0 0 0 .92-4.02 1.115 1.115 0 0 0 0-.13z" fill="#f9bf06"/><path d="m32 53a18.749 18.749 0 0 1 -10.5-3.073l-.415 11.578a37.664 37.664 0 0 0 10.915 1.495 37.664 37.664 0 0 0 10.911-1.495l-.411-11.578a18.749 18.749 0 0 1 -10.5 3.073z" fill="url(#linear-gradient-2)"/><path d="m50 37a.97.97 0 0 0 -1.186-.97c-2.654.76-9.204-.03-16.814-.03s-14.16.79-16.81.03a.97.97 0 0 0 -1.19.97v1a1.115 1.115 0 0 0 0 .13 14.7 14.7 0 0 0 .92 4.02 15.6 15.6 0 0 0 5.09 6.71 18.8 18.8 0 0 0 11.99 4.14 18.8 18.8 0 0 0 11.99-4.14 15.6 15.6 0 0 0 5.09-6.71 14.7 14.7 0 0 0 .92-4.02 1.115 1.115 0 0 0 0-.13z" fill="#ed8d06"/><path d="m48.81 37.03a.986.986 0 0 1 1.19 1.1 14.7 14.7 0 0 1 -.92 4.02 15.6 15.6 0 0 1 -5.09 6.71 18.8 18.8 0 0 1 -11.99 4.14 18.8 18.8 0 0 1 -11.99-4.14 15.6 15.6 0 0 1 -5.09-6.71 14.7 14.7 0 0 1 -.92-4.02.986.986 0 0 1 1.19-1.1c2.65.76 9.2-.03 16.81-.03s14.16.79 16.81.03z" fill="url(#linear-gradient-3)"/><path d="m23 40h-1l-.5 9.927a18.749 18.749 0 0 0 10.5 3.073 18.749 18.749 0 0 0 10.5-3.073l-.5-9.927z" fill="url(#linear-gradient-4)"/><path d="m27 40h10v14h-10z" fill="url(#linear-gradient-5)"/><path d="m27 52a2.006 2.006 0 0 1 2 2h6a2.006 2.006 0 0 1 2-2v-12h4v18h-18v-18h4z" fill="url(#linear-gradient-6)"/><circle cx="38" cy="55" fill="#aae5aa" r="1"/><circle cx="26" cy="55" fill="#aae5aa" r="1"/><ellipse cx="32" cy="43.5" fill="url(#linear-gradient-7)" rx="4" ry="2.5"/><circle cx="49" cy="18" fill="url(#linear-gradient-8)" r="13"/><path d="m49 5a13 13 0 1 0 13 13 13 13 0 0 0 -13-13zm0 25a12 12 0 1 1 12-12 12 12 0 0 1 -12 12z" fill="url(#linear-gradient-9)"/><path d="m51.762 17.968-4.822-1.809a1.625 1.625 0 0 1 -.94-1.544 1.493 1.493 0 0 1 1.325-1.615h5.675v-2h-3v-2h-2v2h-.675a3.484 3.484 0 0 0 -3.325 3.615 3.606 3.606 0 0 0 2.238 3.417l4.822 1.809a1.625 1.625 0 0 1 .94 1.544 1.493 1.493 0 0 1 -1.325 1.615h-5.675v2h3v2h2v-2h.675a3.484 3.484 0 0 0 3.325-3.615 3.606 3.606 0 0 0 -2.238-3.417z" fill="#fff"/><path d="m46 14.615a1.9 1.9 0 0 0 .069.509 1.382 1.382 0 0 1 1.256-1.124h5.675v-1h-5.675a1.493 1.493 0 0 0 -1.325 1.615z" fill="url(#linear-gradient-10)"/><path d="m48 27h2v1h-2z" fill="url(#linear-gradient-11)"/><path d="m51.06 19.841-4.822-1.809a3.55 3.55 0 0 1 -2.2-2.855 3.712 3.712 0 0 0 -.041.438 3.606 3.606 0 0 0 2.238 3.417l4.822 1.809a1.509 1.509 0 0 1 .871 1.035 1.921 1.921 0 0 0 .072-.491 1.625 1.625 0 0 0 -.94-1.544z" fill="url(#linear-gradient-12)"/><path d="m50.675 25h-.675v1h.675a3.484 3.484 0 0 0 3.325-3.615 3.862 3.862 0 0 0 -.041-.562 3.431 3.431 0 0 1 -3.284 3.177z" fill="url(#linear-gradient-13)"/><path d="m45 25h3v1h-3z" fill="url(#linear-gradient-14)"/><circle cx="15" cy="18" fill="url(#linear-gradient-15)" r="13"/><path d="m15 5a13 13 0 1 0 13 13 13 13 0 0 0 -13-13zm0 25a12 12 0 1 1 12-12 12 12 0 0 1 -12 12z" fill="url(#linear-gradient-16)"/><path d="m17.762 17.968-4.822-1.809a1.625 1.625 0 0 1 -.94-1.544 1.493 1.493 0 0 1 1.325-1.615h5.675v-2h-3v-2h-2v2h-.675a3.484 3.484 0 0 0 -3.325 3.615 3.606 3.606 0 0 0 2.238 3.417l4.822 1.809a1.625 1.625 0 0 1 .94 1.544 1.493 1.493 0 0 1 -1.325 1.615h-5.675v2h3v2h2v-2h.675a3.484 3.484 0 0 0 3.325-3.615 3.606 3.606 0 0 0 -2.238-3.417z" fill="#fff"/><path d="m12 14.615a1.9 1.9 0 0 0 .069.509 1.382 1.382 0 0 1 1.256-1.124h5.675v-1h-5.675a1.493 1.493 0 0 0 -1.325 1.615z" fill="url(#linear-gradient-17)"/><path d="m14 27h2v1h-2z" fill="url(#linear-gradient-18)"/><path d="m17.06 19.841-4.822-1.809a3.55 3.55 0 0 1 -2.2-2.855 3.712 3.712 0 0 0 -.041.438 3.606 3.606 0 0 0 2.238 3.417l4.822 1.809a1.509 1.509 0 0 1 .871 1.035 1.921 1.921 0 0 0 .072-.491 1.625 1.625 0 0 0 -.94-1.544z" fill="url(#linear-gradient-19)"/><path d="m16.675 25h-.675v1h.675a3.484 3.484 0 0 0 3.325-3.615 3.862 3.862 0 0 0 -.041-.562 3.431 3.431 0 0 1 -3.284 3.177z" fill="url(#linear-gradient-20)"/><path d="m11 25h3v1h-3z" fill="url(#linear-gradient-21)"/><path d="m49 31a12.994 12.994 0 0 1 -12.95-12c-.025.331-.05.662-.05 1a13 13 0 0 0 25.747 2.545c-.084-.3-.176-.61-.27-.919a13 13 0 0 1 -12.477 9.374z" fill="url(#linear-gradient-22)"/><path d="m15 33a13 13 0 0 0 13-13c0-.338-.026-.669-.051-1a12.988 12.988 0 0 1 -25.426 2.626c-.1.309-.187.616-.271.919a13 13 0 0 0 12.748 10.455z" fill="url(#linear-gradient-23)"/></g></svg>