<svg id="Capa_1" enable-background="new 0 0 510 510" height="512" viewBox="0 0 510 510" width="512" xmlns="http://www.w3.org/2000/svg" xmlns:xlink="http://www.w3.org/1999/xlink"><linearGradient id="SVGID_1_" gradientUnits="userSpaceOnUse" x1="132.761" x2="302.496" y1="316.244" y2="316.244"><stop offset="0" stop-color="#4ab272"/><stop offset=".3386" stop-color="#47b071"/><stop offset=".5502" stop-color="#3fa870"/><stop offset=".727" stop-color="#309b6d"/><stop offset=".8837" stop-color="#1c8869"/><stop offset="1" stop-color="#077565"/></linearGradient><linearGradient id="SVGID_2_" gradientUnits="userSpaceOnUse" x1="197.442" x2="-14.212" y1="345.297" y2="475.402"><stop offset="0" stop-color="#91f27f" stop-opacity="0"/><stop offset="1" stop-color="#ffed82"/></linearGradient><linearGradient id="lg1"><stop offset="0" stop-color="#005a01" stop-opacity="0"/><stop offset=".2523" stop-color="#005c08" stop-opacity=".252"/><stop offset=".6256" stop-color="#00611c" stop-opacity=".626"/><stop offset="1" stop-color="#006837"/></linearGradient><linearGradient id="SVGID_3_" gradientUnits="userSpaceOnUse" x1="223.337" x2="223.337" xlink:href="#lg1" y1="429.852" y2="480.52"/><linearGradient id="SVGID_4_" gradientUnits="userSpaceOnUse" x1="169.645" x2="285.079" y1="316.244" y2="316.244"><stop offset="0" stop-color="#8a7889"/><stop offset="1" stop-color="#6e566e"/></linearGradient><linearGradient id="lg2"><stop offset="0" stop-color="#f8f6fb"/><stop offset="1" stop-color="#ffdecf"/></linearGradient><linearGradient id="SVGID_5_" gradientTransform="matrix(.707 -.707 .707 .707 -75.318 191.823)" gradientUnits="userSpaceOnUse" x1="244.809" x2="283.59" xlink:href="#lg2" y1="142.635" y2="181.416"/><linearGradient id="lg3"><stop offset="0" stop-color="#fff" stop-opacity="0"/><stop offset="1" stop-color="#fff"/></linearGradient><linearGradient id="SVGID_6_" gradientTransform="matrix(.707 -.707 .707 .707 -75.318 191.823)" gradientUnits="userSpaceOnUse" x1="258.995" x2="231.898" xlink:href="#lg3" y1="156.821" y2="129.724"/><linearGradient id="lg4"><stop offset="0" stop-color="#faa68e" stop-opacity="0"/><stop offset="1" stop-color="#faa68e"/></linearGradient><linearGradient id="SVGID_7_" gradientTransform="matrix(.707 -.707 .707 .707 -75.318 191.823)" gradientUnits="userSpaceOnUse" x1="275.787" x2="301.021" xlink:href="#lg4" y1="141.615" y2="108.387"/><linearGradient id="lg5"><stop offset="0" stop-color="#bdc2d1"/><stop offset=".2367" stop-color="#b5b6c5"/><stop offset=".6651" stop-color="#9e96a6"/><stop offset="1" stop-color="#8a7889"/></linearGradient><linearGradient id="SVGID_8_" gradientUnits="userSpaceOnUse" x1="223.337" x2="223.337" xlink:href="#lg5" y1="136.5" y2="164.5"/><linearGradient id="SVGID_9_" gradientUnits="userSpaceOnUse" x1="223.337" x2="223.337" xlink:href="#lg5" y1="483" y2="507.083"/><linearGradient id="lg6"><stop offset="0" stop-color="#ffd945"/><stop offset=".3043" stop-color="#ffcd3e"/><stop offset=".8558" stop-color="#ffad2b"/><stop offset="1" stop-color="#ffa325"/></linearGradient><linearGradient id="SVGID_10_" gradientUnits="userSpaceOnUse" x1="159.166" x2="288.493" xlink:href="#lg6" y1="252.073" y2="381.4"/><linearGradient id="SVGID_11_" gradientTransform="matrix(-1 0 0 -1 1574 1574)" gradientUnits="userSpaceOnUse" x1="1304.707" x2="1397.325" xlink:href="#lg6" y1="1211.8" y2="1304.418"/><linearGradient id="lg7"><stop offset="0" stop-color="#f35227" stop-opacity="0"/><stop offset="1" stop-color="#f35227"/></linearGradient><linearGradient id="SVGID_12_" gradientUnits="userSpaceOnUse" x1="290.948" x2="191.67" xlink:href="#lg7" y1="383.855" y2="284.577"/><linearGradient id="SVGID_13_" gradientUnits="userSpaceOnUse" x1="199.94" x2="249.485" xlink:href="#lg6" y1="292.847" y2="342.392"/><linearGradient id="SVGID_14_" gradientUnits="userSpaceOnUse" x1="233.861" x2="342.306" xlink:href="#lg7" y1="323.456" y2="291.645"/><linearGradient id="SVGID_15_" gradientUnits="userSpaceOnUse" x1="286.769" x2="297.769" xlink:href="#lg1" y1="214.205" y2="146.205"/><linearGradient id="SVGID_16_" gradientUnits="userSpaceOnUse" x1="349.63" x2="396.974" xlink:href="#lg2" y1="187.974" y2="235.317"/><linearGradient id="SVGID_17_" gradientUnits="userSpaceOnUse" x1="366.948" x2="333.868" xlink:href="#lg3" y1="205.292" y2="172.212"/><linearGradient id="SVGID_18_" gradientUnits="userSpaceOnUse" x1="387.449" x2="418.253" xlink:href="#lg4" y1="186.729" y2="146.165"/><linearGradient id="SVGID_19_" gradientUnits="userSpaceOnUse" x1="135.279" x2="182.622" xlink:href="#lg2" y1="65.139" y2="112.483"/><linearGradient id="SVGID_20_" gradientUnits="userSpaceOnUse" x1="152.597" x2="119.517" xlink:href="#lg3" y1="82.457" y2="49.377"/><linearGradient id="SVGID_21_" gradientUnits="userSpaceOnUse" x1="173.097" x2="203.902" xlink:href="#lg4" y1="63.895" y2="23.33"/><linearGradient id="SVGID_22_" gradientUnits="userSpaceOnUse" x1="372.578" x2="411.391" xlink:href="#lg2" y1="264.61" y2="303.422"/><linearGradient id="SVGID_23_" gradientUnits="userSpaceOnUse" x1="386.776" x2="359.656" xlink:href="#lg3" y1="278.808" y2="251.688"/><linearGradient id="SVGID_24_" gradientUnits="userSpaceOnUse" x1="403.582" x2="428.836" xlink:href="#lg4" y1="263.59" y2="230.335"/><linearGradient id="SVGID_25_" gradientUnits="userSpaceOnUse" x1="315.462" x2="384.85" xlink:href="#lg2" y1="33.529" y2="102.917"/><linearGradient id="SVGID_26_" gradientUnits="userSpaceOnUse" x1="340.844" x2="292.361" xlink:href="#lg3" y1="58.911" y2="10.428"/><linearGradient id="SVGID_27_" gradientUnits="userSpaceOnUse" x1="370.632" x2="470.424" xlink:href="#lg4" y1="47.722" y2="-4.68"/><linearGradient id="SVGID_28_" gradientUnits="userSpaceOnUse" x1="327.646" x2="404.964" xlink:href="#lg2" y1="116.174" y2="193.492"/><linearGradient id="SVGID_29_" gradientUnits="userSpaceOnUse" x1="355.929" x2="301.905" xlink:href="#lg3" y1="144.457" y2="90.433"/><linearGradient id="SVGID_30_" gradientUnits="userSpaceOnUse" x1="383.326" x2="471.871" xlink:href="#lg4" y1="134.482" y2="78.362"/><linearGradient id="SVGID_31_" gradientUnits="userSpaceOnUse" x1="236.516" x2="298.649" xlink:href="#lg2" y1="49.893" y2="112.026"/><linearGradient id="SVGID_32_" gradientUnits="userSpaceOnUse" x1="259.244" x2="215.831" xlink:href="#lg3" y1="72.621" y2="29.208"/><linearGradient id="SVGID_33_" gradientUnits="userSpaceOnUse" x1="278.105" x2="358.08" xlink:href="#lg4" y1="66.654" y2="21.943"/><linearGradient id="SVGID_34_" gradientTransform="matrix(.707 -.707 .707 .707 -75.318 191.823)" gradientUnits="userSpaceOnUse" x1="315.722" x2="352.045" xlink:href="#lg2" y1="193.026" y2="279.757"/><linearGradient id="SVGID_35_" gradientTransform="matrix(.707 -.707 .707 .707 -75.318 191.823)" gradientUnits="userSpaceOnUse" x1="325.147" x2="273.512" xlink:href="#lg3" y1="207.644" y2="156.009"/><g><path d="m304.624 489.577h-162.575c-22.789 0-41.263-18.474-41.263-41.263v-264.14c0-22.789 18.474-41.263 41.263-41.263h162.575c22.789 0 41.263 18.474 41.263 41.263v264.14c0 22.789-18.474 41.263-41.263 41.263z" fill="url(#SVGID_1_)"/><path d="m308.394 489.577h-127.377c-20.707 0-37.493-16.786-37.493-37.493v-271.68c0-20.707 16.786-37.493 37.493-37.493h127.376c20.707 0 37.493 16.786 37.493 37.493v271.68c.001 20.707-16.785 37.493-37.492 37.493z" fill="url(#SVGID_2_)"/><path d="m100.786 371.482v76.832c0 22.789 18.474 41.263 41.263 41.263h162.575c22.789 0 41.263-18.474 41.263-41.263v-76.832z" fill="url(#SVGID_3_)"/><path d="m100.786 261.005h245.101v110.477h-245.101z" fill="url(#SVGID_4_)"/><g><circle cx="214.49" cy="119.575" fill="url(#SVGID_5_)" r="29.943"/><circle cx="214.49" cy="119.575" fill="url(#SVGID_6_)" r="24.99"/><path d="m205.021 91.164c4.278 1.422 8.299 3.834 11.704 7.238 11.693 11.693 11.693 30.652 0 42.346-3.405 3.405-7.426 5.816-11.704 7.238 10.414 3.462 22.353 1.05 30.641-7.238 11.693-11.693 11.693-30.652 0-42.346-8.288-8.289-20.226-10.7-30.641-7.238z" fill="url(#SVGID_7_)"/></g><g><path d="m332.06 162.639h-217.447c-10.146 0-18.371-8.225-18.371-18.371v-3.41c0-10.146 8.225-18.371 18.371-18.371h217.447c10.146 0 18.371 8.225 18.371 18.371v3.41c0 10.147-8.225 18.371-18.371 18.371z" fill="url(#SVGID_8_)"/><path d="m332.06 510h-217.447c-10.146 0-18.371-8.225-18.371-18.371v-3.41c0-10.146 8.225-18.371 18.371-18.371h217.447c10.146 0 18.371 8.225 18.371 18.371v3.41c0 10.146-8.225 18.371-18.371 18.371z" fill="url(#SVGID_9_)"/></g><g><path d="m316.527 323.978-10.568 14.926c-1.569 2.216-2.427 4.857-2.46 7.573l-.221 18.283c-.069 5.682-3.718 10.702-9.102 12.52l-17.318 5.848c-2.581.871-4.834 2.51-6.459 4.695l-10.895 14.655c-3.396 4.567-9.308 6.488-14.74 4.788l-17.428-5.455c-2.603-.815-5.393-.815-7.997 0l-17.428 5.455c-5.432 1.7-11.344-.22-14.74-4.788l-10.896-14.655c-1.625-2.186-3.879-3.824-6.459-4.695l-17.318-5.848c-5.384-1.818-9.033-6.837-9.102-12.52l-.221-18.283c-.033-2.715-.891-5.356-2.46-7.573l-10.568-14.927c-3.281-4.634-3.281-10.835 0-15.469l10.568-14.926c1.569-2.216 2.427-4.857 2.46-7.573l.221-18.283c.069-5.682 3.718-10.702 9.102-12.52l17.318-5.848c2.581-.871 4.834-2.51 6.459-4.695l10.895-14.655c3.396-4.567 9.308-6.488 14.74-4.788l17.428 5.455c2.603.815 5.393.815 7.997 0l17.428-5.455c5.432-1.7 11.344.22 14.74 4.788l10.896 14.655c1.625 2.186 3.879 3.824 6.459 4.695l17.318 5.848c5.384 1.818 9.033 6.837 9.102 12.52l.221 18.283c.033 2.715.891 5.356 2.46 7.573l10.568 14.927c3.281 4.634 3.281 10.835 0 15.469z" fill="url(#SVGID_10_)"/><circle cx="223.337" cy="316.244" fill="url(#SVGID_11_)" r="67.777"/><path d="m317.089 323.114-49.301-49.301c-11.19-11.72-26.968-19.022-44.452-19.022-33.939 0-61.452 27.513-61.452 61.452 0 17.484 7.302 33.263 19.023 44.453l40.631 40.631c1.936-.262 3.915-.106 5.796.483l17.428 5.455c5.432 1.7 11.344-.221 14.74-4.788l10.895-14.655c1.625-2.186 3.879-3.824 6.459-4.695l17.318-5.848c5.384-1.818 9.033-6.837 9.102-12.52l.221-18.283c.033-2.715.891-5.356 2.46-7.573l10.568-14.926c.202-.281.389-.57.564-.863z" fill="url(#SVGID_12_)"/><g><g><g><g><circle cx="223.337" cy="316.244" fill="url(#SVGID_13_)" r="61.452"/></g><path d="m254.918 263.52c5.541 9.23 8.729 20.033 8.729 31.581 0 33.939-27.513 61.452-61.452 61.452-11.549 0-22.352-3.188-31.581-8.729 10.742 17.895 30.333 29.871 52.724 29.871 33.939 0 61.452-27.513 61.452-61.452-.001-22.39-11.978-41.981-29.872-52.723z" fill="url(#SVGID_14_)"/></g></g></g></g><path d="m350.431 144.269v-3.41c0-10.146-8.225-18.371-18.371-18.371h-94.056c2.41 9.745 7.419 18.979 15.035 26.594l92.849 92.849v-61.527c0-7.238-2.056-13.992-5.608-19.723 6.013-3.018 10.151-9.225 10.151-16.412z" fill="url(#SVGID_15_)"/><g><g><circle cx="363.307" cy="201.651" fill="url(#SVGID_16_)" r="36.554"/><circle cx="363.307" cy="201.651" fill="url(#SVGID_17_)" r="30.507"/><path d="m379.658 168.952c2.465 4.92 3.855 10.473 3.855 16.352 0 20.188-16.366 36.554-36.554 36.554-5.878 0-11.431-1.39-16.352-3.855 6.002 11.978 18.389 20.202 32.699 20.202 20.188 0 36.554-16.366 36.554-36.554.001-14.31-8.223-26.698-20.202-32.699z" fill="url(#SVGID_18_)"/></g><g><circle cx="148.956" cy="78.816" fill="url(#SVGID_19_)" r="36.554"/><circle cx="148.956" cy="78.815" fill="url(#SVGID_20_)" r="30.507"/><path d="m165.307 46.117c2.465 4.92 3.855 10.473 3.855 16.352 0 20.188-16.366 36.554-36.554 36.554-5.878 0-11.431-1.39-16.352-3.855 6.002 11.978 18.389 20.202 32.699 20.202 20.188 0 36.554-16.366 36.554-36.554.001-14.31-8.223-26.698-20.202-32.699z" fill="url(#SVGID_21_)"/></g><g><circle cx="383.79" cy="275.823" fill="url(#SVGID_22_)" r="29.967"/><circle cx="383.79" cy="275.823" fill="url(#SVGID_23_)" r="25.01"/><path d="m397.196 249.016c2.021 4.034 3.16 8.586 3.16 13.405 0 16.55-13.417 29.967-29.967 29.967-4.819 0-9.371-1.139-13.405-3.16 4.92 9.82 15.075 16.562 26.807 16.562 16.55 0 29.967-13.417 29.967-29.967 0-11.732-6.743-21.887-16.562-26.807z" fill="url(#SVGID_24_)"/></g><g><circle cx="335.507" cy="53.575" fill="url(#SVGID_25_)" r="53.575"/><circle cx="335.507" cy="53.575" fill="url(#SVGID_26_)" r="44.713"/><path d="m359.472 5.65c3.613 7.211 5.65 15.35 5.65 23.965 0 29.589-23.986 53.575-53.575 53.575-8.615 0-16.754-2.037-23.966-5.65 8.796 17.556 26.952 29.609 47.925 29.609 29.589 0 53.575-23.986 53.575-53.575 0-20.972-12.053-39.128-29.609-47.924z" fill="url(#SVGID_27_)"/></g><g><circle cx="349.982" cy="138.51" fill="url(#SVGID_28_)" r="59.698"/><circle cx="349.982" cy="138.51" fill="url(#SVGID_29_)" r="49.823"/><path d="m376.686 85.108c4.026 8.036 6.296 17.104 6.296 26.704 0 32.97-26.728 59.698-59.698 59.698-9.6 0-18.669-2.269-26.704-6.296 9.802 19.562 30.032 32.993 53.402 32.993 32.97 0 59.698-26.728 59.698-59.698-.001-23.369-13.432-43.599-32.994-53.401z" fill="url(#SVGID_30_)"/></g><g><circle cx="254.465" cy="67.842" fill="url(#SVGID_31_)" r="47.973"/><circle cx="254.465" cy="67.842" fill="url(#SVGID_32_)" r="40.038"/><path d="m275.925 24.929c3.236 6.457 5.059 13.745 5.059 21.46 0 26.495-21.478 47.973-47.973 47.973-7.714 0-15.002-1.824-21.46-5.059 7.877 15.72 24.133 26.513 42.914 26.513 26.495 0 47.973-21.478 47.973-47.973 0-18.781-10.793-35.038-26.513-42.914z" fill="url(#SVGID_33_)"/></g><g><circle cx="293.384" cy="108.736" fill="url(#SVGID_34_)" r="57.058"/><circle cx="293.384" cy="108.736" fill="url(#SVGID_35_)" r="47.62"/></g></g></g></svg>