<svg height="512pt" viewBox="0 0 512 512" width="512pt" xmlns="http://www.w3.org/2000/svg"><path d="m416 512h-128v-32.207031c.003906-4.199219-1.664062-8.226563-4.636719-11.1875-2.972656-2.964844-7.003906-4.621094-11.203125-4.605469h-.320312c-4.195313-.015625-8.222656 1.636719-11.195313 4.597656-2.972656 2.960938-4.644531 6.984375-4.644531 11.179688v32.222656h-128v-70.398438c-30.605469-17.769531-56.121094-43.117187-74.097656-73.601562h-53.902344v-128h39.710938c26.960937-84.160156 122.226562-144 232.289062-144 132.335938 0 240 86.128906 240 192 0 60.59375-35.695312 117.40625-96 153.601562zm0 0" fill="#008dff"/><path d="m80 224h32v32h-32zm0 0" fill="#fff"/><path d="m512 176c0 97.203125-78.796875 176-176 176s-176-78.796875-176-176 78.796875-176 176-176 176 78.796875 176 176zm0 0" fill="#f8d539"/><path d="m448 160h32v32h-32zm0 0" fill="#fff"/><path d="m184 160h32v32h-32zm0 0" fill="#fff"/><path d="m336.0625 234.769531-69.710938-30.355469 69.648438 83.585938 10.464844-12.558594v-45.21875zm0 0" fill="#708299"/><path d="m336 64-80 128h160zm0 0" fill="#708299"/><path d="m416 192.191406-80-128.191406v128.191406zm0 0" fill="#68788e"/><path d="m336 157.230469-.320312-.125-79.664063 35.007812h.0625l79.683594 34.992188.300781-.128907 10.402344-4.542968v-60.625zm0 0" fill="#3c3c47"/><path d="m336.0625 234.769531-.0625 53.230469 69.695312-83.632812zm0 0" fill="#68788e"/><path d="m415.839844 192.113281-79.839844-34.882812-.320312-.125.082031 70 .300781-.128907 79.859375-34.863281zm0 0" fill="#31313b"/></svg>