<svg id="Capa_1" enable-background="new 0 0 510 510" height="512" viewBox="0 0 510 510" width="512" xmlns="http://www.w3.org/2000/svg" xmlns:xlink="http://www.w3.org/1999/xlink"><linearGradient id="lg1"><stop offset="0" stop-color="#8a7889"/><stop offset="1" stop-color="#6e566e"/></linearGradient><linearGradient id="SVGID_1_" gradientUnits="userSpaceOnUse" x1="254.239" x2="299.112" xlink:href="#lg1" y1="265.828" y2="442.326"/><linearGradient id="lg2"><stop offset="0" stop-color="#6e566e" stop-opacity="0"/><stop offset=".8228" stop-color="#59465a" stop-opacity=".866"/><stop offset="1" stop-color="#564357"/></linearGradient><linearGradient id="SVGID_2_" gradientUnits="userSpaceOnUse" x1="261.38" x2="256.04" xlink:href="#lg2" y1="318.301" y2="222.722"/><linearGradient id="SVGID_3_" gradientUnits="userSpaceOnUse" x1="330.822" x2="284.34" xlink:href="#lg2" y1="355.47" y2="355.47"/><linearGradient id="lg3"><stop offset="0" stop-color="#ff7044"/><stop offset="1" stop-color="#f82814"/></linearGradient><linearGradient id="SVGID_4_" gradientUnits="userSpaceOnUse" x1="220.148" x2="338.154" xlink:href="#lg3" y1="335.841" y2="401.518"/><linearGradient id="SVGID_5_" gradientUnits="userSpaceOnUse" x1="349.543" x2="398.267" xlink:href="#lg3" y1="24.48" y2="139.33"/><linearGradient id="lg4"><stop offset="0" stop-color="#f82814" stop-opacity="0"/><stop offset="1" stop-color="#c0272d"/></linearGradient><linearGradient id="SVGID_6_" gradientTransform="matrix(1 .004 -.004 1 1695.971 309.752)" gradientUnits="userSpaceOnUse" x1="-1315.467" x2="-1417.552" xlink:href="#lg4" y1="-181.879" y2="-231.031"/><linearGradient id="SVGID_7_" gradientUnits="userSpaceOnUse" x1="139.573" x2="130.872" xlink:href="#lg3" y1="22.191" y2="146.612"/><linearGradient id="SVGID_8_" gradientTransform="matrix(-1 .004 .004 1 2.709 309.752)" gradientUnits="userSpaceOnUse" x1="-126.807" x2="-228.892" xlink:href="#lg4" y1="-186.753" y2="-235.904"/><linearGradient id="SVGID_9_" gradientTransform="matrix(.844 -.537 .537 .844 1738.37 -47.671)" gradientUnits="userSpaceOnUse" x1="-1354.883" x2="-1350.721" xlink:href="#lg3" y1="-664.61" y2="-585.819"/><linearGradient id="SVGID_10_" gradientTransform="matrix(.844 -.537 .537 .844 1738.37 -47.671)" gradientUnits="userSpaceOnUse" x1="-1353.391" x2="-1353.391" y1="-625.558" y2="-714.704"><stop offset="0" stop-color="#ff7044" stop-opacity="0"/><stop offset="1" stop-color="#ffa325"/></linearGradient><linearGradient id="SVGID_11_" gradientTransform="matrix(1 -.014 .014 1 2388.716 -387.721)" gradientUnits="userSpaceOnUse" x1="-2139.376" x2="-2072.108" xlink:href="#lg4" y1="518.38" y2="393.272"/><linearGradient id="SVGID_12_" gradientUnits="userSpaceOnUse" x1="298.296" x2="241.162" xlink:href="#lg4" y1="316.914" y2="208.52"/><linearGradient id="SVGID_13_" gradientUnits="userSpaceOnUse" x1="244.62" x2="268.647" xlink:href="#lg1" y1="163.27" y2="257.777"/><linearGradient id="SVGID_14_" gradientUnits="userSpaceOnUse" x1="337.764" x2="293.976" xlink:href="#lg2" y1="204.1" y2="204.1"/><linearGradient id="SVGID_15_" gradientUnits="userSpaceOnUse" x1="232.114" x2="289.781" xlink:href="#lg3" y1="163.625" y2="265.611"/><g><path d="m398.848 506.84h-287.696c-18.465 0-34.08-13.666-36.526-31.969l-36.191-270.771h433.129l-36.19 270.771c-2.446 18.303-18.06 31.969-36.526 31.969z" fill="url(#SVGID_1_)"/><path d="m38.435 204.1 6.979 52.216.013-.185 250.709 250.709h102.712c18.465 0 34.08-13.667 36.526-31.969l36.19-270.771z" fill="url(#SVGID_2_)"/><path d="m255 204.1h122.811v302.74h-122.811z" fill="url(#SVGID_3_)"/><path d="m288.36 510h-66.72c-4.859 0-8.798-3.939-8.798-8.798v-297.102h84.316v297.102c0 4.859-3.939 8.798-8.798 8.798z" fill="url(#SVGID_4_)"/><g><g><g><g><path d="m258.652 121.494 33.008-63.029c18.897-36.085 56.328-58.631 97.06-58.465l74.363.303c24.902.101 39.836 27.703 26.298 48.603l-32.156 49.644c-15.661 24.178-40.253 41.178-68.405 47.288l-95.784 20.789c-25.967 5.636-46.712-21.593-34.384-45.133z" fill="url(#SVGID_5_)"/><path d="m422.223 66.774c-65.873-.268-125.295 27.485-167.067 72.017 1.597 17.537 18.228 32.102 37.881 27.836l95.784-20.789c28.152-6.11 52.743-23.11 68.404-47.289l16.594-25.618c-16.578-3.915-33.833-6.084-51.596-6.157z" fill="url(#SVGID_6_)"/></g><g><g><path d="m251.348 121.494-33.008-63.028c-18.897-36.085-56.328-58.631-97.06-58.465l-74.363.303c-24.901.101-39.836 27.703-26.298 48.603l32.155 49.643c15.661 24.178 40.252 41.178 68.405 47.288l95.784 20.789c25.968 5.636 46.713-21.593 34.385-45.133z" fill="url(#SVGID_7_)"/><path d="m87.777 66.774c65.873-.268 125.295 27.485 167.067 72.017-1.597 17.537-18.228 32.102-37.881 27.836l-95.784-20.789c-28.152-6.11-52.743-23.11-68.404-47.289l-16.595-25.618c16.579-3.915 33.834-6.084 51.597-6.157z" fill="url(#SVGID_8_)"/></g></g></g><g><path d="m303.94 141.774c.385 27.024-21.214 49.244-48.242 49.629-27.029.385-49.253-21.209-49.638-48.233s21.214-49.243 48.242-49.629c27.029-.386 49.253 21.209 49.638 48.233z" fill="url(#SVGID_9_)"/><path d="m295.845 141.89c.322 22.554-17.704 41.098-40.263 41.42-22.558.322-41.106-17.701-41.428-40.255s17.705-41.098 40.263-41.42c22.559-.322 41.106 17.701 41.428 40.255z" fill="url(#SVGID_10_)"/><path d="m276.268 98.389c3.395 6.539 5.361 13.946 5.474 21.815.385 27.024-21.214 49.244-48.243 49.629-7.87.112-15.331-1.642-21.966-4.848 8.264 15.919 25.006 26.691 44.165 26.418 27.029-.386 48.628-22.605 48.242-49.629-.273-19.155-11.52-35.579-27.672-43.385z" fill="url(#SVGID_11_)"/></g></g></g><path d="m297.158 204.1h-84.316v61.346l84.316 84.316z" fill="url(#SVGID_12_)"/><path d="m464.573 256.131h-419.146c-10.096 0-18.281-8.185-18.281-18.281v-67.5c0-10.096 8.185-18.281 18.281-18.281h419.146c10.096 0 18.281 8.185 18.281 18.281v67.501c0 10.096-8.185 18.28-18.281 18.28z" fill="url(#SVGID_13_)"/><path d="m255 152.068h100.918v104.063h-100.918z" fill="url(#SVGID_14_)"/><path d="m299.182 263.301h-88.363c-3.687 0-6.677-2.989-6.677-6.677v-105.048c0-3.687 2.989-6.677 6.677-6.677h88.363c3.687 0 6.677 2.989 6.677 6.677v105.049c-.001 3.687-2.99 6.676-6.677 6.676z" fill="url(#SVGID_15_)"/></g></svg>