<svg id="Capa_1" enable-background="new 0 0 512 512" height="512" viewBox="0 0 512 512" width="512" xmlns="http://www.w3.org/2000/svg"><g><g fill="#c5bec6"><path d="m229.523 132.331-89.927 90.341c-2.985 2.999-2.974 7.851.025 10.836 1.496 1.489 3.45 2.232 5.405 2.232 1.966 0 3.933-.752 5.43-2.257l89.927-90.341c2.985-2.999 2.974-7.851-.025-10.836-3-2.985-7.849-2.976-10.835.025z"/><path d="m364.873 233.628c1.955 0 3.911-.743 5.405-2.232 2.999-2.985 3.01-7.837.025-10.836l-87.826-88.23c-2.987-3.001-7.839-3.01-10.836-.025-2.999 2.985-3.01 7.837-.025 10.836l87.826 88.23c1.498 1.505 3.464 2.257 5.431 2.257z"/><path d="m150.287 328.295c-.002-.007-.005-.012-.008-.019-.078-.225-.168-.446-.268-.664-.007-.015-.012-.032-.019-.047-.095-.204-.202-.403-.316-.6-.015-.026-.028-.055-.043-.081-.045-.075-.098-.146-.145-.22-.373-.582-.814-1.106-1.315-1.557-.003-.003-.006-.006-.009-.009-.026-.024-.055-.043-.081-.066-.159-.139-.322-.273-.491-.398-.084-.062-.171-.115-.256-.173-.118-.08-.234-.16-.356-.233-.117-.07-.237-.132-.357-.195-.097-.051-.193-.105-.292-.152-.131-.062-.264-.116-.397-.17-.096-.039-.191-.08-.289-.115-.129-.046-.259-.085-.389-.124-.11-.033-.219-.068-.33-.096-.116-.029-.233-.052-.351-.076-.13-.027-.259-.053-.391-.073-.101-.015-.202-.024-.303-.035-.148-.016-.296-.032-.445-.04-.092-.005-.183-.003-.275-.005-.155-.002-.31-.004-.466.003-.098.005-.196.016-.294.024-.145.012-.29.024-.436.045-.13.019-.259.046-.388.071-.111.022-.222.04-.332.067-.196.047-.389.107-.582.169-.04.013-.081.021-.121.035-.005.002-.009.004-.014.006-.48.167-.946.381-1.39.644-.001.001-.003.001-.004.002-.109.065-.214.141-.321.212s-.218.138-.321.214c-.001.001-.003.002-.004.003-.415.307-.792.653-1.131 1.03-.004.004-.008.008-.012.012l-90.123 100.482c-2.825 3.151-2.562 7.994.588 10.82 1.464 1.313 3.291 1.958 5.113 1.958 2.101 0 4.194-.859 5.707-2.546l81.433-90.794 30.532 88.185c1.096 3.169 4.065 5.157 7.24 5.157.831 0 1.677-.137 2.507-.424 3.999-1.384 6.118-5.749 4.733-9.747z"/><path d="m462.652 426.235-87.934-100.479c-.013-.015-.028-.028-.042-.043-.118-.133-.243-.258-.371-.383-.056-.055-.11-.114-.168-.167-.117-.108-.242-.208-.366-.309-.076-.062-.149-.127-.227-.185-.099-.074-.205-.141-.308-.211-.11-.074-.219-.151-.332-.22-.077-.046-.159-.086-.238-.13-.146-.081-.292-.162-.442-.233-.067-.031-.137-.058-.206-.088-.167-.073-.334-.143-.505-.204-.019-.007-.036-.016-.055-.022-.063-.022-.126-.035-.19-.055-.157-.05-.315-.098-.474-.138-.109-.027-.219-.048-.328-.07-.13-.026-.26-.052-.391-.072-.132-.02-.264-.033-.396-.045-.111-.011-.222-.021-.333-.027-.141-.007-.281-.008-.422-.008-.107 0-.214.001-.321.006-.136.006-.271.018-.406.031-.115.011-.23.024-.344.04-.121.018-.241.04-.361.063-.128.025-.257.051-.384.083-.104.026-.206.055-.309.086-.138.04-.276.083-.412.132-.093.033-.184.07-.275.106-.138.055-.275.112-.411.176-.093.044-.184.091-.274.138-.125.065-.25.131-.373.203-.106.062-.208.131-.311.198-.101.067-.202.132-.301.204-.125.091-.245.19-.365.289-.056.047-.116.087-.171.135-.016.014-.03.031-.046.045-.129.114-.251.237-.372.36-.058.059-.12.116-.176.177-.106.116-.205.239-.305.361-.062.077-.129.152-.188.231-.074.099-.141.204-.21.307-.075.111-.152.219-.22.333-.046.077-.086.158-.13.237-.081.146-.162.293-.233.443-.031.067-.058.137-.087.205-.073.167-.144.334-.204.505-.007.019-.015.036-.022.054l-36.043 104.104c-1.385 3.999.734 8.363 4.733 9.747.83.287 1.676.424 2.507.424 3.175 0 6.144-1.988 7.24-5.157l31.726-91.635 79.245 90.551c1.514 1.731 3.635 2.616 5.769 2.616 1.791 0 3.59-.625 5.043-1.897 3.184-2.786 3.507-7.627.719-10.812z"/></g><path d="m209.895 86.859v8.843c0 24.438 10.535 31.296 25.058 42.034 7.054 5.215 11.532 7.422 15.938 8.245 4.406-.823 13.499-1.41 20.553-6.625 14.044-10.384 26.201-54.807 19.23-60.335-6.97-5.529-80.779 7.838-80.779 7.838z" fill="#ffc5ae"/><path d="m209.895 58.763v28.096h71.775c-.035 23.227-.795 40.493-14.839 50.877-7.054 5.215-11.532 7.422-15.938 8.245 1.668.311 3.326.431 5.109.431 6.492 0 11.323-1.486 21.047-8.676 14.523-10.738 25.058-17.596 25.058-42.034v-36.94h-92.212z" fill="#eaab8a"/><path d="m290.915 58.828c0-27.77-5.533-46.393-22.256-52.672-6.743 3.402-12.659 7.721-12.659 7.721s-16.081-11.748-25.438-11.748-20.667 18.755-20.667 56.633z" fill="#877f87"/><path d="m281.671 58.763h20.434c0-37.878-11.31-56.633-20.667-56.633-3.682 0-8.404 1.821-12.779 4.028 6.932 7.357 13.012 24.835 13.012 52.605z" fill="#777078"/><path d="m324.815 66.425h-137.63c-4.232 0-7.662-3.43-7.662-7.662s3.43-7.662 7.662-7.662h137.631c4.232 0 7.662 3.43 7.662 7.662s-3.431 7.662-7.663 7.662z" fill="#777078"/><path d="m390.853 270.964-61.018 13.567v3.246c0 20.735 8.939 26.554 21.261 35.664 5.573 4.121 9.251 6.029 12.749 6.836 3.498-.807 11.189-1.247 16.732-5.408 23.046-17.298 10.276-53.905 10.276-53.905z" fill="#ffc5ae"/><path d="m329.834 256.434v28.096h57.803v3.246c0 20.735 1.278 26.554-11.044 35.664-5.573 4.121-9.251 6.029-12.749 6.836 1.681.388 3.321.525 5.109.525 5.508 0 9.607-1.261 17.858-7.361 12.322-9.111 21.261-14.929 21.261-35.664v-31.342z" fill="#eaab8a"/><path d="m377.573 212.917c-4.786 2.632-8.62 5.433-8.62 5.433s-13.644-9.968-21.584-9.968-17.535 15.913-17.535 48.051l68.771.648c1.262-30.828-10.93-40.023-21.032-44.164z" fill="#a59da7"/><path d="m390.537 208.383c-3.731 0-8.721 2.201-12.964 4.535 5.465 6.8 10.065 21.267 10.065 43.517h20.434c0-32.139-9.596-48.052-17.535-48.052z" fill="#877f87"/><path d="m427.34 264.096h-116.774c-4.232 0-7.662-3.43-7.662-7.662s3.43-7.662 7.662-7.662h116.774c4.232 0 7.662 3.43 7.662 7.662s-3.43 7.662-7.662 7.662z" fill="#877f87"/><path d="m164.947 270.964-61.018 13.567v3.246c0 20.735 8.939 26.554 21.261 35.664 5.573 4.121 9.251 6.029 12.749 6.836 3.498-.807 11.189-1.247 16.732-5.408 23.045-17.298 10.276-53.905 10.276-53.905z" fill="#ffc5ae"/><path d="m103.928 256.434v28.096h57.803v3.246c0 20.735 1.278 26.554-11.044 35.664-5.573 4.121-9.251 6.029-12.749 6.836 1.681.388 3.321.525 5.109.525 5.508 0 9.607-1.261 17.858-7.361 12.322-9.111 21.261-14.929 21.261-35.664v-31.342z" fill="#eaab8a"/><path d="m151.667 212.917c-4.786 2.632-8.62 5.433-8.62 5.433s-13.644-9.968-21.584-9.968-17.535 15.913-17.535 48.051l68.771.648c1.262-30.828-10.93-40.023-21.032-44.164z" fill="#a59da7"/><path d="m164.63 208.383c-3.731 0-8.721 2.201-12.964 4.535 5.465 6.8 10.065 21.267 10.065 43.517h20.434c.001-32.139-9.595-48.052-17.535-48.052z" fill="#877f87"/><path d="m201.433 264.096h-116.773c-4.232 0-7.662-3.43-7.662-7.662s3.43-7.662 7.662-7.662h116.773c4.232 0 7.662 3.43 7.662 7.662s-3.43 7.662-7.662 7.662z" fill="#877f87"/><path d="m427.788 474.474v1.618c0 16.279 7.018 20.847 16.692 27.999 4.122 3.048 6.924 4.553 9.531 5.248 2.47-.645 22.658-10.443 22.658-26.722 0 0-5.329-17.376-9.014-20.801-3.686-3.425-39.867 12.658-39.867 12.658z" fill="#ffc5ae"/><path d="m427.788 451.486v22.988h40.988v1.618c0 16.279-.059 21.584-6.475 27.999-3.174 3.174-5.821 4.603-8.291 5.248 1.49.397 2.916.531 4.489.531 4.324 0 7.542-.99 14.02-5.779 9.674-7.153 16.692-11.721 16.692-27.999v-24.606z" fill="#eaab8a"/><path d="m441.555 413.762c-6.233 0-13.767 12.493-13.767 37.724l51.765-.238c0-15.684-6.49-28.305-17.389-32.103-2.182 1.36-3.665 2.443-3.665 2.443s-10.712-7.826-16.944-7.826z" fill="#a59da7"/><path d="m489.21 451.486c0-25.231-7.533-37.724-13.767-37.724-3.915 0-9.595 3.086-13.279 5.383 3.7 5.899 6.612 16.657 6.612 32.341z" fill="#877f87"/><path d="m504.338 459.149h-91.677c-4.232 0-7.662-3.43-7.662-7.662s3.43-7.662 7.662-7.662h91.677c4.232 0 7.662 3.43 7.662 7.662s-3.43 7.662-7.662 7.662z" fill="#877f87"/><path d="m302.79 474.474v1.618c0 16.279 7.018 20.847 16.692 27.999 4.122 3.048 6.924 4.553 9.531 5.248 2.47-.645 22.658-10.443 22.658-26.722 0 0-5.329-17.376-9.014-20.801-3.686-3.425-39.867 12.658-39.867 12.658z" fill="#ffc5ae"/><path d="m302.79 451.486v22.988h40.988v1.618c0 16.279-.059 21.584-6.475 27.999-3.174 3.174-5.821 4.603-8.291 5.248 1.49.397 2.916.531 4.489.531 4.324 0 7.542-.99 14.02-5.779 9.674-7.153 16.692-11.721 16.692-27.999v-24.606z" fill="#eaab8a"/><path d="m316.557 413.762c-6.233 0-13.767 12.493-13.767 37.724l51.765-.238c0-15.684-6.49-28.305-17.389-32.103-2.182 1.36-3.665 2.443-3.665 2.443s-10.711-7.826-16.944-7.826z" fill="#a59da7"/><path d="m364.213 451.486c0-25.231-7.533-37.724-13.767-37.724-3.915 0-9.595 3.086-13.279 5.383 3.7 5.899 6.612 16.657 6.612 32.341z" fill="#877f87"/><path d="m379.34 459.149h-91.677c-4.232 0-7.662-3.43-7.662-7.662s3.43-7.662 7.662-7.662h91.677c4.232 0 7.662 3.43 7.662 7.662s-3.43 7.662-7.662 7.662z" fill="#877f87"/><path d="m147.787 474.474v1.618c0 16.279 7.018 20.847 16.692 27.999 4.122 3.048 6.924 4.553 9.531 5.248 2.47-.645 22.658-10.443 22.658-26.722 0 0-5.329-17.376-9.014-20.801-3.686-3.425-39.867 12.658-39.867 12.658z" fill="#ffc5ae"/><path d="m147.787 451.486v22.988h40.988v1.618c0 16.279-.059 21.584-6.475 27.999-3.174 3.174-5.821 4.603-8.291 5.248 1.49.397 2.916.531 4.489.531 4.324 0 7.542-.99 14.02-5.779 9.674-7.153 16.692-11.721 16.692-27.999v-24.606z" fill="#eaab8a"/><path d="m161.553 413.762c-6.233 0-13.767 12.493-13.767 37.724l51.765-.238c0-15.684-6.49-28.305-17.389-32.103-2.182 1.36-3.665 2.443-3.665 2.443s-10.711-7.826-16.944-7.826z" fill="#a59da7"/><path d="m209.209 451.486c0-25.231-7.533-37.724-13.767-37.724-3.915 0-9.595 3.086-13.279 5.383 3.7 5.899 6.612 16.657 6.612 32.341z" fill="#877f87"/><path d="m224.337 459.149h-91.677c-4.232 0-7.662-3.43-7.662-7.662s3.43-7.662 7.662-7.662h91.677c4.232 0 7.662 3.43 7.662 7.662s-3.43 7.662-7.662 7.662z" fill="#877f87"/><path d="m22.789 474.474v1.618c0 16.279 7.018 20.847 16.692 27.999 4.122 3.048 6.924 4.553 9.531 5.248 2.47-.645 22.658-10.443 22.658-26.722 0 0-5.329-17.376-9.014-20.801-3.686-3.425-39.867 12.658-39.867 12.658z" fill="#ffc5ae"/><path d="m22.789 451.486v22.988h40.988v1.618c0 16.279-.059 21.584-6.475 27.999-3.174 3.174-5.821 4.603-8.291 5.248 1.49.397 2.916.531 4.489.531 4.324 0 7.542-.99 14.02-5.779 9.674-7.153 16.692-11.721 16.692-27.999v-24.606z" fill="#eaab8a"/><path d="m36.556 413.762c-6.233 0-13.767 12.493-13.767 37.724l51.765-.238c0-15.684-6.49-28.305-17.389-32.103-2.182 1.36-3.665 2.443-3.665 2.443s-10.711-7.826-16.944-7.826z" fill="#a59da7"/><path d="m84.212 451.486c0-25.231-7.533-37.724-13.767-37.724-3.915 0-9.595 3.086-13.279 5.383 3.7 5.899 6.612 16.657 6.612 32.341z" fill="#877f87"/><path d="m99.339 459.149h-91.677c-4.232 0-7.662-3.43-7.662-7.662s3.43-7.662 7.662-7.662h91.677c4.232 0 7.662 3.43 7.662 7.662s-3.43 7.662-7.662 7.662z" fill="#877f87"/></g></svg>