<svg id="Capa_1" enable-background="new 0 0 510 510" height="512" viewBox="0 0 510 510" width="512" xmlns="http://www.w3.org/2000/svg" xmlns:xlink="http://www.w3.org/1999/xlink"><linearGradient id="lg1"><stop offset="0" stop-color="#91f27f"/><stop offset="1" stop-color="#4ab172"/></linearGradient><linearGradient id="SVGID_1_" gradientTransform="matrix(-.968 .25 -.25 -.968 2246.518 -2055.826)" gradientUnits="userSpaceOnUse" x1="2296.858" x2="2276.333" xlink:href="#lg1" y1="-1779.554" y2="-1779.554"/><linearGradient id="lg2"><stop offset="0" stop-color="#4ab172" stop-opacity="0"/><stop offset="1" stop-color="#009145"/></linearGradient><linearGradient id="SVGID_2_" gradientTransform="matrix(-.987 .16 -.16 -.987 2309.913 -2049.313)" gradientUnits="userSpaceOnUse" x1="2177.522" x2="2181.98" xlink:href="#lg2" y1="-1974.004" y2="-1950.39"/><linearGradient id="SVGID_3_" gradientTransform="matrix(-.912 .409 -.409 -.912 1853.107 -1940.302)" gradientUnits="userSpaceOnUse" x1="2172.821" x2="2152.956" xlink:href="#lg1" y1="-1448.9" y2="-1448.9"/><linearGradient id="SVGID_4_" gradientTransform="matrix(-.946 .324 -.324 -.946 1916.864 -1944.465)" gradientUnits="userSpaceOnUse" x1="2084.848" x2="2089.163" xlink:href="#lg2" y1="-1632.959" y2="-1610.105"/><linearGradient id="SVGID_5_" gradientTransform="matrix(.265 .964 -.964 .265 460.086 855.709)" gradientUnits="userSpaceOnUse" x1="-550.844" x2="-570.708" xlink:href="#lg1" y1="-185.476" y2="-185.476"/><linearGradient id="SVGID_6_" gradientTransform="matrix(.175 .985 -.985 .175 465.09 791.672)" gradientUnits="userSpaceOnUse" x1="-510.241" x2="-505.926" xlink:href="#lg2" y1="-124.863" y2="-102.008"/><linearGradient id="SVGID_7_" gradientTransform="matrix(.139 .99 -.99 .139 391.165 541.371)" gradientUnits="userSpaceOnUse" x1="-271.944" x2="-291.808" xlink:href="#lg1" y1="-146.422" y2="-146.422"/><linearGradient id="SVGID_8_" gradientTransform="matrix(.048 .999 -.999 .048 404.433 479.252)" gradientUnits="userSpaceOnUse" x1="-229.685" x2="-225.37" xlink:href="#lg2" y1="-111.55" y2="-88.696"/><linearGradient id="SVGID_9_" gradientTransform="matrix(.26 .966 -.966 .26 667.546 525.384)" gradientUnits="userSpaceOnUse" x1="-346.19" x2="-282.176" xlink:href="#lg1" y1="99.873" y2="99.873"/><linearGradient id="SVGID_10_" gradientTransform="matrix(-.231 .973 -.973 -.231 362.368 -314.142)" gradientUnits="userSpaceOnUse" x1="569.553" x2="549.687" xlink:href="#lg1" y1="-255.569" y2="-255.569"/><linearGradient id="lg3"><stop offset="0" stop-color="#ffd945"/><stop offset=".3043" stop-color="#ffcd3e"/><stop offset=".8558" stop-color="#ffad2b"/><stop offset="1" stop-color="#ffa325"/></linearGradient><linearGradient id="SVGID_11_" gradientTransform="matrix(1 0 0 -1 0 512)" gradientUnits="userSpaceOnUse" x1="218.804" x2="193.27" xlink:href="#lg3" y1="97.886" y2="108.001"/><linearGradient id="SVGID_12_" gradientTransform="matrix(1 0 0 -1 0 512)" gradientUnits="userSpaceOnUse" x1="233.755" x2="208.221" xlink:href="#lg3" y1="95.596" y2="105.711"/><linearGradient id="SVGID_13_" gradientTransform="matrix(1 0 0 -1 0 512)" gradientUnits="userSpaceOnUse" x1="252.07" x2="226.537" xlink:href="#lg3" y1="93.078" y2="103.193"/><linearGradient id="SVGID_14_" gradientTransform="matrix(-.327 .945 .57 .198 4.86 -728.7)" gradientUnits="userSpaceOnUse" x1="723.851" x2="734.293" xlink:href="#lg3" y1="1269.226" y2="1269.226"/><linearGradient id="SVGID_15_" gradientTransform="matrix(-.327 .945 .57 .198 4.86 -728.7)" gradientUnits="userSpaceOnUse" x1="737.399" x2="712.676" y1="1257.684" y2="1285.35"><stop offset="0" stop-color="#ffd945" stop-opacity="0"/><stop offset="1" stop-color="#fbed21"/></linearGradient><linearGradient id="lg4"><stop offset="0" stop-color="#ffd945" stop-opacity="0"/><stop offset="1" stop-color="#b43759"/></linearGradient><linearGradient id="SVGID_16_" gradientTransform="matrix(-.327 .945 .57 .198 4.86 -728.7)" gradientUnits="userSpaceOnUse" x1="729.302" x2="766.092" xlink:href="#lg4" y1="1287.128" y2="1201.283"/><linearGradient id="SVGID_17_" gradientTransform="matrix(-.327 .945 .57 .198 4.86 -728.7)" gradientUnits="userSpaceOnUse" x1="730.908" x2="730.908" xlink:href="#lg4" y1="1251.371" y2="1227.292"/><linearGradient id="lg5"><stop offset="0" stop-color="#f8f6fb"/><stop offset="1" stop-color="#efdcfb"/></linearGradient><linearGradient id="SVGID_18_" gradientTransform="matrix(1 0 0 -1 0 512)" gradientUnits="userSpaceOnUse" x1="250.543" x2="352.376" xlink:href="#lg5" y1="244.689" y2="48.916"/><linearGradient id="lg6"><stop offset="0" stop-color="#efdcfb" stop-opacity="0"/><stop offset=".4856" stop-color="#baaad6" stop-opacity=".486"/><stop offset="1" stop-color="#8679b2"/></linearGradient><linearGradient id="SVGID_19_" gradientTransform="matrix(1 0 0 -1 0 512)" gradientUnits="userSpaceOnUse" x1="95.751" x2="74.497" xlink:href="#lg6" y1="229.775" y2="165.087"/><linearGradient id="SVGID_20_" gradientTransform="matrix(1 0 0 -1 0 512)" gradientUnits="userSpaceOnUse" x1="91.95" x2="87.022" xlink:href="#lg6" y1="196.777" y2="154.575"/><linearGradient id="SVGID_21_" gradientTransform="matrix(1 0 0 -1 0 512)" gradientUnits="userSpaceOnUse" x1="97.141" x2="103.917" xlink:href="#lg6" y1="179.371" y2="128.853"/><linearGradient id="SVGID_22_" gradientTransform="matrix(1 0 0 -1 0 512)" gradientUnits="userSpaceOnUse" x1="431.997" x2="495.993" xlink:href="#lg6" y1="302.603" y2="211.458"/><linearGradient id="SVGID_23_" gradientTransform="matrix(1 0 0 -1 0 512)" gradientUnits="userSpaceOnUse" x1="315.627" x2="116.505" xlink:href="#lg6" y1="178.17" y2="257.053"/><linearGradient id="SVGID_24_" gradientTransform="matrix(1 0 0 -1 0 512)" gradientUnits="userSpaceOnUse" x1="251.114" x2="250.207" xlink:href="#lg5" y1="202.584" y2="156.324"/><linearGradient id="SVGID_25_" gradientTransform="matrix(1 0 0 -1 0 512)" gradientUnits="userSpaceOnUse" x1="249.065" x2="237.727" xlink:href="#lg5" y1="227.035" y2="174.426"/><linearGradient id="SVGID_26_" gradientTransform="matrix(1 0 0 -1 0 512)" gradientUnits="userSpaceOnUse" x1="248.852" x2="228.375" xlink:href="#lg5" y1="258.592" y2="207.676"/><linearGradient id="SVGID_27_" gradientTransform="matrix(1 0 0 -1 0 512)" gradientUnits="userSpaceOnUse" x1="259.251" x2="222.703" xlink:href="#lg5" y1="290.681" y2="244.167"/><linearGradient id="SVGID_28_" gradientTransform="matrix(1 0 0 -1 0 512)" gradientUnits="userSpaceOnUse" x1="273.776" x2="231.646" xlink:href="#lg5" y1="324.151" y2="295.88"/><linearGradient id="SVGID_29_" gradientTransform="matrix(1 0 0 -1 .875 355.718)" gradientUnits="userSpaceOnUse" x1="422.634" x2="441.683" y1="184.605" y2="165.557"><stop offset="0" stop-color="#8a7889"/><stop offset="1" stop-color="#6e566e"/></linearGradient><linearGradient id="SVGID_30_" gradientTransform="matrix(1 0 0 -1 .875 355.718)" gradientUnits="userSpaceOnUse" x1="429.602" x2="416.293" y1="177.638" y2="190.947"><stop offset="0" stop-color="#8a7889" stop-opacity="0"/><stop offset="1" stop-color="#9d8b91"/></linearGradient><linearGradient id="SVGID_31_" gradientTransform="matrix(1 0 0 -1 .875 355.718)" gradientUnits="userSpaceOnUse" x1="428.648" x2="448.863" y1="173.466" y2="211.065"><stop offset="0" stop-color="#6e566e" stop-opacity="0"/><stop offset="1" stop-color="#6e566e"/></linearGradient><path d="m486.957 232.368s-19.599-15.168-27.149 15.368c-.315 1.274.44 2.567 1.701 2.934 6.059 1.763 22.712 4.437 25.448-18.302z" fill="url(#SVGID_1_)"/><path d="m461.509 250.67c-.699-.203-1.241-.692-1.533-1.303 11.746-9.581 26.982-16.998 26.982-16.998-2.737 22.738-19.39 20.064-25.449 18.301z" fill="url(#SVGID_2_)"/><path d="m480.83 259.167s-21.167-11.279-23.397 19.082c-.093 1.267.838 2.377 2.1 2.522 6.067.695 22.389.534 21.297-21.604z" fill="url(#SVGID_3_)"/><path d="m459.533 280.77c-.7-.08-1.297-.458-1.675-.994 9.645-11.053 22.972-20.61 22.972-20.61 1.092 22.139-15.23 22.3-21.297 21.604z" fill="url(#SVGID_4_)"/><path d="m483.876 256.981s-14.388 19.189 15.272 26.044c1.238.286 2.477-.464 2.814-1.689 1.617-5.889 3.959-22.043-18.086-24.355z" fill="url(#SVGID_5_)"/><path d="m501.962 281.336c-.187.679-.651 1.211-1.239 1.503-9.444-11.224-16.847-25.858-16.847-25.858 22.045 2.312 19.703 18.466 18.086 24.355z" fill="url(#SVGID_6_)"/><path d="m491.476 232.221s-16.724 17.192 11.817 27.783c1.191.442 2.516-.143 3.006-1.315 2.357-5.635 6.744-21.356-14.823-26.468z" fill="url(#SVGID_7_)"/><path d="m506.299 258.689c-.272.65-.801 1.118-1.421 1.332-7.932-12.34-13.403-27.8-13.403-27.8 21.568 5.112 17.181 20.833 14.824 26.468z" fill="url(#SVGID_8_)"/><path d="m498.766 213.667c-.947-.436-11.53 14.396-16.538 33.975-3.868 15.121-3.108 27.979-2.067 35.705 1.424-9.56 3.411-19.923 6.176-30.911 3.645-14.486 7.987-27.447 12.429-38.769z" fill="url(#SVGID_9_)"/><path d="m480.233 278.425s-21.839 9.916.88 30.179c.948.846 2.395.783 3.279-.129 4.249-4.389 14.063-17.431-4.159-30.05z" fill="url(#SVGID_10_)"/><circle cx="214.098" cy="412.25" fill="url(#SVGID_11_)" r="14.951"/><circle cx="229.049" cy="414.54" fill="url(#SVGID_12_)" r="14.951"/><circle cx="247.364" cy="417.058" fill="url(#SVGID_13_)" r="14.951"/><path d="m464.542 220.314 10.046-28.991 18.101 6.272c7.197 2.494 13.055 8.361 16.877 16.904 1.283 2.868-.423 7.791-3.205 9.25-8.288 4.346-16.52 5.331-23.717 2.837z" fill="url(#SVGID_14_)"/><path d="m506.36 223.749c.743-.39 1.406-1.031 1.96-1.81.047-.954-.076-1.868-.419-2.634-3.822-8.543-9.68-14.41-16.877-16.904l-18.101-6.272-8.381 24.186 18.101 6.272c7.197 2.493 15.429 1.508 23.717-2.838z" fill="url(#SVGID_15_)"/><path d="m506.36 223.749c2.456-1.288 4.069-5.271 3.533-8.161-.294.258-.605.481-.931.652-8.288 4.346-16.521 5.331-23.717 2.837l-18.101-6.272-2.602 7.509 18.101 6.272c7.197 2.494 15.429 1.509 23.717-2.837z" fill="url(#SVGID_16_)"/><path d="m486.437 195.429-11.849-4.106-10.046 28.991 11.849 4.106z" fill="url(#SVGID_17_)"/><path d="m487.226 185.969c-1.289-36.503-31.015-66.16-67.521-67.371-32.463-1.076-60.162 19.982-69.198 49.235-3.454 11.182-7.847 22.073-13.872 32.106-6.004 9.998-12.948 19.367-20.704 27.991l-89.935-142.162c-6.785-10.725-20.923-10.259-23.892.787-6.859 25.516-1.628 54.856 13.897 79.43l-22.423-20.686c-8.403-7.752-21.418-3.164-21.993 7.753-1.079 20.476 5.726 40.896 18.618 57.364l-16.716-8.777c-9.406-4.939-20.387 3.071-18.557 13.536 2.127 12.159 7.032 23.442 14.122 33.097-7.044 1.429-12.161 9.694-9.34 17.572 2.933 8.191 7.128 15.582 12.304 21.972-18.94-.936-37.115-4.774-54.091-11.084-.003.002-95.469-36.462-95.469-36.462-8.247-3.151-16.52 4.538-13.981 12.993 4.163 13.861 12.736 25.718 24.101 34.033l-20.821-2.159c-8.781-.91-14.785 8.657-10.145 16.167 7.598 12.299 18.918 21.554 32.029 26.65l-20.617 3.291c-8.718 1.392-12.042 12.186-5.618 18.241 15.964 15.047 38.397 21.111 59.768 16.156l67.464-20.323c24.434 46.434 73.145 78.101 129.26 78.101 70.545 0 129.402-50.039 143.014-116.56.252-1.23.48-2.854.685-4.765 2.363-21.995 16.617-40.812 37.085-49.202.088-.036.174-.072.259-.109 25.625-11.02 43.343-36.915 42.287-66.815z" fill="url(#SVGID_18_)"/><path d="m187.629 303.375c-20.139 11.684-43.983 15.227-66.649 9.905l-68.805-16.156c-20.987-6.387-37.389-22.848-43.699-43.859-2.539-8.455 5.734-16.144 13.981-12.993z" fill="url(#SVGID_19_)"/><path d="m120.979 313.279-68.805-16.156c-7.142-2.173-13.734-5.537-19.597-9.826l-20.821-2.159c-8.781-.91-14.785 8.657-10.145 16.167 11.529 18.664 31.63 30.323 53.556 31.065l70.643-2.189c23.272-.721 45.388-10.311 61.82-26.806-20.141 11.683-43.984 15.227-66.651 9.904z" fill="url(#SVGID_20_)"/><path d="m125.809 330.181-70.643 2.189c-7.477-.253-14.741-1.778-21.526-4.415l-20.617 3.291c-8.718 1.392-12.042 12.186-5.618 18.241 15.964 15.047 38.397 21.111 59.768 16.156l67.673-20.386c22.293-6.716 41.177-21.699 52.783-41.883-16.433 16.496-38.549 26.085-61.82 26.807z" fill="url(#SVGID_21_)"/><circle cx="417.327" cy="188.503" fill="url(#SVGID_22_)" r="69.944"/><path d="m404.569 316.565-88.64-88.633-84.227 36.5-58.178 25.209h-.011l-.213-.011c-9.42-.553-15.438 11.323-10.175 20.052 3.275 5.433 7.102 10.302 11.376 14.555.043.043.085.085.138.128l98.749 98.749c62.863-4.035 114.893-47.856 131.181-106.549z" fill="url(#SVGID_23_)"/><path d="m341.393 299.369c-.138.521-.287 1.031-.447 1.542-.712 2.328-1.605 4.604-2.637 6.805-1.467 3.104-3.243 6.06-5.284 8.825-7.953 10.674-20.105 18.362-35.022 19.967-.106.021-.213.032-.319.043-.245.021-.489.053-.744.074l-75.36 7.038c-.425.011-.851.011-1.276.011-22.965 0-44.346-12.684-57.179-33.991-5.263-8.729.755-20.605 10.175-20.052l.213.011h.011l84.28 4.891 66.004 3.817z" fill="url(#SVGID_24_)"/><path d="m167.494 248.714c.742-.269 1.802-.563 3.1-.637 1.507-.086 2.745.158 3.567.388l103.365 28.685 64.856 17.998c-.266 1.425-.595 2.828-.989 4.221-.138.521-.287 1.031-.447 1.542-.712 2.328-1.605 4.604-2.637 6.805-1.467 3.104-3.243 6.06-5.284 8.825-14.204 5.103-29.27 6.879-44.123 5.029l-77.401-9.664c-14.885-2.935-28.09-10.834-37.988-22.263-2.128-2.401-5.093-6.105-7.886-11.084-4.136-7.373-8.699-15.505-5.604-22.571.719-1.642 2.519-4.75 7.471-7.274z" fill="url(#SVGID_25_)"/><path d="m154.707 213.891c-.281-4.759 2.045-9.294 6.052-11.782 5.936-3.686 12.153-.763 12.532-.576l16.905 8.878.011.011 109.127 57.296 43.676 22.933c-.128 1.393-.319 2.764-.564 4.125-.021.128-.043.245-.064.372-.266 1.425-.595 2.828-.989 4.221-.138.521-.287 1.031-.447 1.542-.712 2.328-1.605 4.604-2.637 6.805-19.106 3.53-38.956 1.946-57.487-4.806l-23.018-8.378-56.904-20.722c-6.272-2.752-14.528-7.319-22.52-14.919-17.41-16.557-22.199-36.701-23.673-45z" fill="url(#SVGID_26_)"/><path d="m171.588 153.052c.574-10.919 13.588-15.501 21.987-7.751l22.412 20.679c.011 0 .011.011.011.011l127.192 117.324c.127 2.456.064 4.912-.181 7.336-.128 1.393-.319 2.764-.564 4.125-.021.128-.043.245-.064.372-.266 1.425-.595 2.828-.989 4.221-.138.521-.287 1.031-.447 1.542-5.752-.415-11.483-1.276-17.139-2.562-15.82-3.551-31.099-10.356-44.782-20.126l-1.499-1.074-72.893-52.065c-6.124-4.899-16.146-14.239-23.642-29.067-9.152-18.108-9.686-34.803-9.402-42.965z" fill="url(#SVGID_27_)"/><path d="m202.097 86.558c2.966-11.047 17.107-11.515 23.89-.787l109.298 172.76c4.987 7.868 7.496 16.384 7.9 24.783.132 2.457.069 4.913-.176 7.337-.128 1.393-.319 2.764-.564 4.125-15.48-6.018-30.152-15.236-43.113-27.059-5.763-5.242-11.174-11.015-16.182-17.235l-63.452-78.996c-5.328-7.182-13.894-20.673-18-39.72-4.293-19.918-1.659-36.401.399-45.208z" fill="url(#SVGID_28_)"/><circle cx="429.012" cy="176.615" fill="url(#SVGID_29_)" r="14.707"/><circle cx="429.012" cy="176.615" fill="url(#SVGID_30_)" r="12.274"/><path d="m435.591 163.459c.992 1.98 1.551 4.214 1.551 6.579 0 8.122-6.585 14.707-14.707 14.707-2.365 0-4.599-.559-6.579-1.551 2.415 4.819 7.399 8.128 13.156 8.128 8.123 0 14.707-6.585 14.707-14.707 0-5.757-3.308-10.741-8.128-13.156z" fill="url(#SVGID_31_)"/></svg>