<svg id="Capa_1" enable-background="new 0 0 510 510" height="512" viewBox="0 0 510 510" width="512" xmlns="http://www.w3.org/2000/svg" xmlns:xlink="http://www.w3.org/1999/xlink"><linearGradient id="lg1"><stop offset="0" stop-color="#e6eeff"/><stop offset="1" stop-color="#bac8fa"/></linearGradient><linearGradient id="SVGID_1_" gradientTransform="matrix(0 -1 1 0 -1684.087 -2310.96)" gradientUnits="userSpaceOnUse" x1="-2565.96" x2="-2565.96" xlink:href="#lg1" y1="1689.276" y2="1720.509"/><linearGradient id="lg2"><stop offset="0" stop-color="#a7b7f1" stop-opacity="0"/><stop offset="1" stop-color="#a7b7f1"/></linearGradient><linearGradient id="SVGID_2_" gradientUnits="userSpaceOnUse" x1="19.614" x2="19.614" xlink:href="#lg2" y1="91.264" y2="49.83"/><linearGradient id="SVGID_3_" gradientTransform="matrix(0 -1 1 0 -1684.087 -2310.96)" gradientUnits="userSpaceOnUse" x1="-2565.96" x2="-2565.96" xlink:href="#lg1" y1="1767.738" y2="1798.971"/><linearGradient id="SVGID_4_" gradientUnits="userSpaceOnUse" x1="98.076" x2="98.076" xlink:href="#lg2" y1="99.333" y2="52.913"/><linearGradient id="SVGID_5_" gradientTransform="matrix(0 -1 1 0 -1684.087 -2310.96)" gradientUnits="userSpaceOnUse" x1="-2565.96" x2="-2565.96" xlink:href="#lg1" y1="1846.2" y2="1877.433"/><linearGradient id="SVGID_6_" gradientUnits="userSpaceOnUse" x1="176.538" x2="176.538" xlink:href="#lg2" y1="99.333" y2="52.913"/><linearGradient id="SVGID_7_" gradientTransform="matrix(0 -1 1 0 -1684.087 -2310.96)" gradientUnits="userSpaceOnUse" x1="-2565.96" x2="-2565.96" xlink:href="#lg1" y1="1924.662" y2="1955.895"/><linearGradient id="SVGID_8_" gradientUnits="userSpaceOnUse" x1="255" x2="255" xlink:href="#lg2" y1="99.333" y2="52.913"/><linearGradient id="SVGID_9_" gradientUnits="userSpaceOnUse" x1="255" x2="255" xlink:href="#lg2" y1="353.208" y2="306.788"/><linearGradient id="SVGID_10_" gradientTransform="matrix(0 -1 1 0 -1684.087 -2310.96)" gradientUnits="userSpaceOnUse" x1="-2565.96" x2="-2565.96" xlink:href="#lg1" y1="2003.124" y2="2034.357"/><linearGradient id="SVGID_11_" gradientUnits="userSpaceOnUse" x1="333.462" x2="333.462" xlink:href="#lg2" y1="99.333" y2="52.913"/><linearGradient id="SVGID_12_" gradientTransform="matrix(0 -1 1 0 -1684.087 -2310.96)" gradientUnits="userSpaceOnUse" x1="-2565.96" x2="-2565.96" xlink:href="#lg1" y1="2081.586" y2="2112.819"/><linearGradient id="SVGID_13_" gradientUnits="userSpaceOnUse" x1="411.924" x2="411.924" xlink:href="#lg2" y1="99.333" y2="52.913"/><linearGradient id="SVGID_14_" gradientTransform="matrix(0 -1 1 0 -1684.087 -2310.96)" gradientUnits="userSpaceOnUse" x1="-2565.96" x2="-2565.96" xlink:href="#lg1" y1="2160.048" y2="2191.281"/><linearGradient id="SVGID_15_" gradientUnits="userSpaceOnUse" x1="490.386" x2="490.386" xlink:href="#lg2" y1="99.333" y2="52.913"/><linearGradient id="lg3"><stop offset="0" stop-color="#a7b7f1"/><stop offset="1" stop-color="#406cb9"/></linearGradient><linearGradient id="SVGID_16_" gradientUnits="userSpaceOnUse" x1="255" x2="255" xlink:href="#lg3" y1="5.527" y2="52.053"/><linearGradient id="SVGID_17_" gradientUnits="userSpaceOnUse" x1="19.615" x2="19.615" xlink:href="#lg2" y1="403" y2="455.039"/><linearGradient id="SVGID_18_" gradientUnits="userSpaceOnUse" x1="98.075" x2="98.075" xlink:href="#lg2" y1="403" y2="455.039"/><linearGradient id="SVGID_19_" gradientUnits="userSpaceOnUse" x1="176.535" x2="176.535" xlink:href="#lg2" y1="403" y2="455.039"/><linearGradient id="SVGID_20_" gradientUnits="userSpaceOnUse" x1="255" x2="255" xlink:href="#lg2" y1="403" y2="455.039"/><linearGradient id="SVGID_21_" gradientUnits="userSpaceOnUse" x1="333.465" x2="333.465" xlink:href="#lg2" y1="403" y2="455.039"/><linearGradient id="SVGID_22_" gradientUnits="userSpaceOnUse" x1="411.925" x2="411.925" xlink:href="#lg2" y1="403" y2="455.039"/><linearGradient id="SVGID_23_" gradientUnits="userSpaceOnUse" x1="490.385" x2="490.385" xlink:href="#lg2" y1="403" y2="455.039"/><linearGradient id="SVGID_24_" gradientUnits="userSpaceOnUse" x1="255" x2="255" xlink:href="#lg3" y1="448" y2="510.514"/><linearGradient id="SVGID_25_" gradientUnits="userSpaceOnUse" x1="234.131" x2="269.943" xlink:href="#lg3" y1="175.118" y2="210.93"/><linearGradient id="SVGID_26_" gradientUnits="userSpaceOnUse" x1="281.947" x2="214.246" xlink:href="#lg3" y1="222.934" y2="155.233"/><linearGradient id="SVGID_27_" gradientUnits="userSpaceOnUse" x1="255" x2="255" y1="185.75" y2="209.066"><stop offset="0" stop-color="#162d7f" stop-opacity="0"/><stop offset="1" stop-color="#162d7f"/></linearGradient><linearGradient id="SVGID_28_" gradientUnits="userSpaceOnUse" x1="227.333" x2="280.746" y1="227.333" y2="280.746"><stop offset="0" stop-color="#fd0"/><stop offset="1" stop-color="#ffb000"/></linearGradient><linearGradient id="SVGID_29_" gradientUnits="userSpaceOnUse" x1="255" x2="255" y1="289.25" y2="317.501"><stop offset="0" stop-color="#ff8900" stop-opacity="0"/><stop offset="1" stop-color="#ff8900"/></linearGradient><linearGradient id="SVGID_30_" gradientUnits="userSpaceOnUse" x1="241.047" x2="271.64" y1="238.542" y2="269.135"><stop offset="0" stop-color="#465a61"/><stop offset="1" stop-color="#444"/></linearGradient><g><g><path d="m39.228 43.833v422.334c0 10.832-8.781 19.614-19.614 19.614-10.833 0-19.614-8.782-19.614-19.614v-422.334c0-10.832 8.781-19.614 19.614-19.614 10.832 0 19.614 8.782 19.614 19.614z" fill="url(#SVGID_1_)"/><path d="m19.614 24.219c-10.833 0-19.614 8.782-19.614 19.614 0 5.563 2.21 10.899 6.144 14.833l33.084 33.084v-47.917c0-10.832-8.782-19.614-19.614-19.614z" fill="url(#SVGID_2_)"/><path d="m117.69 43.833v422.334c0 10.832-8.781 19.614-19.614 19.614-10.832 0-19.614-8.781-19.614-19.614v-422.334c0-10.832 8.781-19.614 19.614-19.614 10.832 0 19.614 8.782 19.614 19.614z" fill="url(#SVGID_3_)"/><path d="m98.076 24.219c-10.832 0-19.614 8.781-19.614 19.614v16.817l39.228 39.228v-56.045c0-10.832-8.782-19.614-19.614-19.614z" fill="url(#SVGID_4_)"/><path d="m196.152 43.833v422.334c0 10.832-8.781 19.614-19.614 19.614-10.833 0-19.614-8.781-19.614-19.614v-422.334c0-10.832 8.781-19.614 19.614-19.614 10.832 0 19.614 8.782 19.614 19.614z" fill="url(#SVGID_5_)"/><path d="m176.538 24.219c-10.833 0-19.614 8.781-19.614 19.614v16.817l39.228 39.228v-56.045c0-10.832-8.782-19.614-19.614-19.614z" fill="url(#SVGID_6_)"/><path d="m274.614 43.833v422.334c0 10.832-8.781 19.614-19.614 19.614-10.832 0-19.614-8.781-19.614-19.614v-422.334c0-10.832 8.781-19.614 19.614-19.614 10.832 0 19.614 8.782 19.614 19.614z" fill="url(#SVGID_7_)"/><path d="m255 24.219c-10.832 0-19.614 8.781-19.614 19.614v16.817l39.228 39.228v-56.045c0-10.832-8.782-19.614-19.614-19.614z" fill="url(#SVGID_8_)"/><path d="m255 278.094c-10.832 0-19.614 8.781-19.614 19.614v16.816l39.228 39.228v-56.044c0-10.832-8.782-19.614-19.614-19.614z" fill="url(#SVGID_9_)"/><path d="m353.076 43.833v422.334c0 10.832-8.781 19.614-19.614 19.614-10.832 0-19.614-8.781-19.614-19.614v-422.334c0-10.832 8.781-19.614 19.614-19.614 10.832 0 19.614 8.782 19.614 19.614z" fill="url(#SVGID_10_)"/><path d="m333.462 24.219c-10.833 0-19.614 8.781-19.614 19.614v16.817l39.228 39.228v-56.045c0-10.832-8.782-19.614-19.614-19.614z" fill="url(#SVGID_11_)"/><path d="m431.538 43.833v422.334c0 10.832-8.781 19.614-19.614 19.614-10.833 0-19.614-8.781-19.614-19.614v-422.334c0-10.832 8.781-19.614 19.614-19.614 10.833 0 19.614 8.782 19.614 19.614z" fill="url(#SVGID_12_)"/><path d="m411.924 24.219c-10.833 0-19.614 8.781-19.614 19.614v16.817l39.228 39.228v-56.045c0-10.832-8.781-19.614-19.614-19.614z" fill="url(#SVGID_13_)"/><g><path d="m510 43.833v422.334c0 10.832-8.781 19.614-19.614 19.614-10.832 0-19.614-8.781-19.614-19.614v-422.334c0-10.832 8.781-19.614 19.614-19.614 10.833 0 19.614 8.782 19.614 19.614z" fill="url(#SVGID_14_)"/></g><path d="m490.386 24.219c-10.832 0-19.614 8.781-19.614 19.614v16.817l39.228 39.227v-56.044c0-10.832-8.781-19.614-19.614-19.614z" fill="url(#SVGID_15_)"/></g><path d="m495.84 60.77h-481.68c-7.82 0-14.16-6.34-14.16-14.161v-32.449c0-7.82 6.34-14.16 14.16-14.16h481.68c7.82 0 14.16 6.34 14.16 14.16v32.449c0 7.821-6.34 14.161-14.16 14.161z" fill="url(#SVGID_16_)"/><g><path d="m39.23 364v102.17c0 10.83-8.78 19.61-19.62 19.61-5.41 0-10.32-2.2-13.87-5.74-3.54-3.55-5.74-8.46-5.74-13.87v-102.17z" fill="url(#SVGID_17_)"/><path d="m117.69 364v102.17c0 10.83-8.78 19.61-19.61 19.61-5.42 0-10.32-2.2-13.88-5.74-3.54-3.55-5.74-8.46-5.74-13.87v-102.17z" fill="url(#SVGID_18_)"/><path d="m196.15 364v102.17c0 10.83-8.78 19.61-19.61 19.61-5.42 0-10.32-2.2-13.87-5.74-3.55-3.55-5.75-8.46-5.75-13.87v-102.17z" fill="url(#SVGID_19_)"/><path d="m274.61 364v102.17c0 10.83-8.78 19.61-19.61 19.61-5.42 0-10.32-2.2-13.87-5.74-3.55-3.55-5.74-8.46-5.74-13.87v-102.17z" fill="url(#SVGID_20_)"/><path d="m353.08 364v102.17c0 10.83-8.79 19.61-19.62 19.61-5.42 0-10.32-2.2-13.87-5.74-3.55-3.55-5.74-8.46-5.74-13.87v-102.17z" fill="url(#SVGID_21_)"/><path d="m431.54 364v102.17c0 10.83-8.78 19.61-19.62 19.61-5.42 0-10.32-2.2-13.87-5.74-3.55-3.55-5.74-8.46-5.74-13.87v-102.17z" fill="url(#SVGID_22_)"/><g><path d="m510 364v102.17c0 10.83-8.78 19.61-19.61 19.61-5.42 0-10.33-2.2-13.87-5.74-3.56-3.55-5.75-8.46-5.75-13.87v-102.17z" fill="url(#SVGID_23_)"/></g></g><path d="m495.84 510h-481.68c-7.82 0-14.16-6.34-14.16-14.16v-32.449c0-7.82 6.34-14.16 14.16-14.16h481.68c7.82 0 14.16 6.34 14.16 14.16v32.449c0 7.82-6.34 14.16-14.16 14.16z" fill="url(#SVGID_24_)"/><g><g><path d="m255 238.987c-23.71 0-43-19.29-43-43s19.29-43 43-43 43 19.29 43 43-19.29 43-43 43zm0-55.04c-6.639 0-12.04 5.401-12.04 12.04s5.401 12.04 12.04 12.04 12.04-5.401 12.04-12.04-5.401-12.04-12.04-12.04z" fill="url(#SVGID_25_)"/><path d="m255 167.32c-15.807 0-28.667 12.86-28.667 28.667s12.86 28.667 28.667 28.667 28.667-12.86 28.667-28.667-12.86-28.667-28.667-28.667zm0 40.707c-6.639 0-12.04-5.401-12.04-12.04s5.401-12.04 12.04-12.04 12.04 5.401 12.04 12.04-5.401 12.04-12.04 12.04z" fill="url(#SVGID_26_)"/><path d="m255 238.987c-23.71 0-43-19.29-43-43s19.29-43 43-43 43 19.29 43 43-19.29 43-43 43zm0-55.04c-6.639 0-12.04 5.401-12.04 12.04s5.401 12.04 12.04 12.04 12.04-5.401 12.04-12.04-5.401-12.04-12.04-12.04z" fill="url(#SVGID_27_)"/></g><g><path d="m292.414 314.459h-74.828c-12.175 0-22.045-9.87-22.045-22.045v-74.828c0-12.175 9.87-22.045 22.045-22.045h74.828c12.175 0 22.045 9.87 22.045 22.045v74.828c0 12.175-9.87 22.045-22.045 22.045z" fill="url(#SVGID_28_)"/><path d="m195.541 260.5v31.914c0 12.175 9.87 22.045 22.045 22.045h74.828c12.175 0 22.045-9.87 22.045-22.045v-31.914z" fill="url(#SVGID_29_)"/><path d="m275.139 240.803c0-11.493-9.628-20.738-21.259-20.109-10.504.568-18.938 9.431-19.019 19.95-.048 6.172 2.686 11.7 7.02 15.421 3.148 2.703 4.865 6.715 4.865 10.864v13.87c0 4.396 3.318 8.235 7.705 8.519 4.807.311 8.803-3.496 8.803-8.236v-14.15c0-4.125 1.672-8.144 4.811-10.82 4.327-3.69 7.074-9.175 7.074-15.309z" fill="url(#SVGID_30_)"/></g></g></g></svg>