<svg id="Capa_1" enable-background="new 0 0 510 510" height="512" viewBox="0 0 510 510" width="512" xmlns="http://www.w3.org/2000/svg" xmlns:xlink="http://www.w3.org/1999/xlink"><linearGradient id="SVGID_1_" gradientUnits="userSpaceOnUse" x1="14.03" x2="70.697" y1="382.133" y2="436.133"><stop offset="0" stop-color="#ffefa4"/><stop offset="1" stop-color="#ffbe50"/></linearGradient><linearGradient id="SVGID_00000173125616820627450720000016064240804219959959_" gradientUnits="userSpaceOnUse" x1="72.11" x2="72.11" y1="453.5" y2="503.493"><stop offset="0" stop-color="#ffa100" stop-opacity="0"/><stop offset=".1593" stop-color="#ff9c03" stop-opacity=".159"/><stop offset=".3553" stop-color="#ff8d0a" stop-opacity=".355"/><stop offset=".5705" stop-color="#ff7416" stop-opacity=".571"/><stop offset=".7979" stop-color="#ff5128" stop-opacity=".798"/><stop offset="1" stop-color="#ff2c3a"/></linearGradient><linearGradient id="SVGID_00000158021750817777331850000011611371606210177418_" gradientUnits="userSpaceOnUse" x1="94.188" x2="160.218" y1="380.312" y2="446.342"><stop offset="0" stop-color="#d9b1ee"/><stop offset=".1735" stop-color="#cfa6e6"/><stop offset=".4762" stop-color="#b789d0"/><stop offset=".8697" stop-color="#905bad"/><stop offset="1" stop-color="#814aa0"/></linearGradient><linearGradient id="lg1"><stop offset="0" stop-color="#5b3374" stop-opacity="0"/><stop offset="1" stop-color="#5b3374"/></linearGradient><linearGradient id="SVGID_00000075862593210009213430000014289636717557464712_" gradientUnits="userSpaceOnUse" x1="118.967" x2="155.467" xlink:href="#lg1" y1="415.003" y2="403.503"/><linearGradient id="SVGID_00000012438651953665685890000009255911469910913933_" gradientUnits="userSpaceOnUse" x1="132.928" x2="149.428" xlink:href="#lg1" y1="398.182" y2="356.682"/><linearGradient id="SVGID_00000145751098125607242470000002131256023108939194_" gradientUnits="userSpaceOnUse" x1="130.877" x2="130.877" xlink:href="#lg1" y1="465" y2="506.012"/><linearGradient id="lg2"><stop offset="0" stop-color="#fff9f7"/><stop offset="1" stop-color="#fdc"/></linearGradient><linearGradient id="SVGID_00000105404643200364578540000012142847669624681623_" gradientUnits="userSpaceOnUse" x1="458.288" x2="483.207" xlink:href="#lg2" y1="343.987" y2="368.907"/><linearGradient id="SVGID_00000158731125430030263460000006978156241492662401_" gradientUnits="userSpaceOnUse" x1="297.487" x2="402.435" xlink:href="#lg2" y1="356.242" y2="461.189"/><linearGradient id="lg3"><stop offset="0" stop-color="#ffa188" stop-opacity="0"/><stop offset="1" stop-color="#ffa188"/></linearGradient><linearGradient id="SVGID_00000106146731995280933380000004537078156160907190_" gradientUnits="userSpaceOnUse" x1="369.503" x2="285.315" xlink:href="#lg3" y1="389.942" y2="373.306"/><linearGradient id="SVGID_00000111185601894819296790000017923945594807192196_" gradientUnits="userSpaceOnUse" x1="327.004" x2="327.004" xlink:href="#lg3" y1="439.002" y2="507.178"/><linearGradient id="SVGID_00000094609753286097898480000003468244092725623226_" gradientUnits="userSpaceOnUse" x1="171.274" x2="239.834" xlink:href="#lg2" y1="413.486" y2="461.209"/><linearGradient id="SVGID_00000085930736735245424200000006050165062891405705_" gradientUnits="userSpaceOnUse" x1="176.496" x2="234.973" xlink:href="#lg3" y1="436.141" y2="427.403"/><linearGradient id="SVGID_00000003091067103109454770000015576408716246844852_" gradientUnits="userSpaceOnUse" x1="201.098" x2="201.098" xlink:href="#lg3" y1="479.5" y2="511.875"/><linearGradient id="SVGID_00000173131119128537855160000012377451422430386825_" gradientUnits="userSpaceOnUse" x1="200.5" x2="200.5" xlink:href="#lg3" y1="417.325" y2="369.265"/><linearGradient id="SVGID_00000147907312875730492990000002850598264382670724_" gradientUnits="userSpaceOnUse" x1="236.555" x2="288.983" xlink:href="#lg2" y1="415.924" y2="450.876"/><linearGradient id="SVGID_00000096763808242154685370000006356746252979776446_" gradientUnits="userSpaceOnUse" x1="249.159" x2="249.159" xlink:href="#lg3" y1="488.238" y2="517.843"/><linearGradient id="SVGID_00000049217031209008985700000009651678390544084637_" gradientUnits="userSpaceOnUse" x1="253.166" x2="253.166" xlink:href="#lg3" y1="426.4" y2="376.87"/><linearGradient id="SVGID_00000000185197652874535410000008353010170763585940_" gradientUnits="userSpaceOnUse" x1="307.234" x2="397.354" xlink:href="#lg2" y1="381.446" y2="471.567"/><linearGradient id="SVGID_00000122709207585862610070000009532084845791966106_" gradientUnits="userSpaceOnUse" x1="76.819" x2="131.285" xlink:href="#lg2" y1="79.008" y2="133.473"/><linearGradient id="SVGID_00000068636185408996618900000000820493562616031624_" gradientUnits="userSpaceOnUse" x1="102.125" x2="76.278" xlink:href="#lg3" y1="98.131" y2="84.827"/><linearGradient id="lg4"><stop offset="0" stop-color="#ffa0ad"/><stop offset="1" stop-color="#ff4465"/></linearGradient><linearGradient id="SVGID_00000060011308783216611710000017658535397554528418_" gradientUnits="userSpaceOnUse" x1="95.249" x2="138.742" xlink:href="#lg4" y1="97.067" y2="140.559"/><linearGradient id="lg5"><stop offset="0" stop-color="#ff2a4d" stop-opacity="0"/><stop offset="1" stop-color="#ff2a4d"/></linearGradient><linearGradient id="SVGID_00000132068651000731010570000014869977334913597880_" gradientUnits="userSpaceOnUse" x1="99.429" x2="75.863" xlink:href="#lg5" y1="99.354" y2="81.109"/><linearGradient id="SVGID_00000006671972848727763440000006019844228903709624_" gradientUnits="userSpaceOnUse" x1="57.518" x2="93.438" xlink:href="#lg2" y1="73.881" y2="108.821"/><linearGradient id="SVGID_00000175300116270411802030000008632775452720043659_" gradientUnits="userSpaceOnUse" x1="289.235" x2="342.829" xlink:href="#lg2" y1="58.126" y2="130.344"/><linearGradient id="SVGID_00000135669544817953420730000003765321691719099542_" gradientUnits="userSpaceOnUse" x1="291.973" x2="280.95" xlink:href="#lg3" y1="103.454" y2="137.283"/><linearGradient id="SVGID_00000059297258288729070800000006750845030155874970_" gradientUnits="userSpaceOnUse" x1="300.043" x2="325.581" xlink:href="#lg4" y1="78.521" y2="104.058"/><linearGradient id="SVGID_00000170238359057290677670000016353165430881159615_" gradientUnits="userSpaceOnUse" x1="297.24" x2="287.737" xlink:href="#lg5" y1="101.213" y2="134.662"/><linearGradient id="SVGID_00000143595991195061981660000013017500326140446881_" gradientUnits="userSpaceOnUse" x1="136.574" x2="283.889" xlink:href="#lg2" y1="189.537" y2="336.851"/><linearGradient id="SVGID_00000096754228079119204770000006670114242790163375_" gradientUnits="userSpaceOnUse" x1="206.76" x2="206.76" xlink:href="#lg3" y1="290.395" y2="383.912"/><linearGradient id="SVGID_00000042702407093539703700000007914242931965142421_" gradientUnits="userSpaceOnUse" x1="181.325" x2="217.054" xlink:href="#lg2" y1="271.347" y2="356.489"/><linearGradient id="SVGID_00000166649817141797018030000013889644273806337183_" gradientUnits="userSpaceOnUse" x1="206.76" x2="206.76" xlink:href="#lg3" y1="345.89" y2="387.053"/><linearGradient id="SVGID_00000021799040179066152530000012569163519331149460_" gradientUnits="userSpaceOnUse" x1="193.565" x2="219.819" xlink:href="#lg4" y1="266.62" y2="292.874"/><linearGradient id="lg6"><stop offset="0" stop-color="#5a5a5a"/><stop offset="1" stop-color="#444"/></linearGradient><linearGradient id="SVGID_00000048502165189427930660000017124433847847254149_" gradientUnits="userSpaceOnUse" x1="153.84" x2="177.263" xlink:href="#lg6" y1="235.435" y2="252.677"/><linearGradient id="SVGID_00000146464790288915544780000007438258782817791135_" gradientUnits="userSpaceOnUse" x1="236.531" x2="257.351" xlink:href="#lg6" y1="234.425" y2="250.04"/><linearGradient id="SVGID_00000073678989759592444310000017275739990675694464_" gradientUnits="userSpaceOnUse" x1="367.257" x2="367.257" xlink:href="#lg3" y1="479.836" y2="516.493"/><g><path d="m23.034 354.557c-32.611 19.694-26.532 89.501-6.838 122.112s62.096 43.082 94.707 23.388 43.082-62.096 23.388-94.707-78.646-70.487-111.257-50.793z" fill="url(#SVGID_1_)"/><path d="m16.197 476.669c19.694 32.611 62.095 43.082 94.707 23.388 32.177-19.432 42.778-60.963 24.138-93.391h-134.957c-.903 25.131 5.701 52.764 16.112 70.003z" fill="url(#SVGID_00000173125616820627450720000016064240804219959959_)"/><path d="m130.877 310.58c-44.696 0-80.929 73.795-80.929 118.491s36.233 80.929 80.929 80.929 80.929-36.233 80.929-80.929-36.234-118.491-80.929-118.491z" fill="url(#SVGID_00000158021750817777331850000011611371606210177418_)"/><path d="m130.876 310.58c-14.09 0-27.338 7.338-38.876 18.783v170.696c11.539 6.333 24.785 9.941 38.876 9.941 44.696 0 80.929-36.233 80.929-80.929s-36.233-118.491-80.929-118.491z" fill="url(#SVGID_00000075862593210009213430000014289636717557464712_)"/><path d="m52.439 406.667h156.876c-8.901-43.319-40.642-96.086-78.438-96.086s-69.538 52.766-78.438 96.086z" fill="url(#SVGID_00000012438651953665685890000009255911469910913933_)"/><path d="m50.811 440.851c5.705 39.111 39.372 69.149 80.065 69.149 40.694 0 74.36-30.038 80.066-69.149z" fill="url(#SVGID_00000145751098125607242470000002131256023108939194_)"/><g><g><path d="m473.519 324.859-20.682 20.667c-18.852 18.839-9.183 51.082 16.925 56.438 26.107 5.357 47.692-20.474 37.781-45.214l-10.872-27.141c-3.778-9.431-15.965-11.932-23.152-4.75z" fill="url(#SVGID_00000105404643200364578540000012142847669624681623_)"/><path d="m365.608 510h-45.407c-78.904 0-142.868-63.964-142.868-142.868v-118.216h132.86c72.24 0 136.536 45.803 160.137 114.079 24.879 71.969-28.575 147.005-104.722 147.005z" fill="url(#SVGID_00000158731125430030263460000006978156241492662401_)"/><path d="m407.959 279.973c-27.952-19.748-61.877-31.057-97.765-31.057h-132.86v118.216c0 78.904 63.964 142.868 142.868 142.868h45.407c15.165 0 29.426-2.984 42.351-8.32v-221.707z" fill="url(#SVGID_00000106146731995280933380000004537078156160907190_)"/><path d="m320.201 510h45.407c72.103 0 123.847-67.278 108.019-135.524h-296.108c3.823 75.491 66.242 135.524 142.682 135.524z" fill="url(#SVGID_00000111185601894819296790000017923945594807192196_)"/><path d="m141.767 363.543 28.943 106.308c.295 1.084-.062 2.25-.935 2.958-7.476 6.058-12.259 15.307-12.259 25.679 0 6.358 5.154 11.512 11.512 11.512h55.147c2.072 0 3.888-1.387 4.432-3.387l29.661-108.947c5.177-19.017-9.14-37.753-28.849-37.753h-84.879c-1.895 0-3.271 1.801-2.773 3.63z" fill="url(#SVGID_00000094609753286097898480000003468244092725623226_)"/><path d="m141.767 363.543 28.943 106.308c.295 1.084-.062 2.25-.935 2.958-7.476 6.058-12.259 15.307-12.259 25.679 0 6.358 5.154 11.512 11.512 11.512h55.147c2.072 0 3.888-1.387 4.432-3.387l29.661-108.947c5.177-19.017-9.14-37.753-28.849-37.753h-84.879c-1.895 0-3.271 1.801-2.773 3.63z" fill="url(#SVGID_00000085930736735245424200000006050165062891405705_)"/><path d="m164.644 447.572 6.065 22.278c.295 1.084-.062 2.25-.935 2.958-7.476 6.058-12.259 15.307-12.259 25.679 0 6.358 5.154 11.512 11.512 11.512h55.147c2.072 0 3.888-1.387 4.432-3.387l16.074-59.041h-80.036z" fill="url(#SVGID_00000003091067103109454770000015576408716246844852_)"/><path d="m229.419 359.913h-84.879c-1.895 0-3.272 1.801-2.774 3.63l21.047 77.308h83.697l11.757-43.185c5.179-19.017-9.138-37.753-28.848-37.753z" fill="url(#SVGID_00000173131119128537855160000012377451422430386825_)"/><path d="m189.828 363.543 28.943 106.308c.295 1.084-.062 2.25-.935 2.958-7.476 6.058-12.259 15.307-12.259 25.679 0 6.358 5.154 11.512 11.512 11.512h55.147c2.072 0 3.888-1.387 4.432-3.387l39.939-146.7h-124.006c-1.895 0-3.271 1.801-2.773 3.63z" fill="url(#SVGID_00000147907312875730492990000002850598264382670724_)"/><path d="m212.705 447.572 6.065 22.278c.295 1.084-.062 2.25-.935 2.958-7.476 6.058-12.259 15.307-12.259 25.679 0 6.358 5.154 11.512 11.512 11.512h55.147c2.072 0 3.888-1.387 4.432-3.387l16.074-59.041h-80.036z" fill="url(#SVGID_00000096763808242154685370000006356746252979776446_)"/><path d="m189.828 363.543 21.047 77.308h83.697l22.036-80.938h-124.007c-1.895 0-3.271 1.801-2.773 3.63z" fill="url(#SVGID_00000049217031209008985700000009651678390544084637_)"/><path d="m371.485 331.604c-47.031.988-85.567 38.944-87.232 85.955-.521 14.709 2.529 28.651 8.34 41.042 2.215 4.723.86 10.321-3.312 13.453-8.027 6.027-13.22 15.622-13.22 26.433 0 6.358 5.154 11.512 11.512 11.512h84.63c48.986 0 89.737-38.991 90.4-87.973.683-50.473-40.559-91.484-91.118-90.422z" fill="url(#SVGID_00000000185197652874535410000008353010170763585940_)"/><g><g><g><path d="m168.033 146.648c-21.135-34.331-44.872-66.71-71.195-97.056-.273-.314-.547-.627-.822-.938-1.559-1.762-4.279-1.851-5.943-.187l-41.961 41.96c24.136 31.697 50.748 61.317 79.767 88.824 9.979 3.762 41.787-22.064 40.154-32.603z" fill="url(#SVGID_00000122709207585862610070000009532084845791966106_)"/><path d="m131.025 92.099c-10.866-14.58-22.258-28.754-34.187-42.507-.273-.314-.547-.627-.822-.938-1.559-1.762-4.279-1.851-5.943-.187l-41.961 41.96c12.147 15.952 24.922 31.376 38.314 46.271z" fill="url(#SVGID_00000068636185408996618900000000820493562616031624_)"/><path d="m141.895 128.154c-14.079-22.87-29.892-44.439-47.427-64.655-1.585-1.827-3.234-3.592-4.931-5.306l-29.652 29.652c.564.785 1.138 1.564 1.724 2.335 16.184 21.313 34.047 41.217 53.538 59.693 6.647 2.506 27.836-14.699 26.748-21.719z" fill="url(#SVGID_00000060011308783216611710000017658535397554528418_)"/><path d="m123.162 99.963c-8.992-12.596-18.545-24.764-28.693-36.463-1.585-1.827-3.234-3.592-4.931-5.306l-29.653 29.651c.564.785 1.138 1.564 1.724 2.335 10.219 13.457 21.111 26.35 32.656 38.68z" fill="url(#SVGID_00000132068651000731010570000014869977334913597880_)"/><path d="m43.293 111.915c1.999 5.284 4.067 10.539 6.27 15.729 2.269 5.347 9.544 6.102 12.864 1.335 3.221-4.627 6.325-9.345 9.366-14.106 12.109-18.957 24.204-46.037 24.453-64.214.025-1.845-1.48-3.345-3.325-3.357-6.263-.038-19.406-.034-31.815-.018-16.508.021-29.076 14.74-26.599 31.062 1.734 11.435 4.671 22.689 8.786 33.569z" fill="url(#SVGID_00000006671972848727763440000006019844228903709624_)"/></g><g><path d="m370.727.548c-5.227 2.112-10.405 4.365-15.555 6.688-21.795 9.831-41.194 24.294-56.861 42.356-26.323 30.346-50.06 62.726-71.195 97.056-1.633 10.538 30.175 36.365 40.154 32.603 29.259-27.734 56.074-57.614 80.369-89.608 14.46-19.042 24.631-40.998 29.777-64.347 1.216-5.517 2.358-11.047 3.352-16.597 1.022-5.709-4.662-10.325-10.041-8.151z" fill="url(#SVGID_00000175300116270411802030000008632775452720043659_)"/><path d="m346.97 90.515-44.994-44.994c-1.241 1.338-2.468 2.69-3.665 4.071-26.323 30.346-50.06 62.726-71.195 97.056-1.633 10.538 30.175 36.365 40.154 32.603 28.993-27.481 55.582-57.072 79.7-88.736z" fill="url(#SVGID_00000135669544817953420730000003765321691719099542_)"/><path d="m348.922 30.828c-3.482 1.407-6.932 2.908-10.362 4.456-14.519 6.549-27.442 16.184-37.878 28.216-17.535 20.215-33.348 41.785-47.427 64.655-1.088 7.02 20.102 24.225 26.749 21.719 19.491-18.475 37.354-38.38 53.538-59.693 9.632-12.685 16.408-27.311 19.836-42.865.81-3.675 1.571-7.359 2.233-11.056.681-3.805-3.106-6.88-6.689-5.432z" fill="url(#SVGID_00000059297258288729070800000006750845030155874970_)"/><path d="m310.238 53.782c-3.373 3.034-6.57 6.274-9.557 9.717-17.535 20.215-33.348 41.785-47.427 64.655-1.088 7.02 20.102 24.225 26.749 21.719 19.491-18.475 37.354-38.38 53.538-59.693 1.901-2.504 3.687-5.086 5.362-7.733z" fill="url(#SVGID_00000170238359057290677670000016353165430881159615_)"/></g></g><path d="m324.899 238.687v-21.18c0-65.247-52.893-118.139-118.139-118.139-65.247 0-118.139 52.893-118.139 118.139v21.18c0 6.827-2.517 13.455-7.202 18.421-12.029 12.751-18.906 27.513-18.906 43.25 0 48.238 64.582 87.343 144.247 87.343s144.247-39.105 144.247-87.343c0-15.736-6.877-30.498-18.906-43.25-4.685-4.966-7.202-11.593-7.202-18.421z" fill="url(#SVGID_00000143595991195061981660000013017500326140446881_)"/><path d="m73.387 267.037c-7.007 10.268-10.874 21.52-10.874 33.321 0 48.238 64.582 87.343 144.247 87.343s144.247-39.105 144.247-87.343c0-11.801-3.868-23.053-10.874-33.321z" fill="url(#SVGID_00000096754228079119204770000006670114242790163375_)"/><path d="m306.585 331.958c0-38.638-44.693-69.961-99.825-69.961s-99.825 31.323-99.825 69.961c0 15.099 6.825 29.081 18.432 40.513 23.168 9.606 51.194 15.229 81.393 15.229s58.226-5.623 81.393-15.229c11.606-11.432 18.432-25.413 18.432-40.513z" fill="url(#SVGID_00000042702407093539703700000007914242931965142421_)"/><path d="m106.988 329.764c-.032.729-.054 1.46-.054 2.194 0 15.099 6.825 29.081 18.432 40.514 23.168 9.606 51.194 15.229 81.393 15.229s58.226-5.623 81.393-15.229c11.606-11.432 18.432-25.414 18.432-40.514 0-.734-.022-1.465-.054-2.194z" fill="url(#SVGID_00000166649817141797018030000013889644273806337183_)"/><path d="m194.048 294.472-7.29-8.742c-6.683-8.014.579-18.693 12.712-18.693h14.581c12.133 0 19.395 10.679 12.712 18.693l-7.29 8.742c-6.022 7.219-19.405 7.219-25.425 0z" fill="url(#SVGID_00000021799040179066152530000012569163519331149460_)"/><g><g><g><path d="m164.843 264.73c-9.317 0-16.87-7.553-16.87-16.87v-8.651c0-9.317 7.553-16.87 16.87-16.87 9.317 0 16.87 7.553 16.87 16.87v8.651c0 9.317-7.553 16.87-16.87 16.87z" fill="url(#SVGID_00000048502165189427930660000017124433847847254149_)"/><path d="m248.677 264.73c-9.317 0-16.87-7.553-16.87-16.87v-8.651c0-9.317 7.553-16.87 16.87-16.87 9.317 0 16.87 7.553 16.87 16.87v8.651c-.001 9.317-7.553 16.87-16.87 16.87z" fill="url(#SVGID_00000146464790288915544780000007438258782817791135_)"/></g></g></g></g></g><path d="m288.302 447.572c1.193 3.79 2.624 7.475 4.291 11.029 2.215 4.723.86 10.321-3.312 13.453-8.027 6.027-13.22 15.622-13.22 26.433 0 6.358 5.154 11.512 11.512 11.512h84.63c40.081 0 74.643-26.106 86.25-62.428h-170.151z" fill="url(#SVGID_00000073678989759592444310000017275739990675694464_)"/></g></g></svg>