<svg height="512pt" viewBox="-46 0 512 512" width="512pt" xmlns="http://www.w3.org/2000/svg"><path d="m210 90v255l-30 45c0 33-27 60-60 60h-60c-33 0-60-27-60-60v-330c0-33 27-60 60-60h60c33 0 60 27 60 60zm0 0" fill="#5a5a5a"/><path d="m210 90v255l-30 45c0 33-27 60-60 60h-30v-450h30c33 0 60 27 60 60zm0 0" fill="#444"/><path d="m420 60v330c0 33-27 60-60 60h-60c-33 0-60-27-60-60l-30-30v-270l30-30c0-33 27-60 60-60h60c33 0 60 27 60 60zm0 0" fill="#5a5a5a"/><path d="m420 60v330c0 33-27 60-60 60h-30v-450h30c33 0 60 27 60 60zm0 0" fill="#444"/><path d="m330 60c-24.902344 0-45 20.097656-45 45 0 24.898438 20.097656 45 45 45s45-20.101562 45-45c0-24.902344-20.097656-45-45-45zm0 0" fill="#e63950"/><path d="m330 180c-24.902344 0-45 20.097656-45 45 0 24.898438 20.097656 45 45 45s45-20.101562 45-45c0-24.902344-20.097656-45-45-45zm0 0" fill="#fdbf00"/><path d="m330 300c-24.902344 0-45 20.097656-45 45 0 24.898438 20.097656 45 45 45s45-20.101562 45-45c0-24.902344-20.097656-45-45-45zm0 0" fill="#70da40"/><path d="m375 345c0 24.898438-20.097656 45-45 45v-90c24.902344 0 45 20.097656 45 45zm0 0" fill="#56c225"/><path d="m375 225c0 24.898438-20.097656 45-45 45v-90c24.902344 0 45 20.097656 45 45zm0 0" fill="#ff9f00"/><path d="m330 150v-90c24.902344 0 45 20.097656 45 45 0 24.898438-20.097656 45-45 45zm0 0" fill="#cc2e43"/><path d="m240 360v137c0 8.398438-6.597656 15-15 15h-30c-8.402344 0-15-6.601562-15-15v-137l30-30zm0 0" fill="#6e6e6e"/><path d="m210 330 30 30v137c0 8.398438-6.597656 15-15 15h-15zm0 0" fill="#444"/><path d="m240 240v120h-60v-120l30-30zm0 0" fill="#c6e2e7"/><path d="m210 210 30 30v120h-30zm0 0" fill="#8ebac5"/><path d="m240 120v120h-60v-120l30-30zm0 0" fill="#6e6e6e"/><path d="m240 120v120h-30v-150zm0 0" fill="#444"/><path d="m90 60c-24.902344 0-45 20.097656-45 45 0 24.898438 20.097656 45 45 45s45-20.101562 45-45c0-24.902344-20.097656-45-45-45zm0 0" fill="#e63950"/><path d="m90 180c-24.902344 0-45 20.097656-45 45 0 24.898438 20.097656 45 45 45s45-20.101562 45-45c0-24.902344-20.097656-45-45-45zm0 0" fill="#fdbf00"/><path d="m90 300c-24.902344 0-45 20.097656-45 45 0 24.898438 20.097656 45 45 45s45-20.101562 45-45c0-24.902344-20.097656-45-45-45zm0 0" fill="#70da40"/><path d="m135 345c0 24.898438-20.097656 45-45 45v-90c24.902344 0 45 20.097656 45 45zm0 0" fill="#56c225"/><path d="m135 225c0 24.898438-20.097656 45-45 45v-90c24.902344 0 45 20.097656 45 45zm0 0" fill="#ff9f00"/><path d="m90 150v-90c24.902344 0 45 20.097656 45 45 0 24.898438-20.097656 45-45 45zm0 0" fill="#cc2e43"/><path d="m240 30v90h-60v-90c0-16.5 13.5-30 30-30s30 13.5 30 30zm0 0" fill="#c6e2e7"/><path d="m240 30v90h-30v-120c16.5 0 30 13.5 30 30zm0 0" fill="#8ebac5"/></svg>