<svg id="Capa_1" enable-background="new 0 0 511.803 511.803" height="512" viewBox="0 0 511.803 511.803" width="512" xmlns="http://www.w3.org/2000/svg"><g><path d="m260.215 342.098-11.314 56.569-22.627 22.627-135.764-135.765 22.627-22.627 56.569-11.314 11.314-56.569 59.255-59.255c30.773-30.773 65.167-57.022 102.728-78.291l66.978 44.35 44.35 66.978c-21.27 37.561-47.518 71.955-78.291 102.728l-59.255 59.255z" fill="#ff8de4"/><g fill="#ff4db3"><path d="m330.784 135.764-90.51 90.51 113.137 22.628z"/><path d="m135.764 466.548c-24.993 24.994-135.764 45.255-135.764 45.255s20.261-110.771 45.255-135.764 65.516-24.994 90.51 0 24.993 65.516-.001 90.509z"/><path d="m316.784 421.294-67.882 67.882c-12.445-12.445-12.445-32.81 0-45.255l22.627-22.627-22.627-22.627 11.314-56.569 56.569-11.314v90.51z"/><path d="m181.019 195.019-11.314 56.569-56.569 11.314-22.626-22.628-22.627 22.627c-12.445 12.445-32.81 12.445-45.255 0l67.882-67.882z"/><path d="m469.717 138.933-59.737-37.109-37.109-59.737c43.444-20.817 90.284-35.073 138.932-42.087-7.014 48.648-21.496 95.262-42.086 138.933z"/></g><path d="m223.529 337.411h96v32h-96z" fill="#ff0068" transform="matrix(.707 -.707 .707 .707 -170.371 295.512)"/><path d="m110.392 224.274h96v32h-96z" fill="#ff0068" transform="matrix(.707 -.707 .707 .707 -123.508 182.375)"/><path d="m454.33 168.801-111.328-111.328c.453-.453.906-.453 1.358-.905 9.278-5.204 19.008-9.956 28.511-14.482l96.846 96.846c-1.359 2.715-2.489 5.204-3.848 7.919-3.846 7.468-7.466 14.709-11.539 21.95z" fill="#ff0068"/></g></svg>