<svg id="Capa_1" enable-background="new 0 0 497 497" height="512" viewBox="0 0 497 497" width="512" xmlns="http://www.w3.org/2000/svg"><g><path d="m445.954 448.907h-18.392l-32.183 10-32.182-10h-229.393l-32.182 10-32.183-10h-20.393c-13.807 0-25-11.193-25-25v-70.347l10-40.203-10-40.203v-97.403l10-40.907-10-39.498v-70.346c0-13.807 11.193-25 25-25h396.907c13.807 0 25 11.193 25 25l2 150.752-10 48.702 10 48.702-2 150.752c.001 13.807-11.192 24.999-24.999 24.999z" fill="#685e68"/><path d="m447.954 0h-30c13.807 0 25 11.193 25 25v398.907c0 13.807-11.193 25-25 25h30c13.807 0 25-11.193 25-25v-150.752l-10-48.702 10-48.702v-150.751c0-13.807-11.193-25-25-25z" fill="#554e56"/><path d="m470.954 273.155h-43.393l-10-48.702 10-48.701h43.393z" fill="#b5adb6"/><path d="m442.954 175.752h30v97.403h-30z" fill="#a79ba7"/><path d="m415.561 403.515h-336.122c-5.523 0-10-4.477-10-10v-338.122c0-5.523 4.477-10 10-10h336.122c5.523 0 10 4.477 10 10v338.122c0 5.523-4.477 10-10 10z" fill="#b5adb6"/><path d="m417.561 45.393h-26c5.523 0 10 4.477 10 10v338.122c0 5.523-4.477 10-10 10h26c5.523 0 10-4.477 10-10v-338.122c0-5.523-4.477-10-10-10z" fill="#a79ba7"/><path d="m84.41 353.56h-60.364v-80.405h60.364c5.523 0 10 4.477 10 10v60.405c0 5.523-4.477 10-10 10z" fill="#fed402"/><path d="m85.41 273.155h-20c5.523 0 10 4.477 10 10v60.405c0 5.523-4.477 10-10 10h20c5.523 0 10-4.477 10-10v-60.405c0-5.522-4.477-10-10-10z" fill="#fac600"/><path d="m84.41 175.752h-60.364v-80.405h60.364c5.523 0 10 4.477 10 10v60.405c0 5.523-4.477 10-10 10z" fill="#fed402"/><path d="m85.41 95.347h-20c5.523 0 10 4.477 10 10v60.405c0 5.523-4.477 10-10 10h20c5.523 0 10-4.477 10-10v-60.405c0-5.523-4.477-10-10-10z" fill="#fac600"/><path d="m123.804 497h-44.365c-5.523 0-10-4.477-10-10v-38.093h64.365v38.093c0 5.523-4.477 10-10 10z" fill="#b98080"/><path d="m69.439 448.907h64.365v20h-64.365z" fill="#ae6c6c"/><path d="m417.561 497h-44.365c-5.523 0-10-4.477-10-10v-38.093h64.365v38.093c0 5.523-4.477 10-10 10z" fill="#b98080"/><path d="m363.196 448.907h64.365v20h-64.365z" fill="#ae6c6c"/><g><path d="m257.45 143.05c-4.143 0-7.5-3.357-7.5-7.5v-22.761c0-4.143 3.357-7.5 7.5-7.5s7.5 3.357 7.5 7.5v22.761c0 4.142-3.357 7.5-7.5 7.5z" fill="#fac600"/></g><g><path d="m257.45 343.618c-4.143 0-7.5-3.357-7.5-7.5v-22.761c0-4.142 3.357-7.5 7.5-7.5s7.5 3.358 7.5 7.5v22.761c0 4.143-3.357 7.5-7.5 7.5z" fill="#fac600"/></g><g><path d="m168.546 231.953h-22.76c-4.142 0-7.5-3.357-7.5-7.5s3.358-7.5 7.5-7.5h22.76c4.142 0 7.5 3.357 7.5 7.5s-3.357 7.5-7.5 7.5z" fill="#fac600"/></g><g><path d="m369.115 231.953h-22.761c-4.143 0-7.5-3.357-7.5-7.5s3.357-7.5 7.5-7.5h22.761c4.143 0 7.5 3.357 7.5 7.5s-3.357 7.5-7.5 7.5z" fill="#fac600"/></g><g><path d="m320.315 169.089c-1.919 0-3.839-.732-5.304-2.196-2.929-2.93-2.929-7.678 0-10.607l16.094-16.094c2.93-2.928 7.678-2.928 10.607 0 2.929 2.93 2.929 7.678 0 10.607l-16.094 16.094c-1.464 1.464-3.384 2.196-5.303 2.196z" fill="#fac600"/></g><g><path d="m178.492 310.912c-1.919 0-3.839-.732-5.303-2.196-2.929-2.93-2.929-7.678 0-10.607l16.094-16.094c2.929-2.928 7.678-2.928 10.607 0 2.929 2.93 2.929 7.678 0 10.607l-16.094 16.094c-1.465 1.464-3.385 2.196-5.304 2.196z" fill="#fac600"/></g><g><path d="m194.585 169.089c-1.919 0-3.839-.732-5.303-2.196l-16.094-16.094c-2.929-2.93-2.929-7.678 0-10.607 2.929-2.928 7.678-2.928 10.606 0l16.094 16.094c2.929 2.93 2.929 7.678 0 10.607-1.464 1.464-3.383 2.196-5.303 2.196z" fill="#fac600"/></g><g><path d="m336.409 310.912c-1.919 0-3.839-.732-5.304-2.196l-16.094-16.094c-2.929-2.93-2.929-7.678 0-10.607 2.93-2.928 7.678-2.928 10.607 0l16.094 16.094c2.929 2.93 2.929 7.678 0 10.607-1.464 1.464-3.384 2.196-5.303 2.196z" fill="#fac600"/></g><path d="m344.355 224.454c0 49.101-37.804 88.904-86.904 88.904s-88.904-39.804-88.904-88.904 39.804-88.904 88.904-88.904 86.904 39.803 86.904 88.904z" fill="#fed402"/><path d="m257.45 135.549c-4.243 0-8.415.304-12.5.879 43.181 6.077 76.404 43.168 76.404 88.025s-33.223 81.948-76.404 88.025c4.085.575 8.257.879 12.5.879 49.1 0 88.904-39.804 88.904-88.904.001-49.1-39.803-88.904-88.904-88.904z" fill="#fac600"/><g><path d="m308.821 231.953h-19.979c-4.143 0-7.5-3.357-7.5-7.5s3.357-7.5 7.5-7.5h19.979c4.143 0 7.5 3.357 7.5 7.5s-3.357 7.5-7.5 7.5z" fill="#b98080"/></g><path d="m287.841 224.454c0 17.337-13.054 31.391-30.391 31.391s-31.391-14.054-31.391-31.391 14.054-31.391 31.391-31.391 30.391 14.054 30.391 31.391z" fill="#b98080"/><path d="m257.45 193.063c-3.498 0-6.858.581-10 1.636 12.432 4.177 21.391 15.916 21.391 29.755s-8.959 25.578-21.391 29.755c3.142 1.056 6.502 1.636 10 1.636 17.337 0 31.391-14.054 31.391-31.391s-14.054-31.391-31.391-31.391z" fill="#ae6c6c"/></g></svg>