<svg id="Layer_1" enable-background="new 0 0 510 510" height="512" viewBox="0 0 510 510" width="512" xmlns="http://www.w3.org/2000/svg" xmlns:xlink="http://www.w3.org/1999/xlink"><linearGradient id="lg1"><stop offset="0" stop-color="#e4f2ff"/><stop offset="1" stop-color="#b2cbff"/></linearGradient><linearGradient id="SVGID_1_" gradientUnits="userSpaceOnUse" x1="293.724" x2="401.561" xlink:href="#lg1" y1="230.581" y2="338.418"/><linearGradient id="SVGID_2_" gradientUnits="userSpaceOnUse" x1="318.524" x2="483.624" xlink:href="#lg1" y1="81.384" y2="246.483"/><linearGradient id="SVGID_3_" gradientUnits="userSpaceOnUse" x1="223.341" x2="298.566" xlink:href="#lg1" y1="140.471" y2="215.697"/><linearGradient id="SVGID_4_" gradientUnits="userSpaceOnUse" x1="180.814" x2="232.091" xlink:href="#lg1" y1="285.121" y2="336.399"/><linearGradient id="SVGID_5_" gradientUnits="userSpaceOnUse" x1="408.38" x2="502.053" xlink:href="#lg1" y1="253.14" y2="346.812"/><linearGradient id="SVGID_6_" gradientUnits="userSpaceOnUse" x1="272.484" x2="365.841" xlink:href="#lg1" y1="351.733" y2="445.09"/><linearGradient id="lg2"><stop offset="0" stop-color="#8a7889"/><stop offset="1" stop-color="#6e566e"/></linearGradient><linearGradient id="SVGID_7_" gradientUnits="userSpaceOnUse" x1="311.784" x2="359.05" xlink:href="#lg2" y1="256.719" y2="303.985"/><linearGradient id="SVGID_8_" gradientUnits="userSpaceOnUse" x1="319.969" x2="339.783" xlink:href="#lg2" y1="78.977" y2="98.791"/><linearGradient id="SVGID_9_" gradientUnits="userSpaceOnUse" x1="494.237" x2="512.95" xlink:href="#lg2" y1="215.098" y2="233.811"/><linearGradient id="SVGID_10_" gradientUnits="userSpaceOnUse" x1="148.283" x2="160.54" xlink:href="#lg2" y1="217.023" y2="229.279"/><linearGradient id="SVGID_11_" gradientUnits="userSpaceOnUse" x1="218.127" x2="244.633" xlink:href="#lg2" y1="391.935" y2="418.441"/><linearGradient id="SVGID_12_" gradientUnits="userSpaceOnUse" x1="422.83" x2="432.535" xlink:href="#lg2" y1="396.944" y2="406.649"/><linearGradient id="SVGID_13_" gradientUnits="userSpaceOnUse" x1="370.793" x2="121.109" y1="318.991" y2="-8.464"><stop offset="0" stop-color="#fff" stop-opacity="0"/><stop offset="1" stop-color="#fff"/></linearGradient><linearGradient id="lg3"><stop offset="0" stop-color="#3f3ced" stop-opacity="0"/><stop offset=".2796" stop-color="#3c3de4" stop-opacity=".28"/><stop offset=".7305" stop-color="#3541cc" stop-opacity=".731"/><stop offset="1" stop-color="#2f43bb"/></linearGradient><linearGradient id="SVGID_14_" gradientUnits="userSpaceOnUse" x1="337.15" x2="887.462" xlink:href="#lg3" y1="274.947" y2="305.838"/><linearGradient id="lg4"><stop offset="0" stop-color="#ffd945"/><stop offset=".3043" stop-color="#ffcd3e"/><stop offset=".8558" stop-color="#ffad2b"/><stop offset="1" stop-color="#ffa325"/></linearGradient><linearGradient id="SVGID_15_" gradientUnits="userSpaceOnUse" x1="75.386" x2="75.386" xlink:href="#lg4" y1="383.238" y2="425.165"/><linearGradient id="lg5"><stop offset="0" stop-color="#e87264" stop-opacity="0"/><stop offset="1" stop-color="#ff7044"/></linearGradient><linearGradient id="SVGID_16_" gradientUnits="userSpaceOnUse" x1="75.386" x2="75.386" xlink:href="#lg5" y1="383.846" y2="454.359"/><linearGradient id="lg6"><stop offset="0" stop-color="#ffd945" stop-opacity="0"/><stop offset="1" stop-color="#fbed21"/></linearGradient><linearGradient id="SVGID_18_" gradientUnits="userSpaceOnUse" x1="75.212" x2="58.494" xlink:href="#lg6" y1="395.142" y2="354.713"/><linearGradient id="SVGID_19_" gradientUnits="userSpaceOnUse" x1="75.386" x2="75.386" xlink:href="#lg4" y1="350.899" y2="392.827"/><linearGradient id="SVGID_20_" gradientUnits="userSpaceOnUse" x1="75.386" x2="75.386" xlink:href="#lg5" y1="351.507" y2="422.02"/><linearGradient id="SVGID_22_" gradientUnits="userSpaceOnUse" x1="75.212" x2="58.494" xlink:href="#lg6" y1="362.803" y2="322.375"/><linearGradient id="SVGID_23_" gradientUnits="userSpaceOnUse" x1="75.386" x2="75.386" xlink:href="#lg4" y1="318.561" y2="360.489"/><linearGradient id="SVGID_24_" gradientUnits="userSpaceOnUse" x1="75.386" x2="75.386" xlink:href="#lg5" y1="319.169" y2="389.682"/><linearGradient id="SVGID_26_" gradientUnits="userSpaceOnUse" x1="75.212" x2="58.494" xlink:href="#lg6" y1="330.465" y2="290.036"/><linearGradient id="SVGID_27_" gradientUnits="userSpaceOnUse" x1="75.386" x2="75.386" xlink:href="#lg4" y1="286.223" y2="328.151"/><linearGradient id="SVGID_28_" gradientUnits="userSpaceOnUse" x1="75.386" x2="75.386" xlink:href="#lg5" y1="286.831" y2="357.344"/><linearGradient id="SVGID_30_" gradientUnits="userSpaceOnUse" x1="75.212" x2="58.494" xlink:href="#lg6" y1="298.127" y2="257.698"/><linearGradient id="SVGID_31_" gradientUnits="userSpaceOnUse" x1="75.386" x2="75.386" xlink:href="#lg4" y1="253.885" y2="295.812"/><linearGradient id="SVGID_32_" gradientUnits="userSpaceOnUse" x1="75.386" x2="75.386" xlink:href="#lg5" y1="254.493" y2="325.006"/><linearGradient id="SVGID_34_" gradientUnits="userSpaceOnUse" x1="75.212" x2="58.494" xlink:href="#lg6" y1="265.789" y2="225.36"/><linearGradient id="SVGID_35_" gradientUnits="userSpaceOnUse" x1="75.386" x2="75.386" xlink:href="#lg4" y1="221.546" y2="263.474"/><linearGradient id="SVGID_36_" gradientUnits="userSpaceOnUse" x1="75.386" x2="75.386" xlink:href="#lg5" y1="222.154" y2="292.668"/><linearGradient id="SVGID_38_" gradientUnits="userSpaceOnUse" x1="75.212" x2="58.494" xlink:href="#lg6" y1="233.451" y2="193.022"/><linearGradient id="SVGID_39_" gradientUnits="userSpaceOnUse" x1="488.534" x2="402.803" xlink:href="#lg3" y1="370.481" y2="343.499"/><linearGradient id="lg7"><stop offset="0" stop-color="#4ab272"/><stop offset="1" stop-color="#077565"/></linearGradient><linearGradient id="SVGID_40_" gradientUnits="userSpaceOnUse" x1="245.211" x2="338.283" xlink:href="#lg7" y1="328.532" y2="563.997"/><linearGradient id="SVGID_41_" gradientUnits="userSpaceOnUse" x1="276.653" x2="97.668" y1="402.776" y2="17.76"><stop offset="0" stop-color="#92f37f" stop-opacity="0"/><stop offset="1" stop-color="#ffee83"/></linearGradient><linearGradient id="lg8"><stop offset="0" stop-color="#91f27f"/><stop offset="1" stop-color="#00b302"/></linearGradient><linearGradient id="SVGID_42_" gradientUnits="userSpaceOnUse" x1="251.159" x2="302.999" xlink:href="#lg8" y1="337.794" y2="495.043"/><linearGradient id="SVGID_43_" gradientUnits="userSpaceOnUse" x1="311.306" x2="120.438" y1="404.286" y2="280.222"><stop offset="0" stop-color="#92f37f"/><stop offset="1" stop-color="#4ab272"/></linearGradient><linearGradient id="SVGID_44_" gradientUnits="userSpaceOnUse" x1="307.386" x2="173.213" y1="405.26" y2="345.863"><stop offset="0" stop-color="#4ab272" stop-opacity="0"/><stop offset="1" stop-color="#009245"/></linearGradient><linearGradient id="SVGID_45_" gradientUnits="userSpaceOnUse" x1="256.626" x2="308.598" xlink:href="#lg7" y1="367.228" y2="402.23"/><linearGradient id="SVGID_46_" gradientUnits="userSpaceOnUse" x1="123.302" x2="148.114" xlink:href="#lg8" y1="311.073" y2="337.871"/><linearGradient id="SVGID_47_" gradientUnits="userSpaceOnUse" x1="393.651" x2="418.464" xlink:href="#lg8" y1="311.073" y2="337.871"/><linearGradient id="SVGID_48_" gradientUnits="userSpaceOnUse" x1="123.302" x2="148.114" xlink:href="#lg8" y1="425.227" y2="452.025"/><linearGradient id="SVGID_49_" gradientUnits="userSpaceOnUse" x1="393.651" x2="418.464" xlink:href="#lg8" y1="425.227" y2="452.025"/><linearGradient id="SVGID_50_" gradientUnits="userSpaceOnUse" x1="400.464" x2="234.424" y1="375.138" y2="370.394"><stop offset="0" stop-color="#005a01" stop-opacity="0"/><stop offset="1" stop-color="#005a01"/></linearGradient><linearGradient id="SVGID_51_" gradientUnits="userSpaceOnUse" x1="219.576" x2="377.224" xlink:href="#lg4" y1="339.692" y2="460.35"/><linearGradient id="SVGID_52_" gradientUnits="userSpaceOnUse" x1="316.368" x2="171.677" xlink:href="#lg6" y1="410.653" y2="312.216"/><linearGradient id="SVGID_53_" gradientUnits="userSpaceOnUse" x1="295.653" x2="198.253" xlink:href="#lg5" y1="402.403" y2="352.147"/><linearGradient id="SVGID_54_" gradientUnits="userSpaceOnUse" x1="205.383" x2="272.985" xlink:href="#lg4" y1="337.088" y2="377.56"/><linearGradient id="SVGID_55_" gradientTransform="matrix(1 .002 -.002 1 -5.133 -1.563)" gradientUnits="userSpaceOnUse" x1="111.302" x2="151.246" xlink:href="#lg4" y1="144.816" y2="198.076"/><linearGradient id="SVGID_56_" gradientTransform="matrix(1 .002 -.002 1 -5.133 -1.563)" gradientUnits="userSpaceOnUse" x1="63.947" x2="92.194" xlink:href="#lg4" y1="89.567" y2="127.23"/><linearGradient id="SVGID_57_" gradientTransform="matrix(1 .002 -.002 1 -5.133 -1.563)" gradientUnits="userSpaceOnUse" x1="195.785" x2="224.032" xlink:href="#lg4" y1="57.811" y2="95.474"/><path d="m325.877 446.857c101.688 0 184.123-82.435 184.123-184.123 0-101.689-82.435-184.124-184.123-184.124s-184.123 82.435-184.123 184.123c0 101.689 82.434 184.124 184.123 184.124z" fill="url(#SVGID_1_)"/><path d="m505.985 224.349-77.873 16.651c-11.315 2.419-23.12-.376-32.153-7.603l-57.49-46.009c-9.141-7.322-14.463-18.398-14.47-30.102v-.072l.123-78.595c.585-.007 1.17-.007 1.755-.007 88.523-.002 162.461 62.478 180.108 145.737z" fill="url(#SVGID_2_)"/><path d="m323.999 157.213v.072c0 11.704-5.329 22.781-14.463 30.102l-57.49 46.009c-7.842 6.267-17.763 9.206-27.64 8.289-1.509-.137-3.018-.368-4.52-.686l-65.851-14.08-8.434-1.805c17.235-83.014 90.372-145.558 178.275-146.49z" fill="url(#SVGID_3_)"/><path d="m260.278 355.171-.491.556-44.038 48.796c-1.047 1.162-2.173 2.231-3.357 3.206-43.005-33.706-70.638-86.119-70.638-144.995 0-12.022 1.148-23.77 3.35-35.142 2.91-.643 5.914-.874 8.932-.672 1.473.101 2.96.303 4.433.621l64.284 13.741c.556.123 1.112.253 1.653.404 10.239 2.773 18.434 10.535 21.727 20.701l20.239 62.537c3.387 10.47 1.062 21.936-6.094 30.247z" fill="url(#SVGID_4_)"/><path d="m510 262.734c0 58.876-27.633 111.29-70.638 144.995-1.184-.975-2.31-2.043-3.357-3.206l-44.038-48.796-.491-.556c-7.156-8.311-9.481-19.777-6.094-30.247l20.239-62.537c3.466-10.708 12.376-18.752 23.38-21.106l64.284-13.741c4.484-.953 9.033-.91 13.365.051 2.202 11.373 3.35 23.12 3.35 35.143z" fill="url(#SVGID_5_)"/><path d="m437.78 408.964c-31.012 23.77-69.808 37.893-111.904 37.893s-80.892-14.123-111.904-37.893c1.307-2.383 2.888-4.643 4.737-6.737l41.077-46.5.491-.556.7-.787c7.112-8.051 17.344-12.665 28.088-12.665h73.62c10.744 0 20.976 4.614 28.088 12.665l.701.787.491.556 41.077 46.5c1.85 2.094 3.431 4.354 4.738 6.737z" fill="url(#SVGID_6_)"/><path d="m305.665 190.317-46.892 34.069c-12.052 8.756-17.095 24.278-12.492 38.446l17.911 55.125c4.603 14.168 17.807 23.761 32.704 23.761h57.962c14.897 0 28.1-9.593 32.704-23.761l17.911-55.125c4.603-14.168-.44-29.689-12.492-38.446l-46.892-34.069c-12.052-8.757-28.372-8.757-40.424 0z" fill="url(#SVGID_7_)"/><path d="m373.72 84.885-27.633 20.073c-12.051 8.758-28.369 8.758-40.421 0l-27.633-20.073c15.257-4.094 31.294-6.275 47.843-6.275 16.55 0 32.587 2.181 47.844 6.275z" fill="url(#SVGID_8_)"/><path d="m509.87 255.809-12.391-8.636c-12.224-8.513-17.575-23.936-13.25-38.189l7.791-25.698c10.586 22.095 16.897 46.623 17.85 72.523z" fill="url(#SVGID_9_)"/><path d="m154.274 247.173-12.391 8.636c.953-25.9 7.264-50.428 17.849-72.523l7.791 25.698c4.326 14.253-1.025 29.676-13.249 38.189z" fill="url(#SVGID_10_)"/><path d="m256.524 433.347c-28.897-11.755-54.132-30.644-73.527-54.479l35.409 2.145c14.874.903 27.474 11.271 31.207 25.691z" fill="url(#SVGID_11_)"/><path d="m468.756 378.868c-19.394 23.835-44.63 42.724-73.526 54.479l6.91-26.644c3.733-14.419 16.333-24.788 31.207-25.691z" fill="url(#SVGID_12_)"/><path d="m342.885 95.619c-101.688 0-184.123 82.435-184.123 184.123 0 46.516 17.257 88.996 45.708 121.407 32.411 28.451 74.891 45.708 121.407 45.708 101.688 0 184.123-82.435 184.123-184.123 0-46.516-17.257-88.996-45.708-121.407-32.411-28.451-74.891-45.708-121.407-45.708z" fill="url(#SVGID_13_)"/><path d="m424.114 106.991c17.971 28.43 28.38 62.116 28.38 98.237 0 101.688-82.435 184.123-184.123 184.123-36.121 0-69.806-10.41-98.237-28.38 32.621 51.608 90.175 85.886 155.742 85.886 101.689 0 184.124-82.435 184.124-184.123 0-65.568-34.279-123.122-85.886-155.743z" fill="url(#SVGID_14_)"/><path d="m145.892 414.909h-141.012c-2.695 0-4.88-2.185-4.88-4.88v-22.578c0-2.695 2.185-4.88 4.88-4.88h141.011c2.695 0 4.88 2.185 4.88 4.88v22.578c.001 2.695-2.184 4.88-4.879 4.88z" fill="url(#SVGID_15_)"/><path d="m127.992 414.909h-105.212c-2.34 0-4.238-1.897-4.238-4.238v-23.863c0-2.34 1.897-4.238 4.238-4.238h105.211c2.34 0 4.238 1.897 4.238 4.238v23.863c.001 2.341-1.897 4.238-4.237 4.238z" fill="url(#SVGID_16_)"/><path d="m93.501 414.909h-36.23c-1.411 0-2.556-1.144-2.556-2.556v-27.227c0-1.411 1.144-2.555 2.556-2.555h36.23c1.411 0 2.556 1.144 2.556 2.555v27.227c-.001 1.412-1.145 2.556-2.556 2.556z" fill="url(#SVGID_16_)"/><path d="m9.136 386.506c-2.695 0-4.88 2.185-4.88 4.88v22.578c0 .313.032.618.089.915.176.019.355.031.536.031h141.011c2.695 0 4.88-2.185 4.88-4.88v-22.578c0-.313-.032-.618-.089-.915-.176-.019-.355-.031-.536-.031z" fill="url(#SVGID_18_)"/><path d="m145.892 382.571h-141.012c-2.695 0-4.88-2.185-4.88-4.88v-22.578c0-2.695 2.185-4.88 4.88-4.88h141.011c2.695 0 4.88 2.185 4.88 4.88v22.578c.001 2.695-2.184 4.88-4.879 4.88z" fill="url(#SVGID_19_)"/><path d="m127.992 382.571h-105.212c-2.34 0-4.238-1.897-4.238-4.238v-23.863c0-2.341 1.897-4.238 4.238-4.238h105.211c2.34 0 4.238 1.897 4.238 4.238v23.863c.001 2.341-1.897 4.238-4.237 4.238z" fill="url(#SVGID_20_)"/><path d="m93.501 382.571h-36.23c-1.411 0-2.556-1.144-2.556-2.556v-27.227c0-1.411 1.144-2.555 2.556-2.555h36.23c1.411 0 2.556 1.144 2.556 2.555v27.227c-.001 1.412-1.145 2.556-2.556 2.556z" fill="url(#SVGID_20_)"/><path d="m9.136 354.167c-2.695 0-4.88 2.185-4.88 4.88v22.578c0 .313.032.618.089.915.176.019.355.031.536.031h141.011c2.695 0 4.88-2.185 4.88-4.88v-22.578c0-.313-.032-.618-.089-.915-.176-.019-.355-.031-.536-.031z" fill="url(#SVGID_22_)"/><path d="m145.892 350.233h-141.012c-2.695 0-4.88-2.185-4.88-4.88v-22.578c0-2.695 2.185-4.88 4.88-4.88h141.011c2.695 0 4.88 2.185 4.88 4.88v22.578c.001 2.695-2.184 4.88-4.879 4.88z" fill="url(#SVGID_23_)"/><path d="m127.992 350.233h-105.212c-2.34 0-4.238-1.897-4.238-4.238v-23.862c0-2.341 1.897-4.238 4.238-4.238h105.211c2.34 0 4.238 1.897 4.238 4.238v23.862c.001 2.341-1.897 4.238-4.237 4.238z" fill="url(#SVGID_24_)"/><path d="m93.501 350.233h-36.23c-1.411 0-2.556-1.144-2.556-2.556v-27.227c0-1.411 1.144-2.555 2.556-2.555h36.23c1.411 0 2.556 1.144 2.556 2.555v27.227c-.001 1.412-1.145 2.556-2.556 2.556z" fill="url(#SVGID_24_)"/><path d="m9.136 321.829c-2.695 0-4.88 2.185-4.88 4.88v22.578c0 .313.032.618.089.915.176.019.355.031.536.031h141.011c2.695 0 4.88-2.185 4.88-4.88v-22.578c0-.313-.032-.618-.089-.915-.176-.019-.355-.031-.536-.031z" fill="url(#SVGID_26_)"/><path d="m145.892 317.895h-141.012c-2.695 0-4.88-2.185-4.88-4.88v-22.578c0-2.695 2.185-4.88 4.88-4.88h141.011c2.695 0 4.88 2.185 4.88 4.88v22.578c.001 2.695-2.184 4.88-4.879 4.88z" fill="url(#SVGID_27_)"/><path d="m127.992 317.895h-105.212c-2.34 0-4.238-1.897-4.238-4.238v-23.862c0-2.341 1.897-4.238 4.238-4.238h105.211c2.34 0 4.238 1.897 4.238 4.238v23.862c.001 2.34-1.897 4.238-4.237 4.238z" fill="url(#SVGID_28_)"/><path d="m93.501 317.895h-36.23c-1.411 0-2.556-1.144-2.556-2.556v-27.227c0-1.411 1.144-2.556 2.556-2.556h36.23c1.411 0 2.556 1.144 2.556 2.556v27.227c-.001 1.412-1.145 2.556-2.556 2.556z" fill="url(#SVGID_28_)"/><path d="m9.136 289.491c-2.695 0-4.88 2.185-4.88 4.88v22.578c0 .313.032.618.089.915.176.019.355.031.536.031h141.011c2.695 0 4.88-2.185 4.88-4.88v-22.578c0-.313-.032-.618-.089-.915-.176-.019-.355-.031-.536-.031z" fill="url(#SVGID_30_)"/><path d="m145.892 285.557h-141.012c-2.695 0-4.88-2.185-4.88-4.88v-22.577c0-2.695 2.185-4.88 4.88-4.88h141.011c2.695 0 4.88 2.185 4.88 4.88v22.577c.001 2.695-2.184 4.88-4.879 4.88z" fill="url(#SVGID_31_)"/><path d="m127.992 285.557h-105.212c-2.34 0-4.238-1.897-4.238-4.238v-23.863c0-2.34 1.897-4.238 4.238-4.238h105.211c2.34 0 4.238 1.897 4.238 4.238v23.863c.001 2.34-1.897 4.238-4.237 4.238z" fill="url(#SVGID_32_)"/><path d="m93.501 285.557h-36.23c-1.411 0-2.556-1.144-2.556-2.556v-27.227c0-1.411 1.144-2.555 2.556-2.555h36.23c1.411 0 2.556 1.144 2.556 2.555v27.227c-.001 1.411-1.145 2.556-2.556 2.556z" fill="url(#SVGID_32_)"/><path d="m9.136 257.153c-2.695 0-4.88 2.185-4.88 4.88v22.578c0 .313.032.618.089.915.176.019.355.031.536.031h141.011c2.695 0 4.88-2.185 4.88-4.88v-22.578c0-.313-.032-.618-.089-.915-.176-.019-.355-.031-.536-.031z" fill="url(#SVGID_34_)"/><path d="m145.892 253.218h-141.012c-2.695 0-4.88-2.185-4.88-4.88v-22.578c0-2.695 2.185-4.88 4.88-4.88h141.011c2.695 0 4.88 2.185 4.88 4.88v22.578c.001 2.695-2.184 4.88-4.879 4.88z" fill="url(#SVGID_35_)"/><path d="m127.992 253.218h-105.212c-2.34 0-4.238-1.897-4.238-4.238v-23.863c0-2.34 1.897-4.238 4.238-4.238h105.211c2.34 0 4.238 1.897 4.238 4.238v23.863c.001 2.341-1.897 4.238-4.237 4.238z" fill="url(#SVGID_36_)"/><path d="m93.501 253.218h-36.23c-1.411 0-2.556-1.144-2.556-2.555v-27.227c0-1.411 1.144-2.555 2.556-2.555h36.23c1.411 0 2.556 1.144 2.556 2.555v27.227c-.001 1.411-1.145 2.555-2.556 2.555z" fill="url(#SVGID_36_)"/><path d="m9.136 224.814c-2.695 0-4.88 2.185-4.88 4.88v22.577c0 .313.032.618.089.915.176.019.355.031.536.031h141.011c2.695 0 4.88-2.185 4.88-4.88v-22.577c0-.313-.032-.618-.089-.915-.176-.019-.355-.031-.536-.031z" fill="url(#SVGID_38_)"/><path d="m427.102 416.543c26.09-17.205 47.541-40.865 62.081-68.711l-62.081-62.081z" fill="url(#SVGID_39_)"/><path d="m419.423 463.701h-313.539c-5.088 0-9.212-4.124-9.212-9.212v-163.655c0-5.087 4.124-9.212 9.212-9.212h313.539c5.088 0 9.212 4.124 9.212 9.212v163.655c0 5.088-4.124 9.212-9.212 9.212z" fill="url(#SVGID_40_)"/><path d="m412.607 457.388h-299.907c-4.798 0-8.688-3.89-8.688-8.688v-152.077c0-4.798 3.89-8.688 8.688-8.688h299.906c4.798 0 8.688 3.89 8.688 8.688v152.077c.001 4.799-3.889 8.688-8.687 8.688z" fill="url(#SVGID_41_)"/><path d="m400.793 337.307c-15.377 0-27.842-12.465-27.842-27.842 0-.632.021-1.258.063-1.879.202-2.98-2.151-5.508-5.138-5.508h-210.444c-2.987 0-5.34 2.528-5.138 5.508.042.621.063 1.247.063 1.879 0 15.377-12.465 27.842-27.842 27.842-.018 0-.036 0-.055 0-2.888-.006-5.259 2.267-5.259 5.155v60.4c0 2.888 2.371 5.161 5.259 5.155h.055c15.377 0 27.842 12.465 27.842 27.842 0 .632-.021 1.258-.063 1.879-.202 2.98 2.151 5.508 5.138 5.508h210.444c2.987 0 5.34-2.528 5.138-5.508-.042-.621-.063-1.247-.063-1.879 0-15.377 12.465-27.842 27.842-27.842h.054c2.888.006 5.259-2.267 5.259-5.155v-60.4c0-2.888-2.371-5.161-5.259-5.155-.018-.001-.036 0-.054 0z" fill="url(#SVGID_42_)"/><circle cx="262.654" cy="372.662" fill="url(#SVGID_43_)" r="63.425"/><path d="m287.558 334.369c-.966-1.509-2.832-2.765-5.612-3.765-2.996-1.075-6.189-1.806-9.572-2.207-.181-.115-.366-.216-.553-.302l-5.011-5.369c-.787-.577-1.634-.868-2.543-.868-.993 0-1.842.291-2.543.868-.703.58-1.055 1.241-1.055 1.985v3.598c-6.699.744-12.303 2.978-16.811 6.699-4.509 3.722-6.761 9.177-6.761 16.361 0 2.559.289 4.891.868 6.996.578 2.105 1.53 3.941 2.854 5.509 1.322 1.568 2.584 2.91 3.784 4.024.008.008.018.016.027.023 0 0 15.6 15.601 15.609 15.609.145.155.287.3.431.449v20.752c-3.666-.248-6.893-1.196-9.685-2.848-2.791-1.65-4.984-3.197-6.581-4.643-1.597-1.444-2.886-2.167-3.867-2.167-1.481 0-2.795.785-3.947 2.353s-1.725 3.137-1.725 4.705c0 2.507 1.413 4.978 4.238 7.413l54.155 54.155h123.632z" fill="url(#SVGID_44_)"/><path d="m234.863 402.133c0-1.568.574-3.136 1.725-4.705 1.151-1.568 2.466-2.353 3.947-2.353.981 0 2.27.723 3.867 2.167 1.598 1.446 3.79 2.993 6.581 4.643 2.792 1.652 6.019 2.6 9.685 2.848v-29.095c-2.481-.907-4.385-1.63-5.707-2.167-1.324-.535-3.082-1.32-5.272-2.352-2.192-1.031-3.889-2.105-5.087-3.22-1.2-1.114-2.462-2.456-3.784-4.024-1.324-1.568-2.276-3.404-2.854-5.509-.579-2.105-.868-4.437-.868-6.996 0-7.184 2.252-12.639 6.761-16.361 4.507-3.722 10.111-5.955 16.81-6.699v-3.598c0-.745.351-1.406 1.055-1.985.702-.578 1.551-.868 2.543-.868.909 0 1.757.291 2.543.868.785.579 1.179 1.241 1.179 1.985v3.35c5.044.167 9.696 1.014 13.957 2.543 4.259 1.531 6.389 3.66 6.389 6.389 0 1.489-.502 3.04-1.502 4.652-1 1.613-2.336 2.419-4.003 2.419-.659 0-2.471-.702-5.433-2.109-2.964-1.406-6.101-2.233-9.408-2.481v25.142c3.29 1.239 6.025 2.415 8.204 3.53s4.484 2.662 6.911 4.643 4.257 4.478 5.49 7.49c1.233 3.013 1.851 6.542 1.851 10.586 0 7.389-2.016 13.263-6.047 17.621-4.032 4.358-9.5 7.035-16.409 8.031v4.145c0 .731-.394 1.38-1.179 1.95-.787.568-1.634.853-2.543.853-.992 0-1.842-.285-2.543-.851-.704-.57-1.055-1.219-1.055-1.95v-3.774c-7.195-.083-13.296-1.729-18.299-4.939-5.004-3.211-7.505-6.483-7.505-9.819zm14.516-52.001c0 3.22 1.002 5.676 3.008 7.366 2.004 1.692 5.013 3.282 9.025 4.767v-22.554c-8.023.992-12.033 4.466-12.033 10.421zm17.865 54.352c7.277-1.32 10.918-5.406 10.918-12.257 0-3.631-.952-6.479-2.854-8.541-1.904-2.063-4.59-3.838-8.064-5.325z" fill="url(#SVGID_45_)"/><circle cx="127.479" cy="315.585" fill="url(#SVGID_46_)" r="13.169"/><circle cx="397.828" cy="315.585" fill="url(#SVGID_47_)" r="13.169"/><circle cx="127.479" cy="429.739" fill="url(#SVGID_48_)" r="13.169"/><circle cx="397.828" cy="429.739" fill="url(#SVGID_49_)" r="13.169"/><path d="m302.681 463.701h116.742c5.088 0 9.212-4.124 9.212-9.212v-69.152l-103.716-103.715h-22.238z" fill="url(#SVGID_50_)"/><path d="m316.606 468.632h-107.905c-5.232 0-9.473-4.241-9.473-9.473v-172.995c0-5.232 4.241-9.473 9.473-9.473h107.905c5.232 0 9.473 4.241 9.473 9.473v172.996c0 5.231-4.241 9.472-9.473 9.472z" fill="url(#SVGID_51_)"/><path d="m217.761 285.751c-5.232 0-9.473 4.241-9.473 9.473v172.996c0 .133.014.262.02.393.131.005.26.02.393.02h107.905c5.232 0 9.473-4.241 9.473-9.473v-172.996c0-.133-.014-.262-.02-.393-.131-.005-.26-.02-.393-.02z" fill="url(#SVGID_52_)"/><path d="m326.079 459.16v-86.27l-38.521-38.521c-.966-1.509-2.832-2.765-5.612-3.765-2.996-1.075-6.189-1.806-9.572-2.207-.181-.115-.366-.216-.553-.302l-5.011-5.369c-.787-.577-1.634-.868-2.543-.868-.993 0-1.842.291-2.543.868-.703.58-1.055 1.241-1.055 1.985v3.598c-6.699.744-12.303 2.978-16.811 6.699-4.509 3.722-6.761 9.177-6.761 16.361 0 2.559.289 4.891.868 6.996.578 2.105 1.53 3.941 2.854 5.509 1.322 1.568 2.584 2.91 3.784 4.024.008.008.018.016.027.023 0 0 15.6 15.601 15.609 15.609.145.155.287.3.431.449v20.752c-3.666-.248-6.893-1.196-9.685-2.848-2.791-1.65-4.984-3.197-6.581-4.643-1.597-1.444-2.886-2.167-3.867-2.167-1.481 0-2.795.785-3.947 2.353s-1.725 3.137-1.725 4.705c0 2.507 1.413 4.978 4.238 7.413l59.086 59.087h18.418c5.231.001 9.472-4.24 9.472-9.471z" fill="url(#SVGID_53_)"/><path d="m234.863 402.133c0-1.568.574-3.136 1.725-4.705 1.151-1.568 2.466-2.353 3.947-2.353.981 0 2.27.723 3.867 2.167 1.598 1.446 3.79 2.993 6.581 4.643 2.792 1.652 6.019 2.6 9.685 2.848v-29.095c-2.481-.907-4.385-1.63-5.707-2.167-1.324-.535-3.082-1.32-5.272-2.352-2.192-1.031-3.889-2.105-5.087-3.22-1.2-1.114-2.462-2.456-3.784-4.024-1.324-1.568-2.276-3.404-2.854-5.509-.579-2.105-.868-4.437-.868-6.996 0-7.184 2.252-12.639 6.761-16.361 4.507-3.722 10.111-5.955 16.81-6.699v-3.598c0-.745.351-1.406 1.055-1.985.702-.578 1.551-.868 2.543-.868.909 0 1.757.291 2.543.868.785.579 1.179 1.241 1.179 1.985v3.35c5.044.167 9.696 1.014 13.957 2.543 4.259 1.531 6.389 3.66 6.389 6.389 0 1.489-.502 3.04-1.502 4.652-1 1.613-2.336 2.419-4.003 2.419-.659 0-2.471-.702-5.433-2.109-2.964-1.406-6.101-2.233-9.408-2.481v25.142c3.29 1.239 6.025 2.415 8.204 3.53s4.484 2.662 6.911 4.643 4.257 4.478 5.49 7.49c1.233 3.013 1.851 6.542 1.851 10.586 0 7.389-2.016 13.263-6.047 17.621-4.032 4.358-9.5 7.035-16.409 8.031v4.145c0 .731-.394 1.38-1.179 1.95-.787.568-1.634.853-2.543.853-.992 0-1.842-.285-2.543-.851-.704-.57-1.055-1.219-1.055-1.95v-3.774c-7.195-.083-13.296-1.729-18.299-4.939-5.004-3.211-7.505-6.483-7.505-9.819zm14.516-52.001c0 3.22 1.002 5.676 3.008 7.366 2.004 1.692 5.013 3.282 9.025 4.767v-22.554c-8.023.992-12.033 4.466-12.033 10.421zm17.865 54.352c7.277-1.32 10.918-5.406 10.918-12.257 0-3.631-.952-6.479-2.854-8.541-1.904-2.063-4.59-3.838-8.064-5.325z" fill="url(#SVGID_54_)"/><path d="m153.723 163.878c-12.662 8.252-23.465 19.12-31.647 31.835-1.84 2.859-6.086 2.851-7.915-.014-8.135-12.744-18.898-23.652-31.53-31.949-2.804-1.842-2.796-6.03.014-7.861 12.662-8.251 23.465-19.12 31.646-31.834 1.84-2.859 6.086-2.852 7.915.014 8.135 12.744 18.899 23.652 31.531 31.949 2.804 1.841 2.796 6.028-.014 7.86z" fill="url(#SVGID_55_)"/><path d="m92.465 102.562c-8.954 5.835-16.594 13.521-22.38 22.512-1.301 2.022-4.304 2.016-5.597-.01-5.753-9.012-13.364-16.726-22.297-22.593-1.983-1.302-1.977-4.264.01-5.559 8.954-5.835 16.594-13.521 22.379-22.512 1.301-2.022 4.304-2.016 5.597.01 5.753 9.012 13.365 16.726 22.298 22.593 1.983 1.302 1.978 4.264-.01 5.559z" fill="url(#SVGID_56_)"/><path d="m224.361 71.043c-8.954 5.835-16.594 13.521-22.38 22.512-1.301 2.022-4.304 2.016-5.597-.01-5.753-9.012-13.364-16.726-22.297-22.593-1.983-1.302-1.977-4.264.01-5.559 8.954-5.835 16.594-13.521 22.379-22.512 1.301-2.022 4.304-2.016 5.597.01 5.753 9.012 13.365 16.726 22.298 22.593 1.982 1.303 1.977 4.264-.01 5.559z" fill="url(#SVGID_57_)"/></svg>