<svg id="Capa_1" enable-background="new 0 0 510 510" height="512" viewBox="0 0 510 510" width="512" xmlns="http://www.w3.org/2000/svg" xmlns:xlink="http://www.w3.org/1999/xlink"><linearGradient id="lg1"><stop offset="0" stop-color="#465a61"/><stop offset="1" stop-color="#444"/></linearGradient><linearGradient id="SVGID_1_" gradientUnits="userSpaceOnUse" x1="255" x2="255" xlink:href="#lg1" y1="24.5" y2="68.511"/><linearGradient id="SVGID_2_" gradientUnits="userSpaceOnUse" x1="18.75" x2="18.75" xlink:href="#lg1" y1="-2.5" y2="41.511"/><linearGradient id="SVGID_3_" gradientUnits="userSpaceOnUse" x1="255" x2="255" xlink:href="#lg1" y1="110.5" y2="154.511"/><linearGradient id="SVGID_4_" gradientUnits="userSpaceOnUse" x1="18.75" x2="18.75" xlink:href="#lg1" y1="83.5" y2="127.511"/><linearGradient id="SVGID_5_" gradientUnits="userSpaceOnUse" x1="255" x2="255" xlink:href="#lg1" y1="197.5" y2="241.511"/><linearGradient id="SVGID_6_" gradientUnits="userSpaceOnUse" x1="18.75" x2="18.75" xlink:href="#lg1" y1="170.5" y2="214.511"/><linearGradient id="SVGID_7_" gradientUnits="userSpaceOnUse" x1="255" x2="255" xlink:href="#lg1" y1="284.5" y2="328.511"/><linearGradient id="SVGID_8_" gradientUnits="userSpaceOnUse" x1="18.75" x2="18.75" xlink:href="#lg1" y1="257.5" y2="301.511"/><linearGradient id="SVGID_9_" gradientUnits="userSpaceOnUse" x1="255" x2="255" xlink:href="#lg1" y1="371.5" y2="415.511"/><linearGradient id="SVGID_10_" gradientUnits="userSpaceOnUse" x1="18.75" x2="18.75" xlink:href="#lg1" y1="344.5" y2="388.511"/><linearGradient id="SVGID_11_" gradientUnits="userSpaceOnUse" x1="255" x2="255" xlink:href="#lg1" y1="457.5" y2="501.511"/><linearGradient id="SVGID_12_" gradientUnits="userSpaceOnUse" x1="18.75" x2="18.75" xlink:href="#lg1" y1="430.5" y2="474.511"/><linearGradient id="SVGID_13_" gradientUnits="userSpaceOnUse" x1="204.854" x2="268.855" y1="375.196" y2="505.196"><stop offset="0" stop-color="#e6eeff"/><stop offset="1" stop-color="#bac8fa"/></linearGradient><linearGradient id="lg2"><stop offset="0" stop-color="#a7b7f1" stop-opacity="0"/><stop offset="1" stop-color="#a7b7f1"/></linearGradient><linearGradient id="SVGID_14_" gradientUnits="userSpaceOnUse" x1="415.958" x2="392.458" xlink:href="#lg2" y1="434.29" y2="462.79"/><linearGradient id="SVGID_15_" gradientUnits="userSpaceOnUse" x1="102.926" x2="128.926" xlink:href="#lg2" y1="445.575" y2="481.075"/><linearGradient id="lg3"><stop offset="0" stop-color="#7a8c98"/><stop offset="1" stop-color="#465a61"/></linearGradient><linearGradient id="SVGID_16_" gradientUnits="userSpaceOnUse" x1="226.851" x2="274.339" xlink:href="#lg3" y1="430.156" y2="526.615"/><linearGradient id="SVGID_17_" gradientUnits="userSpaceOnUse" x1="222.567" x2="267.773" xlink:href="#lg3" y1="373.103" y2="464.928"/><linearGradient id="SVGID_18_" gradientUnits="userSpaceOnUse" x1="235.381" x2="266.028" xlink:href="#lg3" y1="330.378" y2="392.631"/><linearGradient id="lg4"><stop offset="0" stop-color="#ffdfcf"/><stop offset="1" stop-color="#ffa78f"/></linearGradient><linearGradient id="SVGID_19_" gradientUnits="userSpaceOnUse" x1="255.002" x2="255.002" xlink:href="#lg4" y1="323.633" y2="390.281"/><linearGradient id="lg5"><stop offset="0" stop-color="#f89580" stop-opacity="0"/><stop offset=".9972" stop-color="#c5715a"/></linearGradient><linearGradient id="SVGID_20_" gradientUnits="userSpaceOnUse" x1="255.002" x2="255.002" xlink:href="#lg5" y1="386" y2="352.864"/><linearGradient id="lg6"><stop offset="0" stop-color="#444" stop-opacity="0"/><stop offset="1" stop-color="#444"/></linearGradient><linearGradient id="SVGID_21_" gradientUnits="userSpaceOnUse" x1="255" x2="255" xlink:href="#lg6" y1="471.333" y2="528.035"/><linearGradient id="SVGID_22_" gradientUnits="userSpaceOnUse" x1="118.445" x2="151.519" xlink:href="#lg4" y1="189.75" y2="222.824"/><linearGradient id="SVGID_23_" gradientUnits="userSpaceOnUse" x1="349.716" x2="395.997" xlink:href="#lg4" y1="183.468" y2="229.749"/><linearGradient id="SVGID_24_" gradientUnits="userSpaceOnUse" x1="377.911" x2="392.911" y1="245.011" y2="245.011"><stop offset="0" stop-color="#fd0"/><stop offset="1" stop-color="#ffb000"/></linearGradient><linearGradient id="SVGID_25_" gradientUnits="userSpaceOnUse" x1="242.968" x2="304.968" xlink:href="#lg4" y1="192.743" y2="279.41"/><linearGradient id="SVGID_26_" gradientUnits="userSpaceOnUse" x1="154.447" x2="262.465" xlink:href="#lg5" y1="96.554" y2="204.573"/><linearGradient id="SVGID_27_" gradientUnits="userSpaceOnUse" x1="255" x2="255" xlink:href="#lg5" y1="149.333" y2="458.866"/><linearGradient id="SVGID_28_" gradientUnits="userSpaceOnUse" x1="255" x2="255" xlink:href="#lg5" y1="231.333" y2="278"/><linearGradient id="SVGID_29_" gradientUnits="userSpaceOnUse" x1="190.999" x2="214.999" xlink:href="#lg1" y1="203.105" y2="220.772"/><linearGradient id="SVGID_30_" gradientUnits="userSpaceOnUse" x1="295.283" x2="316.616" xlink:href="#lg1" y1="202.07" y2="218.07"/><linearGradient id="SVGID_31_" gradientUnits="userSpaceOnUse" x1="427.989" x2="318.989" xlink:href="#lg6" y1="467.66" y2="444.66"/><linearGradient id="SVGID_32_" gradientUnits="userSpaceOnUse" x1="125.172" x2="137.388" xlink:href="#lg4" y1="448.472" y2="465.852"/><linearGradient id="SVGID_33_" gradientTransform="matrix(-1 0 0 1 280.667 0)" gradientUnits="userSpaceOnUse" x1="-104.162" x2="-91.946" xlink:href="#lg4" y1="448.472" y2="465.852"/><linearGradient id="SVGID_34_" gradientUnits="userSpaceOnUse" x1="220.958" x2="307.493" y1="394.446" y2="555.442"><stop offset="0" stop-color="#fff"/><stop offset="1" stop-color="#e6eeff"/></linearGradient><linearGradient id="SVGID_35_" gradientUnits="userSpaceOnUse" x1="255" x2="255" xlink:href="#lg2" y1="487" y2="525.503"/><linearGradient id="SVGID_36_" gradientUnits="userSpaceOnUse" x1="194.392" x2="132.141" xlink:href="#lg2" y1="498.415" y2="475.665"/><linearGradient id="SVGID_37_" gradientUnits="userSpaceOnUse" x1="126.278" x2="157.028" xlink:href="#lg4" y1="465.072" y2="508.822"/><linearGradient id="SVGID_38_" gradientUnits="userSpaceOnUse" x1="355.544" x2="398.117" xlink:href="#lg4" y1="467.456" y2="510.03"/><linearGradient id="SVGID_39_" gradientUnits="userSpaceOnUse" x1="190.492" x2="210.492" xlink:href="#lg1" y1="447.133" y2="514.133"/><linearGradient id="SVGID_40_" gradientUnits="userSpaceOnUse" x1="217.298" x2="237.298" xlink:href="#lg1" y1="439.131" y2="506.131"/><linearGradient id="SVGID_41_" gradientUnits="userSpaceOnUse" x1="255.878" x2="275.878" xlink:href="#lg1" y1="427.615" y2="494.615"/><linearGradient id="SVGID_42_" gradientUnits="userSpaceOnUse" x1="292.437" x2="312.437" xlink:href="#lg1" y1="416.702" y2="483.701"/><g><g><g><path d="m502.5 42h-495c-4.142 0-7.5-3.358-7.5-7.5 0-4.142 3.358-7.5 7.5-7.5h495c4.142 0 7.5 3.358 7.5 7.5 0 4.142-3.358 7.5-7.5 7.5z" fill="url(#SVGID_1_)"/><path d="m30 15h-22.5c-4.142 0-7.5-3.358-7.5-7.5 0-4.142 3.358-7.5 7.5-7.5h22.5c4.142 0 7.5 3.358 7.5 7.5 0 4.142-3.358 7.5-7.5 7.5z" fill="url(#SVGID_2_)"/></g><g><path d="m502.5 128h-495c-4.142 0-7.5-3.358-7.5-7.5 0-4.142 3.358-7.5 7.5-7.5h495c4.142 0 7.5 3.358 7.5 7.5 0 4.142-3.358 7.5-7.5 7.5z" fill="url(#SVGID_3_)"/><path d="m30 101h-22.5c-4.142 0-7.5-3.358-7.5-7.5 0-4.142 3.358-7.5 7.5-7.5h22.5c4.142 0 7.5 3.358 7.5 7.5 0 4.142-3.358 7.5-7.5 7.5z" fill="url(#SVGID_4_)"/></g><g><path d="m502.5 215h-495c-4.142 0-7.5-3.358-7.5-7.5 0-4.142 3.358-7.5 7.5-7.5h495c4.142 0 7.5 3.358 7.5 7.5 0 4.142-3.358 7.5-7.5 7.5z" fill="url(#SVGID_5_)"/><path d="m30 188h-22.5c-4.142 0-7.5-3.358-7.5-7.5 0-4.142 3.358-7.5 7.5-7.5h22.5c4.142 0 7.5 3.358 7.5 7.5 0 4.142-3.358 7.5-7.5 7.5z" fill="url(#SVGID_6_)"/></g><g><path d="m502.5 302h-495c-4.142 0-7.5-3.358-7.5-7.5 0-4.142 3.358-7.5 7.5-7.5h495c4.142 0 7.5 3.358 7.5 7.5 0 4.142-3.358 7.5-7.5 7.5z" fill="url(#SVGID_7_)"/><path d="m30 275h-22.5c-4.142 0-7.5-3.358-7.5-7.5 0-4.142 3.358-7.5 7.5-7.5h22.5c4.142 0 7.5 3.358 7.5 7.5 0 4.142-3.358 7.5-7.5 7.5z" fill="url(#SVGID_8_)"/></g><g><path d="m502.5 389h-495c-4.142 0-7.5-3.358-7.5-7.5 0-4.142 3.358-7.5 7.5-7.5h495c4.142 0 7.5 3.358 7.5 7.5 0 4.142-3.358 7.5-7.5 7.5z" fill="url(#SVGID_9_)"/><path d="m30 362h-22.5c-4.142 0-7.5-3.358-7.5-7.5 0-4.142 3.358-7.5 7.5-7.5h22.5c4.142 0 7.5 3.358 7.5 7.5 0 4.142-3.358 7.5-7.5 7.5z" fill="url(#SVGID_10_)"/></g><g><path d="m502.5 475h-495c-4.142 0-7.5-3.358-7.5-7.5 0-4.142 3.358-7.5 7.5-7.5h495c4.142 0 7.5 3.358 7.5 7.5 0 4.142-3.358 7.5-7.5 7.5z" fill="url(#SVGID_11_)"/><path d="m30 448h-22.5c-4.142 0-7.5-3.358-7.5-7.5 0-4.142 3.358-7.5 7.5-7.5h22.5c4.142 0 7.5 3.358 7.5 7.5 0 4.142-3.358 7.5-7.5 7.5z" fill="url(#SVGID_12_)"/></g></g><g><g><path d="m445.177 510-190.175-2-190.179 2c-9.051 0-16.389-7.337-16.389-16.389 0-87.437 70.882-158.318 158.318-158.318h96.495c87.437 0 158.318 70.882 158.318 158.318.001 9.052-7.337 16.389-16.388 16.389z" fill="url(#SVGID_13_)"/><path d="m442.75 418.67h-80.58v44.66h96.51c-3.07-15.86-8.51-30.87-15.93-44.66z" fill="url(#SVGID_14_)"/><path d="m147.83 418.67v44.66h-96.51c3.07-15.86 8.51-30.87 15.93-44.66z" fill="url(#SVGID_15_)"/><g><path d="m461.57 493.61c0 4.53-1.83 8.62-4.8 11.59-2.97 2.96-7.07 4.8-11.59 4.8l-190.178-2-190.182 2c-9.05 0-16.39-7.34-16.39-16.39 0-6.28.37-12.47 1.07-18.55h411c.7 6.08 1.07 12.27 1.07 18.55z" fill="url(#SVGID_16_)"/><path d="m452.3 440.12h-394.6c4.46-12.44 10.44-24.16 17.71-34.94h359.18c7.27 10.78 13.25 22.5 17.71 34.94z" fill="url(#SVGID_17_)"/><path d="m402.47 370.23h-294.94c27.15-21.86 61.66-34.94 99.22-34.94h96.5c37.56 0 72.07 13.08 99.22 34.94z" fill="url(#SVGID_18_)"/></g><g><circle cx="255.002" cy="350.5" fill="url(#SVGID_19_)" r="46.5"/><circle cx="255.002" cy="350.5" fill="url(#SVGID_20_)" r="46.5"/></g><path d="m48.434 493.611c0 9.051 7.338 16.389 16.389 16.389l190.179-2 190.175 2c9.051 0 16.389-7.338 16.389-16.389 0-12.553-1.468-24.762-4.229-36.471h-404.674c-2.761 11.709-4.229 23.918-4.229 36.471z" fill="url(#SVGID_21_)"/><g><g><path d="m106.345 207.528c0-19.446 13.499-35.74 31.637-40.022 4.848-1.145 9.483 2.605 9.483 7.587v64.87c0 4.982-4.635 8.731-9.483 7.587-18.138-4.282-31.637-20.575-31.637-40.022z" fill="url(#SVGID_22_)"/><path d="m403.655 207.528c0-19.446-13.499-35.74-31.637-40.022-4.848-1.145-9.483 2.605-9.483 7.587v64.87c0 4.982 4.635 8.731 9.483 7.587 18.138-4.282 31.637-20.575 31.637-40.022z" fill="url(#SVGID_23_)"/><path d="m385.411 261c-4.142 0-7.5-3.358-7.5-7.5v-16.977c0-4.142 3.358-7.5 7.5-7.5 4.142 0 7.5 3.358 7.5 7.5v16.977c0 4.142-3.358 7.5-7.5 7.5z" fill="url(#SVGID_24_)"/></g><g><g><g><path d="m255 359.005c-65.692 0-118.945-53.253-118.945-118.945v-60.998c0-65.691 53.253-118.945 118.945-118.945 65.691 0 118.945 53.253 118.945 118.945v60.998c0 65.692-53.254 118.945-118.945 118.945z" fill="url(#SVGID_25_)"/><path d="m226.49 102.168c1.311 3.931-.809 8.178-4.736 9.49-6.984 2.333-13.607 5.485-19.754 9.342l3.461 3.461c2.928 2.93 2.928 7.678 0 10.607-2.93 2.929-7.678 2.929-10.607 0l-4.986-4.986c-2.965 2.621-5.761 5.432-8.371 8.414l5.465 5.465c2.928 2.93 2.928 7.678 0 10.607-2.93 2.929-7.678 2.929-10.607 0l-3.88-3.88c-2.203 3.554-4.177 7.269-5.891 11.13-1.681 3.785-6.112 5.491-9.898 3.811-2.796-1.241-4.458-3.984-4.458-6.858 0-1.017.208-2.051.648-3.04 2.474-5.571 5.412-10.88 8.751-15.892l-1.27-1.27c-1.464-1.465-2.196-3.385-2.196-5.304s.732-3.839 2.196-5.304c2.898-2.897 7.573-2.924 10.51-.088 2.638-2.958 5.438-5.765 8.381-8.413l-.391-.391c-1.464-1.465-2.196-3.385-2.196-5.304s.732-3.839 2.196-5.304c2.93-2.929 7.678-2.929 10.607 0l1.703 1.703c7.94-5.342 16.616-9.652 25.836-12.733 3.925-1.312 8.175.808 9.487 4.737z" fill="url(#SVGID_26_)"/><path d="m357.17 213.769c-2.07 24.71-11.912 47.048-26.919 64.234-8.196 9.386-21.898 11.616-32.779 5.543-12.361-6.9-26.905-10.876-42.472-10.876s-30.111 3.976-42.472 10.876c-10.88 6.073-24.583 3.843-32.779-5.543-15.007-17.186-24.849-39.524-26.919-64.234-.367-4.379-3.979-7.769-8.373-7.769-4.64 0-8.401 3.762-8.401 8.401v25.659c0 65.691 53.253 118.945 118.945 118.945 65.691 0 118.945-53.253 118.945-118.945v-25.659c0-4.64-3.761-8.401-8.401-8.401-4.396 0-8.008 3.39-8.375 7.769z" fill="url(#SVGID_27_)"/><path d="m261.571 269.976h-13.142c-10.952 0-19.244-9.897-17.326-20.68l7.533-42.35h32.728l7.533 42.35c1.918 10.783-6.374 20.68-17.326 20.68z" fill="url(#SVGID_28_)"/></g></g></g><g><path d="m202.273 233.122c-9.547 0-17.286-7.739-17.286-17.286v-8.865c0-9.547 7.739-17.286 17.286-17.286 9.547 0 17.286 7.739 17.286 17.286v8.865c0 9.547-7.739 17.286-17.286 17.286z" fill="url(#SVGID_29_)"/><path d="m307.727 233.122c-9.547 0-17.286-7.739-17.286-17.286v-8.865c0-9.547 7.739-17.286 17.286-17.286 9.547 0 17.286 7.739 17.286 17.286v8.865c0 9.547-7.739 17.286-17.286 17.286z" fill="url(#SVGID_30_)"/></g></g></g><path d="m369.667 509.206 75.51.794c9.051 0 16.389-7.337 16.389-16.389 0-.072-.003-.143-.003-.214l-91.896-91.897z" fill="url(#SVGID_31_)"/><path d="m115.333 472.355v-9.142c0-12.959 10.505-23.464 23.464-23.464h6.869v19.5z" fill="url(#SVGID_32_)"/><path d="m394.667 472.355v-9.142c0-12.959-10.505-23.464-23.464-23.464h-6.869v19.5z" fill="url(#SVGID_33_)"/><path d="m372.5 509.25h-235v-99.547c0-7.43 6.023-13.453 13.452-13.453h208.095c7.43 0 13.452 6.023 13.452 13.453v99.547z" fill="url(#SVGID_34_)"/><path d="m137.5 452.5h235v56.75h-235z" fill="url(#SVGID_35_)"/><path d="m211.5 509.25-50.25-50.25v21.48c0 10.791-4.287 21.139-11.917 28.77z" fill="url(#SVGID_36_)"/><g><g><path d="m146.012 510h-24.703c-3.3 0-5.975-2.675-5.975-5.975v-31.67c0-11.242 9.114-20.355 20.355-20.355h10.323c11.407 0 20.655 9.247 20.655 20.655v16.69c0 11.408-9.248 20.655-20.655 20.655z" fill="url(#SVGID_37_)"/></g><path d="m374.311 452h-10.323c-11.407 0-20.655 9.248-20.655 20.655v16.69c0 11.407 9.247 20.655 20.655 20.655h24.703c3.3 0 5.975-2.675 5.975-5.975v-31.669c.001-11.243-9.113-20.356-20.355-20.356z" fill="url(#SVGID_38_)"/></g><g><path d="m188.171 444.932-2.303 1.429c-.715.477-1.43.635-1.985.635-2.303 0-3.891-2.462-3.891-4.923 0-1.668.715-3.256 2.303-4.209l10.483-6.353c.635-.397 1.429-.556 2.303-.556 2.541 0 5.48 1.509 5.48 3.891v50.508c0 2.541-3.097 3.812-6.194 3.812s-6.194-1.271-6.194-3.812v-40.422z" fill="url(#SVGID_39_)"/><path d="m225.338 431.113c9.212 0 18.504 5.797 18.504 16.439 0 17.233-24.539 22.871-24.539 30.098v.715h20.807c1.985 0 3.732 2.462 3.732 5.321s-1.747 5.479-3.732 5.479h-28.272c-2.223 0-5.4-1.509-5.4-3.812v-7.703c0-12.468 25.016-19.616 25.016-29.701 0-2.541-1.588-5.638-6.036-5.638-3.177 0-5.956 1.588-5.956 5.956 0 2.303-2.462 4.527-6.512 4.527-3.177 0-5.559-1.429-5.559-6.433-.001-9.689 8.894-15.248 17.947-15.248z" fill="url(#SVGID_40_)"/><path d="m273.544 471.694v-1.509c0-5.321-3.256-6.353-7.624-6.353-2.7 0-3.574-2.383-3.574-4.765s.874-4.765 3.574-4.765c3.018 0 6.194-.397 6.194-6.83 0-4.606-2.621-5.718-5.877-5.718-3.891 0-5.877.953-5.877 4.051 0 2.7-1.191 4.527-5.797 4.527-5.718 0-6.433-1.191-6.433-5.003 0-6.194 4.447-14.216 18.107-14.216 10.086 0 17.71 3.653 17.71 14.374 0 5.797-2.144 11.197-6.115 13.024 4.685 1.747 8.1 5.241 8.1 11.674v1.509c0 13.024-8.974 17.948-20.092 17.948-13.659 0-18.901-8.339-18.901-15.009 0-3.574 1.509-4.527 5.877-4.527 5.083 0 6.353 1.112 6.353 4.13 0 3.732 3.494 4.606 7.068 4.606 5.401 0 7.307-1.986 7.307-7.148z" fill="url(#SVGID_41_)"/><path d="m310.393 476.936h-18.583c-2.303 0-4.13-1.509-4.13-4.288 0-.635.159-1.509.635-2.382l18.345-35.975c1.191-2.303 3.177-3.177 5.162-3.177 2.144 0 6.194 1.827 6.194 4.686 0 .477-.159.953-.397 1.509l-14.055 28.191h6.83v-5.559c0-2.62 3.097-3.732 6.194-3.732s6.194 1.112 6.194 3.732v5.559h3.415c2.541 0 3.812 2.859 3.812 5.718s-1.906 5.718-3.812 5.718h-3.415v8.418c0 2.541-3.097 3.812-6.194 3.812s-6.194-1.271-6.194-3.812v-8.418z" fill="url(#SVGID_42_)"/></g></g></g></svg>