<svg height="512pt" viewBox="-19 0 512 512.00028" width="512pt" xmlns="http://www.w3.org/2000/svg" xmlns:xlink="http://www.w3.org/1999/xlink"><linearGradient id="a"><stop offset="0" stop-color="#f2f2f2"/><stop offset="1" stop-color="#c3c3c3"/></linearGradient><linearGradient id="b" gradientTransform="matrix(-.709872 -.709872 -.709872 .709872 -571.871668 3413.081812)" gradientUnits="userSpaceOnUse" x1="1651.2284" x2="1719.4987" xlink:href="#a" y1="-2923.3765" y2="-2923.3765"/><linearGradient id="c" gradientTransform="matrix(-.709872 -.709872 -.709872 .709872 -571.871668 3413.081812)" gradientUnits="userSpaceOnUse" x1="1604.827" x2="1676.6359" xlink:href="#a" y1="-2938.842" y2="-2938.842"/><linearGradient id="d" gradientTransform="matrix(-.709872 -.709872 -.709872 .709872 -571.871668 3413.081812)" gradientUnits="userSpaceOnUse" x1="1638.7809" x2="1638.7809" y1="-2739.3689" y2="-2717.5439"><stop offset="0" stop-color="#c3c3c3" stop-opacity="0"/><stop offset="1" stop-color="#777"/></linearGradient><linearGradient id="e" gradientUnits="userSpaceOnUse" x1="93.288459736" x2="133.445159344" y1="396.493613968" y2="436.650313576"><stop offset="0" stop-color="#ffb92d"/><stop offset="1" stop-color="#f59500"/></linearGradient><linearGradient id="f" gradientUnits="userSpaceOnUse" x1="420.01291864" x2="479.262971944" y1="105.540732112" y2="164.790785416"><stop offset="0" stop-color="#ff4c54"/><stop offset=".2794" stop-color="#f14951"/><stop offset=".8026" stop-color="#cd4249"/><stop offset="1" stop-color="#be3f45"/></linearGradient><linearGradient id="g" gradientUnits="userSpaceOnUse" x1="422.769482176" x2="345.33482356" y1="124.831054912" y2="-37.495078904"><stop offset=".0013" stop-color="#e7eeed" stop-opacity="0"/><stop offset=".7731" stop-color="#f9fbfa" stop-opacity=".772549"/><stop offset="1" stop-color="#fff"/></linearGradient><linearGradient id="h"><stop offset=".0013" stop-color="#e7eeed" stop-opacity="0"/><stop offset=".4945" stop-color="#e9f0ef" stop-opacity=".494118"/><stop offset=".7775" stop-color="#f2f6f5" stop-opacity=".776471"/><stop offset="1" stop-color="#fff"/></linearGradient><linearGradient id="i" gradientUnits="userSpaceOnUse" x1="420.98772496" x2="403.984231528" xlink:href="#h" y1="197.77327192" y2="224.633854264"/><linearGradient id="j" gradientUnits="userSpaceOnUse" x1="379.605841384" x2="362.566006048" xlink:href="#h" y1="179.105580304" y2="206.023586872"/><linearGradient id="k" gradientUnits="userSpaceOnUse" x1="461.435762152" x2="447.144458992" xlink:href="#h" y1="119.236409536" y2="141.812562496"/><path d="m162.875 301.742188 299.871094-299.871094c4.105468-4.109375 11.140625-.972656 10.777344 4.824218-2.027344 32.425782-28.820313 123.652344-218.867188 316.113282-6.109375 6.1875-16.085938 6.234375-22.234375.089844-6.113281-6.117188-16.027344-6.117188-22.144531 0l-13.125 13.121093zm0 0" fill="url(#b)"/><path d="m461.402344 14.121094c-6.957032 6.957031-10.828125 16.65625-10.3125 26.808594l.019531.324218c.777344 15.394532-8.5 29.507813-22.925781 34.902344l-2.128906.796875c-13.285157 4.960937-22.320313 17.402344-22.933594 31.566406l-.050782 1.019531c-.65625 15.011719-10.730468 27.96875-25.105468 32.304688l-2.308594.695312c-13.710938 4.132813-23.582031 16.121094-24.984375 30.363282l-.140625 1.453125c-1.460938 14.792969-12.019531 27.101562-26.414062 30.769531l-2.25.574219c-13.945313 3.558593-24.339844 15.203125-26.285157 29.472656l-.230469 1.703125c-1.996093 14.65625-12.90625 26.515625-27.332031 29.730469l-2.148437.472656c-14.085938 3.136719-24.863282 14.519531-27.199219 28.757813l-.324219 1.914062c-1.390625 8.527344-5.816406 16.019531-12.15625 21.332031 2.277344.726563 4.425782 2.007813 6.226563 3.8125 6.152343 6.148438 16.121093 6.097657 22.242187-.082031 190.046875-192.464844 216.835938-283.699219 218.859375-316.109375.023438-.34375.023438-.6875-.027343-1-1.109376.765625-2.28125 1.472656-3.511719 2.117187-3.214844 1.683594-6.097657 3.820313-8.578125 6.300782zm0 0" fill="url(#c)"/><path d="m238.027344 326.484375c-2.042969-.757813-3.964844-1.945313-5.605469-3.589844-6.113281-6.113281-16.03125-6.113281-22.144531 0l-13.125 13.125-34.277344-34.277343 25.203125-25.207032zm0 0" fill="url(#d)"/><path d="m158.996094 289.488281-145.839844 145.839844c-17.539062 17.539063-17.539062 45.976563 0 63.515625 17.539062 17.542969 45.976562 17.542969 63.515625 0l32.503906-32.503906c12.847657-12.847656 23.367188-27.824219 31.09375-44.269532l8.011719-17.042968c12.699219-27.027344 34.332031-48.839844 61.253906-61.761719 4.292969-2.0625 5.261719-7.746094 1.894532-11.113281l-42.664063-42.664063c-2.695313-2.699219-7.070313-2.699219-9.769531 0zm0 0" fill="url(#e)"/><path d="m473.523438 6.695312v126.730469c0 7.511719-6.089844 13.597657-13.597657 13.597657-7.511719 0-13.597656-6.085938-13.597656-13.597657v-7.222656c0-3.597656-2.917969-6.515625-6.515625-6.515625s-6.515625 2.917969-6.515625 6.515625v85.804687c0 9-7.296875 16.292969-16.292969 16.292969-9 0-16.296875-7.292969-16.296875-16.292969v-15.207031c0-4.199219-3.402343-7.601562-7.597656-7.601562-4.199219 0-7.601563 3.402343-7.601563 7.601562 0 6.597657-5.347656 11.945313-11.945312 11.945313h-.546875c-6.898437 0-12.492187-5.59375-12.492187-12.492188v-47.515625c0-4.816406 3.902343-8.71875 8.71875-8.71875 4.816406 0 8.71875 3.902344 8.71875 8.71875v4.097657c0 3.285156 2.660156 5.945312 5.941406 5.945312s5.945312-2.660156 5.945312-5.945312v-41.839844c0-8.402344 6.808594-15.210938 15.207032-15.210938 8.402343 0 15.210937-6.808594 15.210937-15.210937 0-23.191407 9.210937-45.433594 25.613281-61.832031l16.871094-16.875c4.105469-4.105469 11.132812-.972657 10.773438 4.828124zm0 0" fill="url(#f)"/><path d="m416.175781 218.210938c-3.152343-.40625-5.429687-3.242188-5.429687-6.421876v-14.558593c0-9.167969-7.460938-17.523438-16.613282-18.042969-10.175781-.578125-18.636718 7.523438-18.664062 17.566406-.003906 1.074219-.832031 1.953125-1.90625 1.953125h-.546875c-1.355469 0-2.457031-1.101562-2.457031-2.457031v-14.152344c0-7.382812 6.023437-13.25 13.40625-13.277344.109375-.003906.214844-.003906.324218-.007812 8.753907-.207031 15.597657-7.683594 15.597657-16.441406v-41.378906c0-2.894532 2.378906-5.15625 5.277343-5.167969 13.871094-.058594 25.140626-11.363281 25.140626-25.25 0-20.675781 8.054687-40.113281 22.671874-54.734375 3.878907-3.878906 10.507813-1.132813 10.507813 4.351562v103.132813c0 1.699219-1.148437 3.246093-2.8125 3.585937-2.289063.46875-4.304687-1.277344-4.304687-3.484375v-6.785156c0-9.257813-7.578126-17.144531-16.835938-16.988281-9 .148437-16.273438 7.515625-16.273438 16.550781v85.804687c0 3.722657-3.265624 6.691407-7.082031 6.203126zm0 0" fill="url(#g)"/><path d="m405.289062 193.558594c.277344 1.035156.4375 2.117187.4375 3.242187v15.207031c0 6.21875 5.058594 11.273438 11.277344 11.273438 6.214844 0 11.273438-5.054688 11.273438-11.273438v-18.449218zm0 0" fill="url(#i)"/><path d="m391.285156 177.652344h-25.746094v18.601562c0 4.121094 3.355469 7.472656 7.476563 7.472656h.546875c3.820312 0 6.925781-3.109374 6.925781-6.925781 0-6.339843 4.699219-11.585937 10.796875-12.472656zm0 0" fill="url(#j)"/><path d="m445.679688 116.289062c3.386718 2.011719 5.667968 5.699219 5.667968 9.914063v7.222656c0 4.730469 3.847656 8.578125 8.578125 8.578125s8.578125-3.847656 8.578125-8.578125v-17.136719zm0 0" fill="url(#k)"/></svg>