<svg id="Capa_1" enable-background="new 0 0 510 510" height="512" viewBox="0 0 510 510" width="512" xmlns="http://www.w3.org/2000/svg" xmlns:xlink="http://www.w3.org/1999/xlink"><linearGradient id="lg1"><stop offset="0" stop-color="#ffb000"/><stop offset="1" stop-color="#ff5700"/></linearGradient><linearGradient id="SVGID_1_" gradientUnits="userSpaceOnUse" x1="331.331" x2="421.409" xlink:href="#lg1" y1="335.009" y2="472.109"/><linearGradient id="lg2"><stop offset="0" stop-color="#ff5700" stop-opacity="0"/><stop offset="1" stop-color="#ff5700"/></linearGradient><linearGradient id="SVGID_2_" gradientUnits="userSpaceOnUse" x1="337.134" x2="337.134" xlink:href="#lg2" y1="433.493" y2="376.458"/><linearGradient id="SVGID_3_" gradientUnits="userSpaceOnUse" x1="224.62" x2="329.84" xlink:href="#lg1" y1="152.921" y2="313.067"/><linearGradient id="SVGID_4_" gradientUnits="userSpaceOnUse" x1="294.62" x2="294.62" xlink:href="#lg2" y1="193.493" y2="143.845"/><linearGradient id="lg3"><stop offset="0" stop-color="#fd0"/><stop offset="1" stop-color="#ffb000"/></linearGradient><linearGradient id="SVGID_5_" gradientUnits="userSpaceOnUse" x1="255" x2="255" xlink:href="#lg3" y1="46.489" y2="155.342"/><linearGradient id="lg4"><stop offset="0" stop-color="#ff8900" stop-opacity="0"/><stop offset="1" stop-color="#ff8900"/></linearGradient><linearGradient id="SVGID_6_" gradientUnits="userSpaceOnUse" x1="255" x2="255" xlink:href="#lg4" y1="102.822" y2="168.852"/><linearGradient id="lg5"><stop offset="0" stop-color="#7a8c98"/><stop offset="1" stop-color="#465a61"/></linearGradient><linearGradient id="SVGID_7_" gradientUnits="userSpaceOnUse" x1="72.58" x2="72.58" xlink:href="#lg5" y1="46.489" y2="155.346"/><linearGradient id="SVGID_8_" gradientUnits="userSpaceOnUse" x1="255.67" x2="255.67" xlink:href="#lg5" y1="46.489" y2="155.346"/><linearGradient id="SVGID_9_" gradientUnits="userSpaceOnUse" x1="438.09" x2="438.09" xlink:href="#lg5" y1="46.489" y2="155.346"/><linearGradient id="lg6"><stop offset="0" stop-color="#465a61" stop-opacity="0"/><stop offset="1" stop-color="#444"/></linearGradient><linearGradient id="SVGID_10_" gradientUnits="userSpaceOnUse" x1="73.93" x2="73.93" xlink:href="#lg6" y1="106.155" y2="154.932"/><linearGradient id="SVGID_11_" gradientUnits="userSpaceOnUse" x1="268.93" x2="268.93" xlink:href="#lg6" y1="106.155" y2="154.932"/><linearGradient id="SVGID_12_" gradientUnits="userSpaceOnUse" x1="451.35" x2="451.35" xlink:href="#lg6" y1="106.155" y2="154.932"/><linearGradient id="SVGID_13_" gradientUnits="userSpaceOnUse" x1="255" x2="255" xlink:href="#lg3" y1="276.016" y2="384.869"/><linearGradient id="SVGID_14_" gradientUnits="userSpaceOnUse" x1="255" x2="255" xlink:href="#lg4" y1="332.349" y2="398.38"/><linearGradient id="SVGID_15_" gradientUnits="userSpaceOnUse" x1="72.58" x2="72.58" xlink:href="#lg5" y1="276.017" y2="384.873"/><linearGradient id="SVGID_16_" gradientUnits="userSpaceOnUse" x1="255.67" x2="255.67" xlink:href="#lg5" y1="276.017" y2="384.873"/><linearGradient id="SVGID_17_" gradientUnits="userSpaceOnUse" x1="438.09" x2="438.09" xlink:href="#lg5" y1="276.017" y2="384.873"/><linearGradient id="SVGID_18_" gradientUnits="userSpaceOnUse" x1="73.93" x2="73.93" xlink:href="#lg6" y1="335.683" y2="384.459"/><linearGradient id="SVGID_19_" gradientUnits="userSpaceOnUse" x1="268.93" x2="268.93" xlink:href="#lg6" y1="335.683" y2="384.459"/><linearGradient id="SVGID_20_" gradientUnits="userSpaceOnUse" x1="451.35" x2="451.35" xlink:href="#lg6" y1="335.683" y2="384.459"/><g><path d="m508 276.783v86.07c0 7.61-4.46 14.52-11.4 17.64l-237.643 106.957c-17.809 8.015-37.957-5.012-37.957-24.541 0-19.007-15.408-34.415-34.415-34.415h-3.386c-18.219 0-23.553-24.85-6.939-32.327l304.46-137.024c12.8-5.76 27.28 3.6 27.28 17.64z" fill="url(#SVGID_1_)"/><path d="m508 276.783v86.07c0 7.61-4.46 14.52-11.4 17.64l-237.643 106.957c-17.809 8.015-37.957-5.012-37.957-24.541 0-19.007-15.408-34.415-34.415-34.415h-3.386c-18.219 0-23.553-24.85-6.939-32.327l304.46-137.024c12.8-5.76 27.28 3.6 27.28 17.64z" fill="url(#SVGID_2_)"/><g><path d="m497.323 153.777-468.853 212.117c-12.732 5.76-27.137-3.602-27.137-17.638v-86.075c0-7.611 4.44-14.514 11.344-17.638l468.853-212.117c12.732-5.76 27.137 3.602 27.137 17.638v86.075c0 7.611-4.44 14.514-11.344 17.638z" fill="url(#SVGID_3_)"/><path d="m481.53 32.426-400.956 181.4h284.019l132.731-60.05c6.904-3.123 11.344-10.027 11.344-17.638v-86.074c-.001-14.036-14.406-23.398-27.138-17.638z" fill="url(#SVGID_4_)"/></g><g><path d="m500.414 148.644h-490.828c-5.294 0-9.586-4.292-9.586-9.586v-109.323c0-5.294 4.292-9.586 9.586-9.586h490.829c5.294 0 9.586 4.292 9.586 9.586v109.324c-.001 5.294-4.293 9.585-9.587 9.585z" fill="url(#SVGID_5_)"/><path d="m0 67.489v71.57c0 5.294 4.292 9.586 9.586 9.586h490.829c5.294 0 9.586-4.292 9.586-9.586v-71.57z" fill="url(#SVGID_6_)"/><g><path d="m145.16 148.649h-97l-48.16-85.98v-32.93c0-5.3 4.29-9.59 9.59-9.59h63.59z" fill="url(#SVGID_7_)"/><path d="m340.16 148.649h-97l-71.98-128.5h97z" fill="url(#SVGID_8_)"/><path d="m510 103.739v35.32c0 5.29-4.29 9.59-9.59 9.59h-62.25l-71.98-128.5h97z" fill="url(#SVGID_9_)"/></g><g><path d="m145.16 148.649h-97l-45.46-81.16h97z" fill="url(#SVGID_10_)"/><path d="m340.16 148.649h-97l-45.46-81.16h97z" fill="url(#SVGID_11_)"/><path d="m510 103.739v35.32c0 5.29-4.29 9.59-9.59 9.59h-62.25l-45.46-81.16h97z" fill="url(#SVGID_12_)"/></g></g><g><path d="m500.414 378.172h-490.828c-5.294 0-9.586-4.292-9.586-9.586v-109.324c0-5.294 4.292-9.586 9.586-9.586h490.829c5.294 0 9.586 4.292 9.586 9.586v109.324c-.001 5.294-4.293 9.586-9.587 9.586z" fill="url(#SVGID_13_)"/><path d="m0 297.016v71.57c0 5.294 4.292 9.586 9.586 9.586h490.829c5.294 0 9.586-4.292 9.586-9.586v-71.57z" fill="url(#SVGID_14_)"/><g><path d="m145.16 378.176h-97l-48.16-85.98v-32.93c0-5.3 4.29-9.59 9.59-9.59h63.59z" fill="url(#SVGID_15_)"/><path d="m340.16 378.176h-97l-71.98-128.5h97z" fill="url(#SVGID_16_)"/><path d="m510 333.266v35.32c0 5.29-4.29 9.59-9.59 9.59h-62.25l-71.98-128.5h97z" fill="url(#SVGID_17_)"/></g><g><path d="m145.16 378.176h-97l-45.46-81.16h97z" fill="url(#SVGID_18_)"/><path d="m340.16 378.176h-97l-45.46-81.16h97z" fill="url(#SVGID_19_)"/><path d="m510 333.266v35.32c0 5.29-4.29 9.59-9.59 9.59h-62.25l-45.46-81.16h97z" fill="url(#SVGID_20_)"/></g></g></g></svg>