<svg id="Capa_1" enable-background="new 0 0 510 510" height="512" viewBox="0 0 510 510" width="512" xmlns="http://www.w3.org/2000/svg" xmlns:xlink="http://www.w3.org/1999/xlink"><linearGradient id="lg1"><stop offset="0" stop-color="#465a61"/><stop offset="1" stop-color="#444"/></linearGradient><linearGradient id="SVGID_1_" gradientUnits="userSpaceOnUse" x1="204.854" x2="268.855" xlink:href="#lg1" y1="375.196" y2="505.196"/><linearGradient id="lg2"><stop offset="0" stop-color="#444" stop-opacity="0"/><stop offset="1" stop-color="#444"/></linearGradient><linearGradient id="SVGID_2_" gradientUnits="userSpaceOnUse" x1="333.058" x2="288.338" xlink:href="#lg2" y1="452.339" y2="320.85"/><linearGradient id="SVGID_3_" gradientUnits="userSpaceOnUse" x1="255.174" x2="268.95" xlink:href="#lg1" y1="332.049" y2="376.754"/><linearGradient id="SVGID_4_" gradientUnits="userSpaceOnUse" x1="255" x2="255" xlink:href="#lg2" y1="471.333" y2="528.035"/><linearGradient id="SVGID_5_" gradientUnits="userSpaceOnUse" x1="118.445" x2="151.519" xlink:href="#lg1" y1="189.75" y2="222.824"/><linearGradient id="SVGID_6_" gradientUnits="userSpaceOnUse" x1="349.716" x2="395.997" xlink:href="#lg1" y1="183.468" y2="229.749"/><linearGradient id="SVGID_7_" gradientUnits="userSpaceOnUse" x1="242.898" x2="304.497" y1="192.296" y2="278.403"><stop offset="0" stop-color="#ffdfcf"/><stop offset="1" stop-color="#ffa78f"/></linearGradient><linearGradient id="lg3"><stop offset="0" stop-color="#f89580" stop-opacity="0"/><stop offset=".9972" stop-color="#c5715a"/></linearGradient><linearGradient id="SVGID_8_" gradientUnits="userSpaceOnUse" x1="255" x2="255" xlink:href="#lg3" y1="198.667" y2="175.333"/><linearGradient id="SVGID_9_" gradientUnits="userSpaceOnUse" x1="255" x2="255" xlink:href="#lg3" y1="231.333" y2="278"/><linearGradient id="SVGID_10_" gradientUnits="userSpaceOnUse" x1="190.999" x2="214.999" xlink:href="#lg1" y1="203.105" y2="220.772"/><linearGradient id="SVGID_11_" gradientUnits="userSpaceOnUse" x1="295.283" x2="316.616" xlink:href="#lg1" y1="202.07" y2="218.07"/><linearGradient id="lg4"><stop offset="0" stop-color="#7a8c98"/><stop offset="1" stop-color="#465a61"/></linearGradient><linearGradient id="SVGID_12_" gradientUnits="userSpaceOnUse" x1="200.219" x2="327.282" xlink:href="#lg4" y1="154.781" y2="281.844"/><linearGradient id="SVGID_13_" gradientUnits="userSpaceOnUse" x1="207.788" x2="313.066" xlink:href="#lg1" y1="63.659" y2="168.937"/><linearGradient id="SVGID_14_" gradientUnits="userSpaceOnUse" x1="299.032" x2="251.532" xlink:href="#lg2" y1="83.824" y2="114.824"/><linearGradient id="SVGID_15_" gradientUnits="userSpaceOnUse" x1="229.061" x2="259.561" xlink:href="#lg2" y1="53.682" y2="132.682"/><linearGradient id="SVGID_16_" gradientUnits="userSpaceOnUse" x1="255" x2="255" xlink:href="#lg2" y1="93.5" y2="128.13"/><linearGradient id="SVGID_17_" gradientUnits="userSpaceOnUse" x1="255" x2="255" xlink:href="#lg4" y1="116" y2="169.338"/><linearGradient id="SVGID_18_" gradientUnits="userSpaceOnUse" x1="255" x2="255" xlink:href="#lg2" y1="138.5" y2="201.74"/><linearGradient id="SVGID_19_" gradientUnits="userSpaceOnUse" x1="255" x2="255" xlink:href="#lg2" y1="134" y2="171.53"/><g><path d="m445.177 510-190.175-2-190.179 2c-9.051 0-16.389-7.337-16.389-16.389 0-87.437 70.882-158.318 158.318-158.318h96.495c87.437 0 158.318 70.882 158.318 158.318.001 9.052-7.337 16.389-16.388 16.389z" fill="url(#SVGID_1_)"/><path d="m461.566 493.611c0-87.437-70.882-158.319-158.318-158.319h-96.495c-8.247 0-16.347.632-24.254 1.848v35.409l136.143 136.143 126.535 1.308c9.051 0 16.389-7.337 16.389-16.389z" fill="url(#SVGID_2_)"/><path d="m306.617 380.068h-103.239c-18.467 0-33.437-14.97-33.437-33.437v-35.374h170.113v35.374c0 18.467-14.97 33.437-33.437 33.437z" fill="url(#SVGID_3_)"/><path d="m48.434 493.611c0 9.051 7.338 16.389 16.389 16.389l190.179-2 190.175 2c9.051 0 16.389-7.338 16.389-16.389 0-12.553-1.468-24.762-4.229-36.471h-404.674c-2.761 11.709-4.229 23.918-4.229 36.471z" fill="url(#SVGID_4_)"/><g><g><path d="m106.345 207.528c0-19.446 13.499-35.74 31.637-40.022 4.848-1.145 9.483 2.605 9.483 7.587v64.87c0 4.982-4.635 8.731-9.483 7.587-18.138-4.282-31.637-20.575-31.637-40.022z" fill="url(#SVGID_5_)"/><path d="m403.655 207.528c0-19.446-13.499-35.74-31.637-40.022-4.848-1.145-9.483 2.605-9.483 7.587v64.87c0 4.982 4.635 8.731 9.483 7.587 18.138-4.282 31.637-20.575 31.637-40.022z" fill="url(#SVGID_6_)"/></g><g><g><path d="m255 357.005c-65.691 0-116.945-51.253-116.945-116.945v-60.998c0-65.691 51.254-118.945 116.945-118.945 65.691 0 116.945 53.253 116.945 118.945v60.998c0 65.692-51.254 116.945-116.945 116.945z" fill="url(#SVGID_7_)"/><path d="m255 60.118c-65.692 0-118.945 53.253-118.945 118.945v60.998c0 20.628 5.254 40.028 14.492 56.94h208.905c9.238-16.911 14.492-36.311 14.492-56.94v-60.998c.001-65.692-53.253-118.945-118.944-118.945z" fill="url(#SVGID_8_)"/><path d="m261.571 269.976h-13.142c-10.952 0-19.244-9.897-17.326-20.68l7.533-42.35h32.728l7.533 42.35c1.918 10.783-6.374 20.68-17.326 20.68z" fill="url(#SVGID_9_)"/></g></g><g><path d="m202.273 233.122c-9.547 0-17.286-7.739-17.286-17.286v-8.865c0-9.547 7.739-17.286 17.286-17.286 9.547 0 17.286 7.739 17.286 17.286v8.865c0 9.547-7.739 17.286-17.286 17.286z" fill="url(#SVGID_10_)"/><path d="m307.727 233.122c-9.547 0-17.286-7.739-17.286-17.286v-8.865c0-9.547 7.739-17.286 17.286-17.286 9.547 0 17.286 7.739 17.286 17.286v8.865c0 9.547-7.739 17.286-17.286 17.286z" fill="url(#SVGID_11_)"/></g></g><path d="m255 60.118c-65.691 0-118.945 53.253-118.945 118.945v60.998c0 65.691 53.254 118.945 118.945 118.945 65.691 0 118.945-53.253 118.945-118.945v-60.998c0-65.692-53.254-118.945-118.945-118.945zm96.5 173.878c0 20.989-17.015 38.004-38.004 38.004h-116.992c-20.989 0-38.004-17.015-38.004-38.004v-32.992c0-20.989 17.015-38.004 38.004-38.004h116.992c20.989 0 38.004 17.015 38.004 38.004z" fill="url(#SVGID_12_)"/><path d="m380 143.543h-250c0-79.277 55.964-143.543 125-143.543s125 64.266 125 143.543z" fill="url(#SVGID_13_)"/><path d="m380 143.543c0-79.277-55.964-143.543-125-143.543v143.543z" fill="url(#SVGID_14_)"/><path d="m334 143.543h-158c0-79.277 35.37-143.543 79-143.543s79 64.266 79 143.543z" fill="url(#SVGID_15_)"/><path d="m130 143.543h250c0-24.017-5.144-46.651-14.224-66.543h-221.552c-9.08 19.892-14.224 42.526-14.224 66.543z" fill="url(#SVGID_16_)"/><path d="m371.082 175h-232.164c-8.791 0-15.918-7.127-15.918-15.918v-20.164c0-8.791 7.127-15.918 15.918-15.918h232.164c8.791 0 15.918 7.127 15.918 15.918v20.164c0 8.791-7.127 15.918-15.918 15.918z" fill="url(#SVGID_17_)"/><path d="m336.193 175h-162.386c-7.445 0-13.481-6.036-13.481-13.481v-25.038c0-7.445 6.036-13.481 13.481-13.481h162.386c7.445 0 13.481 6.036 13.481 13.481v25.038c0 7.445-6.036 13.481-13.481 13.481z" fill="url(#SVGID_18_)"/><path d="m285.441 175h-60.883c-4.785 0-8.664-3.879-8.664-8.664v-34.672c0-4.785 3.879-8.664 8.664-8.664h60.883c4.785 0 8.664 3.879 8.664 8.664v34.672c0 4.785-3.878 8.664-8.664 8.664z" fill="url(#SVGID_19_)"/></g></svg>