<?xml version="1.0" encoding="iso-8859-1"?>
<!-- Generator: Adobe Illustrator 19.0.0, SVG Export Plug-In . SVG Version: 6.00 Build 0)  -->
<svg version="1.1" id="Capa_1" xmlns="http://www.w3.org/2000/svg" xmlns:xlink="http://www.w3.org/1999/xlink" x="0px" y="0px"
	 viewBox="0 0 512 512" style="enable-background:new 0 0 512 512;" xml:space="preserve">
<path style="fill:#9AADAF;" d="M512,129.594v6.675H0v-6.675c0-11.697,1.717-23.331,5.097-34.53L16.796,56.3
	c2.401-7.956,9.73-13.4,18.041-13.4h442.326c8.31,0,15.639,5.444,18.041,13.399l11.699,38.764
	C510.283,106.264,512,117.898,512,129.594z"/>
<path style="fill:#8A9FA0;" d="M506.903,95.064L495.204,56.3c-2.401-7.956-9.73-13.4-18.041-13.4h-49.39
	c8.31,0,15.639,5.444,18.041,13.4l11.699,38.764c3.38,11.198,5.097,22.832,5.097,34.53v6.675H512v-6.675
	C512,117.898,510.283,106.264,506.903,95.064z"/>
<path style="fill:#DFEAEF;" d="M488.316,469.099H23.684C10.604,469.099,0,458.495,0,445.415V127.128
	c0-13.081,10.604-23.684,23.684-23.684h464.631c13.081,0,23.684,10.604,23.684,23.684v318.288
	C512,458.495,501.396,469.099,488.316,469.099z"/>
<path style="fill:#BFCFD6;" d="M488.316,103.443h-28.802v333.742c0,5.575-4.52,10.095-10.095,10.095H23.684
	C10.604,447.279,0,436.676,0,423.595v21.82c0,13.081,10.604,23.684,23.684,23.684h412.144h52.487
	c13.081,0,23.684-10.604,23.684-23.684v-21.82V127.128C512,114.046,501.396,103.443,488.316,103.443z"/>
<circle style="fill:#435256;" cx="339.83" cy="290.54" r="136.32"/>
<path style="fill:#FC5F61;" d="M147.386,154.219H45.317c-5.227,0-9.464,4.237-9.464,9.464v102.069c0,5.227,4.237,9.464,9.464,9.464
	h102.069c5.227,0,9.464-4.237,9.464-9.464V163.683C156.85,158.456,152.613,154.219,147.386,154.219z"/>
<path style="fill:#9AADAF;" d="M131.806,357.205H60.897c-2.323,0-4.535,0.993-6.079,2.73L37.907,378.96
	c-1.323,1.489-2.054,3.411-2.054,5.403v34.901c0,4.492,3.641,8.133,8.133,8.133h104.732c4.492,0,8.133-3.641,8.133-8.133v-34.901
	c0-1.992-0.731-3.914-2.054-5.403l-16.911-19.025C136.341,358.199,134.129,357.205,131.806,357.205z"/>
<g>
	<path style="fill:#FFFFFF;" d="M74.151,377.171c-4.204,0-7.611,3.408-7.611,7.611v19.198c0,4.204,3.408,7.612,7.611,7.612
		s7.611-3.408,7.611-7.612v-19.198C81.763,380.578,78.355,377.171,74.151,377.171z"/>
	<path style="fill:#FFFFFF;" d="M118.552,377.171c-4.204,0-7.611,3.408-7.611,7.611v19.198c0,4.204,3.408,7.612,7.611,7.612
		s7.611-3.408,7.611-7.612v-19.198C126.163,380.578,122.755,377.171,118.552,377.171z"/>
</g>
<path style="fill:#DFEAEF;" d="M476.148,282.923h-36.103c-3.714-49.361-43.241-88.889-92.602-92.603v-36.103
	c0-4.204-3.407-7.611-7.611-7.611s-7.612,3.408-7.612,7.611v36.103c-49.361,3.714-88.889,43.241-92.603,92.603h-36.103
	c-4.204,0-7.611,3.408-7.611,7.612s3.408,7.611,7.611,7.611h36.103c3.714,49.362,43.242,88.889,92.603,92.603v36.103
	c0,4.204,3.407,7.611,7.612,7.611s7.611-3.408,7.611-7.611v-36.103c49.362-3.714,88.889-43.241,92.602-92.603h36.103
	c4.204,0,7.611-3.408,7.611-7.611C483.759,286.331,480.352,282.923,476.148,282.923z M332.219,205.615v31.256
	c-23.81,3.362-42.691,22.242-46.053,46.053H254.91C258.552,241.965,291.261,209.257,332.219,205.615z M332.219,375.455
	c-40.958-3.642-73.667-36.351-77.309-77.309h31.257c3.362,23.81,22.242,42.691,46.053,46.053v31.256H332.219z M339.831,329.521
	c-21.497,0-38.986-17.489-38.986-38.986c0-21.497,17.49-38.986,38.986-38.986c21.497,0,38.986,17.489,38.986,38.986
	C378.817,312.033,361.327,329.521,339.831,329.521z M347.442,375.455v-31.256c23.81-3.362,42.691-22.242,46.053-46.053h31.256
	C421.108,339.104,388.4,371.813,347.442,375.455z M393.495,282.923c-3.362-23.81-22.243-42.691-46.053-46.053v-31.256
	c40.958,3.642,73.666,36.351,77.308,77.309H393.495z"/>
<path style="fill:#FFFFFF;" d="M119.743,210.072c-1.249-2.683-3.941-4.399-6.9-4.399H96.351l20.724-23.757
	c2.751-3.178,2.404-7.985-0.774-10.736c-3.179-2.751-7.986-2.403-10.736,0.774l-31.461,36.35c-1.949,2.253-2.406,5.436-1.167,8.145
	c1.238,2.71,3.944,4.447,6.923,4.447h16.492l-22.317,26.705c-2.706,3.217-2.291,8.019,0.926,10.724
	c1.427,1.2,3.166,1.786,4.895,1.786c2.169,0,4.324-0.922,5.829-2.712l32.983-39.216
	C120.573,215.919,120.993,212.755,119.743,210.072z"/>
<path style="fill:#BFCFD6;" d="M476.148,282.923h-16.635v15.223h16.635c4.204,0,7.611-3.408,7.611-7.611
	C483.759,286.331,480.352,282.923,476.148,282.923z"/>
<g>
</g>
<g>
</g>
<g>
</g>
<g>
</g>
<g>
</g>
<g>
</g>
<g>
</g>
<g>
</g>
<g>
</g>
<g>
</g>
<g>
</g>
<g>
</g>
<g>
</g>
<g>
</g>
<g>
</g>
</svg>
