<?xml version="1.0" encoding="iso-8859-1"?>
<!-- Generator: Adobe Illustrator 19.0.0, SVG Export Plug-In . SVG Version: 6.00 Build 0)  -->
<svg version="1.1" id="Capa_1" xmlns="http://www.w3.org/2000/svg" xmlns:xlink="http://www.w3.org/1999/xlink" x="0px" y="0px"
	 viewBox="0 0 512.001 512.001" style="enable-background:new 0 0 512.001 512.001;" xml:space="preserve">
<g>
	<path style="fill:#9AADAF;" d="M295.83,451.339l56.544-56.544c2.467-2.467,2.467-6.466,0-8.933l-36.222-36.222
		c-2.467-2.467-6.466-2.467-8.933,0l-56.544,56.544c-2.467,2.467-2.467,6.466,0,8.933l36.222,36.222
		C289.364,453.805,293.363,453.805,295.83,451.339z"/>
	<path style="fill:#9AADAF;" d="M391.424,355.745l109.927-109.927c2.467-2.467,2.467-6.466,0-8.933l-36.222-36.222
		c-2.467-2.467-6.466-2.467-8.933,0L346.269,310.59c-2.467,2.467-2.467,6.466,0,8.933l36.222,36.222
		C384.958,358.211,388.957,358.211,391.424,355.745z"/>
</g>
<g>
	<path style="fill:#FEC573;" d="M307.425,439.741l10.972-10.972l-35.295-35.295c-4.133-4.133-9.939-5.027-12.969-1.997
		s-2.136,8.836,1.997,12.969L307.425,439.741z"/>
	<path style="fill:#FEC573;" d="M292.512,369.098c-3.03,3.03-2.136,8.836,1.997,12.969l35.295,35.295l10.972-10.972l-35.295-35.295
		C301.349,366.963,295.542,366.068,292.512,369.098z"/>
	<path style="fill:#FEC573;" d="M416.015,245.596c-3.03,3.03-2.136,8.836,1.997,12.969l35.295,35.295l10.972-10.972l-35.295-35.295
		C424.851,243.46,419.044,242.566,416.015,245.596z"/>
	<path style="fill:#FEC573;" d="M403.681,343.485l10.972-10.972l-35.295-35.295c-4.133-4.133-9.939-5.027-12.969-1.997
		s-2.136,8.836,1.997,12.969L403.681,343.485z"/>
	<path style="fill:#FEC573;" d="M393.199,283.377l35.295,35.295l10.972-10.972l-35.295-35.295
		c-4.133-4.133-9.939-5.027-12.969-1.997C388.172,273.438,389.066,279.245,393.199,283.377z"/>
	<path style="fill:#FEC573;" d="M440.827,220.783c-3.03,3.03-2.136,8.836,1.997,12.969l35.295,35.295l10.972-10.972l-35.295-35.295
		C449.663,218.648,443.857,217.754,440.827,220.783z"/>
</g>
<path style="fill:#DFEAEF;" d="M326.434,18.424L59.532,285.326L237.39,463.184l266.902-266.902
	c10.278-10.278,10.278-26.943,0-37.221L363.655,18.424C353.377,8.145,336.712,8.145,326.434,18.424z"/>
<path style="fill:#BFCFD6;" d="M504.292,159.061l-38.18-38.18c10.278,10.278,10.278,26.943,0,37.221L199.21,425.003l38.18,38.18
	l266.902-266.902C514.57,186.003,514.57,169.339,504.292,159.061z"/>
<g>
	<path style="fill:#FEC573;" d="M130.597,369.432l-20.811,20.811c-2.89,2.89-7.577,2.89-10.467,0l-37.331-37.331
		c-2.89-2.89-2.89-7.577,0-10.467l20.811-20.811c2.89-2.89,7.577-2.89,10.467,0l37.331,37.331
		C133.487,361.855,133.487,366.541,130.597,369.432z"/>
	<path style="fill:#FEC573;" d="M200.181,439.016l-20.811,20.811c-2.89,2.89-7.577,2.89-10.467,0l-37.331-37.331
		c-2.89-2.89-2.89-7.577,0-10.467l20.811-20.811c2.89-2.89,7.577-2.89,10.467,0l37.331,37.331
		C203.072,431.439,203.072,436.126,200.181,439.016z"/>
</g>
<path style="fill:#526063;" d="M250.102,499.197L43.937,293.032l-21.821,21.821c-2.784,2.784-7.298,2.784-10.082,0l-9.946-9.946
	c-2.784-2.784-2.784-7.298,0-10.082l33.837-33.837c4.425-4.425,11.598-4.425,16.023,0l218.181,218.181
	c2.784,2.784,2.784,7.298,0,10.082l-9.946,9.946C257.4,501.981,252.886,501.981,250.102,499.197z"/>
<circle style="fill:#A2E360;" cx="346.711" cy="176" r="90.64"/>
<g>
	<path style="fill:#9EBECC;" d="M222.968,259.775l-48.161,48.161c-4.236,4.236-11.104,4.236-15.341,0l-16.323-16.323
		c-4.236-4.236-4.236-11.104,0-15.341l48.161-48.161c4.236-4.236,11.104-4.236,15.341,0l16.323,16.323
		C227.205,248.67,227.205,255.538,222.968,259.775z"/>
	<path style="fill:#9EBECC;" d="M292.75,329.557l-48.161,48.161c-4.236,4.236-11.104,4.236-15.341,0l-16.323-16.323
		c-4.236-4.236-4.236-11.104,0-15.341l48.161-48.161c4.236-4.236,11.104-4.236,15.341,0l16.323,16.323
		C296.987,318.452,296.987,325.32,292.75,329.557z"/>
</g>
<path style="fill:#FFFFFF;" d="M379.371,127.376c-11.857,0.82-26.441,22.274-33.805,34.463
	c-10.657-14.63-14.886-31.611-16.506-41.104c-0.598-3.502-4.6-5.234-7.561-3.271c-9.016,5.976-24.005,17.259-23.408,25.881
	c0.82,11.857,22.274,26.441,34.463,33.805c-14.63,10.657-31.611,14.886-41.104,16.506c-3.502,0.598-5.234,4.6-3.271,7.561
	c5.976,9.016,17.259,24.005,25.881,23.408c11.857-0.82,26.441-22.274,33.805-34.463c10.657,14.63,14.886,31.611,16.506,41.104
	c0.598,3.502,4.6,5.234,7.561,3.271c9.016-5.976,24.005-17.259,23.408-25.881c-0.82-11.857-22.274-26.441-34.463-33.805
	c14.63-10.657,31.611-14.886,41.104-16.506c3.502-0.598,5.234-4.6,3.271-7.561C399.276,141.768,387.993,126.779,379.371,127.376z"/>
<circle style="fill:#FEC573;" cx="346.711" cy="176" r="22.623"/>
<g>
</g>
<g>
</g>
<g>
</g>
<g>
</g>
<g>
</g>
<g>
</g>
<g>
</g>
<g>
</g>
<g>
</g>
<g>
</g>
<g>
</g>
<g>
</g>
<g>
</g>
<g>
</g>
<g>
</g>
</svg>
