<svg id="Capa_1" enable-background="new 0 0 468.86 468.86" height="512" viewBox="0 0 468.86 468.86" width="512" xmlns="http://www.w3.org/2000/svg"><g><path d="m21.43 355.43h69v48h-69z"/><path d="m378.43 355.43h69v48h-69z"/><path d="m437.44 205.43h-406.02c-6.15 0-11.94 2.4-16.28 6.76-4.35 4.37-6.73 10.16-6.71 16.32l.23 96.92h122.85l41-23h123.84l41 23h122.85l.23-96.9c.02-6.18-2.36-11.97-6.71-16.34-4.34-4.36-10.13-6.76-16.28-6.76zm-340.01 60h-30v-30h30zm198 0h-122v-30h122zm110 0h-30v-30h30z"/><path d="m446 129.72-38.57 45.71h38l23.43-26.29z"/><path d="m22.86 129.72 38.57 45.71h-38l-23.43-26.29z"/><path d="m376.76 65.43h-284.66l-30.67 110h346z"/></g></svg>