<svg id="Capa_1" enable-background="new 0 0 512 512" height="512" viewBox="0 0 512 512" width="512" xmlns="http://www.w3.org/2000/svg"><g><path d="m323.411 244.158c4.942 2.046 10.386 2.048 15.329 0l19.985-8.278c4.942-2.047 8.792-5.896 10.839-10.839 2.047-4.942 2.047-10.386 0-15.328s-5.897-8.792-10.839-10.839c-2.471-1.023-5.068-1.536-7.664-1.536-2.597 0-5.193.512-7.665 1.536l-19.986 8.278c-4.942 2.047-8.792 5.896-10.839 10.838s-2.047 10.387 0 15.329c2.048 4.943 5.898 8.792 10.84 10.839z"/><path d="m153.275 235.88 19.985 8.278c4.942 2.047 10.387 2.049 15.329 0 4.942-2.047 8.792-5.896 10.838-10.839 2.047-4.942 2.047-10.387 0-15.329s-5.896-8.791-10.838-10.838l-19.986-8.278c-2.471-1.023-5.068-1.536-7.665-1.536s-5.193.512-7.664 1.536c-4.942 2.047-8.792 5.896-10.839 10.839-2.047 4.942-2.047 10.386 0 15.328 2.048 4.942 5.898 8.792 10.84 10.839z"/><path d="m256 0c-116.326 0-210.964 94.638-210.964 210.964v60.048c0 29.587 6.011 58.211 17.866 85.075 10.217 23.153 24.31 44.004 41.959 62.099l-25.92 93.814h354.117l-25.92-93.814c17.649-18.095 31.742-38.945 41.959-62.099 11.855-26.864 17.866-55.488 17.866-85.075v-60.048c.001-116.326-94.637-210.964-210.963-210.964zm-141.28 198.232c5.114-12.346 14.729-21.961 27.075-27.075 12.347-5.113 25.945-5.112 38.29 0l19.986 8.278c12.345 5.113 21.961 14.729 27.075 27.074s5.114 25.944 0 38.29-14.729 21.961-27.075 27.075c-6.172 2.557-12.66 3.835-19.145 3.835-6.487.001-12.971-1.278-19.145-3.835l-19.985-8.278c-12.346-5.114-21.961-14.729-27.075-27.075s-5.116-25.944-.001-38.289zm170.135 8.278c5.114-12.346 14.729-21.961 27.075-27.074l19.985-8.278c12.346-5.113 25.944-5.113 38.29 0 12.346 5.114 21.961 14.729 27.075 27.075 5.114 12.345 5.114 25.943 0 38.289s-14.729 21.961-27.075 27.075l-19.985 8.278c-6.173 2.557-12.659 3.835-19.145 3.835s-12.972-1.278-19.145-3.835c-12.346-5.114-21.961-14.729-27.075-27.075s-5.113-25.945 0-38.29z"/></g></svg>