<?xml version="1.0"?>
<svg xmlns="http://www.w3.org/2000/svg" id="Layer_2" data-name="Layer 2" viewBox="0 0 64 64" width="512" height="512"><path d="M46.54,41.29a1,1,0,0,1,.8-.29l13.44,1.21h0L53.94,22.67A1,1,0,0,0,53,22H48.36c-.12,1.18-.3,2.36-.51,3.54a27.67,27.67,0,0,1-1.6,5.71,27.56,27.56,0,0,1-.34-5.92,35.57,35.57,0,0,1,.6-5.83l0,0,.21-2a.91.91,0,0,0-.11-.58L41.78,7.78c-.69,1-1.43,2-2.19,2.9a32,32,0,0,1-4.38,4.57A31.5,31.5,0,0,1,38,9.57c.67-1.1,1.36-2.17,2.09-3.22L28,3a1,1,0,0,0-.79.11,1,1,0,0,0-.45.66l-1.51,7.82,0,.23a.75.75,0,0,1,0,.15,69,69,0,0,1-1.48,7.66A52.54,52.54,0,0,1,29,25.25a54.25,54.25,0,0,1-7-4.52.88.88,0,0,1-.34-.83v-.1c.28-2,.59-3.9,1-5.83l-2.89,1.38a1,1,0,0,0-.51.57l-2.56,7.26-.1.28a1,1,0,0,1,0,.38,32.35,32.35,0,0,1-1.87,5.24A25.54,25.54,0,0,1,12,34a25.53,25.53,0,0,1,.93-5.57c.21-.8.45-1.59.7-2.37l-4,1.78a1,1,0,0,0-.54.57L3.41,44.17h0l12.67,1.07a1,1,0,0,1,.37.11l4.16,2.08,4.26-10.55,6.94,1.34a1,1,0,0,0,.82-.2l3.7-3,3.13.2,5.48,7.67Z"/><path d="M15.72,47.23,3,46.15H3L3,60a1,1,0,0,0,.29.71A1,1,0,0,0,4,61H27.7L20.31,49.52Z"/><path d="M42.94,47.73,40.77,61H60a1,1,0,0,0,1-1V44.24h0L47.63,43Z"/></svg>
