<svg id="Capa_1" enable-background="new 0 0 512 512" height="512" viewBox="0 0 512 512" width="512" xmlns="http://www.w3.org/2000/svg"><g><path d="m304.512 383.542 80.937-93.792h-69.167l-80.938 93.792z"/><path d="m413.305 383.542 80.938-93.792h-69.167l-80.938 93.792z"/><path d="m195.718 383.542 80.938-93.792h-69.168l-80.937 93.792z"/><path d="m59.068 289.75h-59.068v68.449z"/><path d="m452.932 383.542h59.068v-68.45z"/><path d="m86.924 383.542 80.938-93.792h-69.167l-80.938 93.792z"/><path d="m425.076 128.458-80.938 93.792h69.167l80.938-93.792z"/><path d="m59.068 128.458h-59.068v68.45z"/><path d="m452.932 222.25h59.068v-68.449z"/><path d="m316.282 128.458-80.938 93.792h69.168l80.937-93.792z"/><path d="m207.488 128.458-80.937 93.792h69.167l80.938-93.792z"/><path d="m98.695 128.458-80.938 93.792h69.167l80.938-93.792z"/></g></svg>