<svg id="Capa_1" enable-background="new 0 0 512 512" height="512" viewBox="0 0 512 512" width="512" xmlns="http://www.w3.org/2000/svg"><path d="m15.287 0h60.485v512h-60.485z"/><path d="m356.368 210.413h70.154v70.154h-70.154z"/><path d="m286.214 140.259h70.154v70.154h-70.154z"/><path d="m216.06 210.413h70.154v70.154h-70.154z"/><path d="m286.214 0h70.154v70.105h-70.154z"/><path d="m75.772 210.413h70.135v70.154h-70.135z"/><path d="m145.907 280.566h70.153v70.154h-70.153z"/><path d="m286.214 280.566h70.154v70.154h-70.154z"/><path d="m75.772 70.105h70.135v70.154h-70.135z"/><path d="m145.907 0h70.154v70.105h-70.154z"/><path d="m356.368 70.105h70.154v70.154h-70.154z"/><path d="m216.06 70.105h70.154v70.154h-70.154z"/><path d="m145.907 140.259h70.154v70.154h-70.154z"/><path d="m496.6749878 140.2590027h-70.1529846v70.1539917h70.1910095z"/><path d="m496.7130127 0h-70.1910095v70.1050034h70.1529846z"/><path d="m496.7130127 280.5660095h-70.1910095v70.1539917l70.1910095.0310059z"/></svg>