<svg id="Capa_1" enable-background="new 0 0 512 512" height="512" viewBox="0 0 512 512" width="512" xmlns="http://www.w3.org/2000/svg"><g><path d="m384 192v160c0 38.4-16.961 72.641-43.52 96l-84.48 32-84.48-32c-26.559-23.359-43.52-57.6-43.52-96v-160l128-16z" fill="#c8fa64"/><g fill="#4de600"><path d="m448 480c0 17.6-14.4 32-32 32h-320c-17.6 0-32-14.4-32-32s14.4-32 32-32h75.52l84.48 32 84.48-32h75.52c17.6 0 32 14.4 32 32z"/><circle cx="256" cy="288" r="32"/><path d="m160 224h32v32h-32z"/><path d="m320 224h32v32h-32z"/><path d="m256 416c-35.346 0-64-28.654-64-64h128c0 35.346-28.654 64-64 64z"/><path d="m448 0c-17.6 0-32 14.4-32 32h-32c-70.721 0-128 57.279-128 128 0-70.721-57.279-128-128-128h-32c0-17.6-14.4-32-32-32s-32 14.4-32 32 14.4 32 32 32c10.881 0 20.16-5.76 25.92-14.4 24 21.76 38.08 52.801 38.08 86.08v24.32l128 16 128-16v-24.32c0-33.279 14.08-64.32 38.08-86.08 5.76 8.64 15.039 14.4 25.92 14.4 17.6 0 32-14.4 32-32s-14.4-32-32-32z"/></g><path d="m128 160h256v32h-256z" fill="#0c0"/><path d="m340.48 448c-22.721 19.84-52.16 32-84.48 32s-61.76-12.16-84.48-32z" fill="#0c0"/></g></svg>