<?xml version="1.0" encoding="iso-8859-1"?>
<!-- Generator: Adobe Illustrator 19.0.0, SVG Export Plug-In . SVG Version: 6.00 Build 0)  -->
<svg version="1.1" id="Capa_1" xmlns="http://www.w3.org/2000/svg" xmlns:xlink="http://www.w3.org/1999/xlink" x="0px" y="0px"
	 viewBox="0 0 512 512" style="enable-background:new 0 0 512 512;" xml:space="preserve">
<path style="fill:#FF4C4C;" d="M108.712,433.232h294.577c2.945-3.607,5.929-7.385,8.909-11.33
	c29.213-38.666,44.902-75.293,45.372-105.921c0.398-25.973-9.651-48.09-30.724-67.612c-15.418-14.285-32.722-21.228-52.898-21.228
	c-17.35,0-36.72,5.159-57.574,15.333l-0.813,0.392c-22.117,10.367-40.716,15.422-58.533,15.909L256,258.802l-1.027-0.028
	c-17.817-0.487-36.416-5.541-58.534-15.909l-0.752-0.363c-20.878-10.194-40.269-15.362-57.635-15.362
	c-20.177,0-37.48,6.943-52.898,21.227c-21.073,19.524-31.123,41.64-30.725,67.613c0.47,30.628,16.159,67.255,45.372,105.921
	C102.783,425.847,105.766,429.625,108.712,433.232z"/>
<path style="fill:#EA2828;" d="M426.845,248.369c-15.418-14.285-32.722-21.228-52.898-21.228c-7.991,0-16.416,1.108-25.212,3.283
	c10.938,3.354,20.973,9.295,30.309,17.945c21.073,19.522,31.123,41.639,30.724,67.612c-0.47,30.628-16.159,67.255-45.372,105.921
	c-2.98,3.945-5.964,7.723-8.909,11.33h47.801c2.945-3.607,5.929-7.385,8.909-11.33c29.213-38.666,44.902-75.293,45.372-105.921
	C457.968,290.008,447.918,267.891,426.845,248.369z"/>
<path style="fill:#FFB125;" d="M465.819,174.344c-42.855-38.978-99.27-43.393-163.152-12.771l-0.317,0.152
	c-3.355,1.61-7.54,0.479-11.458-1.562c-7.25-3.777-12.659-10.336-15.343-18.057L256,85.877l-19.541,56.166
	c-2.697,7.751-8.138,14.332-15.429,18.098c-3.929,2.029-8.12,3.15-11.476,1.539l-0.221-0.106
	c-63.882-30.622-120.298-26.207-163.152,12.771C14.939,202.761-0.593,236.988,0.017,276.076
	c1.001,64.044,46.666,126.123,80.465,163.416h64.976c-3.634-3.186-27.187-24.207-50.445-53.879
	c-31.67-40.403-48.658-78.554-49.129-110.329c-0.38-25.667,9.814-47.583,31.162-67.001c15.42-14.025,32.851-20.843,53.291-20.843
	c0.041,0,0.083,0,0.125,0c4.937,0.015,10.056,0.57,15.28,1.563c49.377,9.39,84.646,53.327,84.646,103.588v146.901h51.223V292.588
	c0-50.267,35.277-94.206,84.661-103.589c5.218-0.991,10.332-1.545,15.264-1.56c0.042,0,0.084,0,0.125,0
	c20.439,0,37.871,6.819,53.291,20.843c21.349,19.418,31.543,41.334,31.162,67.001c-0.47,31.775-17.459,69.926-49.129,110.329
	c-23.258,29.672-46.81,50.694-50.445,53.879h64.976c33.799-37.293,79.465-99.372,80.465-163.416
	C512.593,236.988,497.062,202.761,465.819,174.344z"/>
<path style="fill:#FF901D;" d="M465.819,174.344c-30.152-27.425-67.025-37.714-108.482-30.752
	c22.313,4.148,42.695,14.393,60.681,30.752c22.709,20.655,37.108,44.383,43.05,70.812c3.531,9.455,5.204,19.466,5.046,30.126
	c-0.17,11.5-2.516,23.839-6.926,36.815c-12.882,50.647-48.074,97.164-75.472,127.394h47.801
	c33.799-37.293,79.465-99.372,80.465-163.416C512.593,236.988,497.061,202.761,465.819,174.344z"/>
<path style="fill:#FF6D3A;" d="M439.143,501.089c-121.659-23.77-244.626-23.77-366.286,0c-12.413,2.425-24.514-5.411-27.34-17.74
	c-1.221-5.329-2.442-10.658-3.663-15.986c-2.952-12.883,5.332-25.677,18.303-28.219c130.066-25.495,261.62-25.494,391.686,0
	c12.97,2.542,21.255,15.336,18.303,28.219c-1.221,5.329-2.442,10.658-3.663,15.986C463.657,495.677,451.556,503.514,439.143,501.089
	z"/>
<path style="fill:#ED5729;" d="M470.68,463.798c0.001-0.009,0.002-0.019,0.003-0.028c0.038-0.535,0.052-1.067,0.053-1.598
	c0-0.121-0.001-0.242-0.002-0.362c-0.007-0.522-0.025-1.042-0.067-1.558c0-0.004,0-0.008-0.001-0.013
	c-0.043-0.532-0.109-1.059-0.188-1.584c-0.016-0.103-0.032-0.206-0.049-0.309c-0.172-1.047-0.413-2.075-0.721-3.079
	c-0.026-0.086-0.054-0.172-0.081-0.257c-2.512-7.852-9.093-14.162-17.784-15.865c-8.688-1.703-17.382-3.283-26.082-4.759
	l-5.355,25.763c-2.128,10.241-11.887,17.034-22.229,15.47c-108.233-16.37-217.267-14.009-325.27,7.087
	c-12.432,2.428-24.56-5.383-27.389-17.73c-0.874-3.815-1.748-7.63-2.623-11.444c-1.723,4.359-2.164,9.283-0.952,14.207
	c1.131,4.916,2.261,9.828,3.392,14.744c2.445,12.825,14.819,21.088,27.521,18.606c112.913-22.061,226.952-23.633,340.026-4.744l0,0
	c4.22,0.705,8.439,1.438,12.657,2.197c0.208,0.038,0.417,0.073,0.625,0.111c4.359,0.787,8.716,1.603,13.071,2.454
	c12.376,2.42,24.43-5.466,27.247-17.758c1.221-5.329,2.442-10.658,3.663-15.987c0.122-0.535,0.219-1.069,0.303-1.602
	c0.021-0.133,0.041-0.266,0.059-0.399C470.581,464.839,470.643,464.317,470.68,463.798z"/>
<path style="fill:#61AFF6;" d="M297.774,42.342L268.31,57.81l15.468-29.465c4.269-8.132-1.629-17.889-10.813-17.889h-33.93
	c-9.184,0-15.082,9.757-10.813,17.889L243.69,57.81l-29.465-15.468c-8.132-4.269-17.889,1.629-17.889,10.813v33.93
	c0,9.184,9.757,15.082,17.889,10.813L243.69,82.43l-15.468,29.465c-4.269,8.132,1.629,17.889,10.813,17.889h33.93
	c9.184,0,15.082-9.757,10.813-17.889L268.31,82.43l29.465,15.468c8.132,4.269,17.889-1.629,17.889-10.813v-33.93
	C315.663,43.971,305.906,38.073,297.774,42.342z"/>
<path style="fill:#49A0E8;" d="M297.774,42.342L268.31,57.81l15.468-29.465c4.269-8.132-1.629-17.889-10.813-17.889h-5.103v119.326
	h5.103c9.184,0,15.082-9.757,10.813-17.889L268.31,82.43l29.465,15.468c8.132,4.269,17.889-1.629,17.889-10.813v-33.93
	C315.663,43.971,305.906,38.073,297.774,42.342z"/>
<circle style="fill:#E1EFFB;" cx="256" cy="200.6" r="26.542"/>
<g>
</g>
<g>
</g>
<g>
</g>
<g>
</g>
<g>
</g>
<g>
</g>
<g>
</g>
<g>
</g>
<g>
</g>
<g>
</g>
<g>
</g>
<g>
</g>
<g>
</g>
<g>
</g>
<g>
</g>
</svg>
