<svg id="Capa_1" enable-background="new 0 0 512 512" height="512" viewBox="0 0 512 512" width="512" xmlns="http://www.w3.org/2000/svg"><g><path d="m464 288v128h-32l-176-32-176 32h-32v-128c0-35.199 28.801-64 64-64h32v-112c0-61.76 50.24-112 112-112 30.721 0 58.881 12.48 79.039 32.961 20.481 20.158 32.961 48.318 32.961 79.039v112h32c35.199 0 64 28.801 64 64z" fill="#80eaff"/><path d="m464 480v32h-416v-32h32v-64l176-32 176 32v64z" fill="#4db5ff"/><path d="m176 96v80c0 44.184 35.816 80 80 80s80-35.816 80-80v-80zm48 64c-8.836 0-16-7.164-16-16s7.164-16 16-16 16 7.164 16 16-7.164 16-16 16zm64 0c-8.836 0-16-7.164-16-16s7.164-16 16-16 16 7.164 16 16-7.164 16-16 16z" fill="#4db5ff"/><path d="m80 288h352v128h-352z" fill="#37f"/></g></svg>