<?xml version="1.0" encoding="iso-8859-1"?>
<!-- Generator: Adobe Illustrator 19.0.0, SVG Export Plug-In . SVG Version: 6.00 Build 0)  -->
<svg version="1.1" id="Capa_1" xmlns="http://www.w3.org/2000/svg" xmlns:xlink="http://www.w3.org/1999/xlink" x="0px" y="0px"
	 viewBox="0 0 512.005 512.005" style="enable-background:new 0 0 512.005 512.005;" xml:space="preserve">
<g>
	<path style="fill:#494B5B;" d="M121.731,222.739c-16.902,0-30.653-13.751-30.653-30.653s13.751-30.653,30.653-30.653
		s30.653,13.751,30.653,30.653S138.633,222.739,121.731,222.739z M121.731,177.104c-8.261,0-14.982,6.721-14.982,14.982
		c0,8.261,6.721,14.982,14.982,14.982c8.261,0,14.982-6.721,14.982-14.982C136.713,183.825,129.992,177.104,121.731,177.104z"/>
	<path style="fill:#494B5B;" d="M121.731,182.518c-16.902,0-30.653-13.751-30.653-30.653s13.751-30.653,30.653-30.653
		s30.653,13.751,30.653,30.653S138.633,182.518,121.731,182.518z M121.731,136.882c-8.261,0-14.982,6.721-14.982,14.982
		c0,8.261,6.721,14.982,14.982,14.982c8.261,0,14.982-6.721,14.982-14.982C136.713,143.603,129.992,136.882,121.731,136.882z"/>
	<path style="fill:#494B5B;" d="M151.897,152.351c-16.902,0-30.653-13.751-30.653-30.653s13.751-30.653,30.653-30.653
		s30.653,13.751,30.653,30.653S168.8,152.351,151.897,152.351z M151.897,106.716c-8.261,0-14.982,6.721-14.982,14.982
		s6.721,14.982,14.982,14.982c8.261,0,14.982-6.721,14.982-14.982S160.159,106.716,151.897,106.716z"/>
	<path style="fill:#494B5B;" d="M192.118,152.351c-16.902,0-30.653-13.751-30.653-30.653s13.751-30.653,30.653-30.653
		s30.653,13.751,30.653,30.653S209.021,152.351,192.118,152.351z M192.118,106.716c-8.261,0-14.982,6.721-14.982,14.982
		s6.721,14.982,14.982,14.982c8.261,0,14.982-6.721,14.982-14.982S200.38,106.716,192.118,106.716z"/>
</g>
<path style="fill:#FFD15C;" d="M387.542,0.053c-27.279-0.794-52.583,7.376-73.238,21.773c-0.021,0.031-0.042,0.042-0.063,0.052
	c-4.545,3.197-9.737,5.328-15.233,6.185l-61.171,9.601c-13.227,2.079-22.964,13.457-22.964,26.83v114.402
	c0,13.383,9.737,24.761,22.964,26.84l54.349,8.515c3.145,0.491,5.924-4.179,8.128-2.413c20.833,16.716,54.756,31.552,83.55,31.552
	c62.185,0,113.483-46.659,120.786-106.869l0.01-29.651C497.577,47.663,448.515,1.85,387.542,0.053z M383.864,202.801
	c-44.789,0-81.105-36.306-81.105-81.105c0-44.789,36.316-81.105,81.105-81.105s81.105,36.316,81.105,81.105
	C464.97,166.495,428.654,202.801,383.864,202.801z"/>
<circle style="fill:#F4A14E;" cx="488.496" cy="121.694" r="23.472"/>
<path style="fill:#FFD15C;" d="M221.601,314.33c-0.031-0.021-0.042-0.042-0.052-0.063c-3.197-4.545-5.328-9.737-6.185-15.233
	l-9.601-61.171c-2.079-13.227-13.457-22.964-26.83-22.964H64.531c-13.383,0-24.761,9.737-26.84,22.964l-8.515,54.349
	c-0.491,3.145,4.179,5.924,2.413,8.128c-8.295,10.333-16.121,23.883-21.909,38.447c-5.872,14.783-9.643,30.591-9.643,45.103
	c0,62.185,46.659,113.483,106.869,120.786l29.651,0.01c59.207-7.084,105.02-56.146,106.817-117.118
	C244.168,360.289,235.998,334.985,221.601,314.33z M121.732,464.996c-44.8,0-81.105-36.316-81.105-81.105
	c0-16.685,5.046-32.21,13.697-45.103c14.543-21.71,39.304-36.003,67.408-36.003c44.789,0,81.105,36.316,81.105,81.105
	S166.521,464.996,121.732,464.996z"/>
<circle style="fill:#F4A14E;" cx="121.73" cy="488.533" r="23.472"/>
<g>
	<path style="fill:#494B5B;" d="M255.065,175.731c-6.964,0-10.5-8.938-5.268-13.644c2.531-2.278,6.362-2.666,9.288-0.915
		c2.858,1.71,4.363,5.182,3.615,8.435C261.891,173.131,258.705,175.731,255.065,175.731z"/>
	<path style="fill:#494B5B;" d="M167.921,262.864c-7.071,0-10.463-9.018-5.203-13.69c5.362-4.762,13.986-0.061,12.954,6.988
		C175.114,259.965,171.773,262.864,167.921,262.864z"/>
</g>
<g>
	<path style="fill:#EDBB4C;" d="M121.732,302.785c-28.104,0-52.865,14.292-67.408,36.003H9.681
		c5.788-14.564,13.613-28.115,21.909-38.447L121.732,302.785z"/>
	<path style="fill:#EDBB4C;" d="M302.759,121.695c0,28.104,14.292,52.865,36.003,67.408v44.643
		c-14.564-5.788-28.115-13.613-38.447-21.909L302.759,121.695z"/>
</g>
<g>
</g>
<g>
</g>
<g>
</g>
<g>
</g>
<g>
</g>
<g>
</g>
<g>
</g>
<g>
</g>
<g>
</g>
<g>
</g>
<g>
</g>
<g>
</g>
<g>
</g>
<g>
</g>
<g>
</g>
</svg>
