<?xml version="1.0" standalone="no"?>
<!DOCTYPE svg PUBLIC "-//W3C//DTD SVG 20010904//EN"
 "http://www.w3.org/TR/2001/REC-SVG-20010904/DTD/svg10.dtd">
<svg version="1.0" xmlns="http://www.w3.org/2000/svg"
 width="155.000000pt" height="155.000000pt" viewBox="0 0 155.000000 155.000000"
 preserveAspectRatio="xMidYMid meet">

<g transform="translate(0.000000,155.000000) scale(0.100000,-0.100000)"
fill="#000000" stroke="none">
<path d="M1340 1407 c-31 -11 -35 -17 -38 -49 -3 -37 -3 -38 23 -28 37 14 81
12 94 -4 18 -22 -2 -57 -54 -96 -54 -41 -75 -75 -75 -125 l0 -35 115 0 115 0
0 40 0 40 -67 1 -68 0 40 32 c83 67 95 83 95 127 0 53 -23 87 -69 100 -45 12
-67 12 -111 -3z"/>
<path d="M40 690 l0 -560 146 0 146 0 -4 430 c-2 237 0 430 3 430 4 0 14 -39
23 -87 9 -49 56 -241 104 -428 l88 -340 157 -3 c86 -1 157 -1 157 2 0 2 40
170 89 372 49 203 95 395 101 427 6 31 14 57 18 57 4 0 6 -193 4 -430 l-3
-430 166 0 165 0 0 445 0 445 -85 0 -85 0 0 115 0 115 -163 0 -163 0 -77 -327
c-43 -181 -81 -352 -84 -381 -3 -29 -9 -55 -13 -57 -4 -2 -12 31 -19 73 -6 42
-47 214 -90 382 l-78 305 -252 3 -251 2 0 -560z"/>
</g>
</svg>
