<svg id="Icons" height="512" viewBox="0 0 60 60" width="512" xmlns="http://www.w3.org/2000/svg"><path d="m47 47c-5 5-6 7-6 7s-3 5-11 5-11-5-11-5-1-2-6-7-3-17-3-17-2-17 4-23 16-6 16-6 10 0 16 6 4 23 4 23 2 12-3 17z" fill="#ecf0f1"/><path d="m30 37.406a5.679 5.679 0 0 1 -4.3-1.727 1 1 0 0 1 1.469-1.358 3.669 3.669 0 0 0 2.831 1.085 3.669 3.669 0 0 0 2.827-1.085 1 1 0 0 1 1.473 1.358 5.679 5.679 0 0 1 -4.3 1.727z" fill="#bdc3c7"/><path d="m21 36a1 1 0 0 1 -1-1v-20a1 1 0 0 1 2 0v20a1 1 0 0 1 -1 1z" fill="#547580"/><path d="m28 26h-14a1 1 0 0 1 0-2h14a1 1 0 0 1 0 2z" fill="#e64c3c"/><path d="m39 36a1 1 0 0 1 -1-1v-20a1 1 0 0 1 2 0v20a1 1 0 0 1 -1 1z" fill="#547580"/><g fill="#e64c3c"><path d="m46 26h-14a1 1 0 0 1 0-2h14a1 1 0 0 1 0 2z"/><path d="m33.5 11.625-2.719 3.4a1 1 0 0 1 -1.562 0l-2.719-3.4a1 1 0 0 1 0-1.25l2.719-3.4a1 1 0 0 1 1.562 0l2.719 3.4a1 1 0 0 1 0 1.25z"/><path d="m39 44.83a9.3 9.3 0 0 1 -.79 1.53 9.583 9.583 0 0 1 -16.42 0 9.3 9.3 0 0 1 -.79-1.53 5.424 5.424 0 0 0 1.58-.32 7.938 7.938 0 0 0 2.92-1.74 3.663 3.663 0 0 1 4.5 0 3.663 3.663 0 0 1 4.5 0 7.938 7.938 0 0 0 2.92 1.74 5.424 5.424 0 0 0 1.58.32z"/></g><path d="m39 44.83a9.3 9.3 0 0 1 -.79 1.53 27.716 27.716 0 0 1 -8.21 1.64 27.716 27.716 0 0 1 -8.21-1.64 9.3 9.3 0 0 1 -.79-1.53 5.424 5.424 0 0 0 1.58-.32 25.618 25.618 0 0 0 7.42 1.49 25.618 25.618 0 0 0 7.42-1.49 5.424 5.424 0 0 0 1.58.32z" fill="#c03a2b"/><ellipse cx="21" cy="25" fill="#b0d3f0" rx="5" ry="3"/><ellipse cx="39" cy="25" fill="#b0d3f0" rx="5" ry="3"/></svg>