<svg id="Icons" height="512" viewBox="0 0 60 60" width="512" xmlns="http://www.w3.org/2000/svg"><path d="m47 47c-5 5-6 7-6 7s-3 5-11 5-11-5-11-5-1-2-6-7-3-17-3-17-2-17 4-23 16-6 16-6 10 0 16 6 4 23 4 23 2 12-3 17z" fill="#ecf0f1"/><path d="m30 39a5.675 5.675 0 0 1 -4.3-1.727.931.931 0 0 0 -.683-.273h-1.017a1 1 0 0 1 0-2h1.017a2.929 2.929 0 0 1 2.156.916 3.671 3.671 0 0 0 2.827 1.084 3.671 3.671 0 0 0 2.827-1.084 2.929 2.929 0 0 1 2.156-.916h1.017a1 1 0 0 1 0 2h-1.017a.931.931 0 0 0 -.687.273 5.675 5.675 0 0 1 -4.296 1.727z" fill="#bdc3c7"/><path d="m39.244 46.158a6.107 6.107 0 0 1 -1.487-.188 17.743 17.743 0 0 0 -7.516 0 1.007 1.007 0 0 1 -.482 0 17.689 17.689 0 0 0 -7.516 0c-3.785.943-6.322-1.891-7.138-3.523a1 1 0 1 1 1.79-.894c.066.13 1.712 3.262 4.862 2.477a19.431 19.431 0 0 1 8.243-.055 19.448 19.448 0 0 1 8.243.055c3.153.787 4.8-2.347 4.864-2.481a1 1 0 0 1 1.788.9 6.681 6.681 0 0 1 -5.651 3.709z" fill="#3f5c6c"/><path d="m30 51a9.732 9.732 0 0 1 -6.707-2.293 1 1 0 0 1 1.414-1.414 7.807 7.807 0 0 0 5.293 1.707 7.8 7.8 0 0 0 5.3-1.712 1 1 0 0 1 1.409 1.419 9.732 9.732 0 0 1 -6.709 2.293z" fill="#bdc3c7"/><path d="m30 19a1 1 0 0 1 -1-1v-12a1 1 0 0 1 2 0v12a1 1 0 0 1 -1 1z" fill="#bdc3c7"/><g fill="#3f5c6c"><path d="m18 32a1 1 0 0 1 -1-1v-6a1 1 0 0 1 2 0v6a1 1 0 0 1 -1 1z"/><path d="m18 36a1 1 0 0 1 -1-1v-1a1 1 0 0 1 2 0v1a1 1 0 0 1 -1 1z"/><path d="m42 32a1 1 0 0 1 -1-1v-6a1 1 0 0 1 2 0v6a1 1 0 0 1 -1 1z"/><path d="m42 36a1 1 0 0 1 -1-1v-1a1 1 0 0 1 2 0v1a1 1 0 0 1 -1 1z"/></g><ellipse cx="21" cy="25" fill="#b0d3f0" rx="5" ry="3"/><ellipse cx="39" cy="25" fill="#b0d3f0" rx="5" ry="3"/></svg>