<svg id="Icons" height="512" viewBox="0 0 60 60" width="512" xmlns="http://www.w3.org/2000/svg"><path d="m50.39 35.84c8.28-2.72 6.806-13.873 5.89-18.15a1 1 0 0 0 -1.7-.49 29.663 29.663 0 0 0 -4.27 5.68h-40.62a29.663 29.663 0 0 0 -4.27-5.68 1 1 0 0 0 -1.7.49c-.92 4.277-2.39 15.43 5.89 18.15z" fill="#e64c3c"/><path d="m47 47c-5 5-6 7-6 7s-3 5-11 5-11-5-11-5-1-2-6-7-3-17-3-17-2-17 4-23 16-6 16-6 10 0 16 6 4 23 4 23 2 12-3 17z" fill="#ecf0f1"/><ellipse cx="21" cy="28" fill="#b0d3f0" rx="5" ry="3"/><ellipse cx="39" cy="28" fill="#b0d3f0" rx="5" ry="3"/><g fill="#bdc3c7"><path d="m30 38a4.2 4.2 0 0 1 -3.6-1.576l-.136-.151a.935.935 0 0 0 -.686-.273h-1.016a1 1 0 1 1 0-2h1.016a2.926 2.926 0 0 1 2.156.916l.16.176a2.274 2.274 0 0 0 2.106.908 2.274 2.274 0 0 0 2.106-.908l.16-.176a2.926 2.926 0 0 1 2.156-.916h1.016a1 1 0 0 1 0 2h-1.016a.935.935 0 0 0 -.688.273l-.136.151a4.2 4.2 0 0 1 -3.598 1.576z"/><path d="m26 26h-10a1 1 0 0 1 0-2h10a1 1 0 0 1 0 2z"/><path d="m44 26h-10a1 1 0 0 1 0-2h10a1 1 0 0 1 0 2z"/><path d="m27 23a1 1 0 0 1 -.72-.306c-2.326-2.412-4.627-3.655-6.839-3.693a5.738 5.738 0 0 0 -3.741 1.299 1 1 0 1 1 -1.39-1.438 7.83 7.83 0 0 1 5.166-1.862c2.762.048 5.535 1.5 8.244 4.305a1 1 0 0 1 -.72 1.695z"/><path d="m33 23a1 1 0 0 1 -.72-1.694c2.709-2.809 5.482-4.257 8.244-4.3a7.852 7.852 0 0 1 5.171 1.86 1 1 0 0 1 -1.386 1.434c-.184-.174-4.416-4.011-10.589 2.391a1 1 0 0 1 -.72.309z"/><path d="m30 56a1 1 0 0 1 -1-1v-4a1 1 0 0 1 2 0v4a1 1 0 0 1 -1 1z"/></g><path d="m19.41 41.38 2.23 7.41a.493.493 0 0 0 .92.08l2.65-5.28z" fill="#e64c3c"/><path d="m40.59 41.37v.01l-2.23 7.41a.493.493 0 0 1 -.92.08l-2.65-5.28z" fill="#e64c3c"/><path d="m49.97 17.45c-2.87-3.71-6.21-6.45-9.97-6.45-3.53 0-6.77 2.74-8.56 4.59a1.993 1.993 0 0 1 -2.88 0c-1.79-1.85-5.03-4.59-8.56-4.59-3.76 0-7.1 2.74-9.97 6.45.49-4.05 1.62-8.1 3.97-10.45 6-6 16-6 16-6s10 0 16 6c2.35 2.35 3.48 6.4 3.97 10.45z" fill="#547580"/><path d="m30 45c-10.882 0-13.77-5.312-13.887-5.539a1 1 0 1 1 1.774-.922c.02.035 2.551 4.461 12.113 4.461s12.093-4.426 12.118-4.471a1 1 0 0 1 1.769.932c-.117.227-3.005 5.539-13.887 5.539z" fill="#547580"/></svg>