<svg id="Icons" height="512" viewBox="0 0 60 60" width="512" xmlns="http://www.w3.org/2000/svg"><path d="m52.52 27.89a47 47 0 0 1 -1.52 8.11 6.538 6.538 0 0 1 -3 8c-5 3-5 15-12 15a10.683 10.683 0 0 1 -5-.85.037.037 0 0 0 -.03-.01 2.08 2.08 0 0 0 -1.94 0 .037.037 0 0 0 -.03.01 10.683 10.683 0 0 1 -5 .85c-7 0-7-12-12-15a6.538 6.538 0 0 1 -3-8 47 47 0 0 1 -1.52-8.11c-2.06-1.9-3.56-5.94-1.48-8.89a4.609 4.609 0 0 1 1.63-1.52 28.918 28.918 0 0 1 1.37-5.48 11.211 11.211 0 0 1 .47-1.11l4.37-5c6.47-4.46 16.16-3.89 16.16-3.89s9.69-.57 16.16 3.89l4.37 5a11.211 11.211 0 0 1 .47 1.11 28.918 28.918 0 0 1 1.37 5.48 4.609 4.609 0 0 1 1.63 1.52c2.08 2.95.58 6.99-1.48 8.89z" fill="#e64c3c"/><path d="m44.32 37.51-.32.49s-4 6-4 9c0 8-4 4-10 4s-10 4-10-4c0-3-4-9-4-9l-.33-.49a8.515 8.515 0 0 0 5.39-.13 2.438 2.438 0 0 0 1.94 1.62c4 1 2 3 7 3s3-2 7-3a2.438 2.438 0 0 0 1.94-1.62 8.554 8.554 0 0 0 5.38.13z" fill="#ecf0f1"/><g fill="#c03a2b"><path d="m31 55v2.9a.986.986 0 0 1 -.03.24 2.08 2.08 0 0 0 -1.94 0 .986.986 0 0 1 -.03-.24v-2.9a1 1 0 0 1 2 0z"/><path d="m12 27a1 1 0 0 1 -1-1 3.439 3.439 0 0 0 -2.321-3.053 1 1 0 0 1 .637-1.9c.151.053 3.684 1.275 3.684 4.953a1 1 0 0 1 -1 1z"/><path d="m48 27a1 1 0 0 1 -1-1c0-3.678 3.533-4.9 3.684-4.949a1 1 0 0 1 .637 1.9 3.437 3.437 0 0 0 -2.321 3.049 1 1 0 0 1 -1 1z"/></g><ellipse cx="21" cy="26" fill="#b0d3f0" rx="5" ry="3"/><ellipse cx="39" cy="26" fill="#b0d3f0" rx="5" ry="3"/><path d="m27 24h-12a1 1 0 0 1 0-2h12a1 1 0 0 1 0 2z" fill="#c03a2b"/><path d="m45 24h-12a1 1 0 0 1 0-2h12a1 1 0 0 1 0 2z" fill="#c03a2b"/><path d="m19.311 9.514a19.585 19.585 0 0 1 -5.511 5.186.981.981 0 0 1 -1.045 0c-5.015-3.29-4.925-10.363-4.655-13.257a.5.5 0 0 1 .887-.253c1.464 1.925 5.036 5.972 9.7 6.756a1 1 0 0 1 .624 1.568z" fill="#3f5c6c"/><path d="m40.689 9.514a19.585 19.585 0 0 0 5.511 5.186.981.981 0 0 0 1.045 0c5.015-3.29 4.925-10.363 4.655-13.257a.5.5 0 0 0 -.887-.253c-1.464 1.925-5.036 5.972-9.7 6.756a1 1 0 0 0 -.624 1.568z" fill="#3f5c6c"/><path d="m39.746 19a6 6 0 0 1 -2.3-.435 6.114 6.114 0 0 1 -3.39-4 14.74 14.74 0 0 0 -2.542-4.85 2.048 2.048 0 0 0 -3.02 0 14.74 14.74 0 0 0 -2.542 4.85 6.114 6.114 0 0 1 -3.39 4c-2.791 1.157-5.876-.355-6-.419a1 1 0 1 1 .894-1.79c.021.011 2.413 1.168 4.354.357a4.228 4.228 0 0 0 2.251-2.778 16.64 16.64 0 0 1 2.911-5.508 3.982 3.982 0 0 1 6.074 0 16.656 16.656 0 0 1 2.911 5.509 4.228 4.228 0 0 0 2.243 2.776c1.941.811 4.331-.346 4.357-.358a1 1 0 0 1 .891 1.791 9.131 9.131 0 0 1 -3.702.855z" fill="#c03a2b"/><path d="m30 35a1 1 0 0 1 -1-1v-5a1 1 0 0 1 2 0v5a1 1 0 0 1 -1 1z" fill="#c03a2b"/><path d="m54.817 18.424a5.64 5.64 0 0 0 -2.008-1.842c-2.335-1.143-4.473.7-5.276 1.841a1 1 0 0 0 1.631 1.158c.056-.078 1.373-1.884 2.752-1.21a3.708 3.708 0 0 1 1.267 1.205c1.768 2.508.357 6.013-1.356 7.592a2.552 2.552 0 0 1 -1.587.832c-2.174 0-2.6 2.124-2.942 3.83s-.698 3.47-2.236 4.287a7.023 7.023 0 0 1 -4.988.548 8.522 8.522 0 0 0 -1.217-4.18 1 1 0 0 0 -1.715 1.028c.357.6 1.273 2.56.813 3.664-.063.153-.257.617-1.2.853a6.026 6.026 0 0 0 -3.379 1.92c-.58.61-1 1.05-3.379 1.05s-2.8-.44-3.379-1.05a6.026 6.026 0 0 0 -3.379-1.92c-.94-.236-1.134-.7-1.2-.853-.46-1.1.456-3.064.813-3.664a1 1 0 0 0 -1.715-1.028 8.518 8.518 0 0 0 -1.217 4.18 7.02 7.02 0 0 1 -4.987-.548c-1.533-.817-1.889-2.583-2.233-4.287s-.766-3.83-2.94-3.83a2.58 2.58 0 0 1 -1.6-.845c-1.7-1.566-3.109-5.071-1.341-7.579a3.723 3.723 0 0 1 1.251-1.2c1.395-.68 2.712 1.124 2.766 1.2a1 1 0 1 0 1.633-1.154c-.8-1.136-2.938-2.984-5.291-1.834a5.639 5.639 0 0 0 -1.993 1.835c-2.3 3.26-.949 7.833 1.605 10.188a4.443 4.443 0 0 0 2.97 1.389c.429 0 .623.437.981 2.224.371 1.854.881 4.394 3.26 5.659a8.632 8.632 0 0 0 4.09 1.009 9.91 9.91 0 0 0 2.46-.321 3.684 3.684 0 0 0 2.207 1.4 4.15 4.15 0 0 1 2.415 1.359c.927.977 1.827 1.67 4.827 1.67s3.9-.693 4.827-1.671a4.147 4.147 0 0 1 2.415-1.359 3.684 3.684 0 0 0 2.207-1.4 9.9 9.9 0 0 0 2.46.321 8.638 8.638 0 0 0 4.091-1.008c2.378-1.265 2.888-3.8 3.259-5.659.358-1.787.552-2.224.981-2.224a4.42 4.42 0 0 0 2.96-1.375c2.566-2.368 3.915-6.941 1.617-10.201z" fill="#c03a2b"/></svg>