<svg id="Icons" height="512" viewBox="0 0 60 60" width="512" xmlns="http://www.w3.org/2000/svg"><path d="m50.21 20.07a4.146 4.146 0 0 1 .79-.07 5.267 5.267 0 0 1 5 5.5 5.267 5.267 0 0 1 -5 5.5 4.141 4.141 0 0 1 -.87-.09h-40.26a4.141 4.141 0 0 1 -.87.09 5.267 5.267 0 0 1 -5-5.5 5.267 5.267 0 0 1 5-5.5 4.146 4.146 0 0 1 .79.07z" fill="#4c8056"/><path d="m47 47c-5 5-6 7-6 7s-3 5-11 5-11-5-11-5-1-2-6-7-3-17-3-17-2-17 4-23 16-6 16-6 10 0 16 6 4 23 4 23 2 12-3 17z" fill="#71c285"/><ellipse cx="20" cy="25" fill="#b0d3f0" rx="5" ry="3"/><ellipse cx="40" cy="25" fill="#b0d3f0" rx="5" ry="3"/><g fill="#4c8056"><path d="m42 43h-2v-2a1 1 0 0 0 -2 0v2h-4v-2a1 1 0 0 0 -2 0v2h-4v-2a1 1 0 0 0 -2 0v2h-4v-2a1 1 0 0 0 -2 0v2h-2a1 1 0 0 0 0 2h5v2a1 1 0 0 0 2 0v-2h4v2a1 1 0 0 0 2 0v-2h4v2a1 1 0 0 0 2 0v-2h5a1 1 0 0 0 0-2z"/><path d="m20 34a1 1 0 0 0 -1-1c-6.955 0-7.983-3.091-8.034-3.259a1 1 0 0 0 -1.936.5c.048.196 1.289 4.759 9.97 4.759a1 1 0 0 0 1-1z"/><path d="m50.26 29.045a1.008 1.008 0 0 0 -1.225.694c-.035.133-1.035 3.261-8.035 3.261a1 1 0 0 0 0 2c8.681 0 9.922-4.563 9.97-4.757a.99.99 0 0 0 -.71-1.198z"/><path d="m30 52a1 1 0 0 0 -1 1v2a1 1 0 0 0 2 0v-2a1 1 0 0 0 -1-1z"/><path d="m14 23h12a1 1 0 0 0 0-2h-12a1 1 0 0 0 0 2z"/><path d="m34 23h12a1 1 0 0 0 0-2h-12a1 1 0 0 0 0 2z"/><path d="m30 16a1 1 0 0 0 1-1v-10a1 1 0 0 0 -2 0v10a1 1 0 0 0 1 1z"/><path d="m24.562 33a1 1 0 1 0 0 2h1.016a.935.935 0 0 1 .688.273l.135.15a4.206 4.206 0 0 0 3.599 1.577 4.206 4.206 0 0 0 3.6-1.577l.135-.15a.935.935 0 0 1 .687-.273h1.016a1 1 0 0 0 0-2h-1.016a2.929 2.929 0 0 0 -2.156.916l-.16.176a2.276 2.276 0 0 1 -2.106.908 2.276 2.276 0 0 1 -2.106-.908l-.16-.177a2.932 2.932 0 0 0 -2.156-.915z"/><path d="m16 12h3v2a1 1 0 0 0 2 0v-2h2v4a1 1 0 0 0 2 0v-4a1 1 0 0 0 0-2h-9a1 1 0 0 0 0 2z"/><circle cx="20" cy="17" r="1"/></g></svg>