<svg id="Icons" height="512" viewBox="0 0 60 60" width="512" xmlns="http://www.w3.org/2000/svg"><path d="m50.21 20.07a4.146 4.146 0 0 1 .79-.07 5.267 5.267 0 0 1 5 5.5 5.267 5.267 0 0 1 -5 5.5 4.141 4.141 0 0 1 -.87-.09h-40.26a4.141 4.141 0 0 1 -.87.09 5.267 5.267 0 0 1 -5-5.5 5.267 5.267 0 0 1 5-5.5 4.146 4.146 0 0 1 .79.07z" fill="#bdc3c7"/><path d="m47 47c-5 5-6 7-6 7s-3 5-11 5-11-5-11-5-1-2-6-7c-4.17-4.17-3.47-13.19-3.13-16.09.07-.58.13-.91.13-.91a61.326 61.326 0 0 1 -.21-9.93c.3-4.8 1.33-10.14 4.16-13.02l.05-.05c6-6 16-6 16-6s10 0 16 6l.05.05c2.83 2.88 3.86 8.22 4.16 13.02a61.326 61.326 0 0 1 -.21 9.93s.06.33.13.91c.34 2.9 1.04 11.92-3.13 16.09z" fill="#ecf0f1"/><path d="m26 25a1.333 1.333 0 0 1 -.03.28 6.975 6.975 0 0 0 -1.97 2.11 7.29 7.29 0 0 1 -3 .61c-2.76 0-5-1.34-5-3s2.24-3 5-3 5 1.34 5 3z" fill="#b0d3f0"/><path d="m44 25c0 1.66-2.24 3-5 3a7.29 7.29 0 0 1 -3-.61 6.975 6.975 0 0 0 -1.97-2.11 1.333 1.333 0 0 1 -.03-.28c0-1.66 2.24-3 5-3s5 1.34 5 3z" fill="#b0d3f0"/><path d="m37 31a7 7 0 1 1 -11.03-5.72 6.984 6.984 0 0 1 8.06 0 6.967 6.967 0 0 1 2.97 5.72z" fill="#e64c3c"/><path d="m39.86 39.5a12.256 12.256 0 0 0 -1.86 6.5c0 4-2 6-8 6s-8-2-8-6a12.256 12.256 0 0 0 -1.86-6.5c1.72 1.25 4.72 2.5 9.86 2.5s8.14-1.25 9.86-2.5z" fill="#d1d4d1"/><path d="m30 57a1 1 0 0 1 -1-1v-1a1 1 0 0 1 2 0v1a1 1 0 0 1 -1 1z" fill="#bdc3c7"/><g fill="#e64c3c"><path d="m19.182 8.9c-1.33 1.559-3.844 4.926-4.151 8.406a.5.5 0 0 0 .622.509c1.554-.389 5.578-1.117 8.712.757a.493.493 0 0 0 .746-.412c0-1.035-.433-2.823-3.111-4.162-1.378-.689-1.807-3.279-1.94-4.822a.5.5 0 0 0 -.878-.276z"/><path d="m40.847 8.9c1.33 1.559 3.844 4.926 4.151 8.406a.5.5 0 0 1 -.622.509c-1.554-.389-5.578-1.117-8.712.757a.493.493 0 0 1 -.746-.412c0-1.035.433-2.823 3.111-4.162 1.379-.689 1.807-3.279 1.94-4.822a.5.5 0 0 1 .878-.276z"/><path d="m14 6.5a2.5 2.5 0 0 1 -.05.55c-2.83 2.88-3.86 8.22-4.16 13.02a4.146 4.146 0 0 0 -.79-.07 4.541 4.541 0 0 0 -2.19.56 3.481 3.481 0 0 1 -1.81-3.06 3.55 3.55 0 0 1 .06-.56 3.55 3.55 0 0 1 -.56.06 3.487 3.487 0 0 1 -2.24-6.17 3.663 3.663 0 0 1 -.26-1.33 3.5 3.5 0 0 1 3.5-3.5 3.463 3.463 0 0 1 1.51.36 3.5 3.5 0 0 1 6.99.14z"/><path d="m59 13.5a3.5 3.5 0 0 1 -3.5 3.5 3.55 3.55 0 0 1 -.56-.06 3.55 3.55 0 0 1 .06.56 3.481 3.481 0 0 1 -1.81 3.06 4.541 4.541 0 0 0 -2.19-.56 4.146 4.146 0 0 0 -.79.07c-.3-4.8-1.33-10.14-4.16-13.02a2.5 2.5 0 0 1 -.05-.55 3.5 3.5 0 0 1 6.99-.14 3.463 3.463 0 0 1 1.51-.36 3.5 3.5 0 0 1 3.5 3.5 3.663 3.663 0 0 1 -.26 1.33 3.483 3.483 0 0 1 1.26 2.67z"/></g><path d="m20.723 38.685a6.006 6.006 0 0 1 -1.582-1.649 5.7 5.7 0 0 1 1.347-1.163 1 1 0 0 0 -.973-1.747 7.107 7.107 0 0 0 -3.515 5.874 1 1 0 0 0 2 0 4.3 4.3 0 0 1 .122-1 9.931 9.931 0 0 0 1.378 1.27 1.036 1.036 0 0 0 .638.23 1 1 0 0 0 .7-1.711.913.913 0 0 0 -.115-.104z" fill="#bdc3c7"/><path d="m40.485 34.126a1 1 0 0 0 -.974 1.746 5.728 5.728 0 0 1 1.348 1.165 6.055 6.055 0 0 1 -1.582 1.648.913.913 0 0 0 -.12.1 1 1 0 0 0 .7 1.711 1.036 1.036 0 0 0 .638-.23 10.007 10.007 0 0 0 1.384-1.266 4.3 4.3 0 0 1 .121 1 1 1 0 0 0 2 0 7.107 7.107 0 0 0 -3.515-5.874z" fill="#bdc3c7"/></svg>