<svg id="Capa_1" enable-background="new 0 0 497.821 497.821" height="512" viewBox="0 0 497.821 497.821" width="512" xmlns="http://www.w3.org/2000/svg"><g><path d="m429.268 430.703h-280.802c-2.316 0-4.194-1.878-4.194-4.194v-47.255h289.19v47.255c0 2.316-1.878 4.194-4.194 4.194z" fill="#b3adb5"/><g fill="#a59ca6"><path d="m281.367 379.254h15v51.449h-15z"/><path d="m245.219 379.254h15v51.449h-15z"/><path d="m209.069 379.254h15v51.449h-15z"/><path d="m172.921 379.254h15v51.449h-15z"/><path d="m317.516 379.254h15v51.449h-15z"/><path d="m353.664 379.254h15v51.449h-15z"/><path d="m389.813 379.254h15v51.449h-15z"/></g><path d="m492.589 88.304h-152.838v-25.476c0-2.527-2.048-4.575-4.575-4.575h-80.039c-1.186 0-2.325.46-3.178 1.284l-29.787 28.767h-166.749v303.95h437.166c2.89 0 5.233-2.343 5.233-5.233v-293.485c-.001-2.889-2.344-5.232-5.233-5.232z" fill="#f8f7f8"/><g><g><path d="m91.423 330.261v-241.957h-19.073-16.927v303.95h437.166c2.89 0 5.233-2.343 5.233-5.233v-34.866h-384.505c-12.092 0-21.894-9.802-21.894-21.894z" fill="#efedee"/><path d="m64.516 455.897h-16.186c-3.815 0-6.907-3.092-6.907-6.907v-377.066h-38.561c-1.581 0-2.862-1.281-2.862-2.861v-24.277c0-1.58 1.281-2.862 2.862-2.862h53.561c8.284 0 15 6.716 15 15v392.066c0 3.815-3.092 6.907-6.907 6.907z" fill="#b3adb5"/></g><circle cx="284.622" cy="239.921" fill="#fcf0b6" r="114.707"/><path d="m221.026 235.324c0-50.919 33.172-94.09 79.089-109.073-5.071-.685-10.235-1.037-15.493-1.037-63.351 0-114.707 51.356-114.707 114.707s51.356 114.707 114.707 114.707c12.432 0 24.409-1.98 35.62-5.638-56.018-7.569-99.216-55.573-99.216-113.666z" fill="#fbe88c"/><circle cx="284.622" cy="239.921" fill="#f5c374" r="80.824"/><path d="m252.288 314.018c-19.366-20.537-31.261-48.241-31.261-78.694 0-23.062 6.784-44.496 18.495-62.48-21.57 14.514-35.723 39.124-35.723 67.076-.001 33.132 19.96 61.619 48.489 74.098z" fill="#f3b658"/><path d="m324.771 260.542c0-11.224-5.874-21.095-14.703-26.721 4.139-4.904 6.64-11.231 6.64-18.135 0-11.623-7.078-21.622-17.149-25.918v-4.613c0-4.142-3.357-7.5-7.5-7.5s-7.5 3.358-7.5 7.5v2.369h-9.308v-2.369c0-4.142-3.357-7.5-7.5-7.5s-7.5 3.358-7.5 7.5v2.369h-7.231c-4.143 0-7.5 3.358-7.5 7.5s3.357 7.5 7.5 7.5h1.943v74.796h-1.943c-4.143 0-7.5 3.358-7.5 7.5s3.357 7.5 7.5 7.5h7.231v2.404c0 4.142 3.357 7.5 7.5 7.5s7.5-3.358 7.5-7.5v-2.457c3.092-.012 6.353-.024 9.308-.034v2.491c0 4.142 3.357 7.5 7.5 7.5s7.5-3.358 7.5-7.5v-3.174c14.376-2.992 25.212-15.757 25.212-31.008zm-36.225-31.694c-1.915 0-18.583.024-18.583.024v-26.349h18.583c7.258 0 13.162 5.904 13.162 13.162s-5.904 13.163-13.162 13.163zm4.556 48.364c-4.199 0-15.491.043-23.139.075v-33.38c2.807-.011 23.139-.035 23.139-.035 9.191 0 16.67 7.479 16.67 16.67s-7.479 16.67-16.67 16.67z" fill="#fcf0b6"/><g><g><path d="m131.879 157.597h-28.217c-4.143 0-7.5-3.358-7.5-7.5s3.357-7.5 7.5-7.5h28.217c4.143 0 7.5 3.358 7.5 7.5s-3.358 7.5-7.5 7.5z" fill="#efedee"/></g></g><g><g><path d="m131.879 190.919h-28.217c-4.143 0-7.5-3.358-7.5-7.5s3.357-7.5 7.5-7.5h28.217c4.143 0 7.5 3.358 7.5 7.5s-3.358 7.5-7.5 7.5z" fill="#efedee"/></g></g><g><g><path d="m131.879 224.241h-28.217c-4.143 0-7.5-3.358-7.5-7.5s3.357-7.5 7.5-7.5h28.217c4.143 0 7.5 3.358 7.5 7.5s-3.358 7.5-7.5 7.5z" fill="#efedee"/></g></g><g><g><path d="m131.879 257.563h-28.217c-4.143 0-7.5-3.358-7.5-7.5s3.357-7.5 7.5-7.5h28.217c4.143 0 7.5 3.358 7.5 7.5s-3.358 7.5-7.5 7.5z" fill="#efedee"/></g></g><g><g><path d="m131.879 290.885h-28.217c-4.143 0-7.5-3.358-7.5-7.5s3.357-7.5 7.5-7.5h28.217c4.143 0 7.5 3.358 7.5 7.5s-3.358 7.5-7.5 7.5z" fill="#efedee"/></g></g><g><g><path d="m131.879 324.206h-28.217c-4.143 0-7.5-3.358-7.5-7.5s3.357-7.5 7.5-7.5h28.217c4.143 0 7.5 3.358 7.5 7.5s-3.358 7.5-7.5 7.5z" fill="#efedee"/></g></g></g></g></svg>