<svg id="Capa_1" enable-background="new 0 0 512 512" height="512" viewBox="0 0 512 512" width="512" xmlns="http://www.w3.org/2000/svg"><g><path d="m361 374.422 15-36.797-15-48.047-75-75v-152.035c27.435 4.248 52.592 14.736 75 29.136l15-37.304-15-31.489c-32.065-14.566-67.546-22.886-105-22.886s-72.935 8.32-105 22.886l-15 34.301 15 34.492c22.408-14.399 47.565-24.888 75-29.136v152.035l-75 75-15 48.984 15 35.859 75-75v150.035c-27.371-4.239-52.661-14.381-75-28.733l-15 37.839 15 30.551c32.065 14.567 67.546 22.887 105 22.887s72.935-8.32 105-22.886l15-31.489-15-36.901c-22.339 14.352-47.629 24.494-75 28.733v-150.035z" fill="#fc6"/><path d="m376 457.625-15-36.901c-22.339 14.352-47.629 24.494-75 28.733v-150.035l75 75 15-36.797-15-48.047-75-75v-152.035c27.435 4.248 52.592 14.736 75 29.136l15-37.304-15-31.489c-32.065-14.566-67.546-22.886-105-22.886v512c37.454 0 72.935-8.32 105-22.886z" fill="#f93"/><path d="m124.622 400.8 26.378-26.378v-84.844l-64.16 64.16c-16.353-28.529-26.84-61.496-26.84-96.738 0-68.842 37.108-130.69 91-165.321v-68.793c-88.319 40.119-151 130.958-151 234.114s62.681 191.995 151 232.114v-68.39c-9.307-5.98-18.239-12.483-26.378-19.924z" fill="#97de3d"/><path d="m512 257c0-103.156-62.681-193.995-151-234.114v68.793c53.892 34.631 91 96.479 91 165.321 0 35.242-10.487 68.209-26.84 96.738l-64.16-64.16v84.844l26.378 26.378c-8.139 7.441-17.071 13.943-26.378 19.924v68.39c88.319-40.119 151-128.958 151-232.114z" fill="#e62e2e"/></g></svg>