<?xml version="1.0" encoding="iso-8859-1"?>
<!-- Generator: Adobe Illustrator 19.0.0, SVG Export Plug-In . SVG Version: 6.00 Build 0)  -->
<svg version="1.1" id="Capa_1" xmlns="http://www.w3.org/2000/svg" xmlns:xlink="http://www.w3.org/1999/xlink" x="0px" y="0px"
	 viewBox="0 0 346.497 346.497" style="enable-background:new 0 0 346.497 346.497;" xml:space="preserve">
<path style="fill:#68AA00;" d="M167.249,70.77c0,0,4.4-35.6,21.6-49.6s29.2-15.2,29.2-15.2l19.2,20.4c0,0-49.6,15.2-52.8,61.2
	C181.649,133.97,167.249,70.77,167.249,70.77z"/>
<path style="fill:#F27503;" d="M339.249,144.77c14.8,45.2,5.6,99.2-24.8,140.8c-11.6,16.4-25.6,29.2-40.4,37.6
	c-14.8,8.8-30.4,13.2-46,13.2c-8,0-16.4-1.2-24.4-3.6l-2.8-0.8l-2.4,1.6c-14.4,9.6-34,9.2-48.4-0.8l-2.4-1.6l-2.8,0.8
	c-8.8,3.2-17.6,4.8-26.8,4.8c-31.2,0-62.8-18.8-86.4-51.2c-30-41.6-39.6-95.6-24.8-140.8c18.8-55.6,60.8-67.6,92.8-67.6
	c25.2,0,45.2,7.2,45.6,7.2l2.8,1.2l2.4-1.6c14.4-10,34-10.4,48.4-0.8l2.4,1.6l2.4-0.8c6.4-2,22.8-6.4,42.8-6.4
	C278.849,77.17,320.849,89.17,339.249,144.77z"/>
<g>
	<path style="fill:#D35C02;" d="M198.849,333.57l2.4-1.6c-1.2,0.8-2,1.2-3.2,2C198.449,333.97,198.849,333.57,198.849,333.57z"/>
	<path style="fill:#D35C02;" d="M201.249,331.97l2.8,0.8c8,2.4,16,3.6,24.4,3.6c15.6,0,31.6-4.8,46-13.2
		c14.8-8.8,28.4-21.6,40.4-37.6c30-41.6,39.6-95.6,24.8-140.8c-18.8-55.6-60.8-67.6-92.8-67.6c-20,0-36.8,4.4-42.8,6.4l-2.8,0.8
		c0,0,47.2,16.8,70.4,52.4C298.849,178.37,314.449,285.57,201.249,331.97z"/>
</g>
<g>
	<path style="fill:#231F20;" d="M116.049,183.57c6.8,0,12.4,4.4,16.8,11.6c3.6-6.4,6-14.8,6-24c0-19.6-10-35.6-22.8-35.6
		c-12.4,0-22.8,16-22.8,35.6c0,9.2,2.4,17.6,6,24C103.649,187.97,109.249,183.57,116.049,183.57z"/>
	<path style="fill:#231F20;" d="M235.649,183.57c6.8,0,13.2,4.8,17.6,12c4-6.4,6.4-15.2,6.4-24.8c0-20.4-10.4-36.8-23.6-36.8
		s-23.6,16.4-23.6,36.8c0,9.6,2.4,18.4,6.4,24.8C222.449,188.37,228.849,183.57,235.649,183.57z"/>
	<ellipse style="fill:#231F20;" cx="176.449" cy="247.17" rx="20.4" ry="32"/>
</g>
<g>
</g>
<g>
</g>
<g>
</g>
<g>
</g>
<g>
</g>
<g>
</g>
<g>
</g>
<g>
</g>
<g>
</g>
<g>
</g>
<g>
</g>
<g>
</g>
<g>
</g>
<g>
</g>
<g>
</g>
</svg>
