<svg id="Capa_1" enable-background="new 0 0 512 512" height="512" viewBox="0 0 512 512" width="512" xmlns="http://www.w3.org/2000/svg"><g><path d="m327.077 305.602 19.449 77.795c2.908 11.632-.5 23.936-8.978 32.414l-73.568 73.568c-3.333 3.332-8.736 3.332-12.068 0l-6.034-6.034c-13.33-13.33-13.33-34.942 0-48.272l37.538-37.537c4.571-4.571 6.167-11.332 4.123-17.465l-8.733-26.197-120.681-120.679-26.197-8.732c-6.133-2.044-12.894-.448-17.465 4.123l-37.537 37.538c-13.33 13.33-34.942 13.33-48.272 0l-6.034-6.034c-3.333-3.332-3.333-8.735 0-12.068l73.568-73.568c8.478-8.478 20.783-11.886 32.415-8.978l77.795 19.449z" fill="#d83131"/><g fill="#c41926"><path d="m114.152 218.544c-6.133-2.044-12.894-.448-17.465 4.123l-37.537 37.538c-7.041 7.041-16.393 10.359-25.614 9.962 13.291 9.103 31.586 7.76 43.39-4.044l37.537-37.538c4.524-4.524 11.194-6.128 17.276-4.178z"/><path d="m346.525 383.397-19.449-77.795-63.91-63.91-11.847 11.847 52.063 52.063 19.449 77.795c2.908 11.632-.5 23.937-8.978 32.415l-67.755 67.755 5.813 5.813c3.332 3.332 8.735 3.332 12.068 0l73.568-73.568c8.478-8.478 11.886-20.783 8.978-32.415z"/></g><g fill="#fedf30"><path d="m106.489 429.647c6.665-6.665 6.665-17.471 0-24.136s-17.471-6.665-24.136 0l-77.354 77.354c-6.665 6.665-6.665 17.471 0 24.136s17.471 6.665 24.136 0z"/><path d="m177.255 454.211c6.665-6.665 6.665-17.471 0-24.136s-17.471-6.665-24.136 0l-52.79 52.79c-6.665 6.665-6.665 17.471 0 24.136s17.471 6.665 24.136 0z"/><path d="m81.924 358.881c6.665-6.665 6.665-17.471 0-24.136s-17.471-6.665-24.136 0l-52.79 52.79c-6.665 6.665-6.665 17.471 0 24.136s17.471 6.665 24.136 0z"/></g><path d="m444.743 71.314-103.968-20.77-203.51 203.51c-6.665 6.665-6.665 17.471 0 24.136l96.544 96.544c6.665 6.665 17.471 6.665 24.136 0l203.51-203.51z" fill="#f8f6f6"/><path d="m442.12 166.865-207.87 207.869c-.071.071-.149.13-.221.199 6.68 6.454 17.321 6.394 23.915-.199l203.51-203.51-3.766-22.516c-4.687 6.38-9.872 12.46-15.568 18.157z" fill="#e2e2e2"/><circle cx="324.266" cy="187.733" fill="#444" r="51.2"/><path d="m137.265 278.191-23.105 7.702c-6.018 2.006-7.821 9.644-3.335 14.129l38.509 38.509 24.136 24.136 38.509 38.509c4.486 4.486 12.123 2.682 14.129-3.336l7.702-23.105z" fill="#444"/><circle cx="324.266" cy="187.733" fill="#daebfe" r="17.067"/><path d="m507.289 17.129c-1.529-6.115-6.303-10.889-12.418-12.418h-.001c-53.731-13.433-110.572 2.311-149.736 41.475l-4.359 4.359 120.68 120.68 4.359-4.359c39.164-39.165 54.908-96.005 41.475-149.737z" fill="#d83131"/><path d="m461.455 171.224 4.359-4.359c39.163-39.164 54.907-96.004 41.475-149.736-1.529-6.115-6.303-10.889-12.418-12.418h-.001c-16.617-4.154-33.53-5.511-50.127-4.254 8.834.664 17.675 2.065 26.433 4.254 6.115 1.529 10.889 6.303 12.418 12.418 12.572 50.289-.417 103.299-34.241 141.994z" fill="#c41926"/><path d="m360.47 151.529c-13.033-13.033-31.343-17.564-48.051-13.606 8.926 2.114 17.395 6.645 24.357 13.606 19.995 19.995 19.995 52.413 0 72.408-6.962 6.962-15.431 11.493-24.357 13.607 16.708 3.957 35.018-.574 48.051-13.607 19.995-19.995 19.995-52.413 0-72.408z" fill="#333"/><path d="m221.938 362.911-7.702 23.105c-1.951 5.854-9.223 7.701-13.747 3.671l11.488 11.488c4.486 4.486 12.123 2.682 14.129-3.336l7.702-23.105z" fill="#333"/><path d="m336.334 175.665c-6.594-6.594-17.235-6.653-23.915-.2.072.069.15.129.221.2 6.665 6.665 6.665 17.471 0 24.136-.071.071-.149.13-.221.2 6.68 6.454 17.321 6.394 23.915-.2 6.665-6.665 6.665-17.471 0-24.136z" fill="#bdd6ff"/><path d="m201.946 216.993h15.453v170.667h-15.453z" fill="#e2e2e2" transform="matrix(.707 -.707 .707 .707 -152.366 236.812)"/><path d="m143.676 381.145-12.822-12.822c-3.124-3.124-3.124-8.19 0-11.314l112.501-112.501c6.248-6.248 16.379-6.248 22.627 0l1.509 1.508c6.248 6.248 6.248 16.379 0 22.627l-112.501 112.502c-3.124 3.125-8.189 3.125-11.314 0z" fill="#d83131"/><path d="m267.15 245.675-.826-.826c-6.437-6.437-16.873-6.437-23.31 0l-.192.192.634.634c6.437 6.437 6.437 16.873 0 23.31l-100.2 100.2c-2.954 2.954-7.59 3.189-10.821.719l11.07 11.07c3.218 3.218 8.437 3.218 11.655 0l111.99-111.988c6.437-6.437 6.437-16.874 0-23.311z" fill="#c41926"/><path d="m106.489 405.511c-6.594-6.594-17.235-6.653-23.915-.2.072.069.15.129.221.2 6.665 6.665 6.665 17.471 0 24.136l-77.355 77.354c-.071.071-.149.13-.221.2 6.68 6.453 17.321 6.394 23.915-.2l77.354-77.354c6.666-6.665 6.666-17.471.001-24.136z" fill="#fec526"/><path d="m177.255 430.075c-6.594-6.594-17.235-6.653-23.915-.199.072.069.15.129.221.199 6.665 6.665 6.665 17.471 0 24.136l-52.79 52.79c-.071.071-.149.13-.221.2 6.68 6.453 17.321 6.394 23.915-.2l52.79-52.79c6.665-6.665 6.665-17.471 0-24.136z" fill="#fec526"/><path d="m81.924 334.745c-6.594-6.594-17.235-6.653-23.915-.2.072.07.15.129.221.2 6.665 6.665 6.665 17.471 0 24.136l-52.79 52.789c-.071.071-.149.13-.221.2 6.68 6.453 17.321 6.394 23.915-.2l52.79-52.79c6.665-6.664 6.665-17.47 0-24.135z" fill="#fec526"/></g></svg>