<?xml version="1.0" encoding="UTF-8"?>
<svg xmlns="http://www.w3.org/2000/svg" xmlns:xlink="http://www.w3.org/1999/xlink" xmlns:svgjs="http://svgjs.com/svgjs" version="1.1" width="512" height="512" x="0" y="0" viewBox="0 0 512 512" style="enable-background:new 0 0 512 512" xml:space="preserve" class="">
  <g>
    <path xmlns="http://www.w3.org/2000/svg" d="m504 10.055h-496c-4.418 0-8 3.582-8 8v318.188c0 4.418 3.582 8 8 8h63.962c-.584 4.079-.883 8.229-.883 12.427 0 47.951 39.01 86.962 86.96 86.962h198.722v19.242c0 1.167.255 2.319.748 3.377 5.81 12.479 25.63 19.037 39.171 19.037.132 0 .263-.001.394-.002 5.538 5.117 12.549 8.362 20.124 9.253.31.036.621.055.934.055h27.9c2.572 4.475 7.321 7.352 12.991 7.352 8.471 0 14.858-6.428 14.858-14.951v-.761h30.119c4.418 0 8-3.582 8-8s-3.582-8-8-8h-30.119v-64.101h30.119c4.418 0 8-3.582 8-8s-3.582-8-8-8h-30.119v-.762c0-4.384-1.694-8.307-4.771-11.046-2.68-2.387-6.218-3.701-9.964-3.701-5.671 0-10.428 2.794-13.036 7.148h-27.979c-.313 0-.624.019-.934.055-7.576.891-14.587 4.136-20.124 9.252-13.52-.115-33.699 6.437-39.564 19.035-.493 1.058-.748 2.21-.748 3.377v14.141h-198.722c-39.128 0-70.96-31.833-70.96-70.962 0-4.213.371-8.367 1.09-12.427h415.831c4.418 0 8-3.582 8-8v-318.188c0-4.418-3.582-8-8-8zm-131.239 405.634c3.987-4.996 17.902-9.644 26.388-8.466 2.693.373 5.396-.651 7.168-2.717 3.161-3.686 7.523-6.066 12.322-6.734h33.321c2.346 0 4.457-1.031 5.921-2.659l-.003 86.097c-1.464-1.607-3.573-2.616-5.918-2.616h-33.321c-4.799-.668-9.16-3.049-12.322-6.735-1.772-2.066-4.476-3.093-7.168-2.717-8.484 1.181-22.4-3.469-26.388-8.465zm123.239-87.446h-402.973c4.006-9.113 9.952-17.363 17.576-24.22h96.235c4.418 0 8-3.582 8-8v-36.627c0-4.418-3.582-8-8-8h-97.6c-4.418 0-8 3.582-8 8v31.549c-11.787 10.177-20.452 23.022-25.396 37.298h-59.842v-302.188h480zm-337.961-58.533c-14.433 0-28.305 3.5-40.8 10.211v-12.524h81.6v20.627h-58.773c5.805-1.525 11.826-2.313 17.973-2.313 4.418 0 8-3.582 8-8s-3.582-8.001-8-8.001zm199.961 11.438c57.346 0 104-46.654 104-104s-46.654-104-104-104-104 46.654-104 104 46.654 104 104 104zm-67.595-160.28 12.798 12.799c-7.938 9.983-13.21 22.167-14.733 35.482h-18.103c1.654-18.267 8.911-34.94 20.038-48.281zm155.227 48.281h-18.102c-1.522-13.315-6.795-25.5-14.733-35.483l12.798-12.798c11.127 13.342 18.384 30.014 20.037 48.281zm-20.037 64.281-12.798-12.798c7.938-9.983 13.211-22.168 14.733-35.483h18.102c-1.653 18.267-8.91 34.939-20.037 48.281zm-67.595-76.282c11.028 0 20.001 8.972 20.001 20.001s-8.973 20.001-20.001 20.001-20.001-8.972-20.001-20.001 8.973-20.001 20.001-20.001zm-19.149 50.464c3.381 2.133 7.138 3.716 11.149 4.63v18.31c-8.925-1.331-17.142-4.854-24.087-10.003zm27.149 4.631c4.011-.914 7.769-2.498 11.149-4.63l12.938 12.938c-6.945 5.148-15.163 8.671-24.088 10.002v-18.31zm22.463-15.945c2.133-3.381 3.716-7.138 4.63-11.149h18.311c-1.332 8.925-4.854 17.142-10.003 24.088zm4.631-27.149c-.914-4.011-2.498-7.768-4.63-11.149l12.939-12.938c5.148 6.946 8.671 15.163 10.002 24.088h-18.311zm-15.944-22.463c-3.381-2.133-7.138-3.717-11.15-4.631v-18.31c8.925 1.331 17.143 4.854 24.088 10.003zm-27.15-4.631c-4.012.914-7.769 2.498-11.149 4.631l-12.938-12.938c6.945-5.149 15.162-8.672 24.087-10.003zm-22.463 15.945c-2.133 3.381-3.716 7.138-4.63 11.149h-18.31c1.332-8.925 4.854-17.142 10.002-24.087zm-4.631 27.149c.914 4.011 2.498 7.769 4.63 11.149l-12.938 12.938c-5.148-6.946-8.671-15.163-10.002-24.088h18.31zm-8.388 46.797c9.983 7.938 22.167 13.21 35.482 14.733v18.102c-18.267-1.654-34.939-8.91-48.28-20.037zm51.482 14.733c13.315-1.523 25.5-6.795 35.483-14.733l12.798 12.798c-13.341 11.127-30.014 18.383-48.281 20.037zm35.483-124.327c-9.983-7.938-22.168-13.211-35.483-14.733v-18.103c18.267 1.654 34.94 8.911 48.281 20.038zm-51.483-14.733c-13.315 1.523-25.5 6.795-35.482 14.733l-12.798-12.799c13.341-11.126 30.013-18.383 48.28-20.037zm-61.529 77.53c1.522 13.315 6.795 25.5 14.733 35.483l-12.798 12.799c-11.127-13.341-18.384-30.014-20.038-48.281h18.103zm-234.972-96.095c14.061 0 25.5-11.439 25.5-25.5s-11.439-25.5-25.5-25.5-25.5 11.439-25.5 25.5 11.439 25.5 25.5 25.5zm0-35c5.238 0 9.5 4.262 9.5 9.5s-4.262 9.5-9.5 9.5-9.5-4.262-9.5-9.5 4.262-9.5 9.5-9.5zm405.002 35c14.061 0 25.5-11.439 25.5-25.5s-11.439-25.5-25.5-25.5-25.5 11.439-25.5 25.5 11.439 25.5 25.5 25.5zm0-35c5.238 0 9.5 4.262 9.5 9.5s-4.262 9.5-9.5 9.5-9.5-4.262-9.5-9.5 4.262-9.5 9.5-9.5zm-405.002 262.19c14.061 0 25.5-11.439 25.5-25.5s-11.439-25.5-25.5-25.5-25.5 11.439-25.5 25.5 11.439 25.5 25.5 25.5zm0-35c5.238 0 9.5 4.262 9.5 9.5s-4.262 9.5-9.5 9.5-9.5-4.262-9.5-9.5 4.262-9.5 9.5-9.5zm405.002-16c-14.061 0-25.5 11.439-25.5 25.5s11.439 25.5 25.5 25.5 25.5-11.439 25.5-25.5-11.439-25.5-25.5-25.5zm0 35c-5.238 0-9.5-4.262-9.5-9.5s4.262-9.5 9.5-9.5 9.5 4.262 9.5 9.5-4.262 9.5-9.5 9.5zm-365.85-115.469h114.188c4.418 0 8-3.582 8-8v-73.252c0-4.418-3.582-8-8-8h-114.188c-4.418 0-8 3.582-8 8v73.252c0 4.419 3.582 8 8 8zm8-73.252h98.188v57.252h-98.188z" fill="#2499ef" data-original="#000000" class=""/>
  </g>
</svg>
