<?xml version="1.0" encoding="UTF-8"?>
<svg xmlns="http://www.w3.org/2000/svg" xmlns:xlink="http://www.w3.org/1999/xlink" xmlns:svgjs="http://svgjs.com/svgjs" version="1.1" width="512" height="512" x="0" y="0" viewBox="0 0 512 512" style="enable-background:new 0 0 512 512" xml:space="preserve" class="">
  <g>
    <path xmlns="http://www.w3.org/2000/svg" d="m504 0h-496c-4.418 0-8 3.582-8 8v496c0 4.418 3.582 8 8 8h496c4.418 0 8-3.582 8-8v-496c0-4.418-3.582-8-8-8zm-8 496h-480v-480h480zm-336.27-273.169c-4.418 0-8 3.582-8 8s3.582 8 8 8h13.531v16.402c0 4.418 3.582 8 8 8h16.402v13.532c0 4.418 3.582 8 8 8s8-3.582 8-8v-13.532h9.169v13.532c0 4.418 3.582 8 8 8s8-3.582 8-8v-13.532h9.168v13.532c0 4.418 3.582 8 8 8s8-3.582 8-8v-13.532h9.168v13.532c0 4.418 3.582 8 8 8s8-3.582 8-8v-13.532h9.168v13.532c0 4.418 3.582 8 8 8s8-3.582 8-8v-13.532h16.402c4.418 0 8-3.581 8-8v-16.402h13.531c4.418 0 8-3.582 8-8s-3.582-8-8-8h-13.531v-9.169h13.531c4.418 0 8-3.582 8-8s-3.582-8-8-8h-13.531v-9.168h13.531c4.418 0 8-3.582 8-8s-3.582-8-8-8h-13.531v-9.168h13.531c4.418 0 8-3.582 8-8s-3.582-8-8-8h-13.531v-9.168h13.531c4.418 0 8-3.582 8-8s-3.582-8-8-8h-13.531v-16.402c0-4.418-3.582-8-8-8h-16.402v-13.532c0-4.418-3.582-8-8-8s-8 3.582-8 8v13.532h-9.168v-13.532c0-4.418-3.582-8-8-8s-8 3.582-8 8v13.532h-9.168v-13.532c0-4.418-3.582-8-8-8s-8 3.582-8 8v13.532h-9.168v-13.532c0-4.418-3.582-8-8-8s-8 3.582-8 8v13.532h-9.168v-13.532c0-4.418-3.582-8-8-8s-8 3.582-8 8v13.532h-16.402c-4.418 0-8 3.582-8 8v16.402h-13.532c-4.418 0-8 3.582-8 8s3.582 8 8 8h13.531v9.168h-13.531c-4.418 0-8 3.582-8 8s3.582 8 8 8h13.531v9.168h-13.531c-4.418 0-8 3.582-8 8s3.582 8 8 8h13.531v9.168h-13.531c-4.418 0-8 3.582-8 8s3.582 8 8 8h13.531v9.168h-13.531zm29.531-109.076h133.478v133.478h-133.478zm262.905-24.383c16.287 0 29.537-13.25 29.537-29.537s-13.25-29.537-29.537-29.537-29.537 13.25-29.537 29.537 13.25 29.537 29.537 29.537zm0-43.074c7.464 0 13.537 6.072 13.537 13.537s-6.073 13.537-13.537 13.537-13.537-6.073-13.537-13.537 6.072-13.537 13.537-13.537zm-392.331 43.074c16.287 0 29.537-13.25 29.537-29.537s-13.25-29.537-29.537-29.537-29.537 13.25-29.537 29.537 13.25 29.537 29.537 29.537zm0-43.074c7.464 0 13.537 6.072 13.537 13.537s-6.072 13.537-13.537 13.537-13.537-6.073-13.537-13.537 6.073-13.537 13.537-13.537zm392.331 376.33c-16.287 0-29.537 13.25-29.537 29.537s13.25 29.537 29.537 29.537 29.537-13.25 29.537-29.537-13.251-29.537-29.537-29.537zm0 43.074c-7.464 0-13.537-6.072-13.537-13.537s6.072-13.537 13.537-13.537 13.537 6.072 13.537 13.537-6.073 13.537-13.537 13.537zm-392.331 16c16.287 0 29.537-13.25 29.537-29.537s-13.25-29.537-29.537-29.537-29.537 13.25-29.537 29.537 13.25 29.537 29.537 29.537zm0-43.074c7.464 0 13.537 6.072 13.537 13.537s-6.072 13.537-13.537 13.537-13.537-6.072-13.537-13.537 6.073-13.537 13.537-13.537zm42.165-203.633v-92c0-4.418 3.582-8 8-8s8 3.582 8 8v92c0 4.418-3.582 8-8 8s-8-3.582-8-8zm-23 8c-4.418 0-8-3.582-8-8v-92c0-4.418 3.582-8 8-8s8 3.582 8 8v92c0 4.418-3.582 8-8 8zm354-108c4.418 0 8 3.582 8 8v92c0 4.418-3.582 8-8 8s-8-3.582-8-8v-92c0-4.419 3.582-8 8-8zm-39 100v-92c0-4.418 3.582-8 8-8s8 3.582 8 8v92c0 4.418-3.582 8-8 8s-8-3.582-8-8zm-46.803 131c0 4.418-3.582 8-8 8h-270.697c-4.418 0-8-3.582-8-8s3.582-8 8-8h270.698c4.418 0 7.999 3.582 7.999 8zm0-31.001c0 4.418-3.582 8-8 8h-270.697c-4.418 0-8-3.582-8-8s3.582-8 8-8h270.698c4.418 0 7.999 3.582 7.999 8zm19.616-11.92h8.132v9.169h-8.132c-4.418 0-8 3.582-8 8s3.582 8 8 8h8.132v9.169h-8.132c-4.418 0-8 3.582-8 8s3.582 8 8 8h8.227c.51 3.482 3.257 6.23 6.74 6.74v8.226c0 4.418 3.582 8 8 8s8-3.582 8-8v-8.132h9.168v8.132c0 4.418 3.582 8 8 8s8-3.582 8-8v-8.132h9.169v8.132c0 4.418 3.582 8 8 8s8-3.582 8-8v-8.226c3.482-.51 6.229-3.257 6.74-6.74h8.227c4.418 0 8-3.582 8-8s-3.582-8-8-8h-8.132v-9.169h8.132c4.418 0 8-3.582 8-8s-3.582-8-8-8h-8.132v-9.169h8.132c4.418 0 8-3.582 8-8s-3.582-8-8-8h-8.227c-.51-3.482-3.257-6.23-6.74-6.74v-8.226c0-4.418-3.582-8-8-8s-8 3.582-8 8v8.132h-9.169v-8.132c0-4.418-3.582-8-8-8s-8 3.582-8 8v8.132h-9.168v-8.132c0-4.418-3.582-8-8-8s-8 3.582-8 8v8.226c-3.482.51-6.229 3.257-6.74 6.74h-8.227c-4.418 0-8 3.582-8 8s3.582 8 8 8zm72.138-6.834v48.006h-48.005v-48.006z" fill="#ff6b93" data-original="#000000" class=""/>
  </g>
</svg>
