<?xml version="1.0"?>
<svg xmlns="http://www.w3.org/2000/svg" xmlns:xlink="http://www.w3.org/1999/xlink" xmlns:svgjs="http://svgjs.com/svgjs" version="1.1" width="512" height="512" x="0" y="0" viewBox="0 0 512 512" style="enable-background:new 0 0 512 512" xml:space="preserve" class=""><g><path xmlns="http://www.w3.org/2000/svg" d="m479 0h-446c-18.196 0-33 14.804-33 33v446c0 18.196 14.804 33 33 33h446c18.196 0 33-14.804 33-33v-446c0-18.196-14.804-33-33-33zm17 479c0 9.374-7.626 17-17 17h-446c-9.374 0-17-7.626-17-17v-446c0-9.374 7.626-17 17-17h446c9.374 0 17 7.626 17 17zm-28-443h-424c-4.418 0-8 3.582-8 8v424c0 4.418 3.582 8 8 8h424c4.418 0 8-3.582 8-8v-424c0-4.418-3.582-8-8-8zm-8 424h-408v-408h408zm-204-50.751c84.501 0 153.249-68.747 153.249-153.249s-68.747-153.249-153.249-153.249-153.249 68.747-153.249 153.249 68.748 153.249 153.249 153.249zm85.037-260.904c-15.75 2.883-30.731 9.063-43.998 18.227-15.623 10.791-28.238 25.259-36.792 42.082-1.4-.125-2.814-.2-4.246-.2-5.705 0-11.178 1.012-16.251 2.863-9.184-32.108-1.208-67.462 21.339-92.462 30.119 1.104 57.793 11.953 79.948 29.49zm51.28 91.704c-13.192-9.122-28.178-15.359-44.065-18.265-18.681-3.416-37.838-2.104-55.787 3.747-4.445-5.311-10.027-9.636-16.367-12.606 16.195-29.18 46.801-48.535 80.395-50.299 19.378 20.843 32.367 47.697 35.824 77.423zm-221.353 123.606c15.75-2.884 30.731-9.063 43.998-18.227 15.623-10.791 28.237-25.26 36.792-42.082 1.4.125 2.815.2 4.247.2 5.705 0 11.178-1.012 16.25-2.862 9.184 32.108 1.208 67.462-21.339 92.462-30.12-1.105-57.793-11.954-79.948-29.491zm53.491-107.655c0-17.394 14.151-31.545 31.546-31.545 17.394 0 31.545 14.151 31.545 31.545s-14.151 31.545-31.546 31.545c-17.394 0-31.545-14.151-31.545-31.545zm65.761 92.251c3.417-18.682 2.104-37.838-3.747-55.787 5.311-4.445 9.636-10.027 12.606-16.367 29.18 16.195 48.535 46.801 50.299 80.394-20.843 19.38-47.698 32.369-77.423 35.825 9.122-13.191 15.36-28.177 18.265-44.065zm55.212-51.212c-10.791-15.622-25.259-28.237-42.082-36.792.125-1.4.2-2.815.2-4.247 0-5.705-1.012-11.178-2.863-16.251 32.108-9.184 67.461-1.207 92.462 21.339-1.104 30.12-11.953 57.794-29.49 79.949-2.884-15.751-9.063-30.731-18.227-43.998zm-123.644-133.29c-3.417 18.682-2.104 37.839 3.747 55.788-5.311 4.445-9.636 10.027-12.606 16.367-29.18-16.194-48.535-46.8-50.299-80.394 20.843-19.38 47.697-32.369 77.423-35.826-9.122 13.191-15.36 28.177-18.265 44.065zm-55.212 51.212c10.791 15.623 25.259 28.237 42.082 36.792-.125 1.4-.2 2.815-.2 4.247 0 5.705 1.012 11.178 2.863 16.251-32.107 9.184-67.461 1.207-92.462-21.338 1.104-30.12 11.953-57.793 29.49-79.949 2.884 15.75 9.063 30.731 18.227 43.997zm-2.823 75.255c6.814 1.246 13.69 1.865 20.549 1.865 11.949 0 23.841-1.886 35.245-5.604 4.444 5.307 10.023 9.629 16.36 12.598-16.194 29.18-46.8 48.535-80.394 50.299-19.38-20.843-32.369-47.697-35.826-77.423 13.192 9.122 28.178 15.36 44.066 18.265zm-69.249-168.716c14.888 0 27-12.112 27-27s-12.112-27-27-27-27 12.112-27 27 12.113 27 27 27zm0-38c6.065 0 11 4.935 11 11s-4.935 11-11 11-11-4.935-11-11 4.935-11 11-11zm323 38c14.888 0 27-12.112 27-27s-12.112-27-27-27-27 12.112-27 27 12.112 27 27 27zm0-38c6.065 0 11 4.935 11 11s-4.935 11-11 11c-6.066 0-11-4.935-11-11s4.935-11 11-11zm-323 361c14.888 0 27-12.112 27-27s-12.112-27-27-27-27 12.112-27 27 12.113 27 27 27zm0-38c6.065 0 11 4.935 11 11s-4.935 11-11 11-11-4.935-11-11 4.935-11 11-11zm323-16c-14.888 0-27 12.112-27 27s12.112 27 27 27 27-12.112 27-27-12.112-27-27-27zm0 38c-6.066 0-11-4.935-11-11s4.935-11 11-11 11 4.935 11 11-4.934 11-11 11z" fill="#ff9777" data-original="#000000" class=""/></g></svg>
