<?xml version="1.0" encoding="UTF-8"?>
<svg xmlns="http://www.w3.org/2000/svg" xmlns:xlink="http://www.w3.org/1999/xlink" xmlns:svgjs="http://svgjs.com/svgjs" version="1.1" width="512" height="512" x="0" y="0" viewBox="0 0 512 512" style="enable-background:new 0 0 512 512" xml:space="preserve" class="">
  <g>
    <path xmlns="http://www.w3.org/2000/svg" d="m482.807 132.033h-416.747v-31.976c0-4.418-3.582-8-8-8h-50.06c-4.418 0-8 3.582-8 8s3.582 8 8 8h42.06v56.593h-18.713c-4.418 0-8 3.582-8 8v63.691c0 4.418 3.582 8 8 8h18.713v19.21h-18.713c-4.418 0-8 3.582-8 8v63.691c0 4.418 3.582 8 8 8h18.713v68.699c0 4.418 3.582 8 8 8s8-3.582 8-8v-36.081h30.802v32.508c0 4.418 3.582 8 8 8h111.592c4.418 0 8-3.582 8-8v-32.508h26.387v32.508c0 4.418 3.582 8 8 8h198.358c4.418 0 8-3.582 8-8v-32.508h17.608c16.097 0 29.193-13.096 29.193-29.193v-185.44c0-16.098-13.096-29.194-29.193-29.194zm-443.46 96.309v-47.692h10.713v47.691h-10.713zm0 98.901v-47.691h10.713v47.691zm169.107 73.125h-21.198v-10.103c0-4.418-3.582-8-8-8s-8 3.582-8 8v10.103h-21.197v-10.103c0-4.418-3.582-8-8-8s-8 3.582-8 8v10.103h-21.197v-24.508h95.592zm240.745 0h-17.062v-10.103c0-4.418-3.582-8-8-8s-8 3.582-8 8v10.103h-17.059v-10.103c0-4.418-3.582-8-8-8s-8 3.582-8 8v10.103h-17.06v-10.103c0-4.418-3.582-8-8-8s-8 3.582-8 8v10.103h-17.059v-10.103c0-4.418-3.582-8-8-8s-8 3.582-8 8v10.103h-17.059v-10.103c0-4.418-3.582-8-8-8s-8 3.582-8 8v10.103h-17.06v-24.508h182.358v24.508zm46.801-53.701c0 7.274-5.918 13.193-13.193 13.193h-416.747v-24.607c0-.003 0-.007 0-.01s0-.006 0-.01v-63.672c0-.003 0-.007 0-.01s0-.006 0-.01v-35.19c0-.003 0-.007 0-.01s0-.006 0-.01v-63.671c0-.003 0-.007 0-.01s0-.006 0-.01v-24.607h416.747c7.275 0 13.193 5.919 13.193 13.193zm-110.99-185.502c-51.16 0-92.782 41.621-92.782 92.781s41.622 92.781 92.782 92.781 92.781-41.621 92.781-92.781-41.621-92.781-92.781-92.781zm-41.818 157.126c17.407-5.223 32.416-17.168 41.284-33.275.178.003.355.014.534.014 2.446 0 4.823-.293 7.107-.83 3.553 16.244-.643 33.591-11.516 46.392-13.744-.782-26.524-5.203-37.409-12.301zm-33.3-48.457c10.281 5.547 21.821 8.447 33.451 8.447 6.489 0 13.003-.909 19.337-2.746 1.781 1.841 3.783 3.464 5.969 4.823-8.966 13.989-24.18 23.285-40.903 24.663-8.757-9.807-15.039-21.862-17.854-35.187zm116.937-80.231c-17.408 5.223-32.417 17.168-41.285 33.275-.178-.003-.355-.014-.534-.014-2.446 0-4.823.293-7.107.829-3.553-16.245.644-33.592 11.517-46.393 13.745.783 26.524 5.204 37.409 12.303zm-41.819 79.426c-8.317 0-15.083-6.767-15.083-15.083s6.766-15.082 15.083-15.082c8.316 0 15.083 6.766 15.083 15.082s-6.766 15.083-15.083 15.083zm-21.588-37.414c-1.841 1.781-3.465 3.784-4.824 5.969-13.989-8.966-23.285-24.18-24.663-40.904 9.803-8.752 21.853-15.032 35.171-17.849-8.638 16.017-10.813 35.102-5.684 52.784zm-9.481 21.799c-.003.178-.014.354-.014.533 0 2.446.293 4.823.83 7.108-16.245 3.552-33.592-.645-46.393-11.517.782-13.745 5.203-26.524 12.302-37.41 5.223 17.407 17.168 32.417 33.275 41.286zm52.657 22.864c1.841-1.781 3.465-3.783 4.824-5.969 13.989 8.966 23.285 24.18 24.662 40.904-9.803 8.752-21.853 15.032-35.17 17.849 8.638-16.017 10.813-35.103 5.684-52.784zm9.481-21.798c.003-.178.014-.355.014-.534 0-2.445-.293-4.822-.829-7.106 16.245-3.552 33.592.645 46.392 11.517-.782 13.744-5.203 26.524-12.302 37.409-5.223-17.408-17.168-32.417-33.275-41.286zm-8.737-22.12c-1.781-1.842-3.784-3.465-5.969-4.824 8.966-13.989 24.18-23.286 40.904-24.663 8.752 9.803 15.032 21.853 17.849 35.171-16.017-8.64-35.103-10.814-52.784-5.684zm-230.291-71.195c-51.16 0-92.781 41.621-92.781 92.781s41.622 92.781 92.781 92.781 92.781-41.621 92.781-92.781-41.622-92.781-92.781-92.781zm-41.818 157.125c17.407-5.223 32.416-17.168 41.284-33.275.178.003.355.014.534.014 2.446 0 4.823-.293 7.107-.829 3.553 16.244-.643 33.591-11.516 46.392-13.745-.782-26.524-5.203-37.409-12.302zm-33.3-48.455c10.281 5.547 21.821 8.446 33.45 8.446 6.489 0 13.003-.909 19.337-2.746 1.78 1.841 3.783 3.464 5.968 4.823-8.966 13.989-24.18 23.285-40.903 24.663-8.755-9.807-15.037-21.862-17.852-35.186zm116.937-80.232c-17.408 5.223-32.417 17.168-41.286 33.275-.178-.003-.355-.014-.534-.014-2.445 0-4.823.293-7.106.829-3.553-16.245.644-33.592 11.517-46.393 13.744.783 26.523 5.204 37.409 12.303zm-41.82 79.426c-8.316 0-15.083-6.767-15.083-15.083s6.766-15.082 15.083-15.082 15.083 6.766 15.083 15.082-6.766 15.083-15.083 15.083zm-21.587-37.414c-1.842 1.781-3.465 3.784-4.824 5.97-13.988-8.966-23.285-24.18-24.662-40.904 9.803-8.752 21.853-15.032 35.171-17.849-8.639 16.016-10.814 35.101-5.685 52.783zm-9.482 21.799c-.003.178-.013.354-.013.533 0 2.446.293 4.823.83 7.108-16.245 3.552-33.591-.645-46.392-11.516.782-13.745 5.203-26.525 12.302-37.41 5.222 17.407 17.166 32.416 33.273 41.285zm52.657 22.864c1.841-1.781 3.465-3.784 4.824-5.969 13.989 8.966 23.285 24.18 24.663 40.904-9.803 8.752-21.853 15.032-35.171 17.849 8.639-16.017 10.813-35.103 5.684-52.784zm9.481-21.798c.003-.178.014-.354.014-.533 0-2.445-.293-4.822-.829-7.106 16.245-3.552 33.592.645 46.393 11.517-.783 13.744-5.203 26.524-12.302 37.409-5.224-17.409-17.169-32.419-33.276-41.287zm-8.736-22.12c-1.781-1.842-3.784-3.465-5.97-4.824 8.966-13.989 24.181-23.286 40.905-24.663 8.752 9.803 15.032 21.853 17.848 35.172-16.016-8.64-35.101-10.814-52.783-5.685z" fill="#a798ff" data-original="#000000"/>
  </g>
</svg>
